%FSLAX25Y25*%
%MOIN*%
G70*
G01*
G75*
G04 Layer_Physical_Order=2*
G04 Layer_Color=16711680*
%ADD10C,0.02000*%
%ADD11C,0.01200*%
%ADD12C,0.03000*%
%ADD13R,0.06000X0.06000*%
%ADD14R,0.06496X0.11201*%
%ADD15O,0.05906X0.01654*%
%ADD16R,0.05906X0.01654*%
%ADD17C,0.01000*%
%ADD18C,0.01500*%
%ADD19R,0.05906X0.05906*%
%ADD20C,0.05906*%
%ADD21R,0.04724X0.04724*%
%ADD22C,0.04724*%
%ADD23R,0.05906X0.05906*%
%ADD24R,0.01598X0.04724*%
%ADD25O,0.01598X0.04724*%
G36*
X362451Y384549D02*
X115049D01*
Y385000D01*
Y480944D01*
X116056Y481951D01*
X362451D01*
Y384549D01*
D02*
G37*
%LPC*%
G36*
X356453Y462953D02*
X346547D01*
Y453047D01*
X349462D01*
X349559Y452557D01*
X349002Y452326D01*
X347968Y451532D01*
X347174Y450498D01*
X346675Y449293D01*
X346504Y448000D01*
X346675Y446707D01*
X347174Y445502D01*
X347968Y444468D01*
X349002Y443674D01*
X350025Y443250D01*
Y442750D01*
X349002Y442326D01*
X347968Y441532D01*
X347174Y440498D01*
X346675Y439293D01*
X346504Y438000D01*
X346675Y436707D01*
X347174Y435502D01*
X347968Y434468D01*
X349002Y433674D01*
X350025Y433250D01*
Y432750D01*
X349002Y432326D01*
X347968Y431532D01*
X347174Y430498D01*
X346675Y429293D01*
X346504Y428000D01*
X346675Y426707D01*
X347174Y425502D01*
X347968Y424468D01*
X349002Y423674D01*
X350025Y423250D01*
Y422750D01*
X349002Y422326D01*
X347968Y421532D01*
X347174Y420498D01*
X346675Y419293D01*
X346504Y418000D01*
X346675Y416707D01*
X347174Y415502D01*
X347968Y414468D01*
X349002Y413674D01*
X350207Y413175D01*
X351500Y413004D01*
X352793Y413175D01*
X353998Y413674D01*
X355032Y414468D01*
X355826Y415502D01*
X356325Y416707D01*
X356495Y418000D01*
X356325Y419293D01*
X355826Y420498D01*
X355032Y421532D01*
X353998Y422326D01*
X352975Y422750D01*
Y423250D01*
X353998Y423674D01*
X355032Y424468D01*
X355826Y425502D01*
X356325Y426707D01*
X356495Y428000D01*
X356325Y429293D01*
X355826Y430498D01*
X355032Y431532D01*
X353998Y432326D01*
X352975Y432750D01*
Y433250D01*
X353998Y433674D01*
X355032Y434468D01*
X355826Y435502D01*
X356325Y436707D01*
X356495Y438000D01*
X356325Y439293D01*
X355826Y440498D01*
X355032Y441532D01*
X353998Y442326D01*
X352975Y442750D01*
Y443250D01*
X353998Y443674D01*
X355032Y444468D01*
X355826Y445502D01*
X356325Y446707D01*
X356495Y448000D01*
X356325Y449293D01*
X355826Y450498D01*
X355032Y451532D01*
X353998Y452326D01*
X353441Y452557D01*
X353538Y453047D01*
X356453D01*
Y462953D01*
D02*
G37*
G36*
X352000Y411921D02*
Y408500D01*
X355421D01*
X355351Y409032D01*
X354953Y409993D01*
X354319Y410819D01*
X353493Y411453D01*
X352532Y411851D01*
X352000Y411921D01*
D02*
G37*
G36*
X351000D02*
X350468Y411851D01*
X349507Y411453D01*
X348681Y410819D01*
X348047Y409993D01*
X347649Y409032D01*
X347579Y408500D01*
X351000D01*
Y411921D01*
D02*
G37*
G36*
X123500Y420921D02*
X122968Y420851D01*
X122007Y420453D01*
X121181Y419819D01*
X120547Y418993D01*
X120149Y418032D01*
X120079Y417500D01*
X123500D01*
Y420921D01*
D02*
G37*
G36*
X127921Y416500D02*
X124500D01*
Y413079D01*
X125032Y413149D01*
X125993Y413547D01*
X126819Y414181D01*
X127453Y415007D01*
X127851Y415968D01*
X127921Y416500D01*
D02*
G37*
G36*
X123500D02*
X120079D01*
X120149Y415968D01*
X120547Y415007D01*
X121181Y414181D01*
X122007Y413547D01*
X122968Y413149D01*
X123500Y413079D01*
Y416500D01*
D02*
G37*
G36*
X355421Y407500D02*
X352000D01*
Y404079D01*
X352532Y404149D01*
X353493Y404547D01*
X354319Y405181D01*
X354953Y406007D01*
X355351Y406968D01*
X355421Y407500D01*
D02*
G37*
G36*
X128953Y411953D02*
X119047D01*
Y402047D01*
X128953D01*
Y411953D01*
D02*
G37*
G36*
X301325Y402000D02*
X298500D01*
Y399175D01*
X298878Y399224D01*
X299696Y399563D01*
X300398Y400102D01*
X300937Y400804D01*
X301276Y401622D01*
X301325Y402000D01*
D02*
G37*
G36*
X297500D02*
X294675D01*
X294724Y401622D01*
X295063Y400804D01*
X295602Y400102D01*
X296304Y399563D01*
X297122Y399224D01*
X297500Y399175D01*
Y402000D01*
D02*
G37*
G36*
X351000Y407500D02*
X347579D01*
X347649Y406968D01*
X348047Y406007D01*
X348681Y405181D01*
X349507Y404547D01*
X350468Y404149D01*
X351000Y404079D01*
Y407500D01*
D02*
G37*
G36*
X298500Y405825D02*
Y403000D01*
X301325D01*
X301276Y403378D01*
X300937Y404196D01*
X300398Y404898D01*
X299696Y405437D01*
X298878Y405776D01*
X298500Y405825D01*
D02*
G37*
G36*
X297500D02*
X297122Y405776D01*
X296304Y405437D01*
X295602Y404898D01*
X295063Y404196D01*
X294724Y403378D01*
X294675Y403000D01*
X297500D01*
Y405825D01*
D02*
G37*
G36*
X247500Y434918D02*
X246969Y434848D01*
X246008Y434450D01*
X245183Y433817D01*
X244550Y432992D01*
X244152Y432031D01*
X244082Y431500D01*
X247500D01*
Y434918D01*
D02*
G37*
G36*
X302362Y436862D02*
X293638D01*
Y428138D01*
X302362D01*
Y436862D01*
D02*
G37*
G36*
X184953Y480979D02*
X141453D01*
X140670Y480876D01*
X139940Y480573D01*
X139668Y480365D01*
X139313Y480092D01*
X139313Y480092D01*
X130360Y471140D01*
X129879Y470513D01*
X129791Y470299D01*
X129577Y469783D01*
X129474Y469000D01*
Y462000D01*
X129577Y461217D01*
X129791Y460701D01*
X129879Y460487D01*
X130360Y459860D01*
X133860Y456360D01*
X134487Y455879D01*
X134852Y455728D01*
X135217Y455577D01*
X135308Y455565D01*
X136000Y455474D01*
X136000Y455474D01*
X141390D01*
X141588Y454996D01*
X141004Y454548D01*
X140555Y453963D01*
X140273Y453282D01*
X140177Y452551D01*
Y452011D01*
X140077Y451771D01*
X139974Y450988D01*
X140077Y450205D01*
X140177Y449965D01*
Y449425D01*
X140273Y448695D01*
X140555Y448013D01*
X141004Y447429D01*
X141588Y446980D01*
X142269Y446698D01*
X143000Y446602D01*
X143731Y446698D01*
X144412Y446980D01*
X144996Y447429D01*
X145250Y447759D01*
X145750D01*
X146004Y447429D01*
X146588Y446980D01*
X147269Y446698D01*
X148000Y446602D01*
X148731Y446698D01*
X149412Y446980D01*
X149996Y447429D01*
X150323Y447450D01*
X154287Y443486D01*
X154287Y443486D01*
X154559Y443278D01*
X154913Y443006D01*
X155643Y442703D01*
X156426Y442600D01*
X156426Y442600D01*
X167626D01*
X168409Y442703D01*
X168925Y442917D01*
X169139Y443006D01*
X169766Y443486D01*
X173827Y447547D01*
X179453D01*
Y449474D01*
X180579D01*
X180968Y448968D01*
X182002Y448174D01*
X183207Y447675D01*
X184500Y447505D01*
X185793Y447675D01*
X186998Y448174D01*
X188032Y448968D01*
X188421Y449474D01*
X190579D01*
X190968Y448968D01*
X192002Y448174D01*
X193207Y447675D01*
X194500Y447505D01*
X195793Y447675D01*
X196998Y448174D01*
X198032Y448968D01*
X198826Y450002D01*
X199250Y451025D01*
X199750D01*
X200174Y450002D01*
X200968Y448968D01*
X202002Y448174D01*
X203207Y447675D01*
X204500Y447505D01*
X205793Y447675D01*
X206998Y448174D01*
X208032Y448968D01*
X208826Y450002D01*
X209325Y451207D01*
X209495Y452500D01*
X209325Y453793D01*
X208826Y454998D01*
X208032Y456032D01*
X206998Y456826D01*
X205793Y457325D01*
X204500Y457495D01*
X203867Y457412D01*
X201267Y460012D01*
X201458Y460474D01*
X202500D01*
X203283Y460577D01*
X203799Y460791D01*
X204013Y460880D01*
X204640Y461360D01*
X207640Y464360D01*
X208120Y464987D01*
X208209Y465201D01*
X208423Y465717D01*
X208526Y466500D01*
Y467047D01*
X210453D01*
Y476953D01*
X200547D01*
Y474039D01*
X200057Y473941D01*
X199826Y474498D01*
X199032Y475532D01*
X197998Y476326D01*
X196793Y476825D01*
X195500Y476996D01*
X194207Y476825D01*
X193002Y476326D01*
X191968Y475532D01*
X191672Y475513D01*
X187092Y480092D01*
X186466Y480573D01*
X186252Y480662D01*
X185736Y480876D01*
X184953Y480979D01*
D02*
G37*
G36*
X248500Y434918D02*
Y431500D01*
X251918D01*
X251848Y432031D01*
X251450Y432992D01*
X250817Y433817D01*
X249992Y434450D01*
X249031Y434848D01*
X248500Y434918D01*
D02*
G37*
G36*
X124000Y461996D02*
X122707Y461825D01*
X121502Y461326D01*
X120468Y460532D01*
X119674Y459498D01*
X119175Y458293D01*
X119004Y457000D01*
X119175Y455707D01*
X119674Y454502D01*
X120468Y453468D01*
X121502Y452674D01*
X122525Y452250D01*
Y451750D01*
X121502Y451326D01*
X120468Y450532D01*
X119674Y449498D01*
X119175Y448293D01*
X119004Y447000D01*
X119175Y445707D01*
X119674Y444502D01*
X120468Y443468D01*
X121502Y442674D01*
X122525Y442250D01*
Y441750D01*
X121502Y441326D01*
X120468Y440532D01*
X119674Y439498D01*
X119175Y438293D01*
X119004Y437000D01*
X119175Y435707D01*
X119674Y434502D01*
X120468Y433468D01*
X121502Y432674D01*
X122525Y432250D01*
Y431750D01*
X121502Y431326D01*
X120468Y430532D01*
X119674Y429498D01*
X119175Y428293D01*
X119004Y427000D01*
X119175Y425707D01*
X119674Y424502D01*
X120468Y423468D01*
X121502Y422674D01*
X122707Y422175D01*
X124000Y422005D01*
X125293Y422175D01*
X126498Y422674D01*
X127532Y423468D01*
X128326Y424502D01*
X128825Y425707D01*
X128996Y427000D01*
X128825Y428293D01*
X128326Y429498D01*
X127532Y430532D01*
X126498Y431326D01*
X125475Y431750D01*
Y432250D01*
X126498Y432674D01*
X127532Y433468D01*
X128326Y434502D01*
X128825Y435707D01*
X128996Y437000D01*
X128825Y438293D01*
X128326Y439498D01*
X127532Y440532D01*
X126498Y441326D01*
X125475Y441750D01*
Y442250D01*
X126498Y442674D01*
X127532Y443468D01*
X128326Y444502D01*
X128825Y445707D01*
X128996Y447000D01*
X128825Y448293D01*
X128326Y449498D01*
X127532Y450532D01*
X126498Y451326D01*
X125475Y451750D01*
Y452250D01*
X126498Y452674D01*
X127532Y453468D01*
X128326Y454502D01*
X128825Y455707D01*
X128996Y457000D01*
X128825Y458293D01*
X128326Y459498D01*
X127532Y460532D01*
X126498Y461326D01*
X125293Y461825D01*
X124000Y461996D01*
D02*
G37*
G36*
X124500Y420921D02*
Y417500D01*
X127921D01*
X127851Y418032D01*
X127453Y418993D01*
X126819Y419819D01*
X125993Y420453D01*
X125032Y420851D01*
X124500Y420921D01*
D02*
G37*
G36*
X251918Y430500D02*
X248500D01*
Y427082D01*
X249031Y427152D01*
X249992Y427550D01*
X250817Y428183D01*
X251450Y429008D01*
X251848Y429969D01*
X251918Y430500D01*
D02*
G37*
G36*
X247500D02*
X244082D01*
X244152Y429969D01*
X244550Y429008D01*
X245183Y428183D01*
X246008Y427550D01*
X246969Y427152D01*
X247500Y427082D01*
Y430500D01*
D02*
G37*
%LPD*%
G36*
X181174Y474498D02*
X180675Y473293D01*
X180505Y472000D01*
X180675Y470707D01*
X181174Y469502D01*
X181968Y468468D01*
X183002Y467674D01*
X184207Y467175D01*
X185346Y467025D01*
X185313Y466526D01*
X162253D01*
X160823Y467956D01*
Y468063D01*
X160727Y468794D01*
X160445Y469475D01*
X159996Y470059D01*
X159412Y470508D01*
X158731Y470790D01*
X158000Y470886D01*
X157269Y470790D01*
X156588Y470508D01*
X156004Y470059D01*
X155750Y469729D01*
X155250D01*
X154996Y470059D01*
X154412Y470508D01*
X153731Y470790D01*
X153000Y470886D01*
X152269Y470790D01*
X151588Y470508D01*
X151004Y470059D01*
X150750Y469729D01*
X150250D01*
X149996Y470059D01*
X149412Y470508D01*
X148731Y470790D01*
X148000Y470886D01*
X147269Y470790D01*
X146588Y470508D01*
X146004Y470059D01*
X145555Y469475D01*
X145290Y468834D01*
X144799Y468932D01*
Y469862D01*
X143500D01*
Y466500D01*
X143000D01*
Y466000D01*
X141201D01*
Y463138D01*
X142109D01*
X142301Y462676D01*
X141151Y461526D01*
X137253D01*
X135526Y463253D01*
Y467747D01*
X142706Y474927D01*
X172198D01*
X172419Y474478D01*
X172047Y473993D01*
X171649Y473032D01*
X171579Y472500D01*
X179421D01*
X179351Y473032D01*
X178953Y473993D01*
X178581Y474478D01*
X178802Y474927D01*
X180962D01*
X181174Y474498D01*
D02*
G37*
G36*
X156004Y462941D02*
X156588Y462492D01*
X157269Y462210D01*
X158000Y462114D01*
X158095Y462126D01*
X158860Y461360D01*
X159487Y460880D01*
X159701Y460791D01*
X160217Y460577D01*
X161000Y460474D01*
X162553D01*
X162745Y460012D01*
X158095Y455362D01*
X158000Y455374D01*
X157269Y455278D01*
X156588Y454996D01*
X156004Y454548D01*
X155750Y454217D01*
X155250D01*
X154996Y454548D01*
X154412Y454996D01*
X153731Y455278D01*
X153000Y455374D01*
X152269Y455278D01*
X151588Y454996D01*
X151004Y454548D01*
X150750Y454217D01*
X150250D01*
X149996Y454548D01*
X149412Y454996D01*
X148731Y455278D01*
X148000Y455374D01*
X147269Y455278D01*
X146588Y454996D01*
X146004Y454548D01*
X145750Y454217D01*
X145250D01*
X144996Y454548D01*
X144412Y454996D01*
X143731Y455278D01*
X143728Y455279D01*
X143663Y455774D01*
X143917Y455879D01*
X144544Y456360D01*
X151072Y462888D01*
X151588Y462492D01*
X152269Y462210D01*
X153000Y462114D01*
X153731Y462210D01*
X154412Y462492D01*
X154996Y462941D01*
X155250Y463271D01*
X155750D01*
X156004Y462941D01*
D02*
G37*
G36*
X169547Y451826D02*
X166373Y448652D01*
X161101D01*
X160771Y449028D01*
X160823Y449425D01*
Y449532D01*
X167765Y456474D01*
X169547D01*
Y451826D01*
D02*
G37*
%LPC*%
G36*
X179421Y471500D02*
X176000D01*
Y468079D01*
X176532Y468149D01*
X177493Y468547D01*
X178319Y469181D01*
X178953Y470007D01*
X179351Y470968D01*
X179421Y471500D01*
D02*
G37*
G36*
X142500Y469862D02*
X141201D01*
Y467000D01*
X142500D01*
Y469862D01*
D02*
G37*
G36*
X175000Y471500D02*
X171579D01*
X171649Y470968D01*
X172047Y470007D01*
X172681Y469181D01*
X173507Y468547D01*
X174468Y468149D01*
X175000Y468079D01*
Y471500D01*
D02*
G37*
%LPD*%
D10*
X147748Y463844D02*
G03*
X148201Y464937I-1093J1093D01*
G01*
X175881Y453881D02*
G03*
X179214Y452500I3334J3334D01*
G01*
D02*
G03*
X175881Y451119I0J-4714D01*
G01*
X174119Y470619D02*
G03*
X171118Y471862I-3001J-3001D01*
G01*
X170453D02*
G03*
X174119Y473381I0J5185D01*
G01*
X186881D02*
G03*
X190214Y472000I3334J3334D01*
G01*
D02*
G03*
X186881Y470619I0J-4714D01*
G01*
X206881D02*
G03*
X205500Y467286I3334J-3334D01*
G01*
D02*
G03*
X204119Y470619I-4714J0D01*
G01*
X158000Y466500D02*
X161000Y463500D01*
X202500D01*
X205500Y466500D01*
Y472000D01*
X150000Y466500D02*
X153000D01*
X143000Y468436D02*
X146426Y471862D01*
X175362D01*
X175500Y472000D01*
X150000Y466096D02*
Y466500D01*
X136000Y458500D02*
X142404D01*
X132500Y462000D02*
X136000Y458500D01*
X132500Y462000D02*
Y469000D01*
X141453Y477953D01*
X184953D01*
X185500Y472000D02*
X190905D01*
X142404Y458500D02*
X150000Y466096D01*
X184953Y477953D02*
X190905Y472000D01*
X143000Y450988D02*
X148000D01*
X158000D02*
X166512Y459500D01*
X197500D01*
X204500Y452500D01*
X148000Y450988D02*
X151064D01*
X156426Y445626D02*
X167626D01*
X174500Y452500D01*
X151064Y450988D02*
X156426Y445626D01*
X174500Y452500D02*
X184500D01*
X194500D01*
X143000Y466500D02*
Y468436D01*
D19*
X351500Y458000D02*
D03*
X124000Y407000D02*
D03*
D20*
X351500Y448000D02*
D03*
Y438000D02*
D03*
Y428000D02*
D03*
Y418000D02*
D03*
Y408000D02*
D03*
X124000Y417000D02*
D03*
Y427000D02*
D03*
Y437000D02*
D03*
Y447000D02*
D03*
Y457000D02*
D03*
X195500Y472000D02*
D03*
X185500D02*
D03*
X175500D02*
D03*
X184500Y452500D02*
D03*
X194500D02*
D03*
X204500D02*
D03*
D21*
X298000Y432500D02*
D03*
D22*
Y402500D02*
D03*
D23*
X205500Y472000D02*
D03*
X174500Y452500D02*
D03*
D24*
X143000Y466500D02*
D03*
D25*
X148000D02*
D03*
X153000D02*
D03*
X158000D02*
D03*
X143000Y450988D02*
D03*
X148000D02*
D03*
X153000D02*
D03*
X158000D02*
D03*
M02*
