%FSLAX25Y25*%
%MOIN*%
G70*
G01*
G75*
%ADD10C,0.02000*%
%ADD11C,0.01200*%
%ADD12C,0.03000*%
%ADD13R,0.06000X0.06000*%
%ADD14R,0.06496X0.11201*%
%ADD15O,0.05906X0.01654*%
%ADD16R,0.05906X0.01654*%
%ADD17C,0.01000*%
%ADD18C,0.01500*%
%ADD19R,0.05906X0.05906*%
%ADD20C,0.05906*%
%ADD21R,0.04724X0.04724*%
%ADD22C,0.04724*%
%ADD23R,0.05906X0.05906*%
%ADD24R,0.01598X0.04724*%
%ADD25O,0.01598X0.04724*%
%ADD26C,0.00787*%
%ADD27C,0.00591*%
D17*
X237250Y459500D02*
X257750D01*
Y475000D01*
X237250D02*
X257750D01*
X237250Y459500D02*
Y467500D01*
Y475000D01*
X238400Y444200D02*
Y450198D01*
X241399D01*
X242399Y449198D01*
Y447199D01*
X241399Y446199D01*
X238400D01*
X240399D02*
X242399Y444200D01*
X247397D02*
X245398D01*
X244398Y445200D01*
Y447199D01*
X245398Y448199D01*
X247397D01*
X248397Y447199D01*
Y446199D01*
X244398D01*
X252396Y442201D02*
X253395D01*
X254395Y443200D01*
Y448199D01*
X251396D01*
X250396Y447199D01*
Y445200D01*
X251396Y444200D01*
X254395D01*
X256394Y448199D02*
Y445200D01*
X257394Y444200D01*
X260393D01*
Y448199D01*
X263392D02*
X265391D01*
X266391Y447199D01*
Y444200D01*
X263392D01*
X262392Y445200D01*
X263392Y446199D01*
X266391D01*
X268390Y444200D02*
X270390D01*
X269390D01*
Y450198D01*
X268390D01*
X274388Y449198D02*
Y448199D01*
X273389D01*
X275388D01*
X274388D01*
Y445200D01*
X275388Y444200D01*
X279387D02*
X281386D01*
X282386Y445200D01*
Y447199D01*
X281386Y448199D01*
X279387D01*
X278387Y447199D01*
Y445200D01*
X279387Y444200D01*
X284385Y448199D02*
Y444200D01*
Y446199D01*
X285385Y447199D01*
X286385Y448199D01*
X287384D01*
X347100Y466400D02*
Y472398D01*
X350099D01*
X351099Y471398D01*
Y469399D01*
X350099Y468399D01*
X347100D01*
X357097Y466400D02*
X353098D01*
X357097Y470399D01*
Y471398D01*
X356097Y472398D01*
X354098D01*
X353098Y471398D01*
X119650Y465350D02*
Y471348D01*
X122649D01*
X123649Y470348D01*
Y468349D01*
X122649Y467349D01*
X119650D01*
X125648Y465350D02*
X127647D01*
X126648D01*
Y471348D01*
X125648Y470348D01*
X272599Y461998D02*
X271599Y462998D01*
X269600D01*
X268600Y461998D01*
Y458000D01*
X269600Y457000D01*
X271599D01*
X272599Y458000D01*
X274598Y457000D02*
X276597D01*
X275598D01*
Y462998D01*
X274598Y461998D01*
X235900Y482498D02*
X239899Y478500D01*
X235900D02*
X239899Y482498D01*
X235900Y480499D02*
X239899D01*
X237899Y478500D02*
Y482498D01*
X171100Y480400D02*
Y486398D01*
X174099D01*
X175099Y485398D01*
Y483399D01*
X174099Y482399D01*
X171100D01*
X177098Y485398D02*
X178098Y486398D01*
X180097D01*
X181097Y485398D01*
Y484399D01*
X180097Y483399D01*
X179097D01*
X180097D01*
X181097Y482399D01*
Y481400D01*
X180097Y480400D01*
X178098D01*
X177098Y481400D01*
X170100Y460900D02*
Y466898D01*
X173099D01*
X174099Y465898D01*
Y463899D01*
X173099Y462899D01*
X170100D01*
X179097Y460900D02*
Y466898D01*
X176098Y463899D01*
X180097D01*
D26*
X328000Y417500D02*
G03*
X328000Y417500I-30000J0D01*
G01*
X247325Y438779D02*
G03*
X248604Y438779I640J0D01*
G01*
X346500Y403000D02*
X356500D01*
X346500Y463000D02*
X356500D01*
Y403000D02*
Y463000D01*
X346500Y403000D02*
Y463000D01*
X119000Y462000D02*
X129000D01*
X119000Y402000D02*
X129000D01*
X119000D02*
Y462000D01*
X129000Y402000D02*
Y462000D01*
X170500Y467000D02*
Y477000D01*
X210500D01*
X170500Y467000D02*
X210500D01*
Y477000D01*
X209500Y447500D02*
Y457500D01*
X169500Y447500D02*
X209500D01*
X169500Y457500D02*
X209500D01*
X169500Y447500D02*
Y457500D01*
X242500Y423425D02*
Y438779D01*
Y423425D02*
X253500D01*
Y438779D01*
X248604D02*
X253500D01*
X242500D02*
X247325D01*
D27*
X297949Y449515D02*
Y453451D01*
X295981Y451483D02*
X299917D01*
M02*
