%FSLAX25Y25*%
%MOIN*%
G70*
G01*
G75*
G04 Layer_Color=8388736*
%ADD10C,0.02000*%
%ADD11C,0.01200*%
%ADD12C,0.03000*%
%ADD13R,0.06000X0.06000*%
%ADD14R,0.06496X0.11201*%
%ADD15O,0.05906X0.01654*%
%ADD16R,0.05906X0.01654*%
%ADD17C,0.01000*%
%ADD18C,0.01500*%
%ADD19R,0.05906X0.05906*%
%ADD20C,0.05906*%
%ADD21R,0.04724X0.04724*%
%ADD22C,0.04724*%
%ADD23R,0.05906X0.05906*%
%ADD24R,0.01598X0.04724*%
%ADD25O,0.01598X0.04724*%
%ADD26C,0.00787*%
%ADD27C,0.00591*%
%ADD28R,0.06800X0.06800*%
%ADD29R,0.07296X0.12001*%
%ADD30O,0.06706X0.02454*%
%ADD31R,0.06706X0.02454*%
%ADD32R,0.06706X0.06706*%
%ADD33C,0.06706*%
%ADD34R,0.05524X0.05524*%
%ADD35C,0.05524*%
%ADD36R,0.06706X0.06706*%
D28*
X238250Y467500D02*
D03*
X256750D02*
D03*
D29*
X248000Y431000D02*
D03*
D30*
X256429Y424705D02*
D03*
Y427264D02*
D03*
Y429823D02*
D03*
Y432382D02*
D03*
Y434941D02*
D03*
Y437500D02*
D03*
X239500Y424705D02*
D03*
Y427264D02*
D03*
Y429823D02*
D03*
Y432382D02*
D03*
Y434941D02*
D03*
D31*
Y437500D02*
D03*
D32*
X351500Y458000D02*
D03*
X124000Y407000D02*
D03*
D33*
X351500Y448000D02*
D03*
Y438000D02*
D03*
Y428000D02*
D03*
Y418000D02*
D03*
Y408000D02*
D03*
X124000Y417000D02*
D03*
Y427000D02*
D03*
Y437000D02*
D03*
Y447000D02*
D03*
Y457000D02*
D03*
X195500Y472000D02*
D03*
X185500D02*
D03*
X175500D02*
D03*
X184500Y452500D02*
D03*
X194500D02*
D03*
X204500D02*
D03*
D34*
X298000Y432500D02*
D03*
D35*
Y402500D02*
D03*
D36*
X205500Y472000D02*
D03*
X174500Y452500D02*
D03*
M02*
