G04 Layer_Physical_Order=1*
G04 Layer_Color=255*
%FSLAX25Y25*%
%MOIN*%
G70*
G01*
G75*
%ADD10O,0.07874X0.01181*%
%ADD11R,0.07874X0.01181*%
%ADD12C,0.03000*%
%ADD13C,0.01000*%
%ADD14C,0.01200*%
%ADD15C,0.05906*%
%ADD16R,0.05906X0.05906*%
G36*
X13721Y42873D02*
X13572Y42702D01*
X13438Y42507D01*
X13321Y42285D01*
X13219Y42039D01*
X13135Y41767D01*
X13066Y41470D01*
X13013Y41148D01*
X12977Y40800D01*
X12953Y40029D01*
X10029Y42953D01*
X10428Y42957D01*
X11148Y43013D01*
X11470Y43066D01*
X11767Y43134D01*
X12039Y43220D01*
X12285Y43321D01*
X12506Y43438D01*
X12702Y43572D01*
X12873Y43721D01*
X13721Y42873D01*
D02*
G37*
G36*
X55642Y39139D02*
X55684Y39131D01*
X55744Y39124D01*
X56036Y39110D01*
X56687Y39102D01*
Y38102D01*
X55619Y38057D01*
Y39147D01*
X55642Y39139D01*
D02*
G37*
G36*
X26428Y38057D02*
X26405Y38066D01*
X26364Y38074D01*
X26303Y38080D01*
X26011Y38095D01*
X25361Y38102D01*
Y39102D01*
X26428Y39147D01*
Y38057D01*
D02*
G37*
G36*
X55687Y41667D02*
X55768Y41632D01*
X55861Y41601D01*
X55967Y41574D01*
X56085Y41552D01*
X56359Y41519D01*
X56514Y41508D01*
X56863Y41500D01*
X56951Y40500D01*
X56667Y40501D01*
X55617Y40574D01*
X55601Y40594D01*
X55619Y40616D01*
Y41706D01*
X55687Y41667D01*
D02*
G37*
G36*
X55642Y44257D02*
X55684Y44249D01*
X55744Y44242D01*
X56036Y44228D01*
X56687Y44220D01*
Y43220D01*
X55619Y43175D01*
Y44265D01*
X55642Y44257D01*
D02*
G37*
G36*
X26428Y43175D02*
X26405Y43184D01*
X26364Y43192D01*
X26303Y43198D01*
X26011Y43213D01*
X25361Y43220D01*
Y44220D01*
X26428Y44265D01*
Y43175D01*
D02*
G37*
G36*
Y40616D02*
X26405Y40625D01*
X26364Y40633D01*
X26303Y40639D01*
X26011Y40654D01*
X25361Y40661D01*
Y41661D01*
X26428Y41706D01*
Y40616D01*
D02*
G37*
G36*
X67891Y37933D02*
X67607Y38212D01*
X67058Y38681D01*
X66793Y38872D01*
X66534Y39033D01*
X66282Y39165D01*
X66036Y39268D01*
X65797Y39341D01*
X65564Y39385D01*
X65337Y39400D01*
Y40600D01*
X65564Y40615D01*
X65797Y40659D01*
X66036Y40732D01*
X66282Y40835D01*
X66534Y40967D01*
X66793Y41128D01*
X67058Y41319D01*
X67329Y41539D01*
X67891Y42067D01*
Y37933D01*
D02*
G37*
G36*
X12393Y21788D02*
X12943Y21319D01*
X13207Y21128D01*
X13466Y20967D01*
X13718Y20835D01*
X13964Y20732D01*
X14203Y20659D01*
X14436Y20615D01*
X14663Y20600D01*
Y19400D01*
X14436Y19385D01*
X14203Y19341D01*
X13964Y19268D01*
X13718Y19165D01*
X13466Y19033D01*
X13207Y18872D01*
X12943Y18681D01*
X12671Y18461D01*
X12109Y17933D01*
Y22067D01*
X12393Y21788D01*
D02*
G37*
G36*
X67298Y13572D02*
X67493Y13438D01*
X67715Y13321D01*
X67961Y13219D01*
X68233Y13135D01*
X68530Y13066D01*
X68852Y13013D01*
X69200Y12977D01*
X69971Y12953D01*
X67047Y10029D01*
X67043Y10428D01*
X66987Y11148D01*
X66934Y11470D01*
X66865Y11767D01*
X66781Y12039D01*
X66679Y12285D01*
X66562Y12506D01*
X66428Y12702D01*
X66279Y12873D01*
X67127Y13721D01*
X67298Y13572D01*
D02*
G37*
G36*
X12231Y11959D02*
X12375Y11863D01*
X12541Y11778D01*
X12728Y11704D01*
X12938Y11642D01*
X13170Y11591D01*
X13423Y11551D01*
X13699Y11523D01*
X14315Y11500D01*
Y8500D01*
X13996Y8494D01*
X13423Y8449D01*
X13170Y8409D01*
X12938Y8358D01*
X12728Y8296D01*
X12541Y8222D01*
X12375Y8137D01*
X12231Y8041D01*
X12109Y7933D01*
Y12067D01*
X12231Y11959D01*
D02*
G37*
G36*
X67298Y23572D02*
X67493Y23438D01*
X67715Y23321D01*
X67961Y23220D01*
X68233Y23134D01*
X68530Y23066D01*
X68852Y23013D01*
X69200Y22977D01*
X69971Y22953D01*
X67047Y20030D01*
X67043Y20428D01*
X66987Y21148D01*
X66934Y21470D01*
X66865Y21767D01*
X66781Y22039D01*
X66679Y22285D01*
X66562Y22506D01*
X66428Y22702D01*
X66279Y22873D01*
X67127Y23721D01*
X67298Y23572D01*
D02*
G37*
G36*
X52952Y35455D02*
X52867Y35425D01*
X52792Y35374D01*
X52727Y35303D01*
X52672Y35212D01*
X52627Y35101D01*
X52592Y34969D01*
X52567Y34818D01*
X52552Y34646D01*
X52547Y34453D01*
X51547D01*
X51542Y34646D01*
X51527Y34818D01*
X51502Y34969D01*
X51467Y35101D01*
X51422Y35212D01*
X51367Y35303D01*
X51302Y35374D01*
X51227Y35425D01*
X51142Y35455D01*
X51047Y35465D01*
X53047D01*
X52952Y35455D01*
D02*
G37*
G36*
X14049Y32201D02*
X13921Y32055D01*
X13794Y31878D01*
X13671Y31669D01*
X13550Y31429D01*
X13431Y31156D01*
X13201Y30517D01*
X12980Y29752D01*
X12874Y29322D01*
X10736Y32860D01*
X11088Y32780D01*
X11422Y32727D01*
X11737Y32700D01*
X12033Y32701D01*
X12310Y32728D01*
X12569Y32781D01*
X12809Y32862D01*
X13030Y32969D01*
X13232Y33103D01*
X13415Y33263D01*
X14049Y32201D01*
D02*
G37*
G36*
X67298Y33572D02*
X67493Y33438D01*
X67715Y33321D01*
X67961Y33220D01*
X68233Y33134D01*
X68530Y33066D01*
X68852Y33013D01*
X69200Y32977D01*
X69971Y32953D01*
X67047Y30029D01*
X67043Y30428D01*
X66987Y31148D01*
X66934Y31470D01*
X66865Y31767D01*
X66781Y32039D01*
X66679Y32285D01*
X66562Y32506D01*
X66428Y32702D01*
X66279Y32873D01*
X67127Y33721D01*
X67298Y33572D01*
D02*
G37*
G36*
X26428Y45735D02*
X26405Y45743D01*
X26364Y45751D01*
X26303Y45758D01*
X26011Y45772D01*
X25361Y45780D01*
Y46780D01*
X26428Y46825D01*
Y45735D01*
D02*
G37*
G36*
X69971Y57047D02*
X69572Y57043D01*
X68852Y56987D01*
X68530Y56934D01*
X68233Y56866D01*
X67961Y56780D01*
X67715Y56679D01*
X67493Y56562D01*
X67298Y56428D01*
X67127Y56279D01*
X66279Y57127D01*
X66428Y57298D01*
X66562Y57494D01*
X66679Y57715D01*
X66781Y57961D01*
X66865Y58233D01*
X66934Y58530D01*
X66987Y58852D01*
X67023Y59200D01*
X67047Y59970D01*
X69971Y57047D01*
D02*
G37*
G36*
X12957Y59572D02*
X13013Y58852D01*
X13066Y58530D01*
X13135Y58233D01*
X13219Y57961D01*
X13321Y57715D01*
X13438Y57494D01*
X13572Y57298D01*
X13721Y57127D01*
X12873Y56279D01*
X12702Y56428D01*
X12506Y56562D01*
X12285Y56679D01*
X12039Y56780D01*
X11767Y56866D01*
X11470Y56934D01*
X11148Y56987D01*
X10801Y57023D01*
X10029Y57047D01*
X12953Y59970D01*
X12957Y59572D01*
D02*
G37*
G36*
X30505Y55343D02*
X30520Y55171D01*
X30545Y55019D01*
X30580Y54888D01*
X30625Y54776D01*
X30680Y54685D01*
X30745Y54614D01*
X30820Y54564D01*
X30905Y54533D01*
X31000Y54523D01*
X29000D01*
X29095Y54533D01*
X29180Y54564D01*
X29255Y54614D01*
X29320Y54685D01*
X29375Y54776D01*
X29420Y54888D01*
X29455Y55019D01*
X29480Y55171D01*
X29495Y55343D01*
X29500Y55535D01*
X30500D01*
X30505Y55343D01*
D02*
G37*
G36*
X12957Y69572D02*
X13013Y68852D01*
X13066Y68530D01*
X13135Y68233D01*
X13219Y67961D01*
X13321Y67715D01*
X13438Y67493D01*
X13572Y67298D01*
X13721Y67127D01*
X12873Y66279D01*
X12702Y66428D01*
X12506Y66562D01*
X12285Y66679D01*
X12039Y66781D01*
X11767Y66865D01*
X11470Y66934D01*
X11148Y66987D01*
X10801Y67023D01*
X10029Y67047D01*
X12953Y69971D01*
X12957Y69572D01*
D02*
G37*
G36*
X67059Y80500D02*
X70000D01*
Y79500D01*
X67059D01*
Y77059D01*
X67029Y77333D01*
X66939Y77578D01*
X66789Y77794D01*
X66579Y77981D01*
X66309Y78140D01*
X66047Y78243D01*
Y76905D01*
X65560Y76644D01*
X64349Y75651D01*
X63355Y74440D01*
X62617Y73058D01*
X62162Y71559D01*
X62044Y70354D01*
X62007Y70129D01*
X62002Y69990D01*
X55506Y63494D01*
X54608Y62324D01*
X54044Y60962D01*
X53852Y59500D01*
X53852Y59500D01*
Y57036D01*
X48701D01*
X47241Y56844D01*
X45881Y56281D01*
X44714Y55385D01*
X43817Y54217D01*
X43254Y52857D01*
X43062Y51398D01*
X43230Y50118D01*
X43062Y48839D01*
X43230Y47559D01*
X43062Y46280D01*
X43230Y45000D01*
X43062Y43720D01*
X43230Y42441D01*
X43062Y41161D01*
X43230Y39882D01*
X43062Y38602D01*
X43230Y37323D01*
X43062Y36043D01*
X43254Y34584D01*
X43817Y33224D01*
X44714Y32056D01*
X45881Y31160D01*
X46399Y30946D01*
Y27953D01*
X46399Y27953D01*
X46591Y26491D01*
X47156Y25129D01*
X48053Y23959D01*
X62004Y10008D01*
X62005Y9979D01*
X62025Y9833D01*
X62162Y8441D01*
X62617Y6942D01*
X63095Y6047D01*
X62796Y5547D01*
X30438D01*
X30246Y6009D01*
X34618Y10382D01*
X35431Y11371D01*
X36034Y12501D01*
X36406Y13726D01*
X36531Y15000D01*
Y31440D01*
X37334Y32056D01*
X38230Y33224D01*
X38793Y34584D01*
X38985Y36043D01*
X38817Y37323D01*
X38985Y38602D01*
X38817Y39882D01*
X38985Y41161D01*
X38817Y42441D01*
X38985Y43720D01*
X38817Y45000D01*
X38985Y46280D01*
X38817Y47559D01*
X38923Y48366D01*
X38937D01*
Y48472D01*
X38985Y48839D01*
X38937Y49205D01*
Y51031D01*
X38985Y51398D01*
X38937Y51764D01*
Y59547D01*
X35744D01*
X35648Y60000D01*
X35456Y61462D01*
X34892Y62824D01*
X33994Y63994D01*
X33994Y63994D01*
X17953Y80035D01*
Y81453D01*
X64059D01*
Y81500D01*
X64629Y81514D01*
X65139Y81558D01*
X65589Y81630D01*
X65979Y81731D01*
X66309Y81860D01*
X66579Y82019D01*
X66789Y82206D01*
X66939Y82422D01*
X67029Y82667D01*
X67059Y82941D01*
Y80500D01*
D02*
G37*
G36*
X12873Y78663D02*
X12839Y78553D01*
Y78425D01*
X12873Y78281D01*
X12941Y78120D01*
X13043Y77942D01*
X13178Y77747D01*
X13348Y77534D01*
X13789Y77059D01*
X12941Y76211D01*
X12695Y76448D01*
X12253Y76822D01*
X12058Y76957D01*
X11880Y77059D01*
X11719Y77127D01*
X11575Y77161D01*
X11447D01*
X11337Y77127D01*
X11244Y77059D01*
X12941Y78756D01*
X12873Y78663D01*
D02*
G37*
G36*
X69971Y67047D02*
X69572Y67043D01*
X68852Y66987D01*
X68530Y66934D01*
X68233Y66865D01*
X67961Y66781D01*
X67715Y66679D01*
X67493Y66562D01*
X67298Y66428D01*
X67127Y66279D01*
X66279Y67127D01*
X66428Y67298D01*
X66562Y67493D01*
X66679Y67715D01*
X66781Y67961D01*
X66865Y68233D01*
X66934Y68530D01*
X66987Y68852D01*
X67023Y69200D01*
X67047Y69971D01*
X69971Y67047D01*
D02*
G37*
G36*
X52553Y55905D02*
X52569Y55820D01*
X52596Y55745D01*
X52634Y55680D01*
X52683Y55625D01*
X52743Y55580D01*
X52813Y55545D01*
X52895Y55520D01*
X52987Y55505D01*
X53090Y55500D01*
X52747Y55171D01*
X53063Y54933D01*
X53090Y55000D01*
Y55500D01*
X53438Y54651D01*
X53444Y54646D01*
X53441Y54643D01*
X53484Y54538D01*
X53505Y54536D01*
X53544Y54535D01*
X53486D01*
X53500Y54500D01*
X53455Y54493D01*
X53399Y54472D01*
X53333Y54436D01*
X53257Y54387D01*
X52727Y53927D01*
X52590Y53793D01*
X52898Y54535D01*
X52083D01*
X52047Y54500D01*
X51995Y54535D01*
X51730D01*
X51773Y54542D01*
X51827Y54563D01*
X51891Y54599D01*
X51894Y54602D01*
X50547Y55500D01*
X50737Y55505D01*
X50907Y55520D01*
X51057Y55545D01*
X51187Y55580D01*
X51297Y55625D01*
X51387Y55680D01*
X51457Y55745D01*
X51507Y55820D01*
X51537Y55905D01*
X51547Y56000D01*
X52547D01*
X52553Y55905D01*
D02*
G37*
G36*
X67891Y47933D02*
X67607Y48212D01*
X67058Y48681D01*
X66793Y48872D01*
X66534Y49033D01*
X66282Y49165D01*
X66036Y49268D01*
X65797Y49341D01*
X65564Y49385D01*
X65337Y49400D01*
Y50600D01*
X65564Y50615D01*
X65797Y50659D01*
X66036Y50732D01*
X66282Y50835D01*
X66534Y50967D01*
X66793Y51128D01*
X67058Y51319D01*
X67329Y51539D01*
X67891Y52067D01*
Y47933D01*
D02*
G37*
G36*
X12957Y49572D02*
X13013Y48852D01*
X13066Y48530D01*
X13135Y48233D01*
X13219Y47961D01*
X13321Y47715D01*
X13438Y47493D01*
X13572Y47298D01*
X13721Y47127D01*
X12873Y46279D01*
X12702Y46428D01*
X12506Y46562D01*
X12285Y46679D01*
X12039Y46780D01*
X11767Y46865D01*
X11470Y46934D01*
X11148Y46987D01*
X10801Y47023D01*
X10029Y47047D01*
X12953Y49970D01*
X12957Y49572D01*
D02*
G37*
G36*
X55642Y46816D02*
X55684Y46808D01*
X55744Y46802D01*
X56036Y46787D01*
X56687Y46780D01*
Y45780D01*
X55619Y45735D01*
Y46825D01*
X55642Y46816D01*
D02*
G37*
G36*
X26428Y48294D02*
X26405Y48302D01*
X26364Y48310D01*
X26303Y48317D01*
X26011Y48331D01*
X25361Y48339D01*
Y49339D01*
X26428Y49384D01*
Y48294D01*
D02*
G37*
G36*
X55642Y51934D02*
X55684Y51926D01*
X55744Y51920D01*
X56036Y51905D01*
X56687Y51898D01*
Y50898D01*
X55619Y50853D01*
Y51943D01*
X55642Y51934D01*
D02*
G37*
G36*
X26428Y50853D02*
X26405Y50861D01*
X26364Y50869D01*
X26303Y50876D01*
X26011Y50890D01*
X25361Y50898D01*
Y51898D01*
X26428Y51943D01*
Y50853D01*
D02*
G37*
G36*
X56863Y48500D02*
X56682Y48498D01*
X56215Y48467D01*
X56085Y48448D01*
X55861Y48399D01*
X55768Y48368D01*
X55687Y48333D01*
X55619Y48294D01*
Y49384D01*
X55601Y49406D01*
X55617Y49426D01*
X55666Y49443D01*
X55749Y49458D01*
X55865Y49471D01*
X56199Y49490D01*
X56951Y49500D01*
X56863Y48500D01*
D02*
G37*
D10*
X52047Y36043D02*
D03*
Y38602D02*
D03*
Y41161D02*
D03*
Y43720D02*
D03*
Y46280D02*
D03*
Y48839D02*
D03*
Y51398D02*
D03*
Y53957D02*
D03*
X30000Y36043D02*
D03*
Y38602D02*
D03*
Y41161D02*
D03*
Y43720D02*
D03*
Y46280D02*
D03*
Y48839D02*
D03*
Y51398D02*
D03*
D11*
Y53957D02*
D03*
D12*
Y15000D02*
Y34000D01*
X25000Y10000D02*
X30000Y15000D01*
X10000Y10000D02*
X25000D01*
X52047Y56000D02*
Y73547D01*
X58500Y80000D01*
X70000D01*
D13*
X25102Y38602D02*
X30000D01*
X24663Y38163D02*
X25102Y38602D01*
X24663Y41161D02*
X30000D01*
X24663Y43720D02*
X30000D01*
X24663Y46280D02*
X30000D01*
X24663Y48839D02*
X30000D01*
X24663Y51398D02*
X30000D01*
Y53957D02*
Y56000D01*
X52047Y51398D02*
X57384D01*
X52209Y49000D02*
X57384D01*
X52047Y48839D02*
X52209Y49000D01*
X52047Y46280D02*
X57384D01*
X52047Y43720D02*
X57384D01*
X52209Y41000D02*
X57384D01*
X52047Y41161D02*
X52209Y41000D01*
X56898Y38602D02*
X57384Y38116D01*
X52047Y38602D02*
X56898D01*
X52047Y34000D02*
Y36043D01*
X29000Y35000D02*
X30000Y34000D01*
X28500Y35000D02*
X29000D01*
X31500D01*
X52047Y53957D02*
X53090Y55000D01*
X52047D02*
Y56000D01*
X50500Y55000D02*
X52047D01*
X53090D01*
X53500D01*
D14*
X22000Y35500D02*
X24663Y38163D01*
X22000Y25000D02*
Y35500D01*
X17000Y20000D02*
X22000Y25000D01*
X10000Y20000D02*
X17000D01*
X22161Y41161D02*
X24663D01*
X11000Y30000D02*
X22161Y41161D01*
X13720Y43720D02*
X24663D01*
X10000Y40000D02*
X13720Y43720D01*
Y46280D02*
X24663D01*
X10000Y50000D02*
X13720Y46280D01*
X21161Y48839D02*
X24663D01*
X10000Y60000D02*
X21161Y48839D01*
X23102Y51398D02*
X24663D01*
X17000Y57500D02*
X23102Y51398D01*
X17000Y57500D02*
Y63000D01*
X10000Y70000D02*
X17000Y63000D01*
X30000Y56000D02*
Y60000D01*
X10000Y80000D02*
X30000Y60000D01*
X59500Y59500D02*
X70000Y70000D01*
X59500Y53000D02*
Y59500D01*
X57898Y51398D02*
X59500Y53000D01*
X57384Y51398D02*
X57898D01*
X59000Y49000D02*
X70000Y60000D01*
X57384Y49000D02*
X59000D01*
X65000Y50000D02*
X70000D01*
X61280Y46280D02*
X65000Y50000D01*
X57384Y46280D02*
X61280D01*
X65000Y40000D02*
X70000D01*
X61280Y43720D02*
X65000Y40000D01*
X57384Y43720D02*
X61280D01*
X59000Y41000D02*
X70000Y30000D01*
X57384Y41000D02*
X59000D01*
X59500Y30500D02*
X70000Y20000D01*
X59500Y30500D02*
Y36000D01*
X57384Y38116D02*
X59500Y36000D01*
X52047Y27953D02*
X70000Y10000D01*
X52047Y27953D02*
Y34000D01*
D15*
X10000Y10000D02*
D03*
Y20000D02*
D03*
Y30000D02*
D03*
Y40000D02*
D03*
Y50000D02*
D03*
Y60000D02*
D03*
Y70000D02*
D03*
X70000Y10000D02*
D03*
Y20000D02*
D03*
Y30000D02*
D03*
Y40000D02*
D03*
Y50000D02*
D03*
Y60000D02*
D03*
Y70000D02*
D03*
D16*
X10000Y80000D02*
D03*
X70000D02*
D03*
M02*
