G04 Layer_Physical_Order=2*
G04 Layer_Color=16711680*
%FSLAX25Y25*%
%MOIN*%
G70*
G01*
G75*
%ADD15C,0.05906*%
%ADD16R,0.05906X0.05906*%
%ADD17C,0.00900*%
G36*
X51180Y81029D02*
X14706Y5547D01*
X10293D01*
X10260Y6047D01*
X11032Y6149D01*
X11993Y6547D01*
X12819Y7181D01*
X13453Y8007D01*
X13851Y8968D01*
X13921Y9500D01*
X10000D01*
Y10500D01*
X13921D01*
X13851Y11032D01*
X13453Y11993D01*
X13307Y12183D01*
X13445Y12824D01*
X14440Y13355D01*
X15651Y14349D01*
X16645Y15560D01*
X17383Y16942D01*
X17838Y18441D01*
X17991Y20000D01*
X17838Y21559D01*
X17383Y23058D01*
X16645Y24440D01*
X16185Y25000D01*
X16645Y25560D01*
X17383Y26942D01*
X17838Y28441D01*
X17991Y30000D01*
X17838Y31559D01*
X17383Y33058D01*
X16645Y34440D01*
X16185Y35000D01*
X16645Y35560D01*
X17383Y36942D01*
X17838Y38441D01*
X17991Y40000D01*
X17838Y41559D01*
X17383Y43058D01*
X16645Y44440D01*
X16185Y45000D01*
X16645Y45560D01*
X17383Y46942D01*
X17838Y48441D01*
X17991Y50000D01*
X17838Y51559D01*
X17383Y53058D01*
X16645Y54440D01*
X16185Y55000D01*
X16645Y55560D01*
X17383Y56942D01*
X17838Y58441D01*
X17991Y60000D01*
X17838Y61559D01*
X17383Y63058D01*
X16645Y64440D01*
X16185Y65000D01*
X16645Y65560D01*
X17383Y66942D01*
X17838Y68441D01*
X17991Y70000D01*
X17839Y71547D01*
X17826Y71877D01*
X17953Y72047D01*
X17953D01*
Y81453D01*
X50915D01*
X51180Y81029D01*
D02*
G37*
G36*
X62277Y61936D02*
X62162Y61559D01*
X62009Y60000D01*
X62162Y58441D01*
X62617Y56942D01*
X63355Y55560D01*
X63815Y55000D01*
X63355Y54440D01*
X62617Y53058D01*
X62162Y51559D01*
X62009Y50000D01*
X62162Y48441D01*
X62617Y46942D01*
X63355Y45560D01*
X63815Y45000D01*
X63355Y44440D01*
X62617Y43058D01*
X62162Y41559D01*
X62009Y40000D01*
X62162Y38441D01*
X62617Y36942D01*
X63355Y35560D01*
X63815Y35000D01*
X63355Y34440D01*
X62617Y33058D01*
X62162Y31559D01*
X62009Y30000D01*
X62162Y28441D01*
X62617Y26942D01*
X63355Y25560D01*
X63815Y25000D01*
X63355Y24440D01*
X62617Y23058D01*
X62162Y21559D01*
X62009Y20000D01*
X62162Y18441D01*
X62617Y16942D01*
X63355Y15560D01*
X63815Y15000D01*
X63355Y14440D01*
X62617Y13058D01*
X62162Y11559D01*
X62009Y10000D01*
X62162Y8441D01*
X62617Y6942D01*
X63095Y6047D01*
X62796Y5547D01*
X34944D01*
X34678Y5971D01*
X61810Y62119D01*
X62277Y61936D01*
D02*
G37*
D15*
X10000Y10000D02*
D03*
Y20000D02*
D03*
Y30000D02*
D03*
Y40000D02*
D03*
Y50000D02*
D03*
Y60000D02*
D03*
Y70000D02*
D03*
X70000Y10000D02*
D03*
Y20000D02*
D03*
Y30000D02*
D03*
Y40000D02*
D03*
Y50000D02*
D03*
Y60000D02*
D03*
Y70000D02*
D03*
D16*
X10000Y80000D02*
D03*
X70000D02*
D03*
D17*
X59229Y84124D02*
X64629Y81514D01*
X63324Y78814D01*
X61989Y78349D01*
X61089Y78784D01*
X60624Y80119D01*
X61929Y82819D01*
X60624Y80119D01*
X59289Y79654D01*
X58389Y80089D01*
X57924Y81424D01*
X59229Y84124D01*
X58419Y77854D02*
X62020Y76114D01*
X60219Y76984D01*
X58884Y76519D01*
X57549Y76053D01*
X57114Y75153D01*
X55374Y71553D02*
X54505Y69753D01*
X54970Y68418D01*
X57670Y67113D01*
X58975Y69813D01*
X58510Y71148D01*
X57175Y70683D01*
X55870Y67983D01*
X56800Y65313D02*
X53200Y67052D01*
X51895Y64352D01*
X52360Y63017D01*
X55060Y61712D01*
X47050Y58921D02*
X52451Y56312D01*
X53756Y59012D01*
X53290Y60347D01*
X51490Y61217D01*
X50155Y60752D01*
X48850Y58052D01*
X51146Y53611D02*
X50276Y51811D01*
X48941Y51346D01*
X47141Y52216D01*
X46676Y53551D01*
X47545Y55351D01*
X48881Y55816D01*
X50681Y54946D01*
X51146Y53611D01*
X48971Y49111D02*
X45371Y50851D01*
X44066Y48150D01*
X44531Y46815D01*
X47231Y45511D01*
X43752Y38310D02*
X38351Y40919D01*
X37046Y38219D01*
X37512Y36884D01*
X39312Y36014D01*
X40647Y36479D01*
X41952Y39180D01*
X40707Y32009D02*
X39837Y30209D01*
X38502Y29744D01*
X36702Y30614D01*
X36237Y31949D01*
X37107Y33749D01*
X38442Y34214D01*
X40242Y33344D01*
X40707Y32009D01*
X38533Y27509D02*
X37663Y25708D01*
X38098Y26608D01*
X32697Y29218D01*
X33132Y30118D01*
X36358Y23008D02*
X35488Y21208D01*
X35923Y22108D01*
X30522Y24718D01*
X30957Y25618D01*
X30148Y19347D02*
X29278Y17547D01*
X29743Y16212D01*
X32443Y14907D01*
X33748Y17607D01*
X33283Y18943D01*
X31948Y18477D01*
X30643Y15777D01*
X26233Y11246D02*
X27538Y13947D01*
X28873Y14412D01*
X30673Y13542D01*
X31138Y12207D01*
X29833Y9507D01*
X28964Y7706D02*
X23563Y10316D01*
X27163Y8576D02*
X24058Y6746D01*
X27163Y8576D02*
X27659Y5006D01*
M02*
