M48
;Layer_Color=9474304
;FILE_FORMAT=2:5
INCH,LZ
;TYPE=PLATED
T1F00S00C0.03400
T2F00S00C0.03453
T3F00S00C0.03543
%
T01
X03135Y02085
X03185Y02365
X0319Y0263
X03035Y02635
Y0312
X0299Y02095
X02595Y02125
Y02295
T02
X024Y00715
Y00835
Y00945
X0252Y0094
Y00835
Y0072
X0285Y01495
X0187Y0152
X01795
X01725
Y01425
X01795
X0187
X0319Y0292
X03185Y03
X0327Y03005
X03345
X02595Y0278
X02175Y02335
X02095
Y02255
X0201
Y02335
X0218Y0225
X02055Y01575
X01595Y0305
X015Y02965
X0169Y03145
X0217
X0229
X0241
T03
X0335Y02235
Y02335
Y02435
Y02535
Y02635
Y02735
X0135
Y02635
Y02535
Y02435
Y02335
Y02235
M30
