%FSLAX25Y25*%
%MOIN*%
G70*
G01*
G75*
G04 Layer_Color=8421504*
%ADD10C,0.02000*%
%ADD11C,0.01000*%
%ADD12C,0.03000*%
%ADD13C,0.01500*%
%ADD14C,0.01200*%
%ADD15O,0.02756X0.01181*%
%ADD16R,0.02756X0.01181*%
%ADD17O,0.04724X0.01221*%
%ADD18R,0.04724X0.01221*%
%ADD19R,0.06693X0.13000*%
G04:AMPARAMS|DCode=20|XSize=66.93mil|YSize=130mil|CornerRadius=0mil|HoleSize=0mil|Usage=FLASHONLY|Rotation=180.000|XOffset=0mil|YOffset=0mil|HoleType=Round|Shape=Octagon|*
%AMOCTAGOND20*
4,1,8,0.01673,-0.06500,-0.01673,-0.06500,-0.03347,-0.04827,-0.03347,0.04827,-0.01673,0.06500,0.01673,0.06500,0.03347,0.04827,0.03347,-0.04827,0.01673,-0.06500,0.0*
%
%ADD20OCTAGOND20*%

G04:AMPARAMS|DCode=21|XSize=78.74mil|YSize=98.43mil|CornerRadius=0mil|HoleSize=0mil|Usage=FLASHONLY|Rotation=180.000|XOffset=0mil|YOffset=0mil|HoleType=Round|Shape=Octagon|*
%AMOCTAGOND21*
4,1,8,0.01969,-0.04921,-0.01969,-0.04921,-0.03937,-0.02953,-0.03937,0.02953,-0.01969,0.04921,0.01969,0.04921,0.03937,0.02953,0.03937,-0.02953,0.01969,-0.04921,0.0*
%
%ADD21OCTAGOND21*%

%ADD22R,0.07874X0.09843*%
%ADD23R,0.04331X0.05512*%
%ADD24R,0.10906X0.16732*%
%ADD25R,0.05906X0.05512*%
%ADD26R,0.06000X0.06000*%
%ADD27R,0.05500X0.03000*%
%ADD28O,0.05500X0.03000*%
%ADD29R,0.05512X0.05906*%
%ADD30R,0.04331X0.06693*%
%ADD31R,0.05512X0.02559*%
G04:AMPARAMS|DCode=32|XSize=55.12mil|YSize=25.59mil|CornerRadius=0mil|HoleSize=0mil|Usage=FLASHONLY|Rotation=180.000|XOffset=0mil|YOffset=0mil|HoleType=Round|Shape=Octagon|*
%AMOCTAGOND32*
4,1,8,-0.02756,0.00640,-0.02756,-0.00640,-0.02116,-0.01280,0.02116,-0.01280,0.02756,-0.00640,0.02756,0.00640,0.02116,0.01280,-0.02116,0.01280,-0.02756,0.00640,0.0*
%
%ADD32OCTAGOND32*%

%ADD33R,0.08661X0.12795*%
%ADD34O,0.08661X0.03937*%
%ADD35R,0.08661X0.03937*%
%ADD36R,0.16732X0.10906*%
%ADD37R,0.04331X0.10236*%
%ADD38R,0.05512X0.04331*%
%ADD39R,0.28740X0.10433*%
%ADD40R,0.06496X0.01969*%
%ADD41O,0.06496X0.01969*%
%ADD42C,0.02500*%
%ADD43C,0.05906*%
%ADD44R,0.05906X0.05906*%
%ADD45C,0.06000*%
%ADD46C,0.00787*%
D15*
X312480Y249882D02*
D03*
Y252441D02*
D03*
Y255000D02*
D03*
X305000Y249882D02*
D03*
Y252441D02*
D03*
D16*
Y255000D02*
D03*
D17*
X253323Y243626D02*
D03*
Y245595D02*
D03*
Y247563D02*
D03*
Y249532D02*
D03*
Y251500D02*
D03*
X236000Y243626D02*
D03*
Y245595D02*
D03*
Y247563D02*
D03*
Y249532D02*
D03*
D18*
Y251500D02*
D03*
D19*
X223750Y189500D02*
D03*
D20*
X240250D02*
D03*
D21*
X252232Y136500D02*
D03*
D22*
X268768D02*
D03*
D23*
X206547Y201000D02*
D03*
X212453D02*
D03*
X254047Y349500D02*
D03*
X259953D02*
D03*
X258547Y283500D02*
D03*
X264453D02*
D03*
D24*
X233677Y137500D02*
D03*
X208323D02*
D03*
D25*
X197500Y186063D02*
D03*
Y193937D02*
D03*
X178500Y165063D02*
D03*
Y172937D02*
D03*
X193500Y172437D02*
D03*
Y164563D02*
D03*
X259500Y300937D02*
D03*
Y293063D02*
D03*
D26*
X257500Y152750D02*
D03*
Y171250D02*
D03*
X239000Y366750D02*
D03*
Y348250D02*
D03*
D27*
X214500Y177000D02*
D03*
D28*
Y172000D02*
D03*
Y167000D02*
D03*
Y162000D02*
D03*
X235000Y177000D02*
D03*
Y172000D02*
D03*
Y167000D02*
D03*
Y162000D02*
D03*
D29*
X259563Y323500D02*
D03*
X267437D02*
D03*
X248437Y273500D02*
D03*
X240563D02*
D03*
X258563D02*
D03*
X266437D02*
D03*
X239437Y288500D02*
D03*
X231563D02*
D03*
D30*
X230815Y337500D02*
D03*
X220185D02*
D03*
D31*
X225823Y349000D02*
D03*
D32*
X216177D02*
D03*
D33*
X221835Y83445D02*
D03*
D34*
X199000Y74390D02*
D03*
Y83445D02*
D03*
D35*
Y92500D02*
D03*
D36*
X287500Y255677D02*
D03*
Y230323D02*
D03*
X153500Y97677D02*
D03*
Y72323D02*
D03*
D37*
X239685Y231500D02*
D03*
X250315D02*
D03*
D38*
X262500Y239547D02*
D03*
Y245453D02*
D03*
X322500Y254453D02*
D03*
Y248547D02*
D03*
X181000Y86547D02*
D03*
Y92453D02*
D03*
D39*
X215000Y247346D02*
D03*
Y265653D02*
D03*
D40*
X244500Y341000D02*
D03*
D41*
Y337260D02*
D03*
Y333520D02*
D03*
X256902Y341000D02*
D03*
Y337260D02*
D03*
Y333520D02*
D03*
M02*
