%FSLAX25Y25*%
%MOIN*%
G70*
G01*
G75*
G04 Layer_Physical_Order=1*
G04 Layer_Color=255*
%ADD10O,0.06496X0.01969*%
%ADD11R,0.06496X0.01969*%
%ADD12R,0.05512X0.04331*%
%ADD13R,0.05906X0.05512*%
%ADD14R,0.05512X0.05906*%
%ADD15R,0.04331X0.05512*%
%ADD16R,0.28740X0.10433*%
%ADD17R,0.04331X0.10236*%
%ADD18R,0.16732X0.10906*%
%ADD19R,0.08661X0.03937*%
%ADD20O,0.08661X0.03937*%
%ADD21R,0.08661X0.12795*%
G04:AMPARAMS|DCode=22|XSize=55.12mil|YSize=25.59mil|CornerRadius=0mil|HoleSize=0mil|Usage=FLASHONLY|Rotation=180.000|XOffset=0mil|YOffset=0mil|HoleType=Round|Shape=Octagon|*
%AMOCTAGOND22*
4,1,8,-0.02756,0.00640,-0.02756,-0.00640,-0.02116,-0.01280,0.02116,-0.01280,0.02756,-0.00640,0.02756,0.00640,0.02116,0.01280,-0.02116,0.01280,-0.02756,0.00640,0.0*
%
%ADD22OCTAGOND22*%

%ADD23R,0.05512X0.02559*%
%ADD24R,0.06000X0.06000*%
%ADD25R,0.04331X0.06693*%
%ADD26O,0.05500X0.03000*%
%ADD27R,0.05500X0.03000*%
%ADD28R,0.10906X0.16732*%
%ADD29R,0.07874X0.09843*%
G04:AMPARAMS|DCode=30|XSize=78.74mil|YSize=98.43mil|CornerRadius=0mil|HoleSize=0mil|Usage=FLASHONLY|Rotation=180.000|XOffset=0mil|YOffset=0mil|HoleType=Round|Shape=Octagon|*
%AMOCTAGOND30*
4,1,8,0.01969,-0.04921,-0.01969,-0.04921,-0.03937,-0.02953,-0.03937,0.02953,-0.01969,0.04921,0.01969,0.04921,0.03937,0.02953,0.03937,-0.02953,0.01969,-0.04921,0.0*
%
%ADD30OCTAGOND30*%

G04:AMPARAMS|DCode=31|XSize=66.93mil|YSize=130mil|CornerRadius=0mil|HoleSize=0mil|Usage=FLASHONLY|Rotation=180.000|XOffset=0mil|YOffset=0mil|HoleType=Round|Shape=Octagon|*
%AMOCTAGOND31*
4,1,8,0.01673,-0.06500,-0.01673,-0.06500,-0.03347,-0.04827,-0.03347,0.04827,-0.01673,0.06500,0.01673,0.06500,0.03347,0.04827,0.03347,-0.04827,0.01673,-0.06500,0.0*
%
%ADD31OCTAGOND31*%

%ADD32R,0.06693X0.13000*%
%ADD33R,0.04724X0.01221*%
%ADD34O,0.04724X0.01221*%
%ADD35R,0.02756X0.01181*%
%ADD36O,0.02756X0.01181*%
%ADD37C,0.01500*%
%ADD38C,0.01000*%
%ADD39C,0.01200*%
%ADD40C,0.03000*%
%ADD41C,0.02000*%
%ADD42C,0.02500*%
%ADD43R,0.05906X0.05906*%
%ADD44C,0.05906*%
%ADD45C,0.06000*%
G36*
X352452Y310227D02*
X351991Y310036D01*
X348263Y313763D01*
X347350Y314513D01*
X346307Y315070D01*
X345945Y315180D01*
X345991Y315529D01*
Y370452D01*
X352452D01*
Y310227D01*
D02*
G37*
G36*
X233750Y159451D02*
X236250D01*
X236364Y159474D01*
X237056Y159394D01*
D01*
D01*
X237223Y159278D01*
X237265Y159029D01*
X237322Y158684D01*
X237412Y158073D01*
X237429Y158035D01*
X237436Y157994D01*
X237690Y157431D01*
X237772Y157243D01*
X237936Y156865D01*
X238193Y156436D01*
X238449Y156114D01*
D01*
X238577Y155953D01*
X238577Y155953D01*
X238952Y155463D01*
X238985Y155438D01*
X239011Y155405D01*
X239507Y155037D01*
X239997Y154662D01*
X240035Y154646D01*
X240069Y154621D01*
X240643Y154394D01*
X241213Y154158D01*
X241254Y154152D01*
X241293Y154137D01*
X241907Y154066D01*
D01*
X241907D01*
X242191Y154029D01*
D01*
X242518Y153986D01*
X249500D01*
X250805Y154158D01*
X252022Y154662D01*
X252553Y155069D01*
D01*
X252553Y155069D01*
D01*
X252554Y155070D01*
X252568Y155080D01*
D01*
X253052Y155452D01*
D01*
X253133Y155412D01*
D01*
D01*
X253358Y155239D01*
X253500Y155130D01*
Y153250D01*
X261500D01*
Y155130D01*
X261867Y155412D01*
D01*
X261948Y155452D01*
D01*
X262433Y155080D01*
D01*
X262447Y155069D01*
X262447Y155069D01*
D01*
X262447Y155069D01*
D01*
X262978Y154662D01*
X264195Y154158D01*
X264858Y154070D01*
D01*
X265500Y153986D01*
X270002D01*
X270438Y153943D01*
X270618Y153888D01*
X270784Y153799D01*
X270784Y153799D01*
X271122Y153522D01*
D01*
X271372Y153273D01*
X271522Y153122D01*
X271799Y152784D01*
X271888Y152618D01*
X271913Y152536D01*
X272151Y152011D01*
X272372Y151478D01*
X272422Y151412D01*
X272457Y151337D01*
X272822Y150891D01*
X273173Y150434D01*
X273239Y150383D01*
X273292Y150319D01*
X273760Y149984D01*
X274218Y149633D01*
X274294Y149601D01*
X274362Y149552D01*
X274901Y149349D01*
X275434Y149129D01*
X275516Y149118D01*
X275594Y149089D01*
X276168Y149032D01*
X276739Y148957D01*
X277015D01*
X277016Y148948D01*
X277116Y147932D01*
X277573Y146424D01*
X278316Y145034D01*
X279316Y143816D01*
X280534Y142816D01*
X281924Y142073D01*
X283432Y141616D01*
X283500Y141609D01*
X285000Y141461D01*
X285129Y141474D01*
X285500Y141138D01*
Y127500D01*
X262500D01*
X262000Y128000D01*
X261500Y128500D01*
Y146000D01*
X261335D01*
X261328Y146055D01*
X260824Y147272D01*
X260034Y148302D01*
X260255Y148750D01*
X261500D01*
Y152250D01*
X253500D01*
Y150500D01*
Y149793D01*
X252062D01*
X252022Y149824D01*
X250805Y150328D01*
X249500Y150500D01*
X244130D01*
Y150543D01*
Y150866D01*
X232500D01*
Y151197D01*
Y151967D01*
X232419Y152579D01*
X232349Y153191D01*
X232334Y153231D01*
X232328Y153273D01*
X232092Y153842D01*
X231866Y154416D01*
X231840Y154450D01*
X231824Y154489D01*
X231690Y154665D01*
X231803Y154810D01*
X231811Y154829D01*
X231824Y154846D01*
X232068Y155435D01*
X232317Y156022D01*
X232320Y156043D01*
X232328Y156062D01*
X232411Y156694D01*
X232500Y157326D01*
X232497Y157347D01*
X232500Y157368D01*
Y159306D01*
Y159306D01*
X232887Y159623D01*
X233750Y159451D01*
D02*
G37*
G36*
X352452Y214379D02*
Y64547D01*
X166866D01*
Y65791D01*
X175323D01*
X176597Y65917D01*
X177822Y66289D01*
X178952Y66892D01*
X179941Y67704D01*
X179941Y67704D01*
X179941Y67704D01*
X180095Y67858D01*
X194163D01*
X195272Y67522D01*
X196638Y67387D01*
X201362D01*
X202728Y67522D01*
X204042Y67921D01*
X205252Y68568D01*
X206313Y69438D01*
X207184Y70499D01*
X207831Y71710D01*
X208230Y73024D01*
X208364Y74390D01*
X208230Y75756D01*
X207831Y77069D01*
X207184Y78280D01*
X206313Y79341D01*
X205252Y80212D01*
X204042Y80859D01*
X203714Y80958D01*
X203561Y81434D01*
X203955Y81948D01*
X204254Y82670D01*
X204291Y82945D01*
X193710D01*
X193746Y82670D01*
X194045Y81948D01*
X194439Y81434D01*
X194286Y80958D01*
X194163Y80921D01*
X177390D01*
X176116Y80796D01*
X174890Y80424D01*
X173761Y79821D01*
X172771Y79008D01*
X172617Y78854D01*
X166866D01*
Y82776D01*
X145461D01*
X134031Y94205D01*
Y173078D01*
X134493Y173270D01*
X145969Y161795D01*
Y127000D01*
X146094Y125726D01*
X146466Y124501D01*
X147069Y123371D01*
X147882Y122382D01*
X156882Y113382D01*
Y113382D01*
X156882Y113382D01*
X156882Y113382D01*
Y113382D01*
X157871Y112569D01*
X159001Y111966D01*
X160226Y111594D01*
X161500Y111469D01*
X174469D01*
Y99618D01*
X173244D01*
Y85287D01*
X177244D01*
Y83382D01*
X184756D01*
Y85287D01*
X188756D01*
Y85921D01*
X189669D01*
Y85532D01*
X193932D01*
X194153Y85083D01*
X194045Y84942D01*
X193746Y84220D01*
X193710Y83945D01*
X204291D01*
X204254Y84220D01*
X203955Y84942D01*
X203847Y85083D01*
X204068Y85532D01*
X208331D01*
Y99468D01*
X189669D01*
Y98984D01*
X188756D01*
Y99618D01*
X187531D01*
Y111469D01*
X213147D01*
X213184Y111195D01*
X213687Y109978D01*
X214489Y108934D01*
X215533Y108133D01*
X216750Y107629D01*
X218055Y107457D01*
X257334D01*
X257662Y107500D01*
X257993D01*
X258312Y107586D01*
X258640Y107629D01*
X258945Y107755D01*
X259264Y107841D01*
X259551Y108006D01*
X259856Y108133D01*
X260118Y108334D01*
X260404Y108499D01*
X260638Y108733D01*
X260900Y108934D01*
X261102Y109196D01*
X261335Y109430D01*
X261569Y109735D01*
X261735Y110021D01*
X261936Y110283D01*
X262062Y110589D01*
X262228Y110875D01*
X262313Y111194D01*
X262440Y111500D01*
X262483Y111827D01*
X262568Y112147D01*
Y112477D01*
X262569Y112480D01*
X262601Y112641D01*
X262597Y112696D01*
X262611Y112805D01*
Y112971D01*
X262590Y113134D01*
X262601Y113297D01*
X262592Y113428D01*
X262568Y113463D01*
X262871Y114195D01*
X263043Y115500D01*
Y122126D01*
Y122457D01*
X285500D01*
X286805Y122629D01*
X288022Y123133D01*
X289066Y123934D01*
X289867Y124978D01*
X290371Y126195D01*
X290543Y127500D01*
Y141138D01*
X290527Y141262D01*
X290537Y141386D01*
X290441Y141913D01*
X290371Y142444D01*
X290324Y142559D01*
X290301Y142681D01*
X290072Y143165D01*
X290026Y143276D01*
X290684Y143816D01*
X291684Y145034D01*
X292427Y146424D01*
X292884Y147932D01*
X292985Y148959D01*
D01*
X304560Y160533D01*
X317763Y173737D01*
X317763Y173737D01*
X317763Y173737D01*
X318513Y174651D01*
X319070Y175693D01*
X319070Y175693D01*
X319070Y175693D01*
X319413Y176824D01*
X319529Y178000D01*
X319529Y178000D01*
Y203236D01*
X320184Y204034D01*
X320927Y205424D01*
X321384Y206932D01*
X321539Y208500D01*
X321529Y208600D01*
X321865Y208971D01*
X344500D01*
X345676Y209087D01*
X346807Y209430D01*
X346807Y209430D01*
X346807Y209430D01*
X347849Y209987D01*
X348763Y210737D01*
X348763Y210737D01*
X348763Y210737D01*
X350763Y212737D01*
X350763Y212737D01*
X350763Y212737D01*
X351513Y213650D01*
X351968Y214501D01*
X352452Y214379D01*
D02*
G37*
G36*
X180969Y213500D02*
X181094Y212226D01*
X181466Y211000D01*
X181975Y210048D01*
X182069Y209871D01*
X182882Y208882D01*
X183882Y207882D01*
X184871Y207069D01*
X186001Y206466D01*
X187226Y206094D01*
X188500Y205969D01*
X199382D01*
Y204345D01*
X196730Y201693D01*
X189547D01*
Y186181D01*
Y180193D01*
X186453D01*
Y180693D01*
X170547D01*
Y172819D01*
Y171031D01*
X155205D01*
X143522Y182715D01*
X141531Y184705D01*
Y218923D01*
X141645Y219060D01*
X142383Y220442D01*
X142838Y221941D01*
X142991Y223500D01*
X142838Y225059D01*
X142383Y226558D01*
X142629Y226969D01*
X180969D01*
Y213500D01*
D02*
G37*
G36*
X299500Y205531D02*
X300044Y205603D01*
X301017Y206006D01*
X301853Y206647D01*
X302494Y207483D01*
X302897Y208456D01*
X302962Y208950D01*
X303382Y209221D01*
X303824Y209087D01*
X305000Y208971D01*
X305135D01*
X305471Y208600D01*
X305461Y208500D01*
X305616Y206932D01*
X306073Y205424D01*
X306816Y204034D01*
X307471Y203236D01*
Y180497D01*
X292974Y166000D01*
X284459Y157485D01*
X283432Y157384D01*
X281924Y156927D01*
X280534Y156184D01*
X279316Y155184D01*
X278346Y154003D01*
X278344Y154000D01*
X278316Y153966D01*
X278247Y153838D01*
X278074Y153861D01*
X277836Y153933D01*
X277439Y153946D01*
X277397Y153957D01*
X277070Y154000D01*
X276739D01*
X276570Y154557D01*
X276013Y155599D01*
X275263Y156513D01*
X274513Y157263D01*
X273600Y158013D01*
X272557Y158570D01*
X271426Y158913D01*
X270250Y159029D01*
X265500D01*
Y159083D01*
Y160750D01*
X249500D01*
Y159029D01*
X242518D01*
X242262Y159458D01*
X242284Y159501D01*
X242293Y159530D01*
D01*
X242656Y160726D01*
X242781Y162000D01*
X242656Y163274D01*
X242284Y164499D01*
X241681Y165629D01*
X241376Y166000D01*
X240868Y166618D01*
X240708Y166750D01*
Y167250D01*
X240868Y167382D01*
X241681Y168371D01*
X242284Y169501D01*
X242656Y170726D01*
X242781Y172000D01*
X242656Y173274D01*
X242284Y174499D01*
X242284Y174500D01*
X242284Y174501D01*
X242656Y175726D01*
X242781Y177000D01*
X242656Y178274D01*
X242284Y179499D01*
X241681Y180629D01*
X240926Y181548D01*
X241140Y182000D01*
X242423D01*
X244597Y184173D01*
Y189000D01*
X240250D01*
Y190000D01*
X244597D01*
Y191727D01*
Y192871D01*
X244964Y193153D01*
X245045Y193193D01*
X246075Y192403D01*
X247291Y191899D01*
X248597Y191727D01*
X292469D01*
X293774Y191899D01*
X294990Y192403D01*
X296035Y193204D01*
X296836Y194249D01*
X297340Y195465D01*
X297512Y196770D01*
Y204848D01*
X297458Y205257D01*
X297455Y205356D01*
X297866Y205640D01*
X297956Y205603D01*
X298500Y205531D01*
Y209500D01*
X299500D01*
Y205531D01*
D02*
G37*
G36*
X317370Y267104D02*
X317272Y266614D01*
X316983Y266494D01*
X316147Y265853D01*
X315506Y265017D01*
X315103Y264044D01*
X315031Y263500D01*
X319000D01*
Y262500D01*
X315031D01*
X315103Y261956D01*
X315506Y260983D01*
X315884Y260490D01*
X315580Y260094D01*
X314727Y260447D01*
X313268Y260639D01*
X311693D01*
X311420Y260603D01*
X311097Y260984D01*
X311384Y261932D01*
X311539Y263500D01*
X311384Y265068D01*
X310927Y266576D01*
X310270Y267805D01*
X310527Y268234D01*
X316240D01*
X317370Y267104D01*
D02*
G37*
G36*
X210148Y341508D02*
X210148Y341508D01*
X210148D01*
X210264Y340332D01*
X210607Y339201D01*
X210607Y339201D01*
X210607Y339201D01*
X211164Y338158D01*
X211914Y337245D01*
X211914Y337245D01*
X211914D01*
Y337245D01*
X211914Y337245D01*
X213020Y336139D01*
Y333529D01*
X200500D01*
X199324Y333413D01*
X198193Y333070D01*
X197151Y332513D01*
X196237Y331763D01*
X196237Y331763D01*
X147237Y282763D01*
X146487Y281850D01*
X145930Y280807D01*
X145587Y279676D01*
X145471Y278500D01*
X145471Y278500D01*
X145471D01*
X145471Y278500D01*
X145471D01*
Y278497D01*
X139415Y272441D01*
X138953Y272632D01*
Y273000D01*
X135000D01*
Y273500D01*
X134500D01*
Y277453D01*
X131529D01*
Y285503D01*
X188997Y342971D01*
X210148D01*
Y341508D01*
D02*
G37*
G36*
X298000Y266645D02*
Y254845D01*
X297328Y254173D01*
X296866Y254365D01*
Y255177D01*
X278134D01*
Y250252D01*
X276945Y250096D01*
X275729Y249592D01*
X274685Y248791D01*
X272424Y246530D01*
X272357Y246443D01*
X272306Y246401D01*
X272056Y246052D01*
X271708Y245628D01*
X271674Y245552D01*
X271623Y245485D01*
X271585Y245394D01*
X271539Y245331D01*
X271170Y244639D01*
X270988Y244418D01*
X270766Y244236D01*
X270685Y244192D01*
X270256Y244449D01*
Y246713D01*
X266256D01*
Y247911D01*
X267423Y249077D01*
X270423Y252077D01*
X270423Y252077D01*
X270423Y252077D01*
X277672Y259327D01*
X278134Y259135D01*
Y256177D01*
X287000D01*
Y262130D01*
X281129D01*
X280937Y262592D01*
X285221Y266876D01*
X297645Y266997D01*
X298000Y266645D01*
D02*
G37*
G36*
X227457Y356250D02*
X227502Y355907D01*
X227172Y355531D01*
X225823D01*
X224549Y355406D01*
X224132Y355279D01*
X211561D01*
X211311Y355029D01*
X186500D01*
X185324Y354913D01*
X184193Y354570D01*
X183150Y354013D01*
X182237Y353263D01*
X125509Y296536D01*
X125048Y296727D01*
Y370452D01*
X227457D01*
Y356250D01*
D02*
G37*
G36*
X352452Y257554D02*
Y235121D01*
X351968Y234999D01*
X351513Y235849D01*
X350763Y236763D01*
X349763Y237763D01*
X348850Y238513D01*
X347807Y239070D01*
X346676Y239413D01*
X345500Y239529D01*
X342381D01*
X342124Y239958D01*
X342383Y240442D01*
X342838Y241941D01*
X342991Y243500D01*
X342838Y245059D01*
X342383Y246558D01*
X341645Y247940D01*
X341185Y248500D01*
X341645Y249060D01*
X342383Y250442D01*
X342838Y251941D01*
X342991Y253500D01*
X342838Y255059D01*
X342383Y256558D01*
X342124Y257042D01*
X342381Y257471D01*
X350000D01*
X351176Y257587D01*
X352051Y257852D01*
X352452Y257554D01*
D02*
G37*
G36*
X274971Y324503D02*
Y315000D01*
X274971Y315000D01*
X274971D01*
X275087Y313824D01*
X275430Y312693D01*
X275430Y312693D01*
X275430Y312693D01*
X275987Y311650D01*
X276737Y310737D01*
X276737Y310737D01*
X276737Y310737D01*
X279974Y307500D01*
X288737Y298737D01*
X288737Y298737D01*
X289651Y297987D01*
X290693Y297430D01*
D01*
X290693Y297430D01*
X291824Y297087D01*
X293000Y296971D01*
X302500D01*
X303676Y297087D01*
X304807Y297430D01*
X305850Y297987D01*
X306763Y298737D01*
X311497Y303471D01*
X315675D01*
X315836Y302997D01*
X315647Y302853D01*
X315006Y302017D01*
X314603Y301044D01*
X314531Y300500D01*
X318500D01*
Y299500D01*
X314531D01*
X314603Y298956D01*
X315006Y297983D01*
X315647Y297147D01*
X316483Y296506D01*
X317351Y296146D01*
Y295646D01*
X316983Y295494D01*
X316147Y294853D01*
X315506Y294017D01*
X315103Y293044D01*
X315031Y292500D01*
X322969D01*
X322897Y293044D01*
X322494Y294017D01*
X321853Y294853D01*
X321017Y295494D01*
X320149Y295853D01*
Y296354D01*
X320517Y296506D01*
X321353Y297147D01*
X321994Y297983D01*
X322397Y298956D01*
X322533Y299988D01*
X323033D01*
X323103Y299456D01*
X323506Y298483D01*
X324147Y297647D01*
X324983Y297006D01*
X325956Y296603D01*
X326500Y296531D01*
Y300500D01*
X327500D01*
Y296531D01*
X328044Y296603D01*
X329017Y297006D01*
X329853Y297647D01*
X330494Y298483D01*
X330500Y298497D01*
X331000D01*
X331006Y298483D01*
X331647Y297647D01*
X332483Y297006D01*
X333456Y296603D01*
X334000Y296531D01*
Y300500D01*
X334500D01*
Y301000D01*
X338469D01*
X338397Y301544D01*
X337994Y302517D01*
X337606Y303023D01*
X337827Y303471D01*
X341503D01*
X343971Y301003D01*
Y269529D01*
X340190D01*
X339440Y270145D01*
X338339Y270733D01*
X338234Y271221D01*
X338453Y271507D01*
X338851Y272468D01*
X338921Y273000D01*
X331079D01*
X331149Y272468D01*
X331547Y271507D01*
X331766Y271221D01*
X331661Y270733D01*
X331096Y270431D01*
X323526Y278000D01*
X323000Y278526D01*
X322086Y279276D01*
X321044Y279833D01*
X319913Y280176D01*
X318737Y280292D01*
X284763D01*
X283587Y280176D01*
X282456Y279833D01*
X281414Y279276D01*
X280500Y278526D01*
X279750Y277613D01*
X279193Y276570D01*
X279179Y276524D01*
X274155Y271500D01*
X273693Y271691D01*
Y277453D01*
X269284D01*
X267408Y279329D01*
X267384Y279568D01*
X266927Y281076D01*
X266184Y282466D01*
X265184Y283684D01*
X263966Y284684D01*
X262576Y285427D01*
X261068Y285884D01*
X259500Y286039D01*
X257932Y285884D01*
X256424Y285427D01*
X255034Y284684D01*
X253816Y283684D01*
X252816Y282466D01*
X252073Y281076D01*
X251616Y279568D01*
X251461Y278000D01*
X251479Y277823D01*
X251143Y277453D01*
X243953D01*
Y290819D01*
X239953D01*
Y294693D01*
X236500D01*
Y290937D01*
X235500D01*
Y294693D01*
X232047D01*
Y290819D01*
X228047D01*
Y275870D01*
X195630D01*
Y255437D01*
Y237130D01*
X198382D01*
X198543Y236656D01*
X198147Y236353D01*
X197506Y235517D01*
X197103Y234544D01*
X197031Y234000D01*
X201000D01*
Y233000D01*
X197031D01*
X197103Y232456D01*
X197506Y231483D01*
X198147Y230647D01*
X198983Y230006D01*
X199601Y229750D01*
Y229250D01*
X198983Y228994D01*
X198147Y228353D01*
X197506Y227517D01*
X197103Y226544D01*
X197031Y226000D01*
X201000D01*
Y225500D01*
X201500D01*
Y221531D01*
X202044Y221603D01*
X203017Y222006D01*
X203853Y222647D01*
X204494Y223483D01*
X204897Y224456D01*
X205000Y225238D01*
X205500D01*
X205603Y224456D01*
X206006Y223483D01*
X206647Y222647D01*
X207483Y222006D01*
X208456Y221603D01*
X209000Y221531D01*
Y225500D01*
X210000D01*
Y221531D01*
X210544Y221603D01*
X211517Y222006D01*
X212353Y222647D01*
X212994Y223483D01*
X213397Y224456D01*
X213467Y224988D01*
X213967D01*
X214103Y223956D01*
X214506Y222983D01*
X215147Y222147D01*
X215983Y221506D01*
X216956Y221103D01*
X217500Y221031D01*
Y225000D01*
X218000D01*
Y225500D01*
X221969D01*
X221897Y226044D01*
X221494Y227017D01*
X220853Y227853D01*
X220017Y228494D01*
X219044Y228897D01*
X218012Y229033D01*
Y229533D01*
X218544Y229603D01*
X219517Y230006D01*
X220353Y230647D01*
X220994Y231483D01*
X221397Y232456D01*
X221469Y233000D01*
X217500D01*
Y234000D01*
X221469D01*
X221397Y234544D01*
X220994Y235517D01*
X220353Y236353D01*
X219957Y236656D01*
X220118Y237130D01*
X234370D01*
Y239936D01*
X237752D01*
X239216Y240129D01*
X240581Y240694D01*
X241753Y241593D01*
X242653Y242765D01*
X243218Y244130D01*
X243411Y245595D01*
X243406Y245628D01*
X243362Y245962D01*
D01*
Y247195D01*
D01*
X243411Y247563D01*
X243362Y247931D01*
D01*
Y248190D01*
X243824Y248381D01*
X244699Y247506D01*
X244699Y247506D01*
X245361Y246998D01*
X245869Y246608D01*
X246037Y246539D01*
X245972Y246052D01*
X245912Y245595D01*
X246042Y244610D01*
X245912Y243626D01*
X246105Y242161D01*
X246158Y242034D01*
X245880Y241618D01*
X243150D01*
Y237618D01*
X243150D01*
X242850D01*
X242796Y237618D01*
X242796Y237618D01*
Y237618D01*
X240185D01*
Y231500D01*
Y225382D01*
X242850D01*
D01*
D01*
X242979Y225254D01*
X243150Y225083D01*
Y221382D01*
X257480D01*
Y221382D01*
X257835Y221645D01*
X257932Y221616D01*
X259500Y221461D01*
X261068Y221616D01*
X262576Y222073D01*
X263966Y222816D01*
X265184Y223816D01*
X266184Y225034D01*
X266927Y226424D01*
X267384Y227932D01*
X267539Y229500D01*
X267384Y231068D01*
X266927Y232576D01*
X266184Y233966D01*
X265184Y235184D01*
X264299Y235911D01*
X264467Y236382D01*
X266256D01*
Y238287D01*
X270256D01*
Y238951D01*
X271227Y239047D01*
X272452Y239419D01*
X273062Y239744D01*
X273144Y239788D01*
D01*
X273581Y240022D01*
X273965Y240337D01*
D01*
X274085Y240435D01*
D01*
X274571Y240834D01*
X274886Y241218D01*
X275003Y241360D01*
D01*
X275383Y241824D01*
X275831Y242660D01*
X275987Y242953D01*
X275990Y242964D01*
X276193Y243167D01*
X278017Y244991D01*
X278251Y245224D01*
X298670D01*
X299006Y244854D01*
X298971Y244500D01*
Y218676D01*
Y217536D01*
X297432Y217384D01*
X295924Y216927D01*
X294534Y216184D01*
X293316Y215184D01*
X292316Y213966D01*
X291573Y212576D01*
X291116Y211068D01*
X290979Y209677D01*
X290961Y209500D01*
X291116Y207932D01*
X291573Y206424D01*
X292316Y205034D01*
X292469Y204848D01*
Y196770D01*
X248597D01*
Y196825D01*
Y196827D01*
X244423Y201000D01*
X236077D01*
X231904Y196827D01*
Y183232D01*
X231251Y183034D01*
X230121Y182431D01*
X229132Y181618D01*
X228319Y180629D01*
X227716Y179499D01*
X227344Y178274D01*
X227219Y177000D01*
X227344Y175726D01*
X227716Y174501D01*
X227716Y174500D01*
X227716Y174499D01*
X227344Y173274D01*
X227219Y172000D01*
X227344Y170726D01*
X227716Y169501D01*
X227716Y169500D01*
X227716Y169500D01*
X227344Y168274D01*
X227219Y167000D01*
X227344Y165726D01*
X227716Y164500D01*
X227716Y164500D01*
X227716Y164499D01*
X227344Y163274D01*
X227219Y162000D01*
X227344Y160726D01*
X227544Y160068D01*
X227481Y159800D01*
X227489Y159552D01*
X227457Y159306D01*
Y157368D01*
X227378Y157290D01*
X227264Y157015D01*
D01*
X225940Y157036D01*
X225920Y157034D01*
X225899Y157037D01*
X225265Y156959D01*
X224633Y156886D01*
X224613Y156879D01*
X224592Y156876D01*
X224001Y156637D01*
X223408Y156403D01*
X223391Y156390D01*
X223371Y156382D01*
X222863Y155999D01*
X222350Y155619D01*
X222337Y155602D01*
X222320Y155590D01*
X221964Y155239D01*
X221951Y155222D01*
X221934Y155210D01*
X221546Y154703D01*
X221154Y154201D01*
X221145Y154182D01*
X221132Y154165D01*
X220888Y153576D01*
X220640Y152989D01*
X220637Y152968D01*
X220629Y152949D01*
X220546Y152317D01*
X220457Y151686D01*
X220460Y151664D01*
X220457Y151644D01*
Y124531D01*
X164205D01*
X159031Y129705D01*
Y157969D01*
X170547D01*
Y157307D01*
X186453D01*
Y164681D01*
X189547D01*
Y160807D01*
X193000D01*
Y164563D01*
X194000D01*
Y160807D01*
X197453D01*
Y164681D01*
X199471D01*
Y162764D01*
X198816Y161966D01*
X198073Y160576D01*
X197616Y159068D01*
X197461Y157500D01*
X197616Y155932D01*
X198073Y154424D01*
X198816Y153034D01*
X199816Y151816D01*
X201034Y150816D01*
X202424Y150073D01*
X203932Y149616D01*
X205500Y149461D01*
X207068Y149616D01*
X208576Y150073D01*
X209966Y150816D01*
X211184Y151816D01*
X212184Y153034D01*
X212927Y154424D01*
X213384Y155932D01*
X213539Y157500D01*
X213384Y159068D01*
X213668Y159451D01*
X215750D01*
X216725Y159645D01*
X217552Y160198D01*
X218019Y160896D01*
X218250Y160966D01*
X219379Y161569D01*
X220368Y162382D01*
X221181Y163371D01*
X221784Y164500D01*
X222156Y165726D01*
X222281Y167000D01*
X222156Y168274D01*
X221784Y169500D01*
X221784Y169500D01*
X221784Y169501D01*
X222088Y170500D01*
X222250D01*
Y171681D01*
D01*
X222281Y172000D01*
X222250Y172319D01*
D01*
D01*
Y182000D01*
X223250D01*
Y189000D01*
X219404D01*
Y183500D01*
X212526D01*
X205700Y190326D01*
X205453Y190529D01*
Y193244D01*
X213713D01*
Y197244D01*
X215618D01*
Y204756D01*
X213713D01*
Y205969D01*
X254848D01*
X255034Y205816D01*
X256424Y205073D01*
X257932Y204616D01*
X259500Y204461D01*
X261068Y204616D01*
X262576Y205073D01*
X263966Y205816D01*
X265184Y206816D01*
X266184Y208034D01*
X266927Y209424D01*
X267384Y210932D01*
X267539Y212500D01*
X267384Y214068D01*
X266927Y215576D01*
X266184Y216966D01*
X265184Y218184D01*
X263966Y219184D01*
X262576Y219927D01*
X261068Y220384D01*
X259500Y220539D01*
X257932Y220384D01*
X256424Y219927D01*
X255034Y219184D01*
X254848Y219031D01*
X194031D01*
Y225614D01*
Y233500D01*
X193906Y234774D01*
X193534Y235999D01*
X192931Y237129D01*
X192118Y238118D01*
X191129Y238931D01*
X189999Y239534D01*
X188774Y239906D01*
X187500Y240031D01*
X142629D01*
X142383Y240442D01*
X142838Y241941D01*
X142991Y243500D01*
X142838Y245059D01*
X142383Y246558D01*
X141645Y247940D01*
X141185Y248500D01*
X141645Y249060D01*
X142383Y250442D01*
X142838Y251941D01*
X142857Y252139D01*
X142913Y252324D01*
X143029Y253500D01*
X142913Y254676D01*
X142857Y254861D01*
X142838Y255059D01*
X142383Y256558D01*
X141740Y257761D01*
X141885Y258239D01*
X142350Y258487D01*
X143263Y259237D01*
X155763Y271737D01*
X155763Y271737D01*
X155763Y271737D01*
X156513Y272651D01*
X157070Y273693D01*
X157070Y273693D01*
X157070Y273693D01*
X157413Y274824D01*
X157529Y276000D01*
X157529Y276000D01*
D01*
X202991Y321465D01*
X202997Y321471D01*
X238480D01*
X239656Y321587D01*
X240788Y321930D01*
X241830Y322487D01*
X242743Y323237D01*
X247040Y327534D01*
X247937Y327622D01*
X249065Y327964D01*
X250104Y328520D01*
X250701Y329009D01*
X251253Y328556D01*
Y326162D01*
X251253Y326161D01*
X251446Y324699D01*
X251446Y324699D01*
X251446D01*
X251807Y323827D01*
Y315547D01*
X267319D01*
Y319547D01*
X271193D01*
Y323000D01*
X267437D01*
Y324000D01*
X271193D01*
Y327453D01*
X267319D01*
Y331231D01*
X268243D01*
X274971Y324503D01*
D02*
G37*
G36*
X227457Y151967D02*
Y150866D01*
X227629Y149561D01*
X228133Y148345D01*
X228923Y147315D01*
X228702Y146866D01*
X227224D01*
Y138000D01*
X240130D01*
Y145823D01*
X242356D01*
X242825Y145629D01*
X244130Y145457D01*
X249500D01*
Y144750D01*
X256457D01*
Y144637D01*
Y141318D01*
X255995Y141127D01*
X254701Y142421D01*
X252732D01*
Y136500D01*
Y130579D01*
X254701D01*
X255995Y131873D01*
D01*
X256457Y131682D01*
D01*
Y128500D01*
X256629Y127195D01*
X257133Y125978D01*
X257934Y124934D01*
X258434Y124434D01*
X258445Y124423D01*
X258172Y123762D01*
X258000Y122457D01*
Y115500D01*
X257953D01*
X257909Y115393D01*
X257781Y114915D01*
X257622Y114447D01*
X257611Y114282D01*
X257568Y114121D01*
Y113627D01*
X257536Y113133D01*
X257568Y112971D01*
Y112805D01*
X257334Y112500D01*
X218055D01*
Y119488D01*
X220457D01*
X221762Y119660D01*
X222978Y120164D01*
X224023Y120965D01*
X224824Y122010D01*
X225328Y123226D01*
X225500Y124531D01*
Y147375D01*
Y151644D01*
X225856Y151994D01*
X227457Y151967D01*
D02*
G37*
G36*
X140134Y69629D02*
Y64547D01*
X125048D01*
Y84062D01*
X125509Y84254D01*
X140134Y69629D01*
D02*
G37*
G36*
X340948Y315529D02*
X309000D01*
X307824Y315413D01*
X306693Y315070D01*
X306326Y314874D01*
X305517Y315494D01*
X304544Y315897D01*
X303500Y316035D01*
X302456Y315897D01*
X301483Y315494D01*
X300647Y314853D01*
X300006Y314017D01*
X299603Y313044D01*
X299465Y312000D01*
X299603Y310956D01*
X300006Y309983D01*
X300419Y309445D01*
X300003Y309029D01*
X295497D01*
X287029Y317497D01*
Y327000D01*
X286913Y328176D01*
X286570Y329307D01*
X286376Y329670D01*
X286013Y330349D01*
X285263Y331263D01*
X285263Y331263D01*
X275003Y341523D01*
X274090Y342273D01*
X273047Y342830D01*
X271916Y343173D01*
X270740Y343289D01*
X261213D01*
Y345744D01*
X263118D01*
Y353256D01*
X261213D01*
Y357256D01*
X246882D01*
Y356250D01*
X232500D01*
Y370452D01*
X235000D01*
Y367250D01*
X243000D01*
Y370452D01*
X340948D01*
Y315529D01*
D02*
G37*
%LPC*%
G36*
X207823Y137000D02*
X201870D01*
Y128134D01*
X207823D01*
Y137000D01*
D02*
G37*
G36*
X187500Y146469D02*
Y143000D01*
X190969D01*
X190897Y143544D01*
X190494Y144517D01*
X189853Y145353D01*
X189017Y145994D01*
X188044Y146397D01*
X187500Y146469D01*
D02*
G37*
G36*
X214776Y137000D02*
X208823D01*
Y128134D01*
X214776D01*
Y137000D01*
D02*
G37*
G36*
X233177D02*
X227224D01*
Y128134D01*
X233177D01*
Y137000D01*
D02*
G37*
G36*
X179000Y146469D02*
X178456Y146397D01*
X177483Y145994D01*
X176647Y145353D01*
X176250Y144835D01*
X175750D01*
X175353Y145353D01*
X174517Y145994D01*
X173544Y146397D01*
X173000Y146469D01*
Y142500D01*
Y138531D01*
X173544Y138603D01*
X174517Y139006D01*
X175353Y139647D01*
X175750Y140165D01*
X176250D01*
X176647Y139647D01*
X177483Y139006D01*
X178456Y138603D01*
X179000Y138531D01*
Y142500D01*
Y146469D01*
D02*
G37*
G36*
X162866Y104130D02*
X154000D01*
Y98177D01*
X162866D01*
Y104130D01*
D02*
G37*
G36*
X153000D02*
X144134D01*
Y98177D01*
X153000D01*
Y104130D01*
D02*
G37*
G36*
X186500Y146469D02*
X185956Y146397D01*
X184983Y145994D01*
X184147Y145353D01*
X183506Y144517D01*
X183500Y144503D01*
X183000D01*
X182994Y144517D01*
X182353Y145353D01*
X181517Y145994D01*
X180544Y146397D01*
X180000Y146469D01*
Y142500D01*
Y138531D01*
X180544Y138603D01*
X181517Y139006D01*
X182353Y139647D01*
X182994Y140483D01*
X183000Y140497D01*
X183500D01*
X183506Y140483D01*
X184147Y139647D01*
X184983Y139006D01*
X185956Y138603D01*
X186500Y138531D01*
Y142500D01*
Y146469D01*
D02*
G37*
G36*
X240130Y137000D02*
X234177D01*
Y128134D01*
X240130D01*
Y137000D01*
D02*
G37*
G36*
X273705Y142421D02*
X269268D01*
Y137000D01*
X273705D01*
Y142421D01*
D02*
G37*
G36*
X268268D02*
X263831D01*
Y137000D01*
X268268D01*
Y142421D01*
D02*
G37*
G36*
X172000Y142000D02*
X168531D01*
X168603Y141456D01*
X169006Y140483D01*
X169647Y139647D01*
X170483Y139006D01*
X171456Y138603D01*
X172000Y138531D01*
Y142000D01*
D02*
G37*
G36*
X214776Y146866D02*
X208823D01*
Y138000D01*
X214776D01*
Y146866D01*
D02*
G37*
G36*
X207823D02*
X201870D01*
Y138000D01*
X207823D01*
Y146866D01*
D02*
G37*
G36*
X251732Y142421D02*
X249764D01*
X247295Y139953D01*
Y137000D01*
X251732D01*
Y142421D01*
D02*
G37*
G36*
X172000Y146469D02*
X171456Y146397D01*
X170483Y145994D01*
X169647Y145353D01*
X169006Y144517D01*
X168603Y143544D01*
X168531Y143000D01*
X172000D01*
Y146469D01*
D02*
G37*
G36*
X251732Y136000D02*
X247295D01*
Y133047D01*
X249764Y130579D01*
X251732D01*
Y136000D01*
D02*
G37*
G36*
X268268D02*
X263831D01*
Y130579D01*
X268268D01*
Y136000D01*
D02*
G37*
G36*
X190969Y142000D02*
X187500D01*
Y138531D01*
X188044Y138603D01*
X189017Y139006D01*
X189853Y139647D01*
X190494Y140483D01*
X190897Y141456D01*
X190969Y142000D01*
D02*
G37*
G36*
X273705Y136000D02*
X269268D01*
Y130579D01*
X273705D01*
Y136000D01*
D02*
G37*
G36*
X240500Y98469D02*
Y95000D01*
X243969D01*
X243897Y95544D01*
X243494Y96517D01*
X242853Y97353D01*
X242017Y97994D01*
X241044Y98397D01*
X240500Y98469D01*
D02*
G37*
G36*
X227165Y82945D02*
X222335D01*
Y76047D01*
X227165D01*
Y82945D01*
D02*
G37*
G36*
X221335D02*
X216504D01*
Y76047D01*
X221335D01*
Y82945D01*
D02*
G37*
G36*
X252500Y75969D02*
Y72500D01*
X255969D01*
X255897Y73044D01*
X255494Y74017D01*
X254853Y74853D01*
X254017Y75494D01*
X253044Y75897D01*
X252500Y75969D01*
D02*
G37*
G36*
X239500Y83000D02*
X236031D01*
X236103Y82456D01*
X236506Y81483D01*
X237147Y80647D01*
X237983Y80006D01*
X238956Y79603D01*
X239500Y79531D01*
Y83000D01*
D02*
G37*
G36*
X255969D02*
X252500D01*
Y79531D01*
X253044Y79603D01*
X254017Y80006D01*
X254853Y80647D01*
X255494Y81483D01*
X255897Y82456D01*
X255969Y83000D01*
D02*
G37*
G36*
X251500D02*
X248031D01*
X248103Y82456D01*
X248506Y81483D01*
X249147Y80647D01*
X249983Y80006D01*
X250956Y79603D01*
X251500Y79531D01*
Y83000D01*
D02*
G37*
G36*
X243969D02*
X240500D01*
Y79531D01*
X241044Y79603D01*
X242017Y80006D01*
X242853Y80647D01*
X243494Y81483D01*
X243897Y82456D01*
X243969Y83000D01*
D02*
G37*
G36*
X251500Y71500D02*
X248031D01*
X248103Y70956D01*
X248506Y69983D01*
X249147Y69147D01*
X249983Y68506D01*
X250956Y68103D01*
X251500Y68031D01*
Y71500D01*
D02*
G37*
G36*
X243969Y71000D02*
X240500D01*
Y67531D01*
X241044Y67603D01*
X242017Y68006D01*
X242853Y68647D01*
X243494Y69483D01*
X243897Y70456D01*
X243969Y71000D01*
D02*
G37*
G36*
X239500D02*
X236031D01*
X236103Y70456D01*
X236506Y69483D01*
X237147Y68647D01*
X237983Y68006D01*
X238956Y67603D01*
X239500Y67531D01*
Y71000D01*
D02*
G37*
G36*
X255969Y71500D02*
X252500D01*
Y68031D01*
X253044Y68103D01*
X254017Y68506D01*
X254853Y69147D01*
X255494Y69983D01*
X255897Y70956D01*
X255969Y71500D01*
D02*
G37*
G36*
X251500Y75969D02*
X250956Y75897D01*
X249983Y75494D01*
X249147Y74853D01*
X248506Y74017D01*
X248103Y73044D01*
X248031Y72500D01*
X251500D01*
Y75969D01*
D02*
G37*
G36*
X240500Y75469D02*
Y72000D01*
X243969D01*
X243897Y72544D01*
X243494Y73517D01*
X242853Y74353D01*
X242017Y74994D01*
X241044Y75397D01*
X240500Y75469D01*
D02*
G37*
G36*
X239500D02*
X238956Y75397D01*
X237983Y74994D01*
X237147Y74353D01*
X236506Y73517D01*
X236103Y72544D01*
X236031Y72000D01*
X239500D01*
Y75469D01*
D02*
G37*
G36*
X221335Y90842D02*
X216504D01*
Y83945D01*
X221335D01*
Y90842D01*
D02*
G37*
G36*
X153000Y97177D02*
X144134D01*
Y91224D01*
X153000D01*
Y97177D01*
D02*
G37*
G36*
X243969Y94000D02*
X240500D01*
Y90531D01*
X241044Y90603D01*
X242017Y91006D01*
X242853Y91647D01*
X243494Y92483D01*
X243897Y93456D01*
X243969Y94000D01*
D02*
G37*
G36*
X239500D02*
X236031D01*
X236103Y93456D01*
X236506Y92483D01*
X237147Y91647D01*
X237983Y91006D01*
X238956Y90603D01*
X239500Y90531D01*
Y94000D01*
D02*
G37*
G36*
X162866Y97177D02*
X154000D01*
Y91224D01*
X162866D01*
Y97177D01*
D02*
G37*
G36*
X239500Y98469D02*
X238956Y98397D01*
X237983Y97994D01*
X237147Y97353D01*
X236506Y96517D01*
X236103Y95544D01*
X236031Y95000D01*
X239500D01*
Y98469D01*
D02*
G37*
G36*
X252500Y97969D02*
Y94500D01*
X255969D01*
X255897Y95044D01*
X255494Y96017D01*
X254853Y96853D01*
X254017Y97494D01*
X253044Y97897D01*
X252500Y97969D01*
D02*
G37*
G36*
X251500D02*
X250956Y97897D01*
X249983Y97494D01*
X249147Y96853D01*
X248506Y96017D01*
X248103Y95044D01*
X248031Y94500D01*
X251500D01*
Y97969D01*
D02*
G37*
G36*
X240500Y87469D02*
Y84000D01*
X243969D01*
X243897Y84544D01*
X243494Y85517D01*
X242853Y86353D01*
X242017Y86994D01*
X241044Y87397D01*
X240500Y87469D01*
D02*
G37*
G36*
X239500D02*
X238956Y87397D01*
X237983Y86994D01*
X237147Y86353D01*
X236506Y85517D01*
X236103Y84544D01*
X236031Y84000D01*
X239500D01*
Y87469D01*
D02*
G37*
G36*
X227165Y90842D02*
X222335D01*
Y83945D01*
X227165D01*
Y90842D01*
D02*
G37*
G36*
X251500Y87469D02*
X250956Y87397D01*
X249983Y86994D01*
X249147Y86353D01*
X248506Y85517D01*
X248103Y84544D01*
X248031Y84000D01*
X251500D01*
Y87469D01*
D02*
G37*
G36*
X255969Y93500D02*
X252500D01*
Y90031D01*
X253044Y90103D01*
X254017Y90506D01*
X254853Y91147D01*
X255494Y91983D01*
X255897Y92956D01*
X255969Y93500D01*
D02*
G37*
G36*
X251500D02*
X248031D01*
X248103Y92956D01*
X248506Y91983D01*
X249147Y91147D01*
X249983Y90506D01*
X250956Y90103D01*
X251500Y90031D01*
Y93500D01*
D02*
G37*
G36*
X252500Y87469D02*
Y84000D01*
X255969D01*
X255897Y84544D01*
X255494Y85517D01*
X254853Y86353D01*
X254017Y86994D01*
X253044Y87397D01*
X252500Y87469D01*
D02*
G37*
G36*
X172000Y151500D02*
X168531D01*
X168603Y150956D01*
X169006Y149983D01*
X169647Y149147D01*
X170483Y148506D01*
X171456Y148103D01*
X172000Y148031D01*
Y151500D01*
D02*
G37*
G36*
X172969Y314000D02*
X169500D01*
Y310531D01*
X170044Y310603D01*
X171017Y311006D01*
X171853Y311647D01*
X172494Y312483D01*
X172897Y313456D01*
X172969Y314000D01*
D02*
G37*
G36*
X168500D02*
X165031D01*
X165103Y313456D01*
X165506Y312483D01*
X166147Y311647D01*
X166983Y311006D01*
X167956Y310603D01*
X168500Y310531D01*
Y314000D01*
D02*
G37*
G36*
X160000Y308969D02*
Y305500D01*
X163469D01*
X163397Y306044D01*
X162994Y307017D01*
X162353Y307853D01*
X161517Y308494D01*
X160544Y308897D01*
X160000Y308969D01*
D02*
G37*
G36*
X228500Y314000D02*
X225031D01*
X225103Y313456D01*
X225506Y312483D01*
X226147Y311647D01*
X226983Y311006D01*
X227956Y310603D01*
X228500Y310531D01*
Y314000D01*
D02*
G37*
G36*
X220969D02*
X217500D01*
Y310531D01*
X218044Y310603D01*
X219017Y311006D01*
X219853Y311647D01*
X220494Y312483D01*
X220897Y313456D01*
X220969Y314000D01*
D02*
G37*
G36*
X216500D02*
X213031D01*
X213103Y313456D01*
X213506Y312483D01*
X214147Y311647D01*
X214983Y311006D01*
X215956Y310603D01*
X216500Y310531D01*
Y314000D01*
D02*
G37*
G36*
X159000Y308969D02*
X158456Y308897D01*
X157483Y308494D01*
X156647Y307853D01*
X156006Y307017D01*
X155603Y306044D01*
X155531Y305500D01*
X159000D01*
Y308969D01*
D02*
G37*
G36*
X149500Y300469D02*
X148956Y300397D01*
X147983Y299994D01*
X147147Y299353D01*
X146506Y298517D01*
X146103Y297544D01*
X146031Y297000D01*
X149500D01*
Y300469D01*
D02*
G37*
G36*
X338469Y300000D02*
X335000D01*
Y296531D01*
X335544Y296603D01*
X336517Y297006D01*
X337353Y297647D01*
X337994Y298483D01*
X338397Y299456D01*
X338469Y300000D01*
D02*
G37*
G36*
X153969Y296000D02*
X150500D01*
Y292531D01*
X151044Y292603D01*
X152017Y293006D01*
X152853Y293647D01*
X153494Y294483D01*
X153897Y295456D01*
X153969Y296000D01*
D02*
G37*
G36*
X163469Y304500D02*
X160000D01*
Y301031D01*
X160544Y301103D01*
X161517Y301506D01*
X162353Y302147D01*
X162994Y302983D01*
X163397Y303956D01*
X163469Y304500D01*
D02*
G37*
G36*
X159000D02*
X155531D01*
X155603Y303956D01*
X156006Y302983D01*
X156647Y302147D01*
X157483Y301506D01*
X158456Y301103D01*
X159000Y301031D01*
Y304500D01*
D02*
G37*
G36*
X150500Y300469D02*
Y297000D01*
X153969D01*
X153897Y297544D01*
X153494Y298517D01*
X152853Y299353D01*
X152017Y299994D01*
X151044Y300397D01*
X150500Y300469D01*
D02*
G37*
G36*
X240500Y318469D02*
X239956Y318397D01*
X238983Y317994D01*
X238147Y317353D01*
X237506Y316517D01*
X237103Y315544D01*
X237031Y315000D01*
X240500D01*
Y318469D01*
D02*
G37*
G36*
X229500D02*
Y315000D01*
X232969D01*
X232897Y315544D01*
X232494Y316517D01*
X231853Y317353D01*
X231017Y317994D01*
X230044Y318397D01*
X229500Y318469D01*
D02*
G37*
G36*
X228500D02*
X227956Y318397D01*
X226983Y317994D01*
X226147Y317353D01*
X225506Y316517D01*
X225103Y315544D01*
X225031Y315000D01*
X228500D01*
Y318469D01*
D02*
G37*
G36*
X243000Y366250D02*
X239500D01*
Y362750D01*
X243000D01*
Y366250D01*
D02*
G37*
G36*
X238500D02*
X235000D01*
Y362750D01*
X238500D01*
Y366250D01*
D02*
G37*
G36*
X241500Y318469D02*
Y315000D01*
X244969D01*
X244897Y315544D01*
X244494Y316517D01*
X243853Y317353D01*
X243017Y317994D01*
X242044Y318397D01*
X241500Y318469D01*
D02*
G37*
G36*
X217500D02*
Y315000D01*
X220969D01*
X220897Y315544D01*
X220494Y316517D01*
X219853Y317353D01*
X219017Y317994D01*
X218044Y318397D01*
X217500Y318469D01*
D02*
G37*
G36*
X244969Y314000D02*
X241500D01*
Y310531D01*
X242044Y310603D01*
X243017Y311006D01*
X243853Y311647D01*
X244494Y312483D01*
X244897Y313456D01*
X244969Y314000D01*
D02*
G37*
G36*
X240500D02*
X237031D01*
X237103Y313456D01*
X237506Y312483D01*
X238147Y311647D01*
X238983Y311006D01*
X239956Y310603D01*
X240500Y310531D01*
Y314000D01*
D02*
G37*
G36*
X232969D02*
X229500D01*
Y310531D01*
X230044Y310603D01*
X231017Y311006D01*
X231853Y311647D01*
X232494Y312483D01*
X232897Y313456D01*
X232969Y314000D01*
D02*
G37*
G36*
X216500Y318469D02*
X215956Y318397D01*
X214983Y317994D01*
X214147Y317353D01*
X213506Y316517D01*
X213103Y315544D01*
X213031Y315000D01*
X216500D01*
Y318469D01*
D02*
G37*
G36*
X169500D02*
Y315000D01*
X172969D01*
X172897Y315544D01*
X172494Y316517D01*
X171853Y317353D01*
X171017Y317994D01*
X170044Y318397D01*
X169500Y318469D01*
D02*
G37*
G36*
X168500D02*
X167956Y318397D01*
X166983Y317994D01*
X166147Y317353D01*
X165506Y316517D01*
X165103Y315544D01*
X165031Y315000D01*
X168500D01*
Y318469D01*
D02*
G37*
G36*
X149500Y296000D02*
X146031D01*
X146103Y295456D01*
X146506Y294483D01*
X147147Y293647D01*
X147983Y293006D01*
X148956Y292603D01*
X149500Y292531D01*
Y296000D01*
D02*
G37*
G36*
X228097Y189000D02*
X224250D01*
Y182000D01*
X228097D01*
Y189000D01*
D02*
G37*
G36*
X261500Y175250D02*
X258000D01*
Y171750D01*
X261500D01*
Y175250D01*
D02*
G37*
G36*
X257000D02*
X253500D01*
Y171750D01*
X257000D01*
Y175250D01*
D02*
G37*
G36*
X221969Y224500D02*
X218500D01*
Y221031D01*
X219044Y221103D01*
X220017Y221506D01*
X220853Y222147D01*
X221494Y222983D01*
X221897Y223956D01*
X221969Y224500D01*
D02*
G37*
G36*
X228097Y197000D02*
X224250D01*
Y190000D01*
X228097D01*
Y197000D01*
D02*
G37*
G36*
X223250D02*
X219404D01*
Y190000D01*
X223250D01*
Y197000D01*
D02*
G37*
G36*
X261500Y170750D02*
X258000D01*
Y167250D01*
X261500D01*
Y170750D01*
D02*
G37*
G36*
X187500Y155969D02*
Y152500D01*
X190969D01*
X190897Y153044D01*
X190494Y154017D01*
X189853Y154853D01*
X189017Y155494D01*
X188044Y155897D01*
X187500Y155969D01*
D02*
G37*
G36*
X172000D02*
X171456Y155897D01*
X170483Y155494D01*
X169647Y154853D01*
X169006Y154017D01*
X168603Y153044D01*
X168531Y152500D01*
X172000D01*
Y155969D01*
D02*
G37*
G36*
X190969Y151500D02*
X187500D01*
Y148031D01*
X188044Y148103D01*
X189017Y148506D01*
X189853Y149147D01*
X190494Y149983D01*
X190897Y150956D01*
X190969Y151500D01*
D02*
G37*
G36*
X257000Y170750D02*
X253500D01*
Y167250D01*
X257000D01*
Y170750D01*
D02*
G37*
G36*
X179000Y155969D02*
X178456Y155897D01*
X177483Y155494D01*
X176647Y154853D01*
X176250Y154335D01*
X175750D01*
X175353Y154853D01*
X174517Y155494D01*
X173544Y155897D01*
X173000Y155969D01*
Y152000D01*
Y148031D01*
X173544Y148103D01*
X174517Y148506D01*
X175353Y149147D01*
X175750Y149665D01*
X176250D01*
X176647Y149147D01*
X177483Y148506D01*
X178456Y148103D01*
X179000Y148031D01*
Y152000D01*
Y155969D01*
D02*
G37*
G36*
X186500D02*
X185956Y155897D01*
X184983Y155494D01*
X184147Y154853D01*
X183506Y154017D01*
X183500Y154003D01*
X183000D01*
X182994Y154017D01*
X182353Y154853D01*
X181517Y155494D01*
X180544Y155897D01*
X180000Y155969D01*
Y152000D01*
Y148031D01*
X180544Y148103D01*
X181517Y148506D01*
X182353Y149147D01*
X182994Y149983D01*
X183000Y149997D01*
X183500D01*
X183506Y149983D01*
X184147Y149147D01*
X184983Y148506D01*
X185956Y148103D01*
X186500Y148031D01*
Y152000D01*
Y155969D01*
D02*
G37*
G36*
X334500Y277421D02*
X333968Y277351D01*
X333007Y276953D01*
X332181Y276319D01*
X331547Y275493D01*
X331149Y274532D01*
X331079Y274000D01*
X334500D01*
Y277421D01*
D02*
G37*
G36*
X138953Y277453D02*
X135500D01*
Y274000D01*
X138953D01*
Y277453D01*
D02*
G37*
G36*
X296866Y262130D02*
X288000D01*
Y256177D01*
X296866D01*
Y262130D01*
D02*
G37*
G36*
X322969Y291500D02*
X319500D01*
Y288031D01*
X320044Y288103D01*
X321017Y288506D01*
X321853Y289147D01*
X322494Y289983D01*
X322897Y290956D01*
X322969Y291500D01*
D02*
G37*
G36*
X318500D02*
X315031D01*
X315103Y290956D01*
X315506Y289983D01*
X316147Y289147D01*
X316983Y288506D01*
X317956Y288103D01*
X318500Y288031D01*
Y291500D01*
D02*
G37*
G36*
X335500Y277421D02*
Y274000D01*
X338921D01*
X338851Y274532D01*
X338453Y275493D01*
X337819Y276319D01*
X336993Y276953D01*
X336032Y277351D01*
X335500Y277421D01*
D02*
G37*
G36*
X239185Y237618D02*
X236520D01*
Y232000D01*
X239185D01*
Y237618D01*
D02*
G37*
G36*
X296866Y229823D02*
X288000D01*
Y223870D01*
X296866D01*
Y229823D01*
D02*
G37*
G36*
X287000D02*
X278134D01*
Y223870D01*
X287000D01*
Y229823D01*
D02*
G37*
G36*
X200500Y225000D02*
X197031D01*
X197103Y224456D01*
X197506Y223483D01*
X198147Y222647D01*
X198983Y222006D01*
X199956Y221603D01*
X200500Y221531D01*
Y225000D01*
D02*
G37*
G36*
X296866Y236776D02*
X288000D01*
Y230823D01*
X296866D01*
Y236776D01*
D02*
G37*
G36*
X287000D02*
X278134D01*
Y230823D01*
X287000D01*
Y236776D01*
D02*
G37*
G36*
X239185Y231000D02*
X236520D01*
Y225382D01*
X239185D01*
Y231000D01*
D02*
G37*
%LPD*%
D10*
X256902Y333520D02*
D03*
Y337260D02*
D03*
Y341000D02*
D03*
X244500Y333520D02*
D03*
Y337260D02*
D03*
D11*
Y341000D02*
D03*
D12*
X181000Y92453D02*
D03*
Y86547D02*
D03*
X322500Y248547D02*
D03*
Y254453D02*
D03*
X262500Y245453D02*
D03*
Y239547D02*
D03*
D13*
X236000Y283063D02*
D03*
Y290937D02*
D03*
X193500Y164563D02*
D03*
Y172437D02*
D03*
X178500Y172937D02*
D03*
Y165063D02*
D03*
X197500Y193937D02*
D03*
Y186063D02*
D03*
D14*
X262437Y260000D02*
D03*
X254563D02*
D03*
X241063Y269500D02*
D03*
X248937D02*
D03*
X258063D02*
D03*
X265937D02*
D03*
X267437Y323500D02*
D03*
X259563D02*
D03*
D15*
X246453Y260500D02*
D03*
X240547D02*
D03*
X259953Y349500D02*
D03*
X254047D02*
D03*
X212453Y201000D02*
D03*
X206547D02*
D03*
D16*
X215000Y265653D02*
D03*
Y247346D02*
D03*
D17*
X250315Y231500D02*
D03*
X239685D02*
D03*
D18*
X153500Y72323D02*
D03*
Y97677D02*
D03*
X287500Y230323D02*
D03*
Y255677D02*
D03*
D19*
X199000Y92500D02*
D03*
D20*
Y83445D02*
D03*
Y74390D02*
D03*
D21*
X221835Y83445D02*
D03*
D22*
X216177Y349000D02*
D03*
D23*
X225823D02*
D03*
D24*
X239000Y348250D02*
D03*
Y366750D02*
D03*
X257500Y171250D02*
D03*
Y152750D02*
D03*
D25*
X220185Y337500D02*
D03*
X230815D02*
D03*
D26*
X235000Y162000D02*
D03*
Y167000D02*
D03*
Y172000D02*
D03*
Y177000D02*
D03*
X214500Y162000D02*
D03*
Y167000D02*
D03*
Y172000D02*
D03*
D27*
Y177000D02*
D03*
D28*
X208323Y137500D02*
D03*
X233677D02*
D03*
D29*
X268768Y136500D02*
D03*
D30*
X252232D02*
D03*
D31*
X240250Y189500D02*
D03*
D32*
X223750D02*
D03*
D33*
X236000Y251500D02*
D03*
D34*
Y249532D02*
D03*
Y247563D02*
D03*
Y245595D02*
D03*
Y243626D02*
D03*
X253323Y251500D02*
D03*
Y249532D02*
D03*
Y247563D02*
D03*
Y245595D02*
D03*
Y243626D02*
D03*
D35*
X305000Y255000D02*
D03*
D36*
Y252441D02*
D03*
Y249882D02*
D03*
X312480Y255000D02*
D03*
Y252441D02*
D03*
Y249882D02*
D03*
D37*
X236000Y278500D02*
Y283063D01*
X234500Y277000D02*
X236000Y278500D01*
X234500Y259500D02*
Y277000D01*
X305000Y244500D02*
Y249882D01*
X239000Y366750D02*
X239750Y367500D01*
X255500D01*
X259953Y363047D01*
Y349500D02*
Y363047D01*
X265500Y341000D02*
Y343953D01*
X256902Y341000D02*
X265500D01*
D38*
X234500Y259500D02*
X236000Y258000D01*
Y251500D02*
Y258000D01*
X273000Y274063D02*
X277937Y279000D01*
X273000Y267000D02*
Y274063D01*
X266000Y260000D02*
X273000Y267000D01*
X262437Y260000D02*
X266000D01*
X254563Y266000D02*
X258063Y269500D01*
X254563Y260000D02*
Y266000D01*
Y260000D02*
X256885Y257678D01*
Y249885D02*
Y257678D01*
X256532Y249532D02*
X256885Y249885D01*
X248937Y269500D02*
X258063D01*
X246453Y260500D02*
Y262547D01*
X241063Y267937D02*
X246453Y262547D01*
X241063Y267937D02*
Y269500D01*
X239685Y239099D02*
X243362Y242776D01*
Y247931D01*
X266500Y256000D02*
X284763Y274263D01*
X241761Y249532D02*
X243362Y247931D01*
X236000Y249532D02*
X241761D01*
X257992Y247563D02*
X259247Y248818D01*
X259318D01*
X263500Y253000D01*
X266500Y256000D01*
X249260Y337260D02*
X251000Y339000D01*
X244500Y337260D02*
X249260D01*
X232000Y248500D02*
Y256000D01*
X235937Y247500D02*
X236000Y247563D01*
X233000Y247500D02*
X235937D01*
X232000Y248500D02*
X233000Y247500D01*
X215000Y247346D02*
X216752Y245595D01*
X332000Y253500D02*
X335000D01*
X328500Y257000D02*
X332000Y253500D01*
X252535Y245595D02*
X252677Y245453D01*
X262500D01*
X287500Y230323D02*
X295323D01*
X299000Y234000D01*
X311890Y252441D02*
X316941D01*
X318953Y254453D01*
X322500D01*
X299000Y234000D02*
Y248000D01*
X303441Y252441D01*
X305000D01*
X253323Y249532D02*
X256532D01*
X253323Y247563D02*
X257992D01*
D39*
X240547Y259646D02*
Y260500D01*
Y259646D02*
X248693Y251500D01*
X253323D01*
X256902Y326161D02*
X259563Y323500D01*
X256902Y326161D02*
Y333520D01*
X251000Y346453D02*
X254047Y349500D01*
X251000Y339000D02*
Y346453D01*
X249260Y337260D02*
X251000Y335520D01*
Y325000D02*
Y335520D01*
X230815Y337500D02*
X231055Y337260D01*
X216752Y245595D02*
X236000D01*
D40*
X265937Y269500D02*
Y271563D01*
X259500Y278000D02*
X265937Y271563D01*
X187500Y213500D02*
X188500Y212500D01*
X187500Y213500D02*
Y233500D01*
X135000D02*
X187500D01*
X188500Y212500D02*
X259500D01*
X290937Y292000D02*
X319000D01*
X277937Y279000D02*
X290937Y292000D01*
X281937Y301000D02*
X290937Y292000D01*
X273500Y301000D02*
X281937D01*
X235000Y157000D02*
Y162000D01*
X253323Y242753D02*
X253500D01*
Y234685D02*
Y242753D01*
X250315Y231500D02*
X253500Y234685D01*
X252315Y229500D02*
X259500D01*
X250315Y231500D02*
X252315Y229500D01*
X133500Y243500D02*
X135000D01*
X127500Y237500D02*
X133500Y243500D01*
X127500Y91500D02*
Y237500D01*
Y91500D02*
X146677Y72323D01*
X153500D01*
X199000Y83445D02*
X221835D01*
X184102D02*
X199000D01*
X181000Y86547D02*
X184102Y83445D01*
X153500Y97677D02*
X164630Y86547D01*
X181000D01*
X153500Y72323D02*
X175323D01*
X177390Y74390D01*
X199000D01*
X198953Y92453D02*
X199000Y92500D01*
X181000Y92453D02*
X198953D01*
X181000Y118000D02*
X229000D01*
X161500D02*
X181000D01*
Y92453D02*
Y118000D01*
X225823Y349000D02*
X236500D01*
X251563Y313937D02*
X267437D01*
Y322563D01*
X273500Y316500D01*
Y301000D02*
Y316500D01*
X303500Y312000D02*
Y334000D01*
X296500Y341000D02*
X303500Y334000D01*
X279500Y341000D02*
X296500D01*
X135000Y182000D02*
Y223500D01*
Y182000D02*
X152500Y164500D01*
X223500Y201000D02*
X224250Y201750D01*
X212453Y201000D02*
X223500D01*
X299000Y174000D02*
Y211000D01*
X280500Y174500D02*
X292500D01*
X243000Y220000D02*
X276677D01*
X277177D02*
X287500Y230323D01*
X262500Y239547D02*
X271724Y230323D01*
X287500D01*
X209500Y225500D02*
Y233500D01*
Y225500D02*
X217500D01*
X201000D02*
X209500D01*
Y233500D02*
X217500D01*
X201000D02*
X209500D01*
X236000Y242784D02*
X239685Y239099D01*
Y231500D02*
Y239099D01*
X262500Y245453D02*
X269953D01*
X322500Y254453D02*
Y259500D01*
X319000Y263000D02*
X322500Y259500D01*
X327000Y300500D02*
X334500D01*
X318500Y300000D02*
X326500D01*
X319000Y292000D02*
X335000D01*
Y273500D02*
Y292000D01*
X314500Y223500D02*
X335000D01*
X187000Y148531D02*
Y152000D01*
X193500Y141000D02*
Y164563D01*
X187000Y142500D02*
X192000D01*
X187000Y137500D02*
Y142500D01*
Y145969D01*
X179500Y137500D02*
Y142500D01*
Y145500D01*
X168531Y143000D02*
X169031Y142500D01*
X172500D01*
Y137500D02*
Y142500D01*
X172000Y142000D02*
X172500Y142500D01*
Y152000D01*
Y156500D01*
X168000Y152000D02*
X172500D01*
X172000Y152500D02*
X172500Y152000D01*
X179500Y148531D02*
Y152000D01*
Y155469D01*
X187000Y152000D02*
Y156500D01*
Y152000D02*
X193000D01*
X224250Y191000D02*
Y201750D01*
X227500Y205000D01*
X270500D01*
X285500Y220000D01*
X216198Y160198D02*
X216802D01*
X214802D02*
X216198D01*
X216500Y160500D01*
X214500Y158500D02*
X216198Y160198D01*
X214500Y158500D02*
Y162000D01*
X216500Y160500D02*
X216802Y160198D01*
X193500Y141000D02*
X197000Y137500D01*
X208323D01*
Y146323D01*
X224250Y162250D01*
Y185250D01*
X177937Y164500D02*
X178500Y165063D01*
X152500Y164500D02*
X177937D01*
X152500Y127000D02*
Y164500D01*
Y127000D02*
X161500Y118000D01*
X229000D02*
X233677Y122677D01*
Y137500D01*
X234677Y136500D01*
X252232D01*
D41*
X328500Y257000D02*
Y264500D01*
X318737Y274263D02*
X328500Y264500D01*
X284763Y274263D02*
X318737D01*
X305000Y215000D02*
X344500D01*
X346500Y217000D01*
Y232500D01*
X345500Y233500D02*
X346500Y232500D01*
X335000Y233500D02*
X345500D01*
X313500Y178000D02*
Y208500D01*
X302500Y303000D02*
X309000Y309500D01*
X293000Y303000D02*
X302500D01*
X281000Y315000D02*
X293000Y303000D01*
X235000Y157000D02*
X239000Y153000D01*
X285000Y149500D02*
X313500Y178000D01*
X305000Y215000D02*
Y244500D01*
X309000Y309500D02*
X344000D01*
X350000Y303500D01*
X256902Y337260D02*
X270740D01*
X281000Y327000D01*
Y315000D02*
Y327000D01*
X350000Y263500D02*
Y303500D01*
X335000Y263500D02*
X350000D01*
X236500Y349000D02*
X244500Y341000D01*
X251000Y314500D02*
Y325000D01*
Y314500D02*
X251563Y313937D01*
X135000Y253500D02*
X137000D01*
X128500D02*
X135000D01*
X125500Y256500D02*
Y288000D01*
Y256500D02*
X128500Y253500D01*
X125500Y288000D02*
X186500Y349000D01*
X216177D01*
X135000Y263500D02*
X139000D01*
X151500Y276000D01*
Y278500D01*
X200500Y327500D01*
X238480D01*
X244500Y333520D01*
X216177Y341508D02*
X220185Y337500D01*
X216177Y341508D02*
Y349000D01*
X231055Y337260D02*
X244500D01*
X259953Y349500D02*
X265500Y343953D01*
X303500Y255000D02*
Y263500D01*
X265500Y341000D02*
X279500D01*
X231000Y257000D02*
X232000Y256000D01*
X215000Y265653D02*
X219654Y261000D01*
X227000D02*
X231000Y257000D01*
X219654Y261000D02*
X227000D01*
X318500Y236500D02*
X319000D01*
X323000Y240500D01*
X332000D01*
X335000Y243500D01*
X291473Y173500D02*
X298500D01*
X299000Y174000D01*
X292500Y174500D02*
X293500Y173500D01*
X291473Y175527D02*
X292500Y174500D01*
X288177Y255000D02*
X303500D01*
X269953Y245453D02*
X280177Y255677D01*
X287500D01*
X309500Y247492D02*
X310555Y248547D01*
X309500Y228500D02*
Y247492D01*
X310555Y248547D02*
X322500D01*
X311890Y249882D02*
X313224Y248547D01*
X322500D01*
X287500Y255677D02*
X288177Y255000D01*
X243923Y187827D02*
X245096Y189000D01*
X240475Y168975D02*
X241475D01*
X242284Y169784D02*
Y189466D01*
Y168975D02*
Y169784D01*
X241475Y168975D02*
X242284Y169784D01*
X240000Y167500D02*
X241475Y168975D01*
X239500Y167000D02*
X240000Y167500D01*
Y168500D01*
Y167000D02*
Y167500D01*
Y167000D02*
X248250D01*
X245096Y189000D02*
Y190500D01*
X239500Y167000D02*
X240000D01*
Y168500D02*
X240475Y168975D01*
X241475D02*
X242284D01*
X240750Y191000D02*
X242284Y189466D01*
X240750Y170136D02*
Y191000D01*
X238114Y167500D02*
X240750Y170136D01*
X235500Y167500D02*
X238114D01*
X235000Y167000D02*
X235500Y167500D01*
X274750Y174500D02*
X280500D01*
X204563Y201000D02*
X206547D01*
X197500Y193937D02*
X204563Y201000D01*
X205500Y157500D02*
Y166000D01*
X206500Y167000D01*
X214500D01*
X197500Y186063D02*
X201437D01*
X210500Y177000D01*
X214500D01*
X193500Y172437D02*
X193937Y172000D01*
X193000Y172937D02*
X193500Y172437D01*
X193937Y172000D02*
X214500D01*
X178500Y172937D02*
X193000D01*
X268768Y136500D02*
X271000Y138732D01*
Y152250D01*
X270250Y153000D02*
X271000Y152250D01*
X239000Y153000D02*
X270250D01*
X248250Y167000D02*
X250000Y168750D01*
X269000D01*
X274750Y174500D01*
D42*
X309500Y228500D02*
X314500Y223500D01*
D43*
X135000Y273500D02*
D03*
X335000Y223500D02*
D03*
D44*
X135000Y263500D02*
D03*
Y253500D02*
D03*
Y243500D02*
D03*
Y233500D02*
D03*
Y223500D02*
D03*
X335000Y233500D02*
D03*
Y243500D02*
D03*
Y253500D02*
D03*
Y263500D02*
D03*
Y273500D02*
D03*
D45*
X259500Y278000D02*
D03*
X313500Y208500D02*
D03*
X318500Y236500D02*
D03*
X299000Y209500D02*
D03*
X303500Y263500D02*
D03*
Y312000D02*
D03*
X169000Y314500D02*
D03*
X159500Y305000D02*
D03*
X150000Y296500D02*
D03*
X252000Y94000D02*
D03*
Y83500D02*
D03*
Y72000D02*
D03*
X240000Y71500D02*
D03*
Y83500D02*
D03*
Y94500D02*
D03*
X217000Y314500D02*
D03*
X229000D02*
D03*
X241000D02*
D03*
X259500Y212500D02*
D03*
Y229500D02*
D03*
X209500Y233500D02*
D03*
X218000Y225000D02*
D03*
X217500Y233500D02*
D03*
X209500Y225500D02*
D03*
X201000D02*
D03*
Y233500D02*
D03*
X319000Y263000D02*
D03*
Y292000D02*
D03*
X318500Y300000D02*
D03*
X327000Y300500D02*
D03*
X334500D02*
D03*
X187000Y142500D02*
D03*
X179500D02*
D03*
X172500D02*
D03*
Y152000D02*
D03*
X179500D02*
D03*
X187000D02*
D03*
X285000Y149500D02*
D03*
X205500Y157500D02*
D03*
M02*
