%FSLAX25Y25*%
%MOIN*%
G70*
G01*
G75*
G04 Layer_Color=16711935*
%ADD10C,0.02000*%
%ADD11C,0.01000*%
%ADD12C,0.03000*%
%ADD13C,0.01500*%
%ADD14C,0.01200*%
%ADD15O,0.02756X0.01181*%
%ADD16R,0.02756X0.01181*%
%ADD17O,0.04724X0.01221*%
%ADD18R,0.04724X0.01221*%
%ADD19R,0.06693X0.13000*%
G04:AMPARAMS|DCode=20|XSize=66.93mil|YSize=130mil|CornerRadius=0mil|HoleSize=0mil|Usage=FLASHONLY|Rotation=180.000|XOffset=0mil|YOffset=0mil|HoleType=Round|Shape=Octagon|*
%AMOCTAGOND20*
4,1,8,0.01673,-0.06500,-0.01673,-0.06500,-0.03347,-0.04827,-0.03347,0.04827,-0.01673,0.06500,0.01673,0.06500,0.03347,0.04827,0.03347,-0.04827,0.01673,-0.06500,0.0*
%
%ADD20OCTAGOND20*%

G04:AMPARAMS|DCode=21|XSize=78.74mil|YSize=98.43mil|CornerRadius=0mil|HoleSize=0mil|Usage=FLASHONLY|Rotation=180.000|XOffset=0mil|YOffset=0mil|HoleType=Round|Shape=Octagon|*
%AMOCTAGOND21*
4,1,8,0.01969,-0.04921,-0.01969,-0.04921,-0.03937,-0.02953,-0.03937,0.02953,-0.01969,0.04921,0.01969,0.04921,0.03937,0.02953,0.03937,-0.02953,0.01969,-0.04921,0.0*
%
%ADD21OCTAGOND21*%

%ADD22R,0.07874X0.09843*%
%ADD23R,0.04331X0.05512*%
%ADD24R,0.10906X0.16732*%
%ADD25R,0.05906X0.05512*%
%ADD26R,0.06000X0.06000*%
%ADD27R,0.05500X0.03000*%
%ADD28O,0.05500X0.03000*%
%ADD29R,0.05512X0.05906*%
%ADD30R,0.04331X0.06693*%
%ADD31R,0.05512X0.02559*%
G04:AMPARAMS|DCode=32|XSize=55.12mil|YSize=25.59mil|CornerRadius=0mil|HoleSize=0mil|Usage=FLASHONLY|Rotation=180.000|XOffset=0mil|YOffset=0mil|HoleType=Round|Shape=Octagon|*
%AMOCTAGOND32*
4,1,8,-0.02756,0.00640,-0.02756,-0.00640,-0.02116,-0.01280,0.02116,-0.01280,0.02756,-0.00640,0.02756,0.00640,0.02116,0.01280,-0.02116,0.01280,-0.02756,0.00640,0.0*
%
%ADD32OCTAGOND32*%

%ADD33R,0.08661X0.12795*%
%ADD34O,0.08661X0.03937*%
%ADD35R,0.08661X0.03937*%
%ADD36R,0.16732X0.10906*%
%ADD37R,0.04331X0.10236*%
%ADD38R,0.05512X0.04331*%
%ADD39R,0.28740X0.10433*%
%ADD40R,0.06496X0.01969*%
%ADD41O,0.06496X0.01969*%
%ADD42C,0.02500*%
%ADD43C,0.05906*%
%ADD44R,0.05906X0.05906*%
%ADD45C,0.06000*%
%ADD46C,0.00787*%
%ADD47O,0.03556X0.01981*%
%ADD48R,0.03556X0.01981*%
%ADD49O,0.05524X0.02021*%
%ADD50R,0.05524X0.02021*%
%ADD51R,0.07493X0.13800*%
G04:AMPARAMS|DCode=52|XSize=74.93mil|YSize=138mil|CornerRadius=0mil|HoleSize=0mil|Usage=FLASHONLY|Rotation=180.000|XOffset=0mil|YOffset=0mil|HoleType=Round|Shape=Octagon|*
%AMOCTAGOND52*
4,1,8,0.01873,-0.06900,-0.01873,-0.06900,-0.03747,-0.05027,-0.03747,0.05027,-0.01873,0.06900,0.01873,0.06900,0.03747,0.05027,0.03747,-0.05027,0.01873,-0.06900,0.0*
%
%ADD52OCTAGOND52*%

G04:AMPARAMS|DCode=53|XSize=86.74mil|YSize=106.42mil|CornerRadius=0mil|HoleSize=0mil|Usage=FLASHONLY|Rotation=180.000|XOffset=0mil|YOffset=0mil|HoleType=Round|Shape=Octagon|*
%AMOCTAGOND53*
4,1,8,0.02169,-0.05321,-0.02169,-0.05321,-0.04337,-0.03153,-0.04337,0.03153,-0.02169,0.05321,0.02169,0.05321,0.04337,0.03153,0.04337,-0.03153,0.02169,-0.05321,0.0*
%
%ADD53OCTAGOND53*%

%ADD54R,0.08674X0.10642*%
%ADD55R,0.05131X0.06312*%
%ADD56R,0.11706X0.17532*%
%ADD57R,0.06706X0.06312*%
%ADD58R,0.06800X0.06800*%
%ADD59R,0.06300X0.03800*%
%ADD60O,0.06300X0.03800*%
%ADD61R,0.06312X0.06706*%
%ADD62R,0.05131X0.07493*%
%ADD63R,0.06312X0.03359*%
G04:AMPARAMS|DCode=64|XSize=63.12mil|YSize=33.59mil|CornerRadius=0mil|HoleSize=0mil|Usage=FLASHONLY|Rotation=180.000|XOffset=0mil|YOffset=0mil|HoleType=Round|Shape=Octagon|*
%AMOCTAGOND64*
4,1,8,-0.03156,0.00840,-0.03156,-0.00840,-0.02316,-0.01680,0.02316,-0.01680,0.03156,-0.00840,0.03156,0.00840,0.02316,0.01680,-0.02316,0.01680,-0.03156,0.00840,0.0*
%
%ADD64OCTAGOND64*%

%ADD65R,0.09461X0.13595*%
%ADD66O,0.09461X0.04737*%
%ADD67R,0.09461X0.04737*%
%ADD68R,0.17532X0.11706*%
%ADD69R,0.05131X0.11036*%
%ADD70R,0.06312X0.05131*%
%ADD71R,0.29540X0.11233*%
%ADD72R,0.07296X0.02769*%
%ADD73O,0.07296X0.02769*%
%ADD74C,0.06706*%
%ADD75R,0.06706X0.06706*%
%ADD76C,0.06800*%
%ADD77C,0.00394*%
D77*
X205169Y203854D02*
X213831D01*
X205169Y198146D02*
X213831D01*
X205169D02*
Y203854D01*
X213831Y198146D02*
Y203854D01*
X194744Y185768D02*
X200256D01*
X194744Y194232D02*
X200256D01*
X194744Y185768D02*
Y194232D01*
X200256Y185768D02*
Y194232D01*
X175744Y164768D02*
X181256D01*
X175744Y173232D02*
X181256D01*
X175744Y164768D02*
Y173232D01*
X181256Y164768D02*
Y173232D01*
X190744Y172732D02*
X196256D01*
X190744Y164268D02*
X196256D01*
Y172732D01*
X190744Y164268D02*
Y172732D01*
X259268Y326256D02*
X267732D01*
X259268Y320744D02*
X267732D01*
X259268D02*
Y326256D01*
X267732Y320744D02*
Y326256D01*
X232193Y333957D02*
Y341043D01*
X218807Y333957D02*
Y341043D01*
Y333957D02*
X232193D01*
X218807Y341043D02*
X232193D01*
X252669Y346646D02*
Y352354D01*
X261331Y346646D02*
Y352354D01*
X252669D02*
X261331D01*
X252669Y346646D02*
X261331D01*
X238307Y226185D02*
Y236815D01*
X251693Y226185D02*
Y236815D01*
X238307D02*
X251693D01*
X238307Y226185D02*
X251693D01*
X259646Y238169D02*
X265354D01*
X259646Y246831D02*
X265354D01*
X259646Y238169D02*
Y246831D01*
X265354Y238169D02*
Y246831D01*
X262256Y292768D02*
Y301232D01*
X256744Y292768D02*
Y301232D01*
X262256D01*
X256744Y292768D02*
X262256D01*
X240268Y270744D02*
X248732D01*
X240268Y276256D02*
X248732D01*
Y270744D02*
Y276256D01*
X240268Y270744D02*
Y276256D01*
X257169Y280646D02*
Y286354D01*
X265831Y280646D02*
Y286354D01*
X257169D02*
X265831D01*
X257169Y280646D02*
X265831D01*
X258268Y276256D02*
X266732D01*
X258268Y270744D02*
X266732D01*
X258268D02*
Y276256D01*
X266732Y270744D02*
Y276256D01*
X231268Y285744D02*
X239732D01*
X231268Y291256D02*
X239732D01*
Y285744D02*
Y291256D01*
X231268Y285744D02*
Y291256D01*
X319646Y255831D02*
X325354D01*
X319646Y247169D02*
X325354D01*
Y255831D01*
X319646Y247169D02*
Y255831D01*
X178146Y85169D02*
X183854D01*
X178146Y93831D02*
X183854D01*
X178146Y85169D02*
Y93831D01*
X183854Y85169D02*
Y93831D01*
M02*
