%FSLAX25Y25*%
%MOIN*%
G70*
G01*
G75*
%ADD10C,0.02000*%
%ADD11C,0.01500*%
%ADD12O,0.09000X0.02000*%
%ADD13R,0.09000X0.02000*%
%ADD14O,0.08000X0.02500*%
%ADD15R,0.08000X0.02500*%
%ADD16C,0.01000*%
%ADD17C,0.05100*%
%ADD18R,0.05906X0.05906*%
%ADD19C,0.05906*%
%ADD20C,0.05512*%
%ADD21R,0.05906X0.05906*%
%ADD22C,0.06000*%
%ADD23C,0.00787*%
D11*
X523000Y274000D02*
G03*
X525500Y274000I1250J0D01*
G01*
X584000Y308000D02*
X591000D01*
X473000Y286000D02*
X483000D01*
Y246000D02*
Y286000D01*
X473000Y246000D02*
Y286000D01*
Y246000D02*
X483000D01*
X563000D02*
X573000D01*
X563000D02*
Y286000D01*
X573000Y246000D02*
Y286000D01*
X563000D02*
X573000D01*
X519000Y254000D02*
Y274000D01*
Y254000D02*
X530000D01*
Y274000D01*
X525500D02*
X530000D01*
X519000D02*
X523000D01*
X662000Y420000D02*
Y420900D01*
Y399100D02*
Y400000D01*
Y420000D02*
X665000D01*
Y400000D02*
Y420000D01*
X659000Y400000D02*
X665000D01*
X659000D02*
Y420000D01*
X662000D01*
X633000Y358100D02*
Y359000D01*
Y379000D02*
Y379900D01*
X630000Y359000D02*
X633000D01*
X630000D02*
Y379000D01*
X636000D01*
Y359000D02*
Y379000D01*
X633000Y359000D02*
X636000D01*
X661000Y313500D02*
Y314400D01*
Y292600D02*
Y293500D01*
Y313500D02*
X664000D01*
Y293500D02*
Y313500D01*
X658000Y293500D02*
X664000D01*
X658000D02*
Y313500D01*
X661000D01*
X435500Y431500D02*
Y432400D01*
Y410600D02*
Y411500D01*
Y431500D02*
X438500D01*
Y411500D02*
Y431500D01*
X432500Y411500D02*
X438500D01*
X432500D02*
Y431500D01*
X435500D01*
X473000Y437500D02*
X483000D01*
Y297500D02*
Y437500D01*
X473000Y297500D02*
X483000D01*
X473000D02*
Y305000D01*
Y437500D01*
X563000Y296000D02*
X573000D01*
X563000D02*
Y436000D01*
X573000D01*
Y428500D02*
Y436000D01*
Y296000D02*
Y428500D01*
X523000Y447500D02*
Y457500D01*
X493000Y447500D02*
X523000D01*
X493000D02*
Y457500D01*
X523000D01*
X458500Y428000D02*
X465500D01*
X457000Y387000D02*
X464000D01*
X584000Y376500D02*
X591000D01*
X657500D02*
X664500D01*
X605000Y360000D02*
X612000D01*
X630000Y329000D02*
X637000D01*
X590000Y268500D02*
X597000D01*
D16*
X502100Y408398D02*
Y403400D01*
X503100Y402400D01*
X505099D01*
X506099Y403400D01*
Y408398D01*
X508098Y402400D02*
X510097D01*
X509098D01*
Y408398D01*
X508098Y407398D01*
X511100Y283498D02*
Y278500D01*
X512100Y277500D01*
X514099D01*
X515099Y278500D01*
Y283498D01*
X521097Y277500D02*
X517098D01*
X521097Y281499D01*
Y282498D01*
X520097Y283498D01*
X518098D01*
X517098Y282498D01*
X462999Y443898D02*
X461999Y444898D01*
X460000D01*
X459000Y443898D01*
Y439900D01*
X460000Y438900D01*
X461999D01*
X462999Y439900D01*
X464998Y438900D02*
X466997D01*
X465998D01*
Y444898D01*
X464998Y443898D01*
X461499Y402898D02*
X460499Y403898D01*
X458500D01*
X457500Y402898D01*
Y398900D01*
X458500Y397900D01*
X460499D01*
X461499Y398900D01*
X467497Y397900D02*
X463498D01*
X467497Y401899D01*
Y402898D01*
X466497Y403898D01*
X464498D01*
X463498Y402898D01*
X588499Y323998D02*
X587499Y324998D01*
X585500D01*
X584500Y323998D01*
Y320000D01*
X585500Y319000D01*
X587499D01*
X588499Y320000D01*
X590498Y323998D02*
X591498Y324998D01*
X593497D01*
X594497Y323998D01*
Y322999D01*
X593497Y321999D01*
X592497D01*
X593497D01*
X594497Y320999D01*
Y320000D01*
X593497Y319000D01*
X591498D01*
X590498Y320000D01*
X588499Y392498D02*
X587499Y393498D01*
X585500D01*
X584500Y392498D01*
Y388500D01*
X585500Y387500D01*
X587499D01*
X588499Y388500D01*
X593497Y387500D02*
Y393498D01*
X590498Y390499D01*
X594497D01*
X661999Y392398D02*
X660999Y393398D01*
X659000D01*
X658000Y392398D01*
Y388400D01*
X659000Y387400D01*
X660999D01*
X661999Y388400D01*
X667997Y393398D02*
X663998D01*
Y390399D01*
X665997Y391399D01*
X666997D01*
X667997Y390399D01*
Y388400D01*
X666997Y387400D01*
X664998D01*
X663998Y388400D01*
X609499Y375998D02*
X608499Y376998D01*
X606500D01*
X605500Y375998D01*
Y372000D01*
X606500Y371000D01*
X608499D01*
X609499Y372000D01*
X615497Y376998D02*
X613497Y375998D01*
X611498Y373999D01*
Y372000D01*
X612498Y371000D01*
X614497D01*
X615497Y372000D01*
Y372999D01*
X614497Y373999D01*
X611498D01*
X634499Y344998D02*
X633499Y345998D01*
X631500D01*
X630500Y344998D01*
Y341000D01*
X631500Y340000D01*
X633499D01*
X634499Y341000D01*
X636498Y345998D02*
X640497D01*
Y344998D01*
X636498Y341000D01*
Y340000D01*
X594499Y284398D02*
X593499Y285398D01*
X591500D01*
X590500Y284398D01*
Y280400D01*
X591500Y279400D01*
X593499D01*
X594499Y280400D01*
X596498Y284398D02*
X597498Y285398D01*
X599497D01*
X600497Y284398D01*
Y283399D01*
X599497Y282399D01*
X600497Y281399D01*
Y280400D01*
X599497Y279400D01*
X597498D01*
X596498Y280400D01*
Y281399D01*
X597498Y282399D01*
X596498Y283399D01*
Y284398D01*
X597498Y282399D02*
X599497D01*
X473600Y440900D02*
Y446898D01*
X476599D01*
X477599Y445898D01*
Y443899D01*
X476599Y442899D01*
X473600D01*
X479598Y440900D02*
X481597D01*
X480598D01*
Y446898D01*
X479598Y445898D01*
X563600Y439400D02*
Y445398D01*
X566599D01*
X567599Y444398D01*
Y442399D01*
X566599Y441399D01*
X563600D01*
X573597Y439400D02*
X569598D01*
X573597Y443399D01*
Y444398D01*
X572597Y445398D01*
X570598D01*
X569598Y444398D01*
X493600Y460900D02*
Y466898D01*
X496599D01*
X497599Y465898D01*
Y463899D01*
X496599Y462899D01*
X493600D01*
X499598Y465898D02*
X500598Y466898D01*
X502597D01*
X503597Y465898D01*
Y464899D01*
X502597Y463899D01*
X501597D01*
X502597D01*
X503597Y462899D01*
Y461900D01*
X502597Y460900D01*
X500598D01*
X499598Y461900D01*
X473600Y289400D02*
Y295398D01*
X476599D01*
X477599Y294398D01*
Y292399D01*
X476599Y291399D01*
X473600D01*
X482597Y289400D02*
Y295398D01*
X479598Y292399D01*
X483597D01*
X563600Y289400D02*
Y295398D01*
X566599D01*
X567599Y294398D01*
Y292399D01*
X566599Y291399D01*
X563600D01*
X573597Y295398D02*
X569598D01*
Y292399D01*
X571597Y293399D01*
X572597D01*
X573597Y292399D01*
Y290400D01*
X572597Y289400D01*
X570598D01*
X569598Y290400D01*
X433100Y442700D02*
Y448698D01*
X436099D01*
X437099Y447698D01*
Y445699D01*
X436099Y444699D01*
X433100D01*
X435099D02*
X437099Y442700D01*
X439098D02*
X441097D01*
X440098D01*
Y448698D01*
X439098Y447698D01*
X658500Y324700D02*
Y330698D01*
X661499D01*
X662499Y329698D01*
Y327699D01*
X661499Y326699D01*
X658500D01*
X660499D02*
X662499Y324700D01*
X668497D02*
X664498D01*
X668497Y328699D01*
Y329698D01*
X667497Y330698D01*
X665498D01*
X664498Y329698D01*
X630600Y390200D02*
Y396198D01*
X633599D01*
X634599Y395198D01*
Y393199D01*
X633599Y392199D01*
X630600D01*
X632599D02*
X634599Y390200D01*
X636598Y395198D02*
X637598Y396198D01*
X639597D01*
X640597Y395198D01*
Y394199D01*
X639597Y393199D01*
X638597D01*
X639597D01*
X640597Y392199D01*
Y391200D01*
X639597Y390200D01*
X637598D01*
X636598Y391200D01*
X659600Y431200D02*
Y437198D01*
X662599D01*
X663599Y436198D01*
Y434199D01*
X662599Y433199D01*
X659600D01*
X661599D02*
X663599Y431200D01*
X668597D02*
Y437198D01*
X665598Y434199D01*
X669597D01*
D23*
X520966Y399000D02*
G03*
X523466Y399000I1250J0D01*
G01*
X508000Y329000D02*
Y399000D01*
Y329000D02*
X536500D01*
Y399000D01*
X523466D02*
X536500D01*
X508000D02*
X520966D01*
M02*
