M48
;Layer_Color=9474304
;FILE_FORMAT=2:5
INCH,LZ
;TYPE=PLATED
T1F00S00C0.02800
T2F00S00C0.03346
T3F00S00C0.03453
T4F00S00C0.03543
%
T01
X05935Y02635
Y02735
X05875Y0303
X04605Y0382
Y0392
X0462Y0423
Y0433
X05875Y03815
Y03715
X06085Y0365
Y0355
X05875Y0313
X06335Y0324
Y0334
X0661Y03715
Y03815
T02
X0661Y02885
X04355Y04065
Y04365
X0662Y0425
Y0395
X0633Y0384
Y0354
X0661Y03185
T03
X04515Y0266
X0435Y0302
X0443Y0331
X0457Y03325
X0461Y0321
X0443Y03515
X0464Y04585
X05145Y0441
X0506Y0313
T04
X0478Y0251
Y0261
Y0271
Y0281
Y03025
X0568Y0301
Y0311
Y0281
Y0271
Y0261
Y0251
Y0321
Y0331
Y0341
Y0351
Y0361
Y0371
Y0381
Y0391
Y0401
Y0411
Y0421
Y0431
X0518Y04525
X0508
X0498
X0478Y04325
Y04225
Y04125
Y04025
Y03925
Y03825
Y03725
Y03625
Y03525
Y03425
Y03325
Y03225
Y03125
M30
