%FSLAX25Y25*%
%MOIN*%
G70*
G01*
G75*
G04 Layer_Color=16711935*
%ADD10C,0.02000*%
%ADD11C,0.01500*%
%ADD12O,0.09000X0.02000*%
%ADD13R,0.09000X0.02000*%
%ADD14O,0.08000X0.02500*%
%ADD15R,0.08000X0.02500*%
%ADD16C,0.01000*%
%ADD17C,0.05100*%
%ADD18R,0.05906X0.05906*%
%ADD19C,0.05906*%
%ADD20C,0.05512*%
%ADD21R,0.05906X0.05906*%
%ADD22C,0.06000*%
%ADD23C,0.00787*%
%ADD24O,0.09800X0.02800*%
%ADD25R,0.09800X0.02800*%
%ADD26O,0.08800X0.03300*%
%ADD27R,0.08800X0.03300*%
%ADD28C,0.05900*%
%ADD29R,0.06706X0.06706*%
%ADD30C,0.06706*%
%ADD31C,0.06312*%
%ADD32R,0.06706X0.06706*%
%ADD33C,0.06800*%
D28*
X587500Y313000D02*
D03*
Y303000D02*
D03*
X462000Y433000D02*
D03*
Y423000D02*
D03*
X460500Y382000D02*
D03*
Y392000D02*
D03*
X587500Y381500D02*
D03*
Y371500D02*
D03*
X661000D02*
D03*
Y381500D02*
D03*
X608500Y355000D02*
D03*
Y365000D02*
D03*
X633500Y334000D02*
D03*
Y324000D02*
D03*
X593500Y273500D02*
D03*
Y263500D02*
D03*
D29*
X478000Y251000D02*
D03*
X568000Y281000D02*
D03*
X478000Y302500D02*
D03*
X568000Y431000D02*
D03*
D30*
X478000Y261000D02*
D03*
Y271000D02*
D03*
Y281000D02*
D03*
X568000Y271000D02*
D03*
Y261000D02*
D03*
Y251000D02*
D03*
X478000Y312500D02*
D03*
Y322500D02*
D03*
Y332500D02*
D03*
Y342500D02*
D03*
Y352500D02*
D03*
Y362500D02*
D03*
Y372500D02*
D03*
Y382500D02*
D03*
Y392500D02*
D03*
Y402500D02*
D03*
Y412500D02*
D03*
Y422500D02*
D03*
Y432500D02*
D03*
X568000Y421000D02*
D03*
Y411000D02*
D03*
Y401000D02*
D03*
Y391000D02*
D03*
Y381000D02*
D03*
Y371000D02*
D03*
Y361000D02*
D03*
Y351000D02*
D03*
Y341000D02*
D03*
Y331000D02*
D03*
Y321000D02*
D03*
Y311000D02*
D03*
Y301000D02*
D03*
X498000Y452500D02*
D03*
X508000D02*
D03*
D31*
X662000Y395000D02*
D03*
Y425000D02*
D03*
X633000Y384000D02*
D03*
Y354000D02*
D03*
X661000Y288500D02*
D03*
Y318500D02*
D03*
X435500Y406500D02*
D03*
Y436500D02*
D03*
D32*
X518000Y452500D02*
D03*
D33*
X464000Y458500D02*
D03*
X514500Y441000D02*
D03*
X506000Y313000D02*
D03*
X443000Y351500D02*
D03*
Y331000D02*
D03*
X461000Y321000D02*
D03*
X435000Y302000D02*
D03*
X457000Y332500D02*
D03*
X451500Y266000D02*
D03*
M02*
