%FSLAX25Y25*%
%MOIN*%
G70*
G01*
G75*
G04 Layer_Physical_Order=1*
G04 Layer_Color=255*
%ADD10C,0.02000*%
%ADD11C,0.01500*%
%ADD12O,0.09000X0.02000*%
%ADD13R,0.09000X0.02000*%
%ADD14O,0.08000X0.02500*%
%ADD15R,0.08000X0.02500*%
%ADD16C,0.01000*%
%ADD17C,0.05100*%
%ADD18R,0.05906X0.05906*%
%ADD19C,0.05906*%
%ADD20C,0.05512*%
%ADD21R,0.05906X0.05906*%
%ADD22C,0.06000*%
G36*
X625263Y354571D02*
X625207Y354000D01*
X625356Y352480D01*
X625800Y351018D01*
X626520Y349670D01*
X626971Y349121D01*
Y337801D01*
X626491Y336903D01*
X626059Y335480D01*
X625913Y334000D01*
X626059Y332520D01*
X626491Y331097D01*
X627192Y329785D01*
X628135Y328636D01*
X629285Y327692D01*
X630597Y326991D01*
X630763Y326940D01*
X630916Y326464D01*
X630399Y325790D01*
X630041Y324927D01*
X629982Y324479D01*
X608600D01*
X608576Y324978D01*
X609676Y325087D01*
X610807Y325430D01*
X610807Y325430D01*
X610807Y325430D01*
X611849Y325987D01*
X612763Y326737D01*
X612763Y326737D01*
X612763Y326737D01*
X620263Y334237D01*
X620263Y334237D01*
X620263Y334237D01*
X621013Y335151D01*
X621570Y336193D01*
X621570Y336193D01*
X621570Y336193D01*
X621913Y337324D01*
X622029Y338500D01*
X622029Y338500D01*
X622029Y338500D01*
Y338500D01*
Y352003D01*
X624811Y354784D01*
X625263Y354571D01*
D02*
G37*
G36*
X654971Y366291D02*
Y324479D01*
X637018D01*
X636959Y324927D01*
X636601Y325790D01*
X636084Y326464D01*
X636237Y326940D01*
X636403Y326991D01*
X637715Y327692D01*
X638865Y328636D01*
X639808Y329785D01*
X640509Y331097D01*
X640941Y332520D01*
X641086Y334000D01*
X640941Y335480D01*
X640509Y336903D01*
X639808Y338215D01*
X639029Y339164D01*
Y349121D01*
X639480Y349670D01*
X640200Y351018D01*
X640644Y352480D01*
X640793Y354000D01*
X640644Y355520D01*
X640200Y356982D01*
X639480Y358330D01*
X638511Y359511D01*
X638675Y359971D01*
X645500D01*
X646676Y360087D01*
X647807Y360430D01*
X648849Y360987D01*
X649763Y361737D01*
X654509Y366483D01*
X654971Y366291D01*
D02*
G37*
G36*
X432130Y382187D02*
X432130Y382187D01*
X432130Y382187D01*
Y382187D01*
X432130Y382187D01*
Y382187D01*
X432130D01*
X433044Y381437D01*
X434086Y380880D01*
X434086Y380880D01*
X434086Y380880D01*
D01*
X434086Y380880D01*
X434086Y380880D01*
X435217Y380537D01*
X436393Y380421D01*
X453089D01*
X453491Y379097D01*
X454192Y377785D01*
X455135Y376636D01*
X456285Y375692D01*
X457597Y374991D01*
X459020Y374559D01*
X459457Y374516D01*
X465737Y368237D01*
X466650Y367487D01*
X467693Y366930D01*
X468824Y366587D01*
X470000Y366471D01*
X470619D01*
X470876Y366042D01*
X470617Y365558D01*
X470162Y364059D01*
X470009Y362500D01*
X470162Y360941D01*
X470617Y359442D01*
X470876Y358958D01*
X470619Y358529D01*
X447500D01*
X446926Y358472D01*
X446076Y358927D01*
X444568Y359384D01*
X443000Y359539D01*
X441432Y359384D01*
X439924Y358927D01*
X438534Y358184D01*
X437316Y357184D01*
X436316Y355966D01*
X435573Y354576D01*
X435116Y353068D01*
X434961Y351500D01*
X435116Y349932D01*
X435573Y348424D01*
X436316Y347034D01*
X437316Y345816D01*
X437837Y345388D01*
X437862Y344888D01*
X431237Y338263D01*
X430487Y337350D01*
X429930Y336307D01*
X429587Y335176D01*
X429471Y334000D01*
X429471Y334000D01*
X429471D01*
X429471Y334000D01*
X429471D01*
Y313500D01*
X429587Y312324D01*
X429930Y311193D01*
X430487Y310151D01*
X431088Y309418D01*
X430990Y308928D01*
X430534Y308684D01*
X429316Y307684D01*
X428316Y306466D01*
X427573Y305076D01*
X427116Y303568D01*
X426961Y302000D01*
X427116Y300432D01*
X427573Y298924D01*
X428316Y297534D01*
X429316Y296316D01*
X430534Y295316D01*
X431924Y294573D01*
X433432Y294116D01*
X434459Y294015D01*
X454524Y273949D01*
X454267Y273521D01*
X453068Y273884D01*
X451500Y274039D01*
X449932Y273884D01*
X448424Y273427D01*
X447034Y272684D01*
X445838Y271703D01*
X421529Y296012D01*
Y392134D01*
X421991Y392326D01*
X432130Y382187D01*
D02*
G37*
G36*
X609757Y347380D02*
X609971Y347186D01*
Y340997D01*
X606003Y337029D01*
X599709D01*
X599517Y337491D01*
X609509Y347483D01*
X609757Y347380D01*
D02*
G37*
G36*
X589285Y267192D02*
X590597Y266491D01*
X590763Y266440D01*
X590916Y265964D01*
X590399Y265290D01*
X590041Y264427D01*
X589985Y264000D01*
X593500D01*
Y263500D01*
X594000D01*
Y259985D01*
X594427Y260041D01*
X595290Y260399D01*
X596032Y260968D01*
X596441Y261501D01*
X596940Y261534D01*
X598971Y259503D01*
Y259497D01*
X590503Y251029D01*
X575988D01*
X575838Y252559D01*
X575383Y254058D01*
X574645Y255440D01*
X573651Y256651D01*
X572440Y257645D01*
X571339Y258233D01*
X571234Y258721D01*
X571453Y259007D01*
X571851Y259968D01*
X571921Y260500D01*
X564079D01*
X564149Y259968D01*
X564547Y259007D01*
X564766Y258721D01*
X564661Y258233D01*
X563560Y257645D01*
X562810Y257029D01*
X548497D01*
X545517Y260009D01*
X545709Y260471D01*
X553000D01*
X554176Y260587D01*
X555307Y260930D01*
X555307Y260930D01*
X555307Y260930D01*
X556350Y261487D01*
X557263Y262237D01*
X557263Y262237D01*
X557263Y262237D01*
X559997Y264971D01*
X562810D01*
X563560Y264355D01*
X564661Y263767D01*
X564766Y263279D01*
X564547Y262993D01*
X564149Y262032D01*
X564079Y261500D01*
X571921D01*
X571851Y262032D01*
X571453Y262993D01*
X571234Y263279D01*
X571339Y263767D01*
X572440Y264355D01*
X573190Y264971D01*
X577000D01*
X578176Y265087D01*
X579307Y265430D01*
X579307Y265430D01*
X579307Y265430D01*
X580349Y265987D01*
X581263Y266737D01*
X581263Y266737D01*
X581263Y266737D01*
X581997Y267471D01*
X588945D01*
X589285Y267192D01*
D02*
G37*
G36*
X470047Y258426D02*
Y257029D01*
X468997D01*
X459485Y266541D01*
X459384Y267568D01*
X459021Y268767D01*
X459449Y269024D01*
X470047Y258426D01*
D02*
G37*
G36*
X451316Y326816D02*
X452534Y325816D01*
X453754Y325164D01*
X453899Y324686D01*
X453573Y324076D01*
X453116Y322568D01*
X452961Y321000D01*
X453116Y319432D01*
X453573Y317924D01*
X454316Y316534D01*
X455316Y315316D01*
X456534Y314316D01*
X457924Y313573D01*
X459432Y313116D01*
X461000Y312961D01*
X462568Y313116D01*
X464076Y313573D01*
X465466Y314316D01*
X466264Y314971D01*
X474348D01*
X474570Y314523D01*
X474547Y314493D01*
X474149Y313532D01*
X474079Y313000D01*
X478000D01*
Y312000D01*
X474079D01*
X474149Y311468D01*
X474397Y310869D01*
X474120Y310453D01*
X470047D01*
Y298132D01*
X469585Y297941D01*
X449029Y318497D01*
Y325736D01*
X449684Y326534D01*
X450207Y327512D01*
X450704Y327561D01*
X451316Y326816D01*
D02*
G37*
G36*
X656670Y312020D02*
X658018Y311300D01*
X659480Y310856D01*
X661000Y310707D01*
X661356Y310742D01*
X661727Y310406D01*
Y297753D01*
X660187Y296213D01*
X659480Y296144D01*
X658018Y295700D01*
X656670Y294980D01*
X656121Y294529D01*
X621997D01*
X604567Y311959D01*
X604759Y312421D01*
X656182D01*
X656670Y312020D01*
D02*
G37*
G36*
X470617Y399442D02*
X471355Y398060D01*
X471815Y397500D01*
X471355Y396940D01*
X470617Y395558D01*
X470162Y394059D01*
X470009Y392500D01*
X470162Y390941D01*
X470617Y389442D01*
X471355Y388060D01*
X471815Y387500D01*
X471355Y386940D01*
X470617Y385558D01*
X470162Y384059D01*
X470009Y382500D01*
X470098Y381594D01*
X469646Y381380D01*
X467984Y383043D01*
X467941Y383480D01*
X467509Y384903D01*
X466808Y386215D01*
X465865Y387365D01*
X464715Y388308D01*
X463403Y389009D01*
X463237Y389060D01*
X463084Y389536D01*
X463601Y390210D01*
X463959Y391073D01*
X464015Y391500D01*
X460500D01*
Y392000D01*
X460000D01*
Y395515D01*
X459573Y395459D01*
X458710Y395101D01*
X457968Y394532D01*
X457399Y393790D01*
X457041Y392927D01*
X456971Y392388D01*
X456050Y392479D01*
X438891D01*
X432602Y398767D01*
X432859Y399196D01*
X433980Y398856D01*
X435500Y398707D01*
X437020Y398856D01*
X438482Y399300D01*
X439830Y400020D01*
X440379Y400471D01*
X470305D01*
X470617Y399442D01*
D02*
G37*
G36*
X435850Y427430D02*
X436981Y427087D01*
X438157Y426971D01*
X457445D01*
X457785Y426692D01*
X459097Y425991D01*
X459263Y425940D01*
X459416Y425464D01*
X458899Y424790D01*
X458541Y423927D01*
X458485Y423500D01*
X465515D01*
X465459Y423927D01*
X465101Y424790D01*
X464584Y425464D01*
X464737Y425940D01*
X464903Y425991D01*
X465801Y426471D01*
X472810D01*
X473560Y425855D01*
X474661Y425267D01*
X474766Y424779D01*
X474547Y424493D01*
X474149Y423532D01*
X474079Y423000D01*
X481921D01*
X481851Y423532D01*
X481453Y424493D01*
X481234Y424779D01*
X481339Y425267D01*
X482390Y425829D01*
X489268Y418951D01*
X489055Y418499D01*
X488750Y418529D01*
X483190D01*
X482440Y419144D01*
X481339Y419733D01*
X481234Y420221D01*
X481453Y420507D01*
X481851Y421468D01*
X481921Y422000D01*
X474079D01*
X474149Y421468D01*
X474547Y420507D01*
X474766Y420221D01*
X474661Y419733D01*
X473560Y419144D01*
X472349Y418151D01*
X471355Y416940D01*
X470617Y415558D01*
X470162Y414059D01*
X470067Y413094D01*
X469503Y412529D01*
X440379D01*
X439830Y412980D01*
X438482Y413700D01*
X437020Y414144D01*
X435500Y414293D01*
X433980Y414144D01*
X432518Y413700D01*
X431170Y412980D01*
X429989Y412011D01*
X429020Y410830D01*
X428300Y409482D01*
X427856Y408020D01*
X427707Y406500D01*
X427856Y404980D01*
X428196Y403859D01*
X427767Y403602D01*
X425529Y405840D01*
Y417160D01*
X435817Y427447D01*
X435850Y427430D01*
D02*
G37*
G36*
X670953Y433367D02*
X670491Y433176D01*
X662451Y441216D01*
X661537Y441966D01*
X660495Y442523D01*
X659364Y442866D01*
X658187Y442982D01*
X536045D01*
X525953Y453074D01*
Y460453D01*
X518574D01*
X511763Y467263D01*
X510850Y468013D01*
X509807Y468570D01*
X508676Y468913D01*
X507500Y469029D01*
X498000D01*
X496824Y468913D01*
X495693Y468570D01*
X494651Y468013D01*
X493737Y467263D01*
X473737Y447263D01*
X472987Y446349D01*
X472430Y445307D01*
X472087Y444176D01*
X471971Y443000D01*
X471971Y443000D01*
X471971D01*
X471971Y443000D01*
X471971D01*
Y438529D01*
X467164D01*
X466215Y439308D01*
X464903Y440009D01*
X463480Y440441D01*
X462000Y440587D01*
X460520Y440441D01*
X459097Y440009D01*
X457785Y439308D01*
X457445Y439029D01*
X453086D01*
X452965Y439514D01*
X453850Y439987D01*
X454763Y440737D01*
X454763Y440737D01*
X454763Y440737D01*
X464541Y450515D01*
X465568Y450616D01*
X467076Y451073D01*
X468466Y451816D01*
X469684Y452816D01*
X470684Y454034D01*
X471427Y455424D01*
X471884Y456932D01*
X472039Y458500D01*
X471884Y460068D01*
X471427Y461576D01*
X470684Y462966D01*
X469684Y464184D01*
X468466Y465184D01*
X467076Y465927D01*
X465568Y466384D01*
X464000Y466539D01*
X462432Y466384D01*
X460924Y465927D01*
X459534Y465184D01*
X458316Y464184D01*
X457316Y462966D01*
X456573Y461576D01*
X456116Y460068D01*
X456015Y459041D01*
X448003Y451029D01*
X426500D01*
X425324Y450913D01*
X424193Y450570D01*
X423150Y450013D01*
X422237Y449263D01*
X411237Y438263D01*
X410487Y437350D01*
X409930Y436307D01*
X409587Y435176D01*
X409471Y434000D01*
X409471Y434000D01*
X409471D01*
X409471Y434000D01*
X409471D01*
Y293515D01*
X409587Y292338D01*
X409930Y291208D01*
X410487Y290165D01*
X411237Y289251D01*
X459704Y240784D01*
Y240784D01*
X459704Y240784D01*
X459704Y240784D01*
Y240784D01*
X460618Y240034D01*
X461557Y239532D01*
X461435Y239048D01*
X408547D01*
Y476500D01*
X670953D01*
Y433367D01*
D02*
G37*
G36*
X659154Y427460D02*
X658719Y426894D01*
X658341Y425981D01*
X658212Y425000D01*
X658341Y424019D01*
X658719Y423106D01*
X659154Y422540D01*
X645690Y409076D01*
X609047D01*
X607871Y408960D01*
X606740Y408617D01*
X605698Y408060D01*
X604784Y407310D01*
X587250Y389776D01*
X586750D01*
X581263Y395263D01*
X580349Y396013D01*
X579307Y396570D01*
X578176Y396913D01*
X577000Y397029D01*
X573190D01*
X572440Y397644D01*
X571339Y398233D01*
X571234Y398721D01*
X571453Y399007D01*
X571851Y399968D01*
X571921Y400500D01*
X564079D01*
X564149Y399968D01*
X564547Y399007D01*
X564766Y398721D01*
X564661Y398233D01*
X563560Y397644D01*
X563140Y397300D01*
X562000D01*
X560499Y397102D01*
X560089Y396932D01*
X559100Y396523D01*
X558748Y396252D01*
X558300Y396474D01*
Y405098D01*
X558402Y405200D01*
X562531D01*
X563560Y404355D01*
X564661Y403767D01*
X564766Y403279D01*
X564547Y402993D01*
X564149Y402032D01*
X564079Y401500D01*
X571921D01*
X571851Y402032D01*
X571453Y402993D01*
X571234Y403279D01*
X571339Y403767D01*
X572440Y404355D01*
X573651Y405349D01*
X574645Y406560D01*
X575383Y407942D01*
X575838Y409441D01*
X575991Y411000D01*
X575838Y412559D01*
X575383Y414058D01*
X574645Y415440D01*
X573651Y416651D01*
X572440Y417645D01*
X571339Y418233D01*
X571234Y418721D01*
X571453Y419007D01*
X571851Y419968D01*
X571921Y420500D01*
X564079D01*
X564149Y419968D01*
X564547Y419007D01*
X564766Y418721D01*
X564661Y418233D01*
X563560Y417645D01*
X562531Y416800D01*
X556000D01*
X554499Y416602D01*
X553100Y416023D01*
X551899Y415101D01*
X548399Y411601D01*
X547477Y410400D01*
X546898Y409001D01*
X546700Y407500D01*
Y402043D01*
X546397Y401861D01*
X545962Y402108D01*
Y420936D01*
X549888Y424861D01*
X560047D01*
Y423047D01*
X564120D01*
X564397Y422632D01*
X564149Y422032D01*
X564079Y421500D01*
X571921D01*
X571851Y422032D01*
X571603Y422632D01*
X571880Y423047D01*
X575953D01*
Y430924D01*
X655690D01*
X659154Y427460D01*
D02*
G37*
G36*
X661727Y407407D02*
Y402767D01*
X660480Y402644D01*
X659018Y402200D01*
X657670Y401480D01*
X656489Y400511D01*
X655520Y399330D01*
X654800Y397982D01*
X654356Y396520D01*
X654207Y395000D01*
X654356Y393480D01*
X654800Y392018D01*
X655520Y390670D01*
X655971Y390121D01*
Y387140D01*
X655635Y386864D01*
X654692Y385715D01*
X653991Y384403D01*
X653559Y382980D01*
X653516Y382542D01*
X643003Y372029D01*
X630209D01*
X630017Y372491D01*
X633813Y376287D01*
X634520Y376356D01*
X635982Y376800D01*
X637330Y377520D01*
X638511Y378489D01*
X639480Y379670D01*
X640200Y381018D01*
X640644Y382480D01*
X640793Y384000D01*
X640644Y385520D01*
X640200Y386982D01*
X639480Y388330D01*
X638511Y389511D01*
X637330Y390480D01*
X635982Y391200D01*
X634520Y391644D01*
X633000Y391793D01*
X631480Y391644D01*
X630018Y391200D01*
X628670Y390480D01*
X627489Y389511D01*
X626520Y388330D01*
X625800Y386982D01*
X625356Y385520D01*
X625287Y384813D01*
X610237Y369763D01*
X609487Y368849D01*
X609288Y368477D01*
X608500Y368581D01*
X607573Y368459D01*
X606710Y368101D01*
X605968Y367532D01*
X605399Y366790D01*
X605041Y365927D01*
X604919Y365000D01*
X605041Y364073D01*
X605399Y363210D01*
X605916Y362536D01*
X605763Y362060D01*
X605597Y362009D01*
X604285Y361308D01*
X603135Y360365D01*
X602192Y359215D01*
X601491Y357903D01*
X601059Y356480D01*
X601016Y356043D01*
X592003Y347029D01*
X575381D01*
X575124Y347458D01*
X575383Y347942D01*
X575838Y349441D01*
X575991Y351000D01*
X575838Y352559D01*
X575383Y354058D01*
X574645Y355440D01*
X574185Y356000D01*
X574645Y356560D01*
X575383Y357942D01*
X575838Y359441D01*
X575991Y361000D01*
X575838Y362559D01*
X575383Y364058D01*
X574645Y365440D01*
X573651Y366651D01*
X572440Y367645D01*
X571339Y368233D01*
X571234Y368721D01*
X571453Y369007D01*
X571851Y369968D01*
X571921Y370500D01*
X564079D01*
X564149Y369968D01*
X564547Y369007D01*
X564766Y368721D01*
X564661Y368233D01*
X563560Y367645D01*
X563140Y367300D01*
X555655D01*
X555464Y367762D01*
X562735Y375033D01*
X563560Y374356D01*
X564661Y373767D01*
X564766Y373279D01*
X564547Y372993D01*
X564149Y372032D01*
X564079Y371500D01*
X571921D01*
X571851Y372032D01*
X571453Y372993D01*
X571234Y373279D01*
X571339Y373767D01*
X572440Y374356D01*
X573190Y374971D01*
X583699D01*
X584597Y374491D01*
X584763Y374440D01*
X584916Y373964D01*
X584399Y373290D01*
X584041Y372427D01*
X583985Y372000D01*
X591015D01*
X590959Y372427D01*
X590601Y373290D01*
X590084Y373964D01*
X590237Y374440D01*
X590403Y374491D01*
X591715Y375192D01*
X592865Y376135D01*
X593808Y377285D01*
X594509Y378597D01*
X594941Y380020D01*
X594984Y380457D01*
X611545Y397018D01*
X648187D01*
X649364Y397134D01*
X650494Y397477D01*
X650494Y397477D01*
X650494Y397477D01*
X651537Y398034D01*
X652451Y398784D01*
X652451Y398784D01*
X652451Y398784D01*
X661265Y407598D01*
X661727Y407407D01*
D02*
G37*
G36*
X498500Y448579D02*
X499032Y448649D01*
X499993Y449047D01*
X500279Y449266D01*
X500767Y449161D01*
X501356Y448060D01*
X501992Y447285D01*
X502087Y446324D01*
X502430Y445193D01*
X502430Y445193D01*
X502430Y445193D01*
X502987Y444150D01*
X503737Y443237D01*
X503737Y443237D01*
X503737Y443237D01*
X506515Y440459D01*
X506616Y439432D01*
X507073Y437924D01*
X507816Y436534D01*
X508816Y435316D01*
X510034Y434316D01*
X511424Y433573D01*
X512932Y433116D01*
X514500Y432961D01*
X516068Y433116D01*
X517576Y433573D01*
X518966Y434316D01*
X520184Y435316D01*
X521184Y436534D01*
X521927Y437924D01*
X522280Y439087D01*
X522765Y439209D01*
X529284Y432690D01*
Y432690D01*
X529284Y432690D01*
X529284Y432690D01*
Y432690D01*
X530198Y431940D01*
X531240Y431383D01*
X531240Y431383D01*
X531240Y431383D01*
D01*
X531240Y431383D01*
X531240Y431383D01*
X532371Y431040D01*
X533547Y430924D01*
X538244D01*
X538436Y430462D01*
X535670Y427696D01*
X534920Y426783D01*
X534363Y425740D01*
X534020Y424609D01*
X533904Y423433D01*
X533904Y423433D01*
X533904D01*
X533904Y423433D01*
X533904D01*
Y401952D01*
X533083Y401513D01*
X532170Y400763D01*
X531420Y399850D01*
X530863Y398807D01*
X530520Y397676D01*
X530404Y396500D01*
X530520Y395324D01*
X530863Y394193D01*
X531420Y393150D01*
X532170Y392237D01*
X532763Y391750D01*
Y391250D01*
X532170Y390763D01*
X531420Y389849D01*
X530863Y388807D01*
X530520Y387676D01*
X530404Y386500D01*
X530520Y385324D01*
X530863Y384193D01*
X531420Y383151D01*
X532170Y382237D01*
X532763Y381750D01*
Y381250D01*
X532170Y380763D01*
X531420Y379850D01*
X530863Y378807D01*
X530520Y377676D01*
X530404Y376500D01*
X530520Y375324D01*
X530863Y374193D01*
X530966Y374000D01*
X530863Y373807D01*
X530520Y372676D01*
X530404Y371500D01*
X530520Y370324D01*
X530863Y369193D01*
X531420Y368150D01*
X532170Y367237D01*
X532763Y366750D01*
Y366250D01*
X532170Y365763D01*
X531420Y364849D01*
X530863Y363807D01*
X530520Y362676D01*
X530404Y361500D01*
X530520Y360324D01*
X530863Y359193D01*
X530966Y359000D01*
X530863Y358807D01*
X530520Y357676D01*
X530404Y356500D01*
X530520Y355324D01*
X530863Y354193D01*
X530966Y354000D01*
X530863Y353807D01*
X530520Y352676D01*
X530404Y351500D01*
X530520Y350324D01*
X530863Y349193D01*
X530966Y349000D01*
X530863Y348807D01*
X530520Y347676D01*
X530404Y346500D01*
X530520Y345324D01*
X530863Y344193D01*
X530966Y344000D01*
X530863Y343807D01*
X530520Y342676D01*
X530404Y341500D01*
X530520Y340324D01*
X530863Y339193D01*
X530966Y339000D01*
X530863Y338807D01*
X530520Y337676D01*
X530404Y336500D01*
X530520Y335324D01*
X530863Y334193D01*
X531420Y333151D01*
X532170Y332237D01*
X533083Y331487D01*
X534126Y330930D01*
X534532Y330807D01*
X534549Y330720D01*
X534991Y330058D01*
X535653Y329616D01*
X536433Y329461D01*
X543433D01*
X544213Y329616D01*
X544875Y330058D01*
X545207Y330091D01*
X556498Y318800D01*
Y316703D01*
X556695Y315202D01*
X557275Y313803D01*
X558196Y312602D01*
X560032Y310766D01*
X560162Y309441D01*
X560617Y307942D01*
X561355Y306560D01*
X562349Y305349D01*
X563560Y304356D01*
X564661Y303767D01*
X564766Y303279D01*
X564547Y302993D01*
X564149Y302032D01*
X564079Y301500D01*
X571921D01*
X571851Y302032D01*
X571453Y302993D01*
X571234Y303279D01*
X571339Y303767D01*
X572440Y304356D01*
X573190Y304971D01*
X584024D01*
X584302Y304555D01*
X584041Y303927D01*
X583985Y303500D01*
X591015D01*
X590959Y303927D01*
X590601Y304790D01*
X590084Y305464D01*
X590237Y305940D01*
X590403Y305991D01*
X591715Y306692D01*
X592055Y306971D01*
X592503D01*
X615237Y284237D01*
Y284237D01*
X615237Y284237D01*
X615237Y284237D01*
Y284237D01*
X616151Y283487D01*
X617193Y282930D01*
X617193Y282930D01*
X617193Y282930D01*
D01*
X617193Y282930D01*
X617193Y282930D01*
X618324Y282587D01*
X619500Y282471D01*
X656121D01*
X656670Y282020D01*
X658018Y281300D01*
X659480Y280856D01*
X661000Y280707D01*
X662520Y280856D01*
X663982Y281300D01*
X665330Y282020D01*
X666511Y282989D01*
X667480Y284170D01*
X668200Y285518D01*
X668644Y286980D01*
X668713Y287687D01*
X670491Y289464D01*
X670953Y289273D01*
Y239048D01*
X595621D01*
X595499Y239532D01*
X596349Y239987D01*
X597263Y240737D01*
X609263Y252737D01*
X609263Y252737D01*
X609263Y252737D01*
X610013Y253650D01*
X610570Y254693D01*
X610570Y254693D01*
X610570Y254693D01*
X610913Y255824D01*
X611029Y257000D01*
X611029Y257000D01*
X611029Y257000D01*
Y257000D01*
Y262000D01*
X611029Y262000D01*
X610913Y263176D01*
X610570Y264307D01*
X610013Y265350D01*
X609263Y266263D01*
X600984Y274542D01*
X600941Y274980D01*
X600509Y276403D01*
X599808Y277715D01*
X598865Y278865D01*
X597715Y279808D01*
X596403Y280509D01*
X594980Y280941D01*
X593500Y281086D01*
X592020Y280941D01*
X590597Y280509D01*
X589285Y279808D01*
X588945Y279529D01*
X579500D01*
X578324Y279413D01*
X577193Y279070D01*
X576382Y278637D01*
X575953Y278894D01*
Y288953D01*
X560047D01*
Y287029D01*
X558000D01*
X556824Y286913D01*
X555693Y286570D01*
X554650Y286013D01*
X553737Y285263D01*
X546003Y277529D01*
X538406D01*
X537975Y277660D01*
X536750Y277780D01*
X531250D01*
X530025Y277660D01*
X528847Y277302D01*
X527761Y276722D01*
X526809Y275941D01*
X526028Y274989D01*
X525448Y273903D01*
X525090Y272725D01*
X524970Y271500D01*
X525090Y270275D01*
X525448Y269097D01*
X525499Y269000D01*
X525448Y268903D01*
X525090Y267725D01*
X524970Y266500D01*
X525090Y265275D01*
X525448Y264097D01*
X526028Y263011D01*
X526809Y262059D01*
X527186Y261750D01*
Y261250D01*
X526809Y260941D01*
X526028Y259989D01*
X525448Y258903D01*
X525090Y257725D01*
X524970Y256500D01*
X525090Y255275D01*
X525448Y254097D01*
X526028Y253011D01*
X526809Y252059D01*
X527433Y251547D01*
X527265Y251076D01*
X521235D01*
X521067Y251547D01*
X521691Y252059D01*
X522472Y253011D01*
X523052Y254097D01*
X523410Y255275D01*
X523530Y256500D01*
X523410Y257725D01*
X523052Y258903D01*
X523000Y259000D01*
X523052Y259097D01*
X523410Y260275D01*
X523530Y261500D01*
X523410Y262725D01*
X523052Y263903D01*
X523000Y264000D01*
X523052Y264097D01*
X523402Y265250D01*
X523500D01*
Y266193D01*
X523530Y266500D01*
X523500Y266807D01*
Y277750D01*
X506276D01*
X498763Y285263D01*
X497850Y286013D01*
X496807Y286570D01*
X495676Y286913D01*
X494500Y287029D01*
X483190D01*
X482440Y287645D01*
X481058Y288383D01*
X479559Y288838D01*
X478594Y288933D01*
X473441Y294085D01*
X473632Y294547D01*
X485953D01*
Y301926D01*
X495716Y311689D01*
X495716Y311690D01*
X496466Y312603D01*
X497023Y313646D01*
X497366Y314776D01*
X497482Y315953D01*
X497482Y315953D01*
Y325471D01*
X499971D01*
Y318264D01*
X499316Y317466D01*
X498573Y316076D01*
X498116Y314568D01*
X497961Y313000D01*
X498116Y311432D01*
X498573Y309924D01*
X499316Y308534D01*
X500316Y307316D01*
X501534Y306316D01*
X502924Y305573D01*
X504432Y305116D01*
X506000Y304961D01*
X507568Y305116D01*
X509076Y305573D01*
X510466Y306316D01*
X511684Y307316D01*
X512684Y308534D01*
X513427Y309924D01*
X513884Y311432D01*
X514039Y313000D01*
X513884Y314568D01*
X513427Y316076D01*
X512684Y317466D01*
X512029Y318264D01*
Y327045D01*
X512263Y327237D01*
X513013Y328151D01*
X513570Y329193D01*
X513913Y330324D01*
X514029Y331500D01*
X513913Y332676D01*
X513570Y333807D01*
X513013Y334850D01*
X512263Y335763D01*
X511670Y336250D01*
Y336750D01*
X512263Y337237D01*
X513013Y338151D01*
X513570Y339193D01*
X513913Y340324D01*
X514029Y341500D01*
X513913Y342676D01*
X513570Y343807D01*
X513467Y344000D01*
X513570Y344193D01*
X513913Y345324D01*
X514029Y346500D01*
X513913Y347676D01*
X513570Y348807D01*
X513467Y349000D01*
X513570Y349193D01*
X513913Y350324D01*
X514029Y351500D01*
X513913Y352676D01*
X513570Y353807D01*
X513467Y354000D01*
X513570Y354193D01*
X513913Y355324D01*
X514029Y356500D01*
X513913Y357676D01*
X513570Y358807D01*
X513467Y359000D01*
X513570Y359193D01*
X513913Y360324D01*
X514029Y361500D01*
X513913Y362676D01*
X513570Y363807D01*
X513467Y364000D01*
X513570Y364193D01*
X513913Y365324D01*
X514029Y366500D01*
X513913Y367676D01*
X513570Y368807D01*
X513467Y369000D01*
X513570Y369193D01*
X513913Y370324D01*
X514029Y371500D01*
X513913Y372676D01*
X513570Y373807D01*
X513467Y374000D01*
X513570Y374193D01*
X513913Y375324D01*
X514029Y376500D01*
X513913Y377676D01*
X513570Y378807D01*
X513467Y379000D01*
X513570Y379193D01*
X513913Y380324D01*
X514029Y381500D01*
X513913Y382676D01*
X513570Y383807D01*
X513467Y384000D01*
X513570Y384193D01*
X513913Y385324D01*
X514029Y386500D01*
X513913Y387676D01*
X513570Y388807D01*
X513013Y389849D01*
X512850Y390048D01*
X513064Y390500D01*
X514000D01*
Y402500D01*
X506702D01*
X504300Y404902D01*
Y417921D01*
X504102Y419422D01*
X503523Y420821D01*
X502601Y422022D01*
X489119Y435504D01*
X488934Y435850D01*
X488185Y436763D01*
X487271Y437513D01*
X486229Y438070D01*
X485098Y438413D01*
X484029Y438518D01*
Y440503D01*
X494056Y450529D01*
X494555Y450497D01*
X495181Y449681D01*
X496007Y449047D01*
X496968Y448649D01*
X497500Y448579D01*
Y452500D01*
X498500D01*
Y448579D01*
D02*
G37*
%LPC*%
G36*
X571921Y300500D02*
X568500D01*
Y297079D01*
X569032Y297149D01*
X569993Y297547D01*
X570819Y298181D01*
X571453Y299007D01*
X571851Y299968D01*
X571921Y300500D01*
D02*
G37*
G36*
X653981Y469498D02*
X582000D01*
Y449501D01*
X653981D01*
Y469498D01*
D02*
G37*
G36*
X593000Y263000D02*
X589985D01*
X590041Y262573D01*
X590399Y261710D01*
X590968Y260968D01*
X591710Y260399D01*
X592573Y260041D01*
X593000Y259985D01*
Y263000D01*
D02*
G37*
G36*
X567500Y300500D02*
X564079D01*
X564149Y299968D01*
X564547Y299007D01*
X565181Y298181D01*
X566007Y297547D01*
X566968Y297149D01*
X567500Y297079D01*
Y300500D01*
D02*
G37*
G36*
X587000Y371000D02*
X583985D01*
X584041Y370573D01*
X584399Y369710D01*
X584968Y368968D01*
X585710Y368399D01*
X586573Y368041D01*
X587000Y367985D01*
Y371000D01*
D02*
G37*
G36*
X591015D02*
X588000D01*
Y367985D01*
X588427Y368041D01*
X589290Y368399D01*
X590032Y368968D01*
X590601Y369710D01*
X590959Y370573D01*
X591015Y371000D01*
D02*
G37*
G36*
X461000Y395515D02*
Y392500D01*
X464015D01*
X463959Y392927D01*
X463601Y393790D01*
X463032Y394532D01*
X462290Y395101D01*
X461427Y395459D01*
X461000Y395515D01*
D02*
G37*
G36*
X461500Y422500D02*
X458485D01*
X458541Y422073D01*
X458899Y421210D01*
X459468Y420468D01*
X460210Y419899D01*
X461073Y419541D01*
X461500Y419485D01*
Y422500D01*
D02*
G37*
G36*
X587000Y302500D02*
X583985D01*
X584041Y302073D01*
X584399Y301210D01*
X584968Y300468D01*
X585710Y299899D01*
X586573Y299541D01*
X587000Y299485D01*
Y302500D01*
D02*
G37*
G36*
X591015D02*
X588000D01*
Y299485D01*
X588427Y299541D01*
X589290Y299899D01*
X590032Y300468D01*
X590601Y301210D01*
X590959Y302073D01*
X591015Y302500D01*
D02*
G37*
G36*
X465515Y422500D02*
X462500D01*
Y419485D01*
X462927Y419541D01*
X463790Y419899D01*
X464532Y420468D01*
X465101Y421210D01*
X465459Y422073D01*
X465515Y422500D01*
D02*
G37*
%LPD*%
D10*
X453500Y266000D02*
G03*
X454914Y262586I4828J0D01*
G01*
X454914Y262586D02*
G03*
X451500Y264000I-3414J-3414D01*
G01*
X454175Y263480D02*
G03*
X451500Y266000I-3376J-905D01*
G01*
D02*
G03*
X454020Y263325I3424J701D01*
G01*
X458414Y333914D02*
G03*
X461828Y332500I3414J3414D01*
G01*
D02*
G03*
X458414Y331086I0J-4828D01*
G01*
X437000Y302000D02*
G03*
X438414Y298586I4828J0D01*
G01*
X438414Y298586D02*
G03*
X435000Y300000I-3414J-3414D01*
G01*
X437675Y299480D02*
G03*
X435000Y302000I-3376J-905D01*
G01*
D02*
G03*
X437520Y299325I3424J701D01*
G01*
X462414Y322414D02*
G03*
X465828Y321000I3414J3414D01*
G01*
D02*
G03*
X462414Y319586I0J-4828D01*
G01*
X444414Y329586D02*
G03*
X443000Y326172I3414J-3414D01*
G01*
D02*
G03*
X441586Y329586I-4828J0D01*
G01*
X444723Y352515D02*
G03*
X446500Y351500I1777J1047D01*
G01*
D02*
G03*
X444723Y350485I0J-2062D01*
G01*
X504586Y314414D02*
G03*
X506000Y317828I-3414J3414D01*
G01*
D02*
G03*
X507414Y314414I4828J0D01*
G01*
X512500Y441000D02*
G03*
X511086Y444414I-4828J0D01*
G01*
X511086Y444414D02*
G03*
X514500Y443000I3414J3414D01*
G01*
X511825Y443520D02*
G03*
X514500Y441000I3376J905D01*
G01*
D02*
G03*
X511980Y443675I-3424J-701D01*
G01*
X464000Y456500D02*
G03*
X460586Y455086I0J-4828D01*
G01*
X460586Y455086D02*
G03*
X462000Y458500I-3414J3414D01*
G01*
X461480Y455825D02*
G03*
X464000Y458500I-905J3376D01*
G01*
D02*
G03*
X461325Y455980I701J-3424D01*
G01*
X588551Y261000D02*
G03*
X593818Y263182I0J7449D01*
G01*
X583722Y261000D02*
G03*
X592404Y264596I0J12278D01*
G01*
X593099Y262003D02*
G03*
X591385Y261777I-584J-2181D01*
G01*
X590262Y261128D02*
G03*
X591962Y263692I-1727J2991D01*
G01*
X592852Y262092D02*
G03*
X587649Y261851I-2369J-5151D01*
G01*
X593436Y261951D02*
G03*
X591000Y261000I-133J-3254D01*
G01*
D02*
G03*
X591951Y263437I-2303J2303D01*
G01*
X592404Y272404D02*
G03*
X589758Y273500I-2646J-2646D01*
G01*
D02*
G03*
X592404Y274596I0J3742D01*
G01*
X595050Y273500D02*
G03*
X596146Y270854I3742J0D01*
G01*
X596146Y270854D02*
G03*
X593500Y271950I-2646J-2646D01*
G01*
X632404Y335096D02*
G03*
X633000Y336535I-1439J1439D01*
G01*
Y338949D02*
G03*
X634596Y335096I5449J0D01*
G01*
X606950Y365000D02*
G03*
X605854Y367646I-3742J0D01*
G01*
X605854Y367646D02*
G03*
X608500Y366550I2646J2646D01*
G01*
Y353450D02*
G03*
X605854Y352354I0J-3742D01*
G01*
X605854Y352354D02*
G03*
X606950Y355000I-2646J2646D01*
G01*
X608500Y356550D02*
G03*
X611146Y357646I0J3742D01*
G01*
X611146Y357646D02*
G03*
X610050Y355000I2646J-2646D01*
G01*
X661000Y379950D02*
G03*
X658354Y378854I0J-3742D01*
G01*
X658354Y378854D02*
G03*
X659450Y381500I-2646J2646D01*
G01*
X662096Y370404D02*
G03*
X661000Y367758I2646J-2646D01*
G01*
D02*
G03*
X659904Y370404I-3742J0D01*
G01*
X586404Y370404D02*
G03*
X584965Y371000I-1439J-1439D01*
G01*
X582551D02*
G03*
X586404Y372596I0J5449D01*
G01*
X588596D02*
G03*
X591242Y371500I2646J2646D01*
G01*
D02*
G03*
X588596Y370404I0J-3742D01*
G01*
X583147Y384853D02*
G03*
X587500Y383050I4353J4353D01*
G01*
X586404Y380404D02*
G03*
X584965Y381000I-1439J-1439D01*
G01*
X582551D02*
G03*
X586404Y382596I0J5449D01*
G01*
X587500Y383050D02*
G03*
X590146Y384146I0J3742D01*
G01*
X590146Y384146D02*
G03*
X589050Y381500I2646J-2646D01*
G01*
X587916Y381672D02*
G03*
X585836Y383496I-2889J-1198D01*
G01*
X459404Y390904D02*
G03*
X456758Y392000I-2646J-2646D01*
G01*
D02*
G03*
X459404Y393096I0J3742D01*
G01*
X462050Y382000D02*
G03*
X463146Y379354I3742J0D01*
G01*
X463146Y379354D02*
G03*
X460500Y380450I-2646J-2646D01*
G01*
X458950Y382000D02*
G03*
X457854Y384646I-3742J0D01*
G01*
X457854Y384646D02*
G03*
X460500Y383550I2646J2646D01*
G01*
X460904Y421904D02*
G03*
X458258Y423000I-2646J-2646D01*
G01*
D02*
G03*
X460904Y424096I0J3742D01*
G01*
X463096D02*
G03*
X466949Y422500I3853J3853D01*
G01*
X464535D02*
G03*
X463096Y421904I0J-2035D01*
G01*
X460904Y431904D02*
G03*
X458258Y433000I-2646J-2646D01*
G01*
D02*
G03*
X460904Y434096I0J3742D01*
G01*
X463096D02*
G03*
X466949Y432500I3853J3853D01*
G01*
X464535D02*
G03*
X463096Y431904I0J-2035D01*
G01*
X516047Y452500D02*
G03*
X514666Y455834I-4714J0D01*
G01*
X514666Y455834D02*
G03*
X518000Y454453I3334J3334D01*
G01*
X519953Y452500D02*
G03*
X521334Y449166I4714J0D01*
G01*
X521334Y449166D02*
G03*
X518000Y450547I-3334J-3334D01*
G01*
X509381Y451119D02*
G03*
X508000Y447786I3334J-3334D01*
G01*
D02*
G03*
X506619Y451119I-4714J0D01*
G01*
X499381D02*
G03*
X498000Y447786I3334J-3334D01*
G01*
D02*
G03*
X496619Y451119I-4714J0D01*
G01*
X569381Y302381D02*
G03*
X572714Y301000I3334J3334D01*
G01*
D02*
G03*
X569381Y299619I0J-4714D01*
G01*
X566619D02*
G03*
X563286Y301000I-3334J-3334D01*
G01*
D02*
G03*
X566619Y302381I0J4714D01*
G01*
X569381Y312381D02*
G03*
X572714Y311000I3334J3334D01*
G01*
D02*
G03*
X569381Y309619I0J-4714D01*
G01*
X567967Y320967D02*
G03*
X573801Y318550I5834J5834D01*
G01*
X569381Y322381D02*
G03*
X578629Y318550I9248J9248D01*
G01*
X569923Y321339D02*
G03*
X571688Y318818I3585J632D01*
G01*
X571688Y318818D02*
G03*
X568603Y319143I-1907J-3303D01*
G01*
X571510Y321152D02*
G03*
X567974Y321039I-1677J-2905D01*
G01*
X574301Y319540D02*
G03*
X569082Y319374I-2476J-4288D01*
G01*
X569896Y320534D02*
G03*
X570450Y318550I2036J-501D01*
G01*
D02*
G03*
X568466Y319104I-1483J-1483D01*
G01*
X569381Y332381D02*
G03*
X572714Y331000I3334J3334D01*
G01*
D02*
G03*
X569381Y329619I0J-4714D01*
G01*
Y342381D02*
G03*
X572714Y341000I3334J3334D01*
G01*
D02*
G03*
X569381Y339619I0J-4714D01*
G01*
X568047Y341005D02*
G03*
X565903Y343515I-2899J-306D01*
G01*
X566047Y341000D02*
G03*
X564313Y345187I-5922J0D01*
G01*
X565520Y343980D02*
G03*
X568000Y342953I2480J2480D01*
G01*
X565330Y343675D02*
G03*
X567987Y340955I3751J1005D01*
G01*
X569381Y372381D02*
G03*
X572714Y371000I3334J3334D01*
G01*
D02*
G03*
X569381Y369619I0J-4714D01*
G01*
Y382381D02*
G03*
X572714Y381000I3334J3334D01*
G01*
D02*
G03*
X569381Y379619I0J-4714D01*
G01*
Y392381D02*
G03*
X572714Y391000I3334J3334D01*
G01*
D02*
G03*
X569381Y389619I0J-4714D01*
G01*
Y422381D02*
G03*
X572714Y421000I3334J3334D01*
G01*
D02*
G03*
X569381Y419619I0J-4714D01*
G01*
X566619Y429619D02*
G03*
X563551Y430890I-3069J-3069D01*
G01*
X563021D02*
G03*
X566619Y432381I0J5089D01*
G01*
X479381Y433881D02*
G03*
X482714Y432500I3334J3334D01*
G01*
D02*
G03*
X479381Y431119I0J-4714D01*
G01*
X476619D02*
G03*
X473286Y432500I-3334J-3334D01*
G01*
D02*
G03*
X476619Y433881I0J4714D01*
G01*
D02*
G03*
X478000Y437214I-3334J3334D01*
G01*
D02*
G03*
X479381Y433881I4714J0D01*
G01*
Y423881D02*
G03*
X482714Y422500I3334J3334D01*
G01*
D02*
G03*
X479381Y421119I0J-4714D01*
G01*
X476619D02*
G03*
X473286Y422500I-3334J-3334D01*
G01*
D02*
G03*
X476619Y423881I0J4714D01*
G01*
X479381Y413881D02*
G03*
X482714Y412500I3334J3334D01*
G01*
D02*
G03*
X479381Y411119I0J-4714D01*
G01*
X478000Y410547D02*
G03*
X474666Y409166I0J-4714D01*
G01*
X474666Y409166D02*
G03*
X476047Y412500I-3334J3334D01*
G01*
X475614Y409908D02*
G03*
X478046Y412491I-873J3260D01*
G01*
X477990Y412546D02*
G03*
X475408Y410114I677J-3306D01*
G01*
X476619Y371119D02*
G03*
X473286Y372500I-3334J-3334D01*
G01*
D02*
G03*
X476619Y373881I0J4714D01*
G01*
Y351119D02*
G03*
X473286Y352500I-3334J-3334D01*
G01*
D02*
G03*
X476619Y353881I0J4714D01*
G01*
Y341119D02*
G03*
X473286Y342500I-3334J-3334D01*
G01*
D02*
G03*
X476619Y343881I0J4714D01*
G01*
Y331119D02*
G03*
X473286Y332500I-3334J-3334D01*
G01*
D02*
G03*
X476619Y333881I0J4714D01*
G01*
X476486Y321267D02*
G03*
X473153Y321880I-2026J-1650D01*
G01*
X474493Y321000D02*
G03*
X478033Y322467I0J5007D01*
G01*
X469664Y321000D02*
G03*
X476619Y323881I0J9836D01*
G01*
X478000Y314453D02*
G03*
X483356Y316671I0J7574D01*
G01*
X481071Y315276D02*
G03*
X477956Y312518I1206J-4500D01*
G01*
X478000Y304453D02*
G03*
X481334Y305834I0J4714D01*
G01*
X481334Y305834D02*
G03*
X479953Y302500I3334J-3334D01*
G01*
X435500Y434744D02*
G03*
X433942Y434099I0J-2204D01*
G01*
X431906Y432063D02*
G03*
X433744Y436500I-4437J4437D01*
G01*
X435416Y436729D02*
G03*
X433139Y434241I1254J-3434D01*
G01*
X437219Y436142D02*
G03*
X438157Y433000I3376J-703D01*
G01*
X437058Y434099D02*
G03*
X435500Y434744I-1558J-1558D01*
G01*
X436742Y407742D02*
G03*
X439739Y406500I2998J2998D01*
G01*
D02*
G03*
X436742Y405258I0J-4239D01*
G01*
X659758Y317258D02*
G03*
X656882Y318450I-2877J-2877D01*
G01*
X656640D02*
G03*
X659758Y319742I0J4410D01*
G01*
D02*
G03*
X661000Y322739I-2998J2998D01*
G01*
D02*
G03*
X662242Y319742I4239J0D01*
G01*
X659758Y287258D02*
G03*
X656761Y288500I-2998J-2998D01*
G01*
D02*
G03*
X659758Y289742I0J4239D01*
G01*
X661049Y288261D02*
G03*
X663246Y290331I-576J2813D01*
G01*
X661000Y290256D02*
G03*
X663998Y291497I0J4239D01*
G01*
D02*
G03*
X662756Y288500I2998J-2998D01*
G01*
X662831Y290746D02*
G03*
X660761Y288549I743J-2774D01*
G01*
X634242Y352758D02*
G03*
X633000Y349761I2998J-2998D01*
G01*
D02*
G03*
X631758Y352758I-4239J0D01*
G01*
X632951Y384239D02*
G03*
X630754Y382169I576J-2813D01*
G01*
X633000Y382244D02*
G03*
X630002Y381002I0J-4239D01*
G01*
D02*
G03*
X631244Y384000I-2998J2998D01*
G01*
X631169Y381754D02*
G03*
X633239Y383951I-743J2774D01*
G01*
X660758Y423758D02*
G03*
X657761Y425000I-2998J-2998D01*
G01*
D02*
G03*
X660758Y426242I0J4239D01*
G01*
X663242Y393758D02*
G03*
X662000Y390761I2998J-2998D01*
G01*
D02*
G03*
X660758Y393758I-4239J0D01*
G01*
X566619Y249619D02*
G03*
X563286Y251000I-3334J-3334D01*
G01*
D02*
G03*
X566619Y252381I0J4714D01*
G01*
X569381Y262381D02*
G03*
X572714Y261000I3334J3334D01*
G01*
D02*
G03*
X569381Y259619I0J-4714D01*
G01*
X566619D02*
G03*
X562079Y261500I-4541J-4541D01*
G01*
X564493D02*
G03*
X566619Y262381I0J3007D01*
G01*
X569381Y272381D02*
G03*
X572714Y271000I3334J3334D01*
G01*
D02*
G03*
X569381Y269619I0J-4714D01*
G01*
X566619D02*
G03*
X563286Y271000I-3334J-3334D01*
G01*
D02*
G03*
X566619Y272381I0J4714D01*
G01*
Y279619D02*
G03*
X563286Y281000I-3334J-3334D01*
G01*
D02*
G03*
X566619Y282381I0J4714D01*
G01*
X476047Y281000D02*
G03*
X474666Y284334I-4714J0D01*
G01*
X474666Y284334D02*
G03*
X478000Y282953I3334J3334D01*
G01*
X479381Y282381D02*
G03*
X482714Y281000I3334J3334D01*
G01*
D02*
G03*
X479381Y279619I0J-4714D01*
G01*
X475408Y283386D02*
G03*
X477990Y280954I3260J873D01*
G01*
X478046Y281010D02*
G03*
X475614Y283592I-3306J-677D01*
G01*
X476047Y271000D02*
G03*
X474666Y274334I-4714J0D01*
G01*
X474666Y274334D02*
G03*
X478000Y272953I3334J3334D01*
G01*
X480592Y268614D02*
G03*
X478010Y271046I-3260J-873D01*
G01*
X479953Y271000D02*
G03*
X481334Y267666I4714J0D01*
G01*
X481334Y267666D02*
G03*
X478000Y269047I-3334J-3334D01*
G01*
X477954Y270990D02*
G03*
X480386Y268408I3306J677D01*
G01*
X475408Y273386D02*
G03*
X477990Y270954I3260J873D01*
G01*
X478046Y271009D02*
G03*
X475614Y273592I-3306J-677D01*
G01*
X474666Y262334D02*
G03*
X478000Y260953I3334J3334D01*
G01*
X471252Y265748D02*
G03*
X478000Y262953I6748J6748D01*
G01*
X479381Y262381D02*
G03*
X481507Y261500I2127J2127D01*
G01*
X483921D02*
G03*
X479381Y259619I0J-6421D01*
G01*
X478042Y261022D02*
G03*
X474457Y263902I-5060J-2627D01*
G01*
X479381Y252381D02*
G03*
X482714Y251000I3334J3334D01*
G01*
D02*
G03*
X479381Y249619I0J-4714D01*
G01*
X476619D02*
G03*
X473286Y251000I-3334J-3334D01*
G01*
D02*
G03*
X476619Y252381I0J4714D01*
G01*
X586664Y301695D02*
G03*
X582414Y301793I-2205J-3444D01*
G01*
X583758Y301000D02*
G03*
X587818Y302682I0J5742D01*
G01*
X578930Y301000D02*
G03*
X586404Y304096I0J10571D01*
G01*
X587099Y301503D02*
G03*
X585385Y301277I-584J-2181D01*
G01*
X585027Y301070D02*
G03*
X585956Y302861I-937J1623D01*
G01*
X587166Y301486D02*
G03*
X585500Y301000I-389J-1763D01*
G01*
X585500Y301000D02*
G03*
X585986Y302666I-1277J1277D01*
G01*
X586664Y311695D02*
G03*
X582414Y311792I-2205J-3444D01*
G01*
X583758Y311000D02*
G03*
X587818Y312682I0J5742D01*
G01*
X578930Y311000D02*
G03*
X586404Y314096I0J10571D01*
G01*
X587099Y311503D02*
G03*
X585385Y311277I-584J-2181D01*
G01*
X585027Y311070D02*
G03*
X585956Y312861I-937J1623D01*
G01*
X588596Y314096D02*
G03*
X591242Y313000I2646J2646D01*
G01*
D02*
G03*
X588596Y311904I0J-3742D01*
G01*
X587166Y311486D02*
G03*
X585500Y311000I-389J-1763D01*
G01*
X585500Y311000D02*
G03*
X585986Y312666I-1277J1277D01*
G01*
X529098Y262641D02*
G03*
X531250Y261750I2152J2152D01*
G01*
X529490Y262250D02*
G03*
X531198Y261744I1319J1319D01*
G01*
X531035Y261372D02*
G03*
X529490Y262250I-1546J-921D01*
G01*
X497586Y392914D02*
G03*
X501000Y391500I3414J3414D01*
G01*
X506000Y327879D02*
G03*
X504500Y331500I-5121J0D01*
G01*
X506000Y329379D02*
G03*
X504500Y331500I-2250J0D01*
G01*
X453500Y266000D02*
G03*
X454914Y262586I4828J0D01*
G01*
X454914Y262586D02*
G03*
X451500Y264000I-3414J-3414D01*
G01*
X458414Y333914D02*
G03*
X461828Y332500I3414J3414D01*
G01*
D02*
G03*
X458414Y331086I0J-4828D01*
G01*
X437000Y302000D02*
G03*
X438414Y298586I4828J0D01*
G01*
X438414Y298586D02*
G03*
X435000Y300000I-3414J-3414D01*
G01*
X462414Y322414D02*
G03*
X465828Y321000I3414J3414D01*
G01*
D02*
G03*
X462414Y319586I0J-4828D01*
G01*
X444414Y329586D02*
G03*
X443000Y326172I3414J-3414D01*
G01*
D02*
G03*
X441586Y329586I-4828J0D01*
G01*
X444723Y352515D02*
G03*
X446500Y351500I1777J1047D01*
G01*
D02*
G03*
X444723Y350485I0J-2062D01*
G01*
X504586Y314414D02*
G03*
X506000Y317828I-3414J3414D01*
G01*
D02*
G03*
X507414Y314414I4828J0D01*
G01*
X512500Y441000D02*
G03*
X511086Y444414I-4828J0D01*
G01*
X511086Y444414D02*
G03*
X514500Y443000I3414J3414D01*
G01*
X464000Y456500D02*
G03*
X460586Y455086I0J-4828D01*
G01*
X460586Y455086D02*
G03*
X462000Y458500I-3414J3414D01*
G01*
X588551Y261000D02*
G03*
X593818Y263182I0J7449D01*
G01*
X583722Y261000D02*
G03*
X592404Y264596I0J12278D01*
G01*
X593436Y261951D02*
G03*
X591000Y261000I-133J-3254D01*
G01*
D02*
G03*
X591951Y263437I-2303J2303D01*
G01*
X592404Y272404D02*
G03*
X589758Y273500I-2646J-2646D01*
G01*
D02*
G03*
X592404Y274596I0J3742D01*
G01*
X595050Y273500D02*
G03*
X596146Y270854I3742J0D01*
G01*
X596146Y270854D02*
G03*
X593500Y271950I-2646J-2646D01*
G01*
X632404Y335096D02*
G03*
X633000Y336535I-1439J1439D01*
G01*
Y338949D02*
G03*
X634596Y335096I5449J0D01*
G01*
X606950Y365000D02*
G03*
X605854Y367646I-3742J0D01*
G01*
X605854Y367646D02*
G03*
X608500Y366550I2646J2646D01*
G01*
Y353450D02*
G03*
X605854Y352354I0J-3742D01*
G01*
X605854Y352354D02*
G03*
X606950Y355000I-2646J2646D01*
G01*
X608500Y356550D02*
G03*
X611146Y357646I0J3742D01*
G01*
X611146Y357646D02*
G03*
X610050Y355000I2646J-2646D01*
G01*
X661000Y379950D02*
G03*
X658354Y378854I0J-3742D01*
G01*
X658354Y378854D02*
G03*
X659450Y381500I-2646J2646D01*
G01*
X662096Y370404D02*
G03*
X661000Y367758I2646J-2646D01*
G01*
D02*
G03*
X659904Y370404I-3742J0D01*
G01*
X586404Y370404D02*
G03*
X584965Y371000I-1439J-1439D01*
G01*
X582551D02*
G03*
X586404Y372596I0J5449D01*
G01*
X588596D02*
G03*
X591242Y371500I2646J2646D01*
G01*
D02*
G03*
X588596Y370404I0J-3742D01*
G01*
X583147Y384853D02*
G03*
X587500Y383050I4353J4353D01*
G01*
X586404Y380404D02*
G03*
X584965Y381000I-1439J-1439D01*
G01*
X582551D02*
G03*
X586404Y382596I0J5449D01*
G01*
X587500Y383050D02*
G03*
X590146Y384146I0J3742D01*
G01*
X590146Y384146D02*
G03*
X589050Y381500I2646J-2646D01*
G01*
X459404Y390904D02*
G03*
X456758Y392000I-2646J-2646D01*
G01*
D02*
G03*
X459404Y393096I0J3742D01*
G01*
X462050Y382000D02*
G03*
X463146Y379354I3742J0D01*
G01*
X463146Y379354D02*
G03*
X460500Y380450I-2646J-2646D01*
G01*
X458950Y382000D02*
G03*
X457854Y384646I-3742J0D01*
G01*
X457854Y384646D02*
G03*
X460500Y383550I2646J2646D01*
G01*
X460904Y421904D02*
G03*
X458258Y423000I-2646J-2646D01*
G01*
D02*
G03*
X460904Y424096I0J3742D01*
G01*
X463096D02*
G03*
X466949Y422500I3853J3853D01*
G01*
X464535D02*
G03*
X463096Y421904I0J-2035D01*
G01*
X460904Y431904D02*
G03*
X458258Y433000I-2646J-2646D01*
G01*
D02*
G03*
X460904Y434096I0J3742D01*
G01*
X463096D02*
G03*
X466949Y432500I3853J3853D01*
G01*
X464535D02*
G03*
X463096Y431904I0J-2035D01*
G01*
X516047Y452500D02*
G03*
X514666Y455834I-4714J0D01*
G01*
X514666Y455834D02*
G03*
X518000Y454453I3334J3334D01*
G01*
X519953Y452500D02*
G03*
X521334Y449166I4714J0D01*
G01*
X521334Y449166D02*
G03*
X518000Y450547I-3334J-3334D01*
G01*
X509381Y451119D02*
G03*
X508000Y447786I3334J-3334D01*
G01*
D02*
G03*
X506619Y451119I-4714J0D01*
G01*
X499381D02*
G03*
X498000Y447786I3334J-3334D01*
G01*
D02*
G03*
X496619Y451119I-4714J0D01*
G01*
X569381Y302381D02*
G03*
X572714Y301000I3334J3334D01*
G01*
D02*
G03*
X569381Y299619I0J-4714D01*
G01*
X566619D02*
G03*
X563286Y301000I-3334J-3334D01*
G01*
D02*
G03*
X566619Y302381I0J4714D01*
G01*
X569381Y312381D02*
G03*
X572714Y311000I3334J3334D01*
G01*
D02*
G03*
X569381Y309619I0J-4714D01*
G01*
X567967Y320967D02*
G03*
X573801Y318550I5834J5834D01*
G01*
X569381Y322381D02*
G03*
X578629Y318550I9248J9248D01*
G01*
X569896Y320534D02*
G03*
X570450Y318550I2036J-501D01*
G01*
D02*
G03*
X568466Y319104I-1483J-1483D01*
G01*
X569381Y332381D02*
G03*
X572714Y331000I3334J3334D01*
G01*
D02*
G03*
X569381Y329619I0J-4714D01*
G01*
Y342381D02*
G03*
X572714Y341000I3334J3334D01*
G01*
D02*
G03*
X569381Y339619I0J-4714D01*
G01*
X566047Y341000D02*
G03*
X564313Y345187I-5922J0D01*
G01*
X565520Y343980D02*
G03*
X568000Y342953I2480J2480D01*
G01*
X569381Y372381D02*
G03*
X572714Y371000I3334J3334D01*
G01*
D02*
G03*
X569381Y369619I0J-4714D01*
G01*
Y382381D02*
G03*
X572714Y381000I3334J3334D01*
G01*
D02*
G03*
X569381Y379619I0J-4714D01*
G01*
Y392381D02*
G03*
X572714Y391000I3334J3334D01*
G01*
D02*
G03*
X569381Y389619I0J-4714D01*
G01*
Y422381D02*
G03*
X572714Y421000I3334J3334D01*
G01*
D02*
G03*
X569381Y419619I0J-4714D01*
G01*
X566619Y429619D02*
G03*
X563551Y430890I-3069J-3069D01*
G01*
X563021D02*
G03*
X566619Y432381I0J5089D01*
G01*
X479381Y433881D02*
G03*
X482714Y432500I3334J3334D01*
G01*
D02*
G03*
X479381Y431119I0J-4714D01*
G01*
X476619D02*
G03*
X473286Y432500I-3334J-3334D01*
G01*
D02*
G03*
X476619Y433881I0J4714D01*
G01*
D02*
G03*
X478000Y437214I-3334J3334D01*
G01*
D02*
G03*
X479381Y433881I4714J0D01*
G01*
Y423881D02*
G03*
X482714Y422500I3334J3334D01*
G01*
D02*
G03*
X479381Y421119I0J-4714D01*
G01*
X476619D02*
G03*
X473286Y422500I-3334J-3334D01*
G01*
D02*
G03*
X476619Y423881I0J4714D01*
G01*
X479381Y413881D02*
G03*
X482714Y412500I3334J3334D01*
G01*
D02*
G03*
X479381Y411119I0J-4714D01*
G01*
X478000Y410547D02*
G03*
X474666Y409166I0J-4714D01*
G01*
X474666Y409166D02*
G03*
X476047Y412500I-3334J3334D01*
G01*
X476619Y371119D02*
G03*
X473286Y372500I-3334J-3334D01*
G01*
D02*
G03*
X476619Y373881I0J4714D01*
G01*
Y351119D02*
G03*
X473286Y352500I-3334J-3334D01*
G01*
D02*
G03*
X476619Y353881I0J4714D01*
G01*
Y341119D02*
G03*
X473286Y342500I-3334J-3334D01*
G01*
D02*
G03*
X476619Y343881I0J4714D01*
G01*
Y331119D02*
G03*
X473286Y332500I-3334J-3334D01*
G01*
D02*
G03*
X476619Y333881I0J4714D01*
G01*
X474493Y321000D02*
G03*
X478033Y322467I0J5007D01*
G01*
X469664Y321000D02*
G03*
X476619Y323881I0J9836D01*
G01*
X478000Y314453D02*
G03*
X483356Y316671I0J7574D01*
G01*
X478000Y304453D02*
G03*
X481334Y305834I0J4714D01*
G01*
X481334Y305834D02*
G03*
X479953Y302500I3334J-3334D01*
G01*
X435500Y434744D02*
G03*
X433942Y434099I0J-2204D01*
G01*
X431906Y432063D02*
G03*
X433744Y436500I-4437J4437D01*
G01*
X437219Y436142D02*
G03*
X438157Y433000I3376J-703D01*
G01*
X437058Y434099D02*
G03*
X435500Y434744I-1558J-1558D01*
G01*
X436742Y407742D02*
G03*
X439739Y406500I2998J2998D01*
G01*
D02*
G03*
X436742Y405258I0J-4239D01*
G01*
X659758Y317258D02*
G03*
X656882Y318450I-2877J-2877D01*
G01*
X656640D02*
G03*
X659758Y319742I0J4410D01*
G01*
D02*
G03*
X661000Y322739I-2998J2998D01*
G01*
D02*
G03*
X662242Y319742I4239J0D01*
G01*
X659758Y287258D02*
G03*
X656761Y288500I-2998J-2998D01*
G01*
D02*
G03*
X659758Y289742I0J4239D01*
G01*
X661000Y290256D02*
G03*
X663998Y291497I0J4239D01*
G01*
D02*
G03*
X662756Y288500I2998J-2998D01*
G01*
X634242Y352758D02*
G03*
X633000Y349761I2998J-2998D01*
G01*
D02*
G03*
X631758Y352758I-4239J0D01*
G01*
X633000Y382244D02*
G03*
X630002Y381002I0J-4239D01*
G01*
D02*
G03*
X631244Y384000I-2998J2998D01*
G01*
X660758Y423758D02*
G03*
X657761Y425000I-2998J-2998D01*
G01*
D02*
G03*
X660758Y426242I0J4239D01*
G01*
X663242Y393758D02*
G03*
X662000Y390761I2998J-2998D01*
G01*
D02*
G03*
X660758Y393758I-4239J0D01*
G01*
X566619Y249619D02*
G03*
X563286Y251000I-3334J-3334D01*
G01*
D02*
G03*
X566619Y252381I0J4714D01*
G01*
X569381Y262381D02*
G03*
X572714Y261000I3334J3334D01*
G01*
D02*
G03*
X569381Y259619I0J-4714D01*
G01*
X566619D02*
G03*
X562079Y261500I-4541J-4541D01*
G01*
X564493D02*
G03*
X566619Y262381I0J3007D01*
G01*
X569381Y272381D02*
G03*
X572714Y271000I3334J3334D01*
G01*
D02*
G03*
X569381Y269619I0J-4714D01*
G01*
X566619D02*
G03*
X563286Y271000I-3334J-3334D01*
G01*
D02*
G03*
X566619Y272381I0J4714D01*
G01*
Y279619D02*
G03*
X563286Y281000I-3334J-3334D01*
G01*
D02*
G03*
X566619Y282381I0J4714D01*
G01*
X476047Y281000D02*
G03*
X474666Y284334I-4714J0D01*
G01*
X474666Y284334D02*
G03*
X478000Y282953I3334J3334D01*
G01*
X479381Y282381D02*
G03*
X482714Y281000I3334J3334D01*
G01*
D02*
G03*
X479381Y279619I0J-4714D01*
G01*
X476047Y271000D02*
G03*
X474666Y274334I-4714J0D01*
G01*
X474666Y274334D02*
G03*
X478000Y272953I3334J3334D01*
G01*
X479953Y271000D02*
G03*
X481334Y267666I4714J0D01*
G01*
X481334Y267666D02*
G03*
X478000Y269047I-3334J-3334D01*
G01*
X474666Y262334D02*
G03*
X478000Y260953I3334J3334D01*
G01*
X471252Y265748D02*
G03*
X478000Y262953I6748J6748D01*
G01*
X479381Y262381D02*
G03*
X481507Y261500I2127J2127D01*
G01*
X483921D02*
G03*
X479381Y259619I0J-6421D01*
G01*
Y252381D02*
G03*
X482714Y251000I3334J3334D01*
G01*
D02*
G03*
X479381Y249619I0J-4714D01*
G01*
X476619D02*
G03*
X473286Y251000I-3334J-3334D01*
G01*
D02*
G03*
X476619Y252381I0J4714D01*
G01*
X583758Y301000D02*
G03*
X587818Y302682I0J5742D01*
G01*
X578930Y301000D02*
G03*
X586404Y304096I0J10571D01*
G01*
X587166Y301486D02*
G03*
X585500Y301000I-389J-1763D01*
G01*
X585500Y301000D02*
G03*
X585986Y302666I-1277J1277D01*
G01*
X583758Y311000D02*
G03*
X587818Y312682I0J5742D01*
G01*
X578930Y311000D02*
G03*
X586404Y314096I0J10571D01*
G01*
X588596D02*
G03*
X591242Y313000I2646J2646D01*
G01*
D02*
G03*
X588596Y311904I0J-3742D01*
G01*
X587166Y311486D02*
G03*
X585500Y311000I-389J-1763D01*
G01*
X585500Y311000D02*
G03*
X585986Y312666I-1277J1277D01*
G01*
X529098Y262641D02*
G03*
X531250Y261750I2152J2152D01*
G01*
X529490Y262250D02*
G03*
X531198Y261744I1319J1319D01*
G01*
X531035Y261372D02*
G03*
X529490Y262250I-1546J-921D01*
G01*
X497586Y392914D02*
G03*
X501000Y391500I3414J3414D01*
G01*
X506000Y327879D02*
G03*
X504500Y331500I-5121J0D01*
G01*
X506000Y329379D02*
G03*
X504500Y331500I-2250J0D01*
G01*
X510500Y434000D02*
X522000Y422500D01*
X498000Y446500D02*
X510500Y434000D01*
X509500D02*
X510500D01*
X415500D02*
X426500Y445000D01*
X450500D01*
X593500Y273500D02*
X605000Y262000D01*
Y257000D02*
Y262000D01*
X593000Y245000D02*
X605000Y257000D01*
X543000Y245000D02*
X593000D01*
X542953Y245047D02*
X543000Y245000D01*
X463968Y245047D02*
X542953D01*
X415500Y293515D02*
X463968Y245047D01*
X415500Y293515D02*
Y434000D01*
X450500Y445000D02*
X464000Y458500D01*
X508000Y447500D02*
X514500Y441000D01*
X508000Y447500D02*
Y452500D01*
X661000Y288500D02*
X667756Y295256D01*
Y422616D01*
X504500Y331500D02*
X506000Y330000D01*
Y313000D02*
Y330000D01*
X602000Y371500D02*
X608500Y365000D01*
X587500Y371500D02*
X602000D01*
X470000Y372500D02*
X478000D01*
X460500Y382000D02*
X470000Y372500D01*
X456050Y386450D02*
X460500Y382000D01*
X436393Y386450D02*
X456050D01*
X419500Y403343D02*
X436393Y386450D01*
X419500Y403343D02*
Y419657D01*
X435500Y435657D01*
X438157Y433000D01*
X462000D01*
X462500Y432500D01*
X478000D01*
Y443000D01*
X498000Y463000D01*
X507500D01*
X518000Y452500D01*
X533547Y436953D01*
X577000Y391000D02*
X587000Y381000D01*
X587500Y381500D02*
X609047Y403047D01*
X587000Y381000D02*
X587500Y381500D01*
X568000Y391000D02*
X577000D01*
X658187Y436953D02*
X667756Y427384D01*
X533547Y436953D02*
X658187D01*
X609047Y403047D02*
X648187D01*
X667756Y422616D01*
Y427384D01*
X619500Y288500D02*
X661000D01*
X595000Y313000D02*
X619500Y288500D01*
X587500Y313000D02*
X595000D01*
X585500Y311000D02*
X587500Y313000D01*
X568000Y311000D02*
X585500D01*
Y301000D02*
X587500Y303000D01*
X568000Y301000D02*
X585500D01*
X523000Y268740D02*
X529490Y262250D01*
X523000Y268740D02*
Y340760D01*
X533250Y262250D02*
X534000Y261500D01*
X529490Y262250D02*
X533250D01*
X504500Y336500D02*
X518000D01*
X522000Y340500D01*
X531000Y331500D02*
X539933D01*
X522000Y340500D02*
X531000Y331500D01*
X522000Y340500D02*
Y375000D01*
X530500Y366500D02*
X539933D01*
X522000Y375000D02*
X530500Y366500D01*
X522000Y375000D02*
Y385500D01*
X526000Y381500D02*
X539933D01*
X522000Y385500D02*
X526000Y381500D01*
X522000Y385500D02*
Y396500D01*
X527000Y391500D02*
X539933D01*
X522000Y396500D02*
X527000Y391500D01*
X504500D02*
X517000D01*
X522000Y396500D01*
Y422500D01*
X498000Y446500D02*
Y452500D01*
X447500Y352500D02*
X478000D01*
X446500Y351500D02*
X447500Y352500D01*
X443000Y351500D02*
X446500D01*
X443000Y316000D02*
Y331000D01*
Y316000D02*
X478000Y281000D01*
X568000Y321000D02*
X570450Y318550D01*
X589799D02*
X589899Y318450D01*
X660950D01*
X570450Y318550D02*
X589799D01*
X660950Y318450D02*
X661000Y318500D01*
Y371500D01*
X633000Y334500D02*
X633500Y334000D01*
X633000Y334500D02*
Y354000D01*
X614500Y365500D02*
X633000Y384000D01*
X614500Y361000D02*
Y365500D01*
X594500Y341000D02*
X614500Y361000D01*
X568000Y331000D02*
X608500D01*
X616000Y338500D01*
Y354500D01*
X627500Y366000D01*
X645500D01*
X661000Y381500D01*
X662000Y382500D02*
Y395000D01*
X568000Y341000D02*
X594500D01*
X587000Y371000D02*
X587500Y371500D01*
X568000Y371000D02*
X587000D01*
X568000Y381000D02*
X587000D01*
X593000Y425000D02*
X662000D01*
X589000Y421000D02*
X593000Y425000D01*
X568000Y421000D02*
X589000D01*
X435500Y435657D02*
Y436500D01*
X478000Y432500D02*
X483921D01*
X472000Y406500D02*
X478000Y412500D01*
X435500Y406500D02*
X472000D01*
X436500Y392000D02*
X460500D01*
X423500Y405000D02*
X436500Y392000D01*
X423500Y405000D02*
Y418000D01*
X428500Y423000D01*
X462000D01*
X462500Y422500D01*
X478000D01*
X579500Y273500D02*
X593500D01*
X577000Y271000D02*
X579500Y273500D01*
X568000Y271000D02*
X577000D01*
X591000Y261000D02*
X593500Y263500D01*
X568000Y261000D02*
X591000D01*
X534000Y261500D02*
X567500D01*
X557500Y271000D02*
X568000D01*
X553000Y266500D02*
X557500Y271000D01*
X534000Y266500D02*
X553000D01*
X558000Y281000D02*
X568000D01*
X548500Y271500D02*
X558000Y281000D01*
X534000Y271500D02*
X548500D01*
X478000Y271000D02*
X482500Y266500D01*
X435500Y313500D02*
X478000Y271000D01*
X444000Y342500D02*
X478000D01*
X435500Y334000D02*
X444000Y342500D01*
X435500Y313500D02*
Y334000D01*
X482500Y266500D02*
X514500D01*
X546000Y251000D02*
X568000D01*
X540500Y256500D02*
X546000Y251000D01*
X534000Y256500D02*
X540500D01*
X461000Y321000D02*
X476500D01*
X504000Y271500D02*
X514500D01*
X494500Y281000D02*
X504000Y271500D01*
X478000Y281000D02*
X494500D01*
X478500Y261500D02*
X514500D01*
X491500Y256500D02*
X514500D01*
X486000Y251000D02*
X491500Y256500D01*
X478000Y251000D02*
X486000D01*
X435000Y302000D02*
X476000Y261000D01*
X457000Y332500D02*
X478000D01*
X466500Y251000D02*
X478000D01*
X451500Y266000D02*
X466500Y251000D01*
X488618Y422500D02*
X494750Y416368D01*
X478000Y422500D02*
X488618D01*
X494750Y395750D02*
Y416368D01*
Y395750D02*
X499000Y391500D01*
X504500D01*
X490750Y394093D02*
X498343Y386500D01*
X490750Y394093D02*
Y410500D01*
X488750Y412500D02*
X490750Y410500D01*
X478000Y412500D02*
X488750D01*
X498343Y386500D02*
X504500D01*
X492803Y336500D02*
X504500D01*
X487453Y331150D02*
X492803Y336500D01*
X487453Y320768D02*
Y331150D01*
X479294Y312610D02*
X487453Y320768D01*
X477464Y312610D02*
X479294D01*
X493500Y331500D02*
X504500D01*
X491453Y329453D02*
X493500Y331500D01*
X491453Y315953D02*
Y329453D01*
X478000Y302500D02*
X491453Y315953D01*
X539933Y396500D02*
Y423433D01*
X547390Y430890D01*
X568536D01*
X539933Y351500D02*
X558000D01*
X568000Y341500D01*
Y341000D02*
Y341500D01*
X539933Y331500D02*
X546000D01*
X556500Y321000D01*
Y305000D02*
Y321000D01*
Y305000D02*
X560500Y301000D01*
X568000D01*
D11*
X565797Y311000D02*
G03*
X564240Y314760I-5318J0D01*
G01*
D02*
G03*
X568000Y313203I3760J3760D01*
G01*
X568781Y311160D02*
G03*
X566471Y313612I-3139J-643D01*
G01*
X565797Y331000D02*
G03*
X564240Y334760I-5318J0D01*
G01*
D02*
G03*
X568000Y333203I3760J3760D01*
G01*
X568781Y331160D02*
G03*
X566471Y333612I-3139J-643D01*
G01*
X565388Y332529D02*
G03*
X567840Y330219I3095J829D01*
G01*
X564357Y351643D02*
G03*
X568031Y350203I3485J3485D01*
G01*
X561929Y354071D02*
G03*
X567973Y351702I5734J5734D01*
G01*
X559500Y356500D02*
G03*
X567916Y353201I7983J7983D01*
G01*
X564563Y352478D02*
G03*
X566826Y352864I665J2926D01*
G01*
X568675Y351425D02*
G03*
X565340Y353787I-4519J-2845D01*
G01*
X567405Y350626D02*
G03*
X561808Y354590I-7583J-4774D01*
G01*
X565898Y350341D02*
G03*
X565000Y351000I-898J-282D01*
G01*
D02*
G03*
X565898Y351659I0J941D01*
G01*
X566442Y359442D02*
G03*
X561475Y361500I-4967J-4967D01*
G01*
X563889D02*
G03*
X566442Y362558I0J3611D01*
G01*
Y369442D02*
G03*
X561475Y371500I-4967J-4967D01*
G01*
X563889D02*
G03*
X566442Y372558I0J3611D01*
G01*
Y379442D02*
G03*
X562682Y381000I-3760J-3760D01*
G01*
D02*
G03*
X566442Y382558I0J5318D01*
G01*
X566350Y389540D02*
G03*
X562000Y391500I-4350J-3848D01*
G01*
X563889D02*
G03*
X566442Y392558I0J3611D01*
G01*
Y399442D02*
G03*
X562682Y401000I-3760J-3760D01*
G01*
D02*
G03*
X566442Y402558I0J5318D01*
G01*
Y409442D02*
G03*
X562682Y411000I-3760J-3760D01*
G01*
D02*
G03*
X566442Y412558I0J5318D01*
G01*
Y419442D02*
G03*
X562682Y421000I-3760J-3760D01*
G01*
D02*
G03*
X566442Y422558I0J5318D01*
G01*
X479558Y404058D02*
G03*
X483318Y402500I3760J3760D01*
G01*
D02*
G03*
X479558Y400942I0J-5318D01*
G01*
X479740Y393851D02*
G03*
X482500Y392500I2760J2143D01*
G01*
D02*
G03*
X479740Y391149I0J-3494D01*
G01*
X479558Y384058D02*
G03*
X483318Y382500I3760J3760D01*
G01*
D02*
G03*
X479558Y380942I0J-5318D01*
G01*
Y374058D02*
G03*
X483318Y372500I3760J3760D01*
G01*
D02*
G03*
X479558Y370942I0J-5318D01*
G01*
X478497Y362997D02*
G03*
X482111Y361500I3614J3614D01*
G01*
X479558Y364058D02*
G03*
X485732Y361500I6174J6174D01*
G01*
X480904D02*
G03*
X479558Y360942I0J-1904D01*
G01*
Y354058D02*
G03*
X483318Y352500I3760J3760D01*
G01*
D02*
G03*
X479558Y350942I0J-5318D01*
G01*
X479101Y344408D02*
G03*
X481378Y344108I1500J2598D01*
G01*
X480885Y343976D02*
G03*
X478621Y342171I938J-3499D01*
G01*
X480552Y345387D02*
G03*
X477310Y342899I1382J-5158D01*
G01*
X484050Y346324D02*
G03*
X478609Y342149I2319J-8656D01*
G01*
X478000Y341703D02*
G03*
X482614Y343614I0J6525D01*
G01*
X478000Y343203D02*
G03*
X485175Y346175I0J10146D01*
G01*
X478000Y344703D02*
G03*
X487735Y348735I0J13768D01*
G01*
X479986Y343453D02*
G03*
X481500Y342500I1514J726D01*
G01*
D02*
G03*
X479986Y341547I0J-1679D01*
G01*
X479529Y325112D02*
G03*
X477219Y322660I829J-3095D01*
G01*
X478160Y321719D02*
G03*
X480612Y324029I-643J3139D01*
G01*
X478000Y324703D02*
G03*
X481760Y326260I0J5318D01*
G01*
X481760Y326260D02*
G03*
X480203Y322500I3760J-3760D01*
G01*
X503744Y396319D02*
G03*
X503179Y397821I-1939J128D01*
G01*
X502247Y396418D02*
G03*
X500840Y400160I-4831J319D01*
G01*
X500751Y396516D02*
G03*
X498500Y402500I-7724J510D01*
G01*
X500532Y397617D02*
G03*
X501139Y396708I1401J278D01*
G01*
X501884Y382384D02*
G03*
X501000Y382750I-884J-884D01*
G01*
X500823Y381323D02*
G03*
X497379Y382750I-3444J-3444D01*
G01*
X499852Y381884D02*
G03*
X500935Y381741I714J1237D01*
G01*
X544517Y392040D02*
G03*
X543650Y391375I370J-1379D01*
G01*
X543433Y391750D02*
G03*
X546535Y393035I0J4386D01*
G01*
X543401Y386748D02*
G03*
X544349Y387293I-184J1416D01*
G01*
X543446Y386750D02*
G03*
X544477Y387113I76J1426D01*
G01*
X543433Y387750D02*
G03*
X542279Y386981I0J-1250D01*
G01*
X545683Y387750D02*
G03*
X543664Y386404I0J-2187D01*
G01*
X543433Y387750D02*
G03*
X542385Y387182I0J-1250D01*
G01*
X546200Y387750D02*
G03*
X543643Y386364I0J-3051D01*
G01*
X543610Y336677D02*
G03*
X544580Y336275I970J970D01*
G01*
X565797Y311000D02*
G03*
X564240Y314760I-5318J0D01*
G01*
D02*
G03*
X568000Y313203I3760J3760D01*
G01*
X565797Y331000D02*
G03*
X564240Y334760I-5318J0D01*
G01*
D02*
G03*
X568000Y333203I3760J3760D01*
G01*
X564357Y351643D02*
G03*
X568031Y350203I3485J3485D01*
G01*
X561929Y354071D02*
G03*
X567973Y351702I5734J5734D01*
G01*
X559500Y356500D02*
G03*
X567916Y353201I7983J7983D01*
G01*
X565898Y350341D02*
G03*
X565000Y351000I-898J-282D01*
G01*
D02*
G03*
X565898Y351659I0J941D01*
G01*
X566442Y359442D02*
G03*
X561475Y361500I-4967J-4967D01*
G01*
X563889D02*
G03*
X566442Y362558I0J3611D01*
G01*
Y369442D02*
G03*
X561475Y371500I-4967J-4967D01*
G01*
X563889D02*
G03*
X566442Y372558I0J3611D01*
G01*
Y379442D02*
G03*
X562682Y381000I-3760J-3760D01*
G01*
D02*
G03*
X566442Y382558I0J5318D01*
G01*
X566350Y389540D02*
G03*
X562000Y391500I-4350J-3848D01*
G01*
X563889D02*
G03*
X566442Y392558I0J3611D01*
G01*
Y399442D02*
G03*
X562682Y401000I-3760J-3760D01*
G01*
D02*
G03*
X566442Y402558I0J5318D01*
G01*
Y409442D02*
G03*
X562682Y411000I-3760J-3760D01*
G01*
D02*
G03*
X566442Y412558I0J5318D01*
G01*
Y419442D02*
G03*
X562682Y421000I-3760J-3760D01*
G01*
D02*
G03*
X566442Y422558I0J5318D01*
G01*
X479558Y404058D02*
G03*
X483318Y402500I3760J3760D01*
G01*
D02*
G03*
X479558Y400942I0J-5318D01*
G01*
X479740Y393851D02*
G03*
X482500Y392500I2760J2143D01*
G01*
D02*
G03*
X479740Y391149I0J-3494D01*
G01*
X479558Y384058D02*
G03*
X483318Y382500I3760J3760D01*
G01*
D02*
G03*
X479558Y380942I0J-5318D01*
G01*
Y374058D02*
G03*
X483318Y372500I3760J3760D01*
G01*
D02*
G03*
X479558Y370942I0J-5318D01*
G01*
X478497Y362997D02*
G03*
X482111Y361500I3614J3614D01*
G01*
X479558Y364058D02*
G03*
X485732Y361500I6174J6174D01*
G01*
X480904D02*
G03*
X479558Y360942I0J-1904D01*
G01*
Y354058D02*
G03*
X483318Y352500I3760J3760D01*
G01*
D02*
G03*
X479558Y350942I0J-5318D01*
G01*
X478000Y341703D02*
G03*
X482614Y343614I0J6525D01*
G01*
X478000Y343203D02*
G03*
X485175Y346175I0J10146D01*
G01*
X478000Y344703D02*
G03*
X487735Y348735I0J13768D01*
G01*
X479986Y343453D02*
G03*
X481500Y342500I1514J726D01*
G01*
D02*
G03*
X479986Y341547I0J-1679D01*
G01*
X478000Y324703D02*
G03*
X481760Y326260I0J5318D01*
G01*
X481760Y326260D02*
G03*
X480203Y322500I3760J-3760D01*
G01*
X503744Y396319D02*
G03*
X503179Y397821I-1939J128D01*
G01*
X502247Y396418D02*
G03*
X500840Y400160I-4831J319D01*
G01*
X500751Y396516D02*
G03*
X498500Y402500I-7724J510D01*
G01*
X501884Y382384D02*
G03*
X501000Y382750I-884J-884D01*
G01*
X500823Y381323D02*
G03*
X497379Y382750I-3444J-3444D01*
G01*
X543433Y391750D02*
G03*
X546535Y393035I0J4386D01*
G01*
X543433Y387750D02*
G03*
X542279Y386981I0J-1250D01*
G01*
X545683Y387750D02*
G03*
X543664Y386404I0J-2187D01*
G01*
X543433Y387750D02*
G03*
X542385Y387182I0J-1250D01*
G01*
X546200Y387750D02*
G03*
X543643Y386364I0J-3051D01*
G01*
X543610Y336677D02*
G03*
X544580Y336275I970J970D01*
G01*
X498500Y402500D02*
X504500Y396500D01*
X498500Y402500D02*
Y417921D01*
X483921Y432500D02*
X498500Y417921D01*
X503250Y382750D02*
X504500Y381500D01*
X496790Y382750D02*
X503250D01*
X487000Y392540D02*
X496790Y382750D01*
X487000Y392540D02*
Y400500D01*
X485000Y402500D02*
X487000Y400500D01*
X478000Y402500D02*
X485000D01*
X483500Y391090D02*
Y391500D01*
X498090Y376500D02*
X504500D01*
X483500Y391090D02*
X498090Y376500D01*
X482500Y392500D02*
X483500Y391500D01*
X478000Y392500D02*
X482500D01*
X498140Y371500D02*
X504500D01*
X487140Y382500D02*
X498140Y371500D01*
X478000Y382500D02*
X487140D01*
X497500Y366500D02*
X504500D01*
X491500Y372500D02*
X497500Y366500D01*
X478000Y372500D02*
X491500D01*
X479640Y361500D02*
X504500D01*
X478320Y362820D02*
X479640Y361500D01*
X485000Y352500D02*
X489000Y356500D01*
X478000Y352500D02*
X485000D01*
X489000Y356500D02*
X504500D01*
X490500Y351500D02*
X504500D01*
X481500Y342500D02*
X490500Y351500D01*
X478000Y342500D02*
X481500D01*
X492000Y346500D02*
X504500D01*
X478000Y332500D02*
X492000Y346500D01*
X478000Y332500D02*
Y332500D01*
X492500Y341500D02*
X504500D01*
X483703Y332703D02*
X492500Y341500D01*
X483703Y328622D02*
Y332703D01*
X482187Y327106D02*
X483703Y328622D01*
X482187Y326687D02*
Y327106D01*
X478033Y322533D02*
X482187Y326687D01*
X478033Y322467D02*
Y322533D01*
X539933Y391500D02*
X545000D01*
X549000Y395500D01*
Y417000D01*
X553000Y421000D01*
X568000D01*
X539933Y386500D02*
X541183Y387750D01*
X546200D01*
X552500Y394050D01*
Y407500D01*
X556000Y411000D01*
X568000D01*
X550500Y381500D02*
X556000Y387000D01*
Y399500D01*
X557500Y401000D01*
X568000D01*
X539933Y381500D02*
X550500D01*
X539933Y376500D02*
X550450D01*
X559500Y385550D01*
X567500Y391500D02*
X568000Y391000D01*
X559500Y385550D02*
Y389000D01*
X562000Y391500D01*
X567500D01*
X539933Y371500D02*
X551000D01*
X560500Y381000D01*
X568000D01*
X539933Y366500D02*
X554500D01*
X559500Y371500D01*
X567500D01*
X568000Y371000D01*
X539933Y361500D02*
X567500D01*
X568000Y361000D01*
X539933Y356500D02*
X559500D01*
X565000Y351000D01*
X568000D01*
X539933Y346500D02*
X552500D01*
X568000Y331000D01*
X539933Y341500D02*
X548000D01*
X568000Y321500D01*
Y321000D02*
Y321500D01*
X539933Y336500D02*
X540158Y336275D01*
X547225D01*
X562297Y321203D01*
Y316703D02*
Y321203D01*
Y316703D02*
X568000Y311000D01*
D12*
X539933Y331500D02*
D03*
Y336500D02*
D03*
Y341500D02*
D03*
Y346500D02*
D03*
Y351500D02*
D03*
Y356500D02*
D03*
Y361500D02*
D03*
Y366500D02*
D03*
Y371500D02*
D03*
Y376500D02*
D03*
Y381500D02*
D03*
Y386500D02*
D03*
Y391500D02*
D03*
Y396500D02*
D03*
X504500Y331500D02*
D03*
Y336500D02*
D03*
Y341500D02*
D03*
Y346500D02*
D03*
Y351500D02*
D03*
Y356500D02*
D03*
Y361500D02*
D03*
Y366500D02*
D03*
Y371500D02*
D03*
Y376500D02*
D03*
Y381500D02*
D03*
Y386500D02*
D03*
Y391500D02*
D03*
D13*
Y396500D02*
D03*
D14*
X534000Y256500D02*
D03*
Y261500D02*
D03*
Y266500D02*
D03*
Y271500D02*
D03*
X514500Y256500D02*
D03*
Y261500D02*
D03*
Y266500D02*
D03*
D15*
Y271500D02*
D03*
D16*
X588000Y457500D02*
Y463498D01*
X590999D01*
X591999Y462498D01*
Y460499D01*
X590999Y459499D01*
X588000D01*
X589999D02*
X591999Y457500D01*
X593998D02*
X595997D01*
X594998D01*
Y461499D01*
X593998D01*
X598996Y457500D02*
X600996D01*
X599996D01*
Y463498D01*
X598996D01*
X606994Y457500D02*
X604994D01*
X603995Y458500D01*
Y460499D01*
X604994Y461499D01*
X606994D01*
X607994Y460499D01*
Y459499D01*
X603995D01*
X609993Y461499D02*
Y458500D01*
X610993Y457500D01*
X613992D01*
Y456500D01*
X612992Y455501D01*
X611992D01*
X613992Y457500D02*
Y461499D01*
X621989Y463498D02*
Y457500D01*
X624988D01*
X625988Y458500D01*
Y462498D01*
X624988Y463498D01*
X621989D01*
X627987Y461499D02*
Y458500D01*
X628987Y457500D01*
X631986D01*
Y461499D01*
X634985Y457500D02*
Y462498D01*
Y460499D01*
X633985D01*
X635985D01*
X634985D01*
Y462498D01*
X635985Y463498D01*
X639983Y457500D02*
Y462498D01*
Y460499D01*
X638983D01*
X640983D01*
X639983D01*
Y462498D01*
X640983Y463498D01*
X643982Y461499D02*
Y458500D01*
X644982Y457500D01*
X647981D01*
Y456500D01*
X646981Y455501D01*
X645981D01*
X647981Y457500D02*
Y461499D01*
D17*
X587500Y313000D02*
D03*
Y303000D02*
D03*
X462000Y433000D02*
D03*
Y423000D02*
D03*
X460500Y382000D02*
D03*
Y392000D02*
D03*
X587500Y381500D02*
D03*
Y371500D02*
D03*
X661000D02*
D03*
Y381500D02*
D03*
X608500Y355000D02*
D03*
Y365000D02*
D03*
X633500Y334000D02*
D03*
Y324000D02*
D03*
X593500Y273500D02*
D03*
Y263500D02*
D03*
D18*
X478000Y251000D02*
D03*
X568000Y281000D02*
D03*
X478000Y302500D02*
D03*
X568000Y431000D02*
D03*
D19*
X478000Y261000D02*
D03*
Y271000D02*
D03*
Y281000D02*
D03*
X568000Y271000D02*
D03*
Y261000D02*
D03*
Y251000D02*
D03*
X478000Y312500D02*
D03*
Y322500D02*
D03*
Y332500D02*
D03*
Y342500D02*
D03*
Y352500D02*
D03*
Y362500D02*
D03*
Y372500D02*
D03*
Y382500D02*
D03*
Y392500D02*
D03*
Y402500D02*
D03*
Y412500D02*
D03*
Y422500D02*
D03*
Y432500D02*
D03*
X568000Y421000D02*
D03*
Y411000D02*
D03*
Y401000D02*
D03*
Y391000D02*
D03*
Y381000D02*
D03*
Y371000D02*
D03*
Y361000D02*
D03*
Y351000D02*
D03*
Y341000D02*
D03*
Y331000D02*
D03*
Y321000D02*
D03*
Y311000D02*
D03*
Y301000D02*
D03*
X498000Y452500D02*
D03*
X508000D02*
D03*
D20*
X662000Y395000D02*
D03*
Y425000D02*
D03*
X633000Y384000D02*
D03*
Y354000D02*
D03*
X661000Y288500D02*
D03*
Y318500D02*
D03*
X435500Y406500D02*
D03*
Y436500D02*
D03*
D21*
X518000Y452500D02*
D03*
D22*
X464000Y458500D02*
D03*
X514500Y441000D02*
D03*
X506000Y313000D02*
D03*
X443000Y351500D02*
D03*
Y331000D02*
D03*
X461000Y321000D02*
D03*
X435000Y302000D02*
D03*
X457000Y332500D02*
D03*
X451500Y266000D02*
D03*
M02*
