G04 Layer_Color=8388736*
%FSLAX25Y25*%
%MOIN*%
G70*
G01*
G75*
%ADD87O,0.03162X0.08674*%
%ADD88R,0.03162X0.08674*%
%ADD89R,0.14579X0.14579*%
%ADD90R,0.01981X0.07099*%
%ADD91O,0.01981X0.07099*%
%ADD92R,0.08674X0.08674*%
%ADD93R,0.05131X0.06312*%
%ADD94R,0.06312X0.05131*%
%ADD95R,0.06312X0.06706*%
%ADD96R,0.04343X0.02769*%
G04:AMPARAMS|DCode=97|XSize=43.43mil|YSize=27.69mil|CornerRadius=8.92mil|HoleSize=0mil|Usage=FLASHONLY|Rotation=0.000|XOffset=0mil|YOffset=0mil|HoleType=Round|Shape=RoundedRectangle|*
%AMROUNDEDRECTD97*
21,1,0.04343,0.00984,0,0,0.0*
21,1,0.02559,0.02769,0,0,0.0*
1,1,0.01784,0.01280,-0.00492*
1,1,0.01784,-0.01280,-0.00492*
1,1,0.01784,-0.01280,0.00492*
1,1,0.01784,0.01280,0.00492*
%
%ADD97ROUNDEDRECTD97*%
%ADD98R,0.06706X0.06312*%
%ADD99R,0.03162X0.06115*%
%ADD100R,0.06902X0.07099*%
%ADD101O,0.08674X0.01981*%
%ADD102R,0.08674X0.01981*%
%ADD103R,0.07099X0.06902*%
%ADD104R,0.06706X0.06706*%
%ADD105R,0.17532X0.11706*%
%ADD106O,0.03556X0.08674*%
%ADD107R,0.03556X0.08674*%
%ADD108O,0.03300X0.08800*%
%ADD109R,0.03300X0.08800*%
%ADD110C,0.18300*%
%ADD111R,0.07631X0.07631*%
%ADD112C,0.07631*%
%ADD113C,0.00800*%
%ADD114C,0.07700*%
%ADD115R,0.06706X0.06706*%
%ADD116C,0.06706*%
%ADD117C,0.04700*%
%ADD118C,0.08300*%
%ADD119R,0.06706X0.06706*%
%ADD120P,0.06832X8X22.5*%
%ADD121C,0.06312*%
%ADD122C,0.05524*%
%ADD123C,0.05800*%
%ADD124C,0.03300*%
D87*
X445685Y264228D02*
D03*
X441748D02*
D03*
X437811D02*
D03*
X433874D02*
D03*
X429937D02*
D03*
D88*
X426000D02*
D03*
D89*
X416354Y275055D02*
D03*
X455331D02*
D03*
D90*
X387331Y241000D02*
D03*
X369614D02*
D03*
X349929D02*
D03*
X330244D02*
D03*
X310559D02*
D03*
X290874D02*
D03*
D91*
X385362D02*
D03*
X383394D02*
D03*
X381425D02*
D03*
X379457D02*
D03*
X377488D02*
D03*
X375520D02*
D03*
X373551D02*
D03*
X371583D02*
D03*
X367646D02*
D03*
X365677D02*
D03*
X363709D02*
D03*
X361740D02*
D03*
X359772D02*
D03*
X357803D02*
D03*
X355835D02*
D03*
X353866D02*
D03*
X351898D02*
D03*
X347961D02*
D03*
X345992D02*
D03*
X344024D02*
D03*
X342055D02*
D03*
X340087D02*
D03*
X338118D02*
D03*
X336150D02*
D03*
X334181D02*
D03*
X332213D02*
D03*
X328276D02*
D03*
X326307D02*
D03*
X324339D02*
D03*
X322370D02*
D03*
X320402D02*
D03*
X318433D02*
D03*
X316465D02*
D03*
X314496D02*
D03*
X312528D02*
D03*
X308591D02*
D03*
X306622D02*
D03*
X304654D02*
D03*
X302685D02*
D03*
X300717D02*
D03*
X298748D02*
D03*
X296780D02*
D03*
X294811D02*
D03*
X292843D02*
D03*
X288906D02*
D03*
X286937D02*
D03*
X284969D02*
D03*
X283000D02*
D03*
D92*
X393433Y255567D02*
D03*
X276898D02*
D03*
D93*
X308553Y230500D02*
D03*
X302647D02*
D03*
X308453Y223600D02*
D03*
X302547D02*
D03*
X44447Y34700D02*
D03*
X50353D02*
D03*
X130947Y64700D02*
D03*
X136853D02*
D03*
X184753Y76100D02*
D03*
X178847D02*
D03*
X60547Y19859D02*
D03*
X66453D02*
D03*
X130647Y42600D02*
D03*
X136553D02*
D03*
X375453Y326700D02*
D03*
X369547D02*
D03*
X60447Y28059D02*
D03*
X66353D02*
D03*
X130647Y34200D02*
D03*
X136553D02*
D03*
X130947Y73100D02*
D03*
X136853D02*
D03*
X323053Y62500D02*
D03*
X317147D02*
D03*
X322953Y88100D02*
D03*
X317047D02*
D03*
X322953Y107800D02*
D03*
X317047D02*
D03*
X323053Y135700D02*
D03*
X317147D02*
D03*
X410547Y88100D02*
D03*
X416453D02*
D03*
X410547Y107200D02*
D03*
X416453D02*
D03*
X410547Y133400D02*
D03*
X416453D02*
D03*
X416453Y70300D02*
D03*
X410547D02*
D03*
X323053Y128500D02*
D03*
X317147D02*
D03*
X340753Y27000D02*
D03*
X334847D02*
D03*
X340453Y13900D02*
D03*
X334547D02*
D03*
D94*
X688000Y36053D02*
D03*
Y30147D02*
D03*
X64200Y52453D02*
D03*
Y46547D02*
D03*
X84200Y74447D02*
D03*
Y80353D02*
D03*
X372500Y313253D02*
D03*
Y307347D02*
D03*
X533500Y64547D02*
D03*
Y70453D02*
D03*
X390100Y207153D02*
D03*
Y201247D02*
D03*
X371500Y207153D02*
D03*
Y201247D02*
D03*
X34200Y76147D02*
D03*
Y82053D02*
D03*
X532900Y100247D02*
D03*
Y106153D02*
D03*
X344100Y207153D02*
D03*
Y201247D02*
D03*
X324400Y207153D02*
D03*
Y201247D02*
D03*
X334400Y55053D02*
D03*
Y49147D02*
D03*
X359900Y55453D02*
D03*
Y49547D02*
D03*
X381600Y55453D02*
D03*
Y49547D02*
D03*
X397400Y142847D02*
D03*
Y148753D02*
D03*
X390000Y142847D02*
D03*
Y148753D02*
D03*
X367800Y142647D02*
D03*
Y148553D02*
D03*
X352100Y142647D02*
D03*
Y148553D02*
D03*
X342700Y49247D02*
D03*
Y55153D02*
D03*
X391200Y77953D02*
D03*
Y72047D02*
D03*
X340400Y127253D02*
D03*
Y121347D02*
D03*
X405000Y59953D02*
D03*
Y54047D02*
D03*
X334400Y148653D02*
D03*
Y142747D02*
D03*
X29200Y52653D02*
D03*
Y46747D02*
D03*
X531500Y133947D02*
D03*
Y139853D02*
D03*
D95*
X421437Y307500D02*
D03*
X413563D02*
D03*
X99163Y9500D02*
D03*
X107037D02*
D03*
X114937Y80200D02*
D03*
X107063D02*
D03*
X84537Y31959D02*
D03*
X76663D02*
D03*
X84437Y19400D02*
D03*
X76563D02*
D03*
X508937Y372700D02*
D03*
X501063D02*
D03*
X232063Y371700D02*
D03*
X239937D02*
D03*
X156463Y139600D02*
D03*
X164337D02*
D03*
X66937Y263500D02*
D03*
X59063D02*
D03*
X654563Y142000D02*
D03*
X662437D02*
D03*
X321737Y307400D02*
D03*
X313863D02*
D03*
X50763Y133500D02*
D03*
X58637D02*
D03*
X55837Y243500D02*
D03*
X47963D02*
D03*
X321737Y297100D02*
D03*
X313863D02*
D03*
X315863Y27231D02*
D03*
X323737D02*
D03*
X315663Y13900D02*
D03*
X323537D02*
D03*
D96*
X185280Y63082D02*
D03*
Y65641D02*
D03*
Y68200D02*
D03*
X177800Y63082D02*
D03*
Y65641D02*
D03*
D97*
Y68200D02*
D03*
D98*
X74300Y82237D02*
D03*
Y74363D02*
D03*
X611000Y29437D02*
D03*
Y21563D02*
D03*
X460500Y29937D02*
D03*
Y22063D02*
D03*
X173500Y243263D02*
D03*
Y251137D02*
D03*
X555000Y240563D02*
D03*
Y248437D02*
D03*
X641000Y275563D02*
D03*
Y283437D02*
D03*
X671000Y242563D02*
D03*
Y250437D02*
D03*
X346000Y315837D02*
D03*
Y307963D02*
D03*
X335300Y315837D02*
D03*
Y307963D02*
D03*
X402800Y315137D02*
D03*
Y307263D02*
D03*
X392700Y315137D02*
D03*
Y307263D02*
D03*
X157000Y24063D02*
D03*
Y31937D02*
D03*
X156900Y90463D02*
D03*
Y98337D02*
D03*
X252900Y57563D02*
D03*
Y65437D02*
D03*
X279000Y57563D02*
D03*
Y65437D02*
D03*
D99*
X156600Y68088D02*
D03*
Y79112D02*
D03*
Y48388D02*
D03*
Y59412D02*
D03*
D100*
X141400Y139715D02*
D03*
Y159400D02*
D03*
X86479Y139715D02*
D03*
Y159400D02*
D03*
X596921Y30315D02*
D03*
Y50000D02*
D03*
X542000Y30315D02*
D03*
Y50000D02*
D03*
X526921Y30315D02*
D03*
Y50000D02*
D03*
X472000Y30315D02*
D03*
Y50000D02*
D03*
X585679Y262885D02*
D03*
Y243200D02*
D03*
X640600Y262885D02*
D03*
Y243200D02*
D03*
X86479Y263785D02*
D03*
Y244100D02*
D03*
X141400Y263785D02*
D03*
Y244100D02*
D03*
X640821Y141915D02*
D03*
Y161600D02*
D03*
X585900Y141915D02*
D03*
Y161600D02*
D03*
D101*
X619047Y297087D02*
D03*
Y299646D02*
D03*
Y302205D02*
D03*
Y304764D02*
D03*
Y307323D02*
D03*
Y309882D02*
D03*
Y312441D02*
D03*
Y315000D02*
D03*
X597000Y297087D02*
D03*
Y299646D02*
D03*
Y302205D02*
D03*
Y304764D02*
D03*
Y307323D02*
D03*
Y309882D02*
D03*
Y312441D02*
D03*
X568047Y297087D02*
D03*
Y299646D02*
D03*
Y302205D02*
D03*
Y304764D02*
D03*
Y307323D02*
D03*
Y309882D02*
D03*
Y312441D02*
D03*
Y315000D02*
D03*
X546000Y297087D02*
D03*
Y299646D02*
D03*
Y302205D02*
D03*
Y304764D02*
D03*
Y307323D02*
D03*
Y309882D02*
D03*
Y312441D02*
D03*
D102*
X597000Y315000D02*
D03*
X546000D02*
D03*
D103*
X555015Y174779D02*
D03*
X574700D02*
D03*
X555015Y229700D02*
D03*
X574700D02*
D03*
X56015Y174979D02*
D03*
X75700D02*
D03*
X56015Y229900D02*
D03*
X75700D02*
D03*
X671085Y230221D02*
D03*
X651400D02*
D03*
X671085Y175300D02*
D03*
X651400D02*
D03*
X173585Y229900D02*
D03*
X153900D02*
D03*
X173585Y174979D02*
D03*
X153900D02*
D03*
D104*
X253400Y96790D02*
D03*
Y83010D02*
D03*
X279900Y96290D02*
D03*
Y82510D02*
D03*
D105*
X211600Y39523D02*
D03*
Y64877D02*
D03*
D106*
X99100Y37440D02*
D03*
X104100D02*
D03*
X109100D02*
D03*
X114100D02*
D03*
X99100Y58700D02*
D03*
X104100D02*
D03*
X109100D02*
D03*
D107*
X114100D02*
D03*
D108*
X39300Y46200D02*
D03*
X44300D02*
D03*
X49300D02*
D03*
X54300D02*
D03*
X39300Y65700D02*
D03*
X44300D02*
D03*
X49300D02*
D03*
D109*
X54300D02*
D03*
D110*
X17500Y131000D02*
D03*
X656000Y335500D02*
D03*
X624000Y83500D02*
D03*
X21000Y379500D02*
D03*
D111*
X29000Y24500D02*
D03*
D112*
X19158D02*
D03*
X9315D02*
D03*
X29000Y14658D02*
D03*
X19158D02*
D03*
X9315D02*
D03*
D113*
X327021Y318450D02*
D03*
X413084D02*
D03*
D114*
X50600Y349000D02*
D03*
X67150D02*
D03*
X83690D02*
D03*
X100230D02*
D03*
Y370700D02*
D03*
X83690D02*
D03*
X67150D02*
D03*
X50600D02*
D03*
D115*
X641100Y392200D02*
D03*
X680200D02*
D03*
X293900Y53000D02*
D03*
D116*
X641100Y402200D02*
D03*
Y412200D02*
D03*
X680200Y402200D02*
D03*
Y412200D02*
D03*
X215000Y372000D02*
D03*
X526000D02*
D03*
X215300Y16800D02*
D03*
X293900Y43000D02*
D03*
Y33000D02*
D03*
Y23000D02*
D03*
Y13000D02*
D03*
X186200Y16800D02*
D03*
X597700Y372600D02*
D03*
X587700D02*
D03*
D117*
X344100Y187500D02*
D03*
X324415D02*
D03*
D118*
X645475Y44413D02*
D03*
Y24413D02*
D03*
X675475D02*
D03*
Y44413D02*
D03*
D119*
X205000Y372000D02*
D03*
X536000D02*
D03*
X205300Y16800D02*
D03*
X176200D02*
D03*
X577700Y372600D02*
D03*
D120*
X371594Y187700D02*
D03*
X46294Y106500D02*
D03*
D121*
X390806Y187700D02*
D03*
X65506Y106500D02*
D03*
D122*
X50800Y314800D02*
D03*
Y322674D02*
D03*
X83600Y314300D02*
D03*
Y322174D02*
D03*
D123*
X235900Y159900D02*
D03*
X246800D02*
D03*
X185900Y115000D02*
D03*
X177000Y120200D02*
D03*
X561100Y287100D02*
D03*
X521200Y288400D02*
D03*
D124*
X479300Y50000D02*
D03*
X534200D02*
D03*
X521300Y57000D02*
D03*
X517600Y53100D02*
D03*
X439000Y43300D02*
D03*
X533000Y111000D02*
D03*
X332500Y170000D02*
D03*
X359500Y80500D02*
D03*
X392500Y64000D02*
D03*
X285000Y256000D02*
D03*
X402067Y255567D02*
D03*
X391000Y267000D02*
D03*
X469055Y275055D02*
D03*
X533300Y57500D02*
D03*
X485000Y51400D02*
D03*
X393600Y60000D02*
D03*
X414000Y50500D02*
D03*
X384500Y66500D02*
D03*
X364000Y80000D02*
D03*
X363600Y70800D02*
D03*
X368000Y93000D02*
D03*
X362000Y105500D02*
D03*
X360000Y111000D02*
D03*
X368500Y75500D02*
D03*
X334500Y43500D02*
D03*
X483300Y65900D02*
D03*
X474300Y71000D02*
D03*
X479000Y67800D02*
D03*
X445600Y256700D02*
D03*
X419300Y264900D02*
D03*
X302547Y215553D02*
D03*
X308453Y215753D02*
D03*
X328800Y272600D02*
D03*
X279200Y241000D02*
D03*
X368000Y108000D02*
D03*
Y121500D02*
D03*
X362400Y133700D02*
D03*
X138500Y50500D02*
D03*
X156900Y108500D02*
D03*
X170500Y90000D02*
D03*
X172200Y62900D02*
D03*
X64200Y38800D02*
D03*
X9500Y114500D02*
D03*
X18800Y70800D02*
D03*
X11500Y106000D02*
D03*
X19653Y105653D02*
D03*
X89500Y114000D02*
D03*
X170500Y111000D02*
D03*
X494200Y372700D02*
D03*
X93800Y5000D02*
D03*
X84500Y107500D02*
D03*
X143100Y128200D02*
D03*
X168800D02*
D03*
X159900Y131400D02*
D03*
X151300Y123500D02*
D03*
X94300Y107600D02*
D03*
X116800Y105100D02*
D03*
X283300Y38200D02*
D03*
X84116Y69716D02*
D03*
X94200Y55800D02*
D03*
X246800Y122900D02*
D03*
X234000Y99400D02*
D03*
X433700Y278700D02*
D03*
X233500Y104300D02*
D03*
X110000Y109400D02*
D03*
X233600Y109000D02*
D03*
X54200Y56500D02*
D03*
X49300D02*
D03*
X44200D02*
D03*
X39300D02*
D03*
X74300Y91100D02*
D03*
X7800Y76700D02*
D03*
X49200Y89400D02*
D03*
X19653Y81853D02*
D03*
X344100Y212600D02*
D03*
X423000Y130900D02*
D03*
X428600Y57600D02*
D03*
X441141Y95941D02*
D03*
X453100Y96800D02*
D03*
X459600Y100400D02*
D03*
X311457Y133443D02*
D03*
X323153Y121553D02*
D03*
X327800Y107900D02*
D03*
X381600Y61600D02*
D03*
X340500Y114400D02*
D03*
X391300Y86200D02*
D03*
X405100Y88200D02*
D03*
X404900Y107300D02*
D03*
X393800Y137000D02*
D03*
X367900Y137300D02*
D03*
X352200Y137600D02*
D03*
X334500Y137300D02*
D03*
X613800Y243200D02*
D03*
X574700Y201300D02*
D03*
X614900Y161600D02*
D03*
X651400Y202400D02*
D03*
X75700Y202700D02*
D03*
X113900Y159400D02*
D03*
X153900Y202400D02*
D03*
X114600Y244100D02*
D03*
X51500Y263000D02*
D03*
X48000Y251000D02*
D03*
X170900Y139600D02*
D03*
X180363Y251137D02*
D03*
X561437Y248437D02*
D03*
X648063Y283437D02*
D03*
X531500Y146500D02*
D03*
X569500Y50000D02*
D03*
X611000Y14500D02*
D03*
X541500Y131000D02*
D03*
X511500Y104000D02*
D03*
X439900Y115900D02*
D03*
X549300Y102800D02*
D03*
X521700Y164300D02*
D03*
X246500Y371700D02*
D03*
X197400Y372000D02*
D03*
X654563Y148637D02*
D03*
X663563Y250437D02*
D03*
X574700Y315000D02*
D03*
X561900Y320400D02*
D03*
X664037Y242563D02*
D03*
X487200Y53500D02*
D03*
X346000Y323300D02*
D03*
X306300Y296900D02*
D03*
X352217Y301583D02*
D03*
X372296Y300796D02*
D03*
X364600Y326700D02*
D03*
X380600D02*
D03*
X372500Y319000D02*
D03*
X392700Y300600D02*
D03*
Y322500D02*
D03*
X402800Y322400D02*
D03*
Y300900D02*
D03*
X413563Y300537D02*
D03*
X428400Y307500D02*
D03*
X323053Y69453D02*
D03*
X335300Y300500D02*
D03*
X342600Y300600D02*
D03*
X328437Y296963D02*
D03*
X362900Y281400D02*
D03*
X362178Y300978D02*
D03*
X339100Y277900D02*
D03*
X349900Y275300D02*
D03*
X445100Y301700D02*
D03*
Y277000D02*
D03*
X377016Y420616D02*
D03*
X374800Y82162D02*
D03*
X359900Y61500D02*
D03*
X328300Y88200D02*
D03*
X311000Y107900D02*
D03*
X462200Y124900D02*
D03*
X427400Y156000D02*
D03*
X371500Y212800D02*
D03*
X390100Y212800D02*
D03*
X324400Y212800D02*
D03*
X252900Y51300D02*
D03*
X279000Y51400D02*
D03*
X401400Y43500D02*
D03*
X539200Y276600D02*
D03*
X394200Y174500D02*
D03*
X669000Y142000D02*
D03*
X11100Y154900D02*
D03*
X61800Y154100D02*
D03*
X56253Y125053D02*
D03*
X169600Y56800D02*
D03*
X169900Y38100D02*
D03*
X73900Y9400D02*
D03*
X104300Y44800D02*
D03*
X157000Y15700D02*
D03*
X173600Y76100D02*
D03*
X144500Y32800D02*
D03*
X146900Y52947D02*
D03*
X192000Y57300D02*
D03*
X99100Y65600D02*
D03*
X452400Y21800D02*
D03*
X422300Y95800D02*
D03*
X439000Y24200D02*
D03*
X402100Y102500D02*
D03*
X371600Y19700D02*
D03*
X429800Y43100D02*
D03*
X104000Y17300D02*
D03*
X307000Y13900D02*
D03*
X130100Y7300D02*
D03*
X117700Y19700D02*
D03*
X97000Y26500D02*
D03*
X300700Y13100D02*
D03*
X129800Y12500D02*
D03*
X99200Y16200D02*
D03*
X212900Y117600D02*
D03*
X626300Y311300D02*
D03*
X192182Y44382D02*
D03*
X404200Y69600D02*
D03*
X545900Y292600D02*
D03*
X321900Y314400D02*
D03*
X588872Y311573D02*
D03*
X535300Y312200D02*
D03*
X429800Y24900D02*
D03*
X399550Y62650D02*
D03*
X489500Y55500D02*
D03*
X435100Y68600D02*
D03*
X447900Y71300D02*
D03*
X442900D02*
D03*
X425400Y88900D02*
D03*
X468645Y94245D02*
D03*
X433500Y96800D02*
D03*
X422600Y108800D02*
D03*
X468100Y127600D02*
D03*
X500700Y127100D02*
D03*
X501400Y123900D02*
D03*
X532900Y129200D02*
D03*
X551300Y113600D02*
D03*
X525600Y86600D02*
D03*
X448900Y155800D02*
D03*
X420700Y155300D02*
D03*
X351000Y155700D02*
D03*
X310800Y61400D02*
D03*
X100100Y44600D02*
D03*
X104400Y30200D02*
D03*
X117100Y30500D02*
D03*
X185700Y59400D02*
D03*
X196300Y60800D02*
D03*
X366900Y154600D02*
D03*
X400500Y158900D02*
D03*
X382100Y174600D02*
D03*
X348900Y35700D02*
D03*
X348000Y30900D02*
D03*
X340500Y42300D02*
D03*
X343300Y39100D02*
D03*
X361200Y43000D02*
D03*
X539800Y154600D02*
D03*
X531500Y157900D02*
D03*
X542500Y157400D02*
D03*
X493600Y72100D02*
D03*
X498000D02*
D03*
X436900Y74000D02*
D03*
X382400Y42500D02*
D03*
X538000Y315200D02*
D03*
X538600Y305000D02*
D03*
X575400Y299400D02*
D03*
X596700Y292900D02*
D03*
X610900Y297200D02*
D03*
X404800Y132100D02*
D03*
X531800Y75700D02*
D03*
X44500Y27700D02*
D03*
X191500Y35000D02*
D03*
X505300Y134300D02*
D03*
X423000Y71400D02*
D03*
X613500Y321500D02*
D03*
X109000Y44500D02*
D03*
X535900Y300700D02*
D03*
X510800Y74500D02*
D03*
X516300Y95700D02*
D03*
X514100Y72300D02*
D03*
X505700Y72600D02*
D03*
X395600Y158700D02*
D03*
X391700Y158600D02*
D03*
X387100Y158700D02*
D03*
X517200Y75100D02*
D03*
X514100Y99800D02*
D03*
X330400Y161400D02*
D03*
X333800Y158100D02*
D03*
X449800Y99900D02*
D03*
X589000Y316100D02*
D03*
X399200Y98600D02*
D03*
X371400Y14500D02*
D03*
X92700Y24000D02*
D03*
X84900Y26400D02*
D03*
X337800Y60500D02*
D03*
X103100Y69900D02*
D03*
X537900Y93800D02*
D03*
X539700Y100600D02*
D03*
X384600Y71800D02*
D03*
X120047Y44953D02*
D03*
X131500Y28300D02*
D03*
X130600Y57000D02*
D03*
X429937Y271163D02*
D03*
X329100Y195400D02*
D03*
X365800Y57900D02*
D03*
X347300Y126900D02*
D03*
X347700Y162400D02*
D03*
X334181Y246981D02*
D03*
X349929Y246771D02*
D03*
X365677Y246723D02*
D03*
X342100Y172600D02*
D03*
X344300Y156900D02*
D03*
X341600Y167700D02*
D03*
X360956Y76256D02*
D03*
X367700Y62900D02*
D03*
X331500Y205000D02*
D03*
X344500Y63500D02*
D03*
X394900Y124000D02*
D03*
X401900Y118900D02*
D03*
X404000Y122500D02*
D03*
X397000Y126500D02*
D03*
X373600Y158900D02*
D03*
X377700Y158800D02*
D03*
X382100D02*
D03*
X302800Y38200D02*
D03*
X314400Y43800D02*
D03*
X307800Y41700D02*
D03*
X327100Y94300D02*
D03*
X297000Y64205D02*
D03*
X430600Y134100D02*
D03*
X351898Y230902D02*
D03*
X311900Y152300D02*
D03*
X310600Y68500D02*
D03*
X310400Y87300D02*
D03*
X301100Y107200D02*
D03*
X300700Y101800D02*
D03*
X293600Y121900D02*
D03*
X274300Y106000D02*
D03*
X275200Y111700D02*
D03*
X289200Y111800D02*
D03*
X288700Y107800D02*
D03*
X289500Y152000D02*
D03*
X288900Y157100D02*
D03*
X357100Y230300D02*
D03*
X378700Y213000D02*
D03*
X376400Y220500D02*
D03*
Y228300D02*
D03*
X368100Y232500D02*
D03*
X372300Y227800D02*
D03*
Y221900D02*
D03*
X362400Y229300D02*
D03*
X414100Y174800D02*
D03*
X423900Y137200D02*
D03*
X330000Y154800D02*
D03*
X334000Y154900D02*
D03*
X321100Y173400D02*
D03*
X316900Y168400D02*
D03*
X316800Y157200D02*
D03*
X321600Y168300D02*
D03*
X321400Y159400D02*
D03*
X324600Y158800D02*
D03*
X290300Y184000D02*
D03*
X255100Y212200D02*
D03*
X316700Y182000D02*
D03*
X30100Y89800D02*
D03*
X64200Y64600D02*
D03*
X78300Y107500D02*
D03*
X121800Y36600D02*
D03*
X394000Y240600D02*
D03*
X378300Y248100D02*
D03*
X291200Y125300D02*
D03*
X336200Y161400D02*
D03*
X331400Y165400D02*
D03*
X29200Y39000D02*
D03*
X89500Y61600D02*
D03*
X334900Y328300D02*
D03*
X309800Y54800D02*
D03*
X421500Y53100D02*
D03*
M02*
