M48
;Layer_Color=9474304
;FILE_FORMAT=2:5
INCH,LZ
;TYPE=PLATED
T1F00S00C0.01500
T2F00S00C0.02500
T3F00S00C0.02756
T4F00S00C0.03150
T5F00S00C0.03500
T6F00S00C0.03543
T7F00S00C0.04724
T8F00S00C0.05000
T9F00S00C0.05500
T10F00S00C0.07874
T11F00S00C0.09843
T12F00S00C0.15000
%
T01
X00292Y0039
X00445Y00277
X00642Y00388
X00849Y00264
X00927Y0024
X0097Y00265
X01044Y00302
X01171Y00305
X01218Y00366
X0120047Y0044953
X0109Y00445
X01043Y00448
X01001Y00446
X00992Y00162
X0104Y00173
X01177Y00197
X01298Y00125
X01301Y00073
X01315Y00283
X01385Y00505
X00938Y0005
X00739Y00094
X0157Y00157
X01445Y00328
X01469Y0052947
X01699Y00381
X01915Y0035
X0192182Y0044382
X02529Y00513
X0279Y00514
X02833Y00382
X03028
X03078Y00417
X03144Y00438
X03098Y00548
X03345Y00435
X03405Y00423
X03433Y00391
X03489Y00357
X0348Y00309
X03612Y0043
X03824Y00425
X04014Y00435
X0414Y00505
X04215Y00531
X04298Y00431
X0439Y00433
Y00242
X04298Y00249
X03716Y00197
X03714Y00145
X0307Y00139
X03007Y00131
X04524Y00218
X04793Y005
X0485Y00514
X04872Y00535
X05176Y00531
X05342Y005
X05695
X0611Y00145
X06149Y01616
X0654563Y0148637
X0669Y0142
X06514Y02024
X05747Y02013
X05425Y01574
X05398Y01546
X05315Y01579
X05315Y01465
X05329Y01292
X05415Y0131
X05513Y01136
X05493Y01028
X05397Y01006
X05379Y00938
X05256Y00866
X05318Y00757
X05172Y00751
X05141Y00723
X05108Y00745
X05057Y00726
X0498Y00721
X04936
X04833Y00659
X0479Y00678
X04743Y0071
X0468645Y0094245
X04596Y01004
X04531Y00968
X04622Y01249
X04681Y01276
X05007Y01271
X05014Y01239
X05053Y01343
X05115Y0104
X05141Y00998
X05163Y00957
X0533Y0111
X05333Y00575
X05213Y0057
X04895Y00555
X05217Y01643
X04489Y01558
X04274Y0156
X04207Y01553
X04239Y01372
X0423Y01309
X04306Y01341
X04399Y01159
X0441141Y0095941
X04335Y00968
X04223Y00958
X04254Y00889
X0423Y00714
X04351Y00686
X04369Y0074
X04429Y00713
X04479
X04498Y00999
X04226Y01088
X04049Y01073
X04021Y01025
X03992Y00986
X04051Y00882
X03913Y00862
X03748Y0082162
X0364Y008
X03595Y00805
X0360956Y0076256
X03636Y00708
X03685Y00755
X03677Y00629
X03658Y00579
X03599Y00615
X03445Y00635
X03378Y00605
X0323053Y0069453
X03106Y00685
X03108Y00614
X0297Y0064205
X03104Y00873
X03283Y00882
X03271Y00943
X03278Y01079
X0311
X03011Y01072
X03007Y01018
X0323153Y0121553
X0311457Y0133443
X03119Y01523
X03168Y01572
X03214Y01594
X03246Y01588
X03304Y01614
X03314Y01654
X03325Y017
X03416Y01677
X03421Y01726
X03477Y01624
X03443Y01569
X0351Y01557
X03669Y01546
X03736Y01589
X03777Y01588
X03821
X03871Y01587
X03917Y01586
X03956Y01587
X04005Y01589
X03942Y01745
X03821Y01746
X04141Y01748
X04048Y01321
X0404Y01225
X04019Y01189
X03949Y0124
X0397Y01265
X03938Y0137
X03679Y01373
X03624Y01337
X03522Y01376
X03473Y01269
X03405Y01144
X036Y0111
X0362Y01055
X0368Y0108
Y01215
Y0093
X03846Y00718
X03845Y00665
X03816Y00616
X03925Y0064
X03936Y006
X039955Y006265
X04042Y00696
X04286Y00576
X03345Y01373
X0334Y01549
X03338Y01581
X03362Y01614
X033Y01548
X03216Y01683
X03169Y01684
X03211Y01734
X03167Y0182
X03291Y01954
X03315Y0205
X02903Y0184
X02889Y01571
X02895Y0152
X02912Y01253
X02936Y01219
X02892Y01118
X02887Y01078
X02743Y0106
X02752Y01117
X02468Y01229
X02336Y0109
X02335Y01043
X0234Y00994
X02129Y01176
X01705Y0111
X01569Y01085
X01513Y01235
X01431Y01282
X01599Y01314
X01688Y01282
X01709Y01396
X01705Y009
X01736Y00761
X01722Y00629
X01696Y00568
X01857Y00594
X0192Y00573
X01963Y00608
X01539Y02024
X00757Y02027
X00618Y01541
X0056253Y0125053
X00783Y01075
X00845
X00943Y01076
X00895Y0114
X011Y01094
X01168Y01051
X01031Y00699
X00991Y00656
X00895Y00616
X00942Y00558
X0084116Y0069716
X00642Y00646
X00542Y00565
X00493
X00442
X00393
X00188Y00708
X0019653Y0081853
X00078Y00767
X00115Y0106
X0019653Y0105653
X00095Y01145
X00111Y01549
X00301Y00898
X00492Y00894
X00743Y00911
X01306Y0057
X01139Y01594
X01146Y02441
X0048Y0251
X00515Y0263
X0180363Y0251137
X02792Y0241
X0285Y0256
X02551Y02122
X0302547Y0215553
X0308453Y0215753
X03244Y02128
X03441Y02126
X0351898Y0230902
X03571Y02303
X03624Y02293
X03681Y02325
X03723Y02278
X03764Y02283
Y02205
X03723Y02219
X03715Y02128
X03787Y0213
X03901Y02128
X0394Y02406
X0402067Y0255567
X0391Y0267
X04193Y02649
X0429937Y0271163
X04337Y02787
X04451Y0277
X04456Y02567
X04451Y03017
X04284Y03075
X0413563Y0300537
X04028Y03009
X03927Y03006
X0372296Y0300796
X0362178Y0300978
X0352217Y0301583
X03426Y03006
X03353Y03005
X0328437Y0296963
X03063Y02969
X03219Y03144
X03349Y03283
X0346Y03233
X03646Y03267
X03725Y0319
X03806Y03267
X03927Y03225
X04028Y03224
X03629Y02814
X03499Y02753
X03391Y02779
X03288Y02726
X0334181Y0246981
X0349929Y0246771
X0365677Y0246723
X03783Y02481
X0469055Y0275055
X05392Y02766
X05459Y02926
X05359Y03007
X05386Y0305
X05353Y03122
X0538Y03152
X05619Y03204
X05747Y0315
X0589Y03161
X0588872Y0311573
X05754Y02994
X05967Y02929
X0561437Y0248437
X06138Y02432
X0664037Y0242563
X0663563Y0250437
X0648063Y0283437
X06263Y03113
X06135Y03215
X06109Y02972
X04942Y03727
X0377016Y0420616
X02465Y03717
X01974Y0372
T02
X0324415Y01875
X03441
T03
X00508Y03148
Y0322674
X00836Y0322174
Y03143
T04
X0371594Y01877
X0390806
X0065506Y01065
X0046294
T05
X0177Y01202
X01859Y0115
X02359Y01599
X02468
X05212Y02884
X05611Y02871
T06
X01762Y00168
X01862
X02053
X02153
X02939Y0013
Y0023
Y0033
Y0043
Y0053
X06411Y03922
Y04022
Y04122
X06802
Y04022
Y03922
X05977Y03726
X05877
X05777
X0536Y0372
X0526
X0215
X0205
T07
X0009315Y0014658
Y00245
X0019158
X0029
Y0014658
X0019158
T08
X0645475Y0024413
Y0044413
X0675475
Y0024413
T09
X00506Y0349
X006715
X008369
X010023
Y03707
X008369
X006715
X00506
T10
X0327021Y031845
T11
X0413084Y031845
T12
X0624Y00835
X00175Y0131
X0656Y03355
X0021Y03795
M30
