G04 Layer_Physical_Order=3*
G04 Layer_Color=128*
%FSLAX25Y25*%
%MOIN*%
G70*
G01*
G75*
%ADD53C,0.04000*%
%ADD57C,0.08724*%
%ADD59C,0.11874*%
%ADD60C,0.13843*%
%ADD61C,0.09500*%
G04:AMPARAMS|DCode=62|XSize=115mil|YSize=115mil|CornerRadius=0mil|HoleSize=0mil|Usage=FLASHONLY|Rotation=0.000|XOffset=0mil|YOffset=0mil|HoleType=Round|Shape=Relief|Width=10mil|Gap=10mil|Entries=4|*
%AMTHD62*
7,0,0,0.11500,0.09500,0.01000,45*
%
%ADD62THD62*%
G04:AMPARAMS|DCode=63|XSize=95.433mil|YSize=95.433mil|CornerRadius=0mil|HoleSize=0mil|Usage=FLASHONLY|Rotation=0.000|XOffset=0mil|YOffset=0mil|HoleType=Round|Shape=Relief|Width=10mil|Gap=10mil|Entries=4|*
%AMTHD63*
7,0,0,0.09543,0.07543,0.01000,45*
%
%ADD63THD63*%
%ADD64C,0.07543*%
%ADD65C,0.06500*%
%ADD67C,0.09000*%
%ADD68C,0.07150*%
G04:AMPARAMS|DCode=69|XSize=87.559mil|YSize=87.559mil|CornerRadius=0mil|HoleSize=0mil|Usage=FLASHONLY|Rotation=0.000|XOffset=0mil|YOffset=0mil|HoleType=Round|Shape=Relief|Width=10mil|Gap=10mil|Entries=4|*
%AMTHD69*
7,0,0,0.08756,0.06756,0.01000,45*
%
%ADD69THD69*%
%ADD70C,0.06756*%
%ADD71C,0.07500*%
G04:AMPARAMS|DCode=72|XSize=75mil|YSize=75mil|CornerRadius=0mil|HoleSize=0mil|Usage=FLASHONLY|Rotation=0.000|XOffset=0mil|YOffset=0mil|HoleType=Round|Shape=Relief|Width=10mil|Gap=10mil|Entries=4|*
%AMTHD72*
7,0,0,0.07500,0.05500,0.01000,45*
%
%ADD72THD72*%
%ADD73C,0.05500*%
%ADD74C,0.19000*%
D53*
X-0Y-0D02*
X694300Y-0D01*
X694300Y429400D02*
X694300Y-0D01*
X-0Y429400D02*
X694300Y429400D01*
X-0Y429400D02*
X-0Y314000D01*
Y-0D02*
Y314000D01*
D57*
X29000Y24500D02*
D03*
X19158D02*
D03*
X9315D02*
D03*
X29000Y14658D02*
D03*
X19158D02*
D03*
X9315D02*
D03*
D59*
X327021Y318450D02*
D03*
D60*
X413084D02*
D03*
D61*
X67150Y349000D02*
D03*
X83690D02*
D03*
X100230D02*
D03*
Y370700D02*
D03*
X83690D02*
D03*
X67150D02*
D03*
X50600D02*
D03*
D62*
Y349000D02*
D03*
D63*
X293900Y53000D02*
D03*
X597700Y372600D02*
D03*
D64*
X641100Y392200D02*
D03*
Y402200D02*
D03*
Y412200D02*
D03*
X680200Y392200D02*
D03*
Y402200D02*
D03*
Y412200D02*
D03*
X215000Y372000D02*
D03*
X205000D02*
D03*
X526000D02*
D03*
X536000D02*
D03*
X215300Y16800D02*
D03*
X205300D02*
D03*
X293900Y43000D02*
D03*
Y33000D02*
D03*
Y23000D02*
D03*
Y13000D02*
D03*
X186200Y16800D02*
D03*
X176200D02*
D03*
X587700Y372600D02*
D03*
X577700D02*
D03*
D65*
X344100Y187500D02*
D03*
X324415D02*
D03*
D67*
X645475Y44413D02*
D03*
Y24413D02*
D03*
X675475D02*
D03*
Y44413D02*
D03*
D68*
X371594Y187700D02*
D03*
X390806D02*
D03*
X65506Y106500D02*
D03*
X46294D02*
D03*
D69*
X50800Y322674D02*
D03*
D70*
Y314800D02*
D03*
X83600Y314300D02*
D03*
Y322174D02*
D03*
D71*
X235900Y159900D02*
D03*
X246800D02*
D03*
X185900Y115000D02*
D03*
X177000Y120200D02*
D03*
X561100Y287100D02*
D03*
X521200Y288400D02*
D03*
D72*
X533000Y111000D02*
D03*
X533300Y57500D02*
D03*
X414000Y50500D02*
D03*
X334500Y43500D02*
D03*
X419300Y264900D02*
D03*
X308453Y215753D02*
D03*
X362400Y133700D02*
D03*
X64200Y38800D02*
D03*
X494200Y372700D02*
D03*
X94200Y55800D02*
D03*
X74300Y91100D02*
D03*
X423000Y130900D02*
D03*
X311457Y133443D02*
D03*
X340500Y114400D02*
D03*
X51500Y263000D02*
D03*
X48000Y251000D02*
D03*
X170900Y139600D02*
D03*
X180363Y251137D02*
D03*
X561437Y248437D02*
D03*
X648063Y283437D02*
D03*
X531500Y146500D02*
D03*
X611000Y14500D02*
D03*
X246500Y371700D02*
D03*
X663563Y250437D02*
D03*
X574700Y315000D02*
D03*
X346000Y323300D02*
D03*
X306300Y296900D02*
D03*
X372296Y300796D02*
D03*
X364600Y326700D02*
D03*
X392700Y322500D02*
D03*
X402800Y322400D02*
D03*
X428400Y307500D02*
D03*
X445100Y301700D02*
D03*
X311000Y107900D02*
D03*
X669000Y142000D02*
D03*
X11100Y154900D02*
D03*
X452400Y21800D02*
D03*
X212900Y117600D02*
D03*
X626300Y311300D02*
D03*
X435100Y68600D02*
D03*
X425400Y88900D02*
D03*
X422600Y108800D02*
D03*
X351000Y155700D02*
D03*
X310800Y61400D02*
D03*
X366900Y154600D02*
D03*
X400500Y158900D02*
D03*
X361200Y43000D02*
D03*
X382400Y42500D02*
D03*
X384600Y71800D02*
D03*
X310400Y87300D02*
D03*
X30100Y89800D02*
D03*
X29200Y39000D02*
D03*
X334900Y328300D02*
D03*
D73*
X479300Y50000D02*
D03*
X534200D02*
D03*
X521300Y57000D02*
D03*
X517600Y53100D02*
D03*
X439000Y43300D02*
D03*
X332500Y170000D02*
D03*
X359500Y80500D02*
D03*
X392500Y64000D02*
D03*
X285000Y256000D02*
D03*
X402067Y255567D02*
D03*
X391000Y267000D02*
D03*
X469055Y275055D02*
D03*
X485000Y51400D02*
D03*
X393600Y60000D02*
D03*
X384500Y66500D02*
D03*
X364000Y80000D02*
D03*
X363600Y70800D02*
D03*
X368000Y93000D02*
D03*
X362000Y105500D02*
D03*
X360000Y111000D02*
D03*
X368500Y75500D02*
D03*
X483300Y65900D02*
D03*
X474300Y71000D02*
D03*
X479000Y67800D02*
D03*
X445600Y256700D02*
D03*
X302547Y215553D02*
D03*
X328800Y272600D02*
D03*
X279200Y241000D02*
D03*
X368000Y108000D02*
D03*
Y121500D02*
D03*
X138500Y50500D02*
D03*
X156900Y108500D02*
D03*
X170500Y90000D02*
D03*
X172200Y62900D02*
D03*
X9500Y114500D02*
D03*
X18800Y70800D02*
D03*
X11500Y106000D02*
D03*
X19653Y105653D02*
D03*
X89500Y114000D02*
D03*
X170500Y111000D02*
D03*
X93800Y5000D02*
D03*
X84500Y107500D02*
D03*
X143100Y128200D02*
D03*
X168800D02*
D03*
X159900Y131400D02*
D03*
X151300Y123500D02*
D03*
X94300Y107600D02*
D03*
X116800Y105100D02*
D03*
X283300Y38200D02*
D03*
X84116Y69716D02*
D03*
X246800Y122900D02*
D03*
X234000Y99400D02*
D03*
X433700Y278700D02*
D03*
X233500Y104300D02*
D03*
X110000Y109400D02*
D03*
X233600Y109000D02*
D03*
X54200Y56500D02*
D03*
X49300D02*
D03*
X44200D02*
D03*
X39300D02*
D03*
X7800Y76700D02*
D03*
X49200Y89400D02*
D03*
X19653Y81853D02*
D03*
X344100Y212600D02*
D03*
X428600Y57600D02*
D03*
X441141Y95941D02*
D03*
X453100Y96800D02*
D03*
X459600Y100400D02*
D03*
X323153Y121553D02*
D03*
X327800Y107900D02*
D03*
X381600Y61600D02*
D03*
X391300Y86200D02*
D03*
X405100Y88200D02*
D03*
X404900Y107300D02*
D03*
X393800Y137000D02*
D03*
X367900Y137300D02*
D03*
X352200Y137600D02*
D03*
X334500Y137300D02*
D03*
X613800Y243200D02*
D03*
X574700Y201300D02*
D03*
X614900Y161600D02*
D03*
X651400Y202400D02*
D03*
X75700Y202700D02*
D03*
X113900Y159400D02*
D03*
X153900Y202400D02*
D03*
X114600Y244100D02*
D03*
X569500Y50000D02*
D03*
X541500Y131000D02*
D03*
X511500Y104000D02*
D03*
X439900Y115900D02*
D03*
X549300Y102800D02*
D03*
X521700Y164300D02*
D03*
X197400Y372000D02*
D03*
X654563Y148637D02*
D03*
X561900Y320400D02*
D03*
X664037Y242563D02*
D03*
X487200Y53500D02*
D03*
X352217Y301583D02*
D03*
X380600Y326700D02*
D03*
X372500Y319000D02*
D03*
X392700Y300600D02*
D03*
X402800Y300900D02*
D03*
X413563Y300537D02*
D03*
X323053Y69453D02*
D03*
X335300Y300500D02*
D03*
X342600Y300600D02*
D03*
X328437Y296963D02*
D03*
X362900Y281400D02*
D03*
X362178Y300978D02*
D03*
X339100Y277900D02*
D03*
X349900Y275300D02*
D03*
X445100Y277000D02*
D03*
X377016Y420616D02*
D03*
X374800Y82162D02*
D03*
X359900Y61500D02*
D03*
X328300Y88200D02*
D03*
X462200Y124900D02*
D03*
X427400Y156000D02*
D03*
X371500Y212800D02*
D03*
X390100Y212800D02*
D03*
X324400Y212800D02*
D03*
X252900Y51300D02*
D03*
X279000Y51400D02*
D03*
X401400Y43500D02*
D03*
X539200Y276600D02*
D03*
X394200Y174500D02*
D03*
X61800Y154100D02*
D03*
X56253Y125053D02*
D03*
X169600Y56800D02*
D03*
X169900Y38100D02*
D03*
X73900Y9400D02*
D03*
X104300Y44800D02*
D03*
X157000Y15700D02*
D03*
X173600Y76100D02*
D03*
X144500Y32800D02*
D03*
X146900Y52947D02*
D03*
X192000Y57300D02*
D03*
X99100Y65600D02*
D03*
X422300Y95800D02*
D03*
X439000Y24200D02*
D03*
X402100Y102500D02*
D03*
X371600Y19700D02*
D03*
X429800Y43100D02*
D03*
X104000Y17300D02*
D03*
X307000Y13900D02*
D03*
X130100Y7300D02*
D03*
X117700Y19700D02*
D03*
X97000Y26500D02*
D03*
X300700Y13100D02*
D03*
X129800Y12500D02*
D03*
X99200Y16200D02*
D03*
X192182Y44382D02*
D03*
X404200Y69600D02*
D03*
X545900Y292600D02*
D03*
X321900Y314400D02*
D03*
X588872Y311573D02*
D03*
X535300Y312200D02*
D03*
X429800Y24900D02*
D03*
X399550Y62650D02*
D03*
X489500Y55500D02*
D03*
X447900Y71300D02*
D03*
X442900D02*
D03*
X468645Y94245D02*
D03*
X433500Y96800D02*
D03*
X468100Y127600D02*
D03*
X500700Y127100D02*
D03*
X501400Y123900D02*
D03*
X532900Y129200D02*
D03*
X551300Y113600D02*
D03*
X525600Y86600D02*
D03*
X448900Y155800D02*
D03*
X420700Y155300D02*
D03*
X100100Y44600D02*
D03*
X104400Y30200D02*
D03*
X117100Y30500D02*
D03*
X185700Y59400D02*
D03*
X196300Y60800D02*
D03*
X382100Y174600D02*
D03*
X348900Y35700D02*
D03*
X348000Y30900D02*
D03*
X340500Y42300D02*
D03*
X343300Y39100D02*
D03*
X539800Y154600D02*
D03*
X531500Y157900D02*
D03*
X542500Y157400D02*
D03*
X493600Y72100D02*
D03*
X498000D02*
D03*
X436900Y74000D02*
D03*
X538000Y315200D02*
D03*
X538600Y305000D02*
D03*
X575400Y299400D02*
D03*
X596700Y292900D02*
D03*
X610900Y297200D02*
D03*
X404800Y132100D02*
D03*
X531800Y75700D02*
D03*
X44500Y27700D02*
D03*
X191500Y35000D02*
D03*
X505300Y134300D02*
D03*
X423000Y71400D02*
D03*
X613500Y321500D02*
D03*
X109000Y44500D02*
D03*
X535900Y300700D02*
D03*
X510800Y74500D02*
D03*
X516300Y95700D02*
D03*
X514100Y72300D02*
D03*
X505700Y72600D02*
D03*
X395600Y158700D02*
D03*
X391700Y158600D02*
D03*
X387100Y158700D02*
D03*
X517200Y75100D02*
D03*
X514100Y99800D02*
D03*
X330400Y161400D02*
D03*
X333800Y158100D02*
D03*
X449800Y99900D02*
D03*
X589000Y316100D02*
D03*
X399200Y98600D02*
D03*
X371400Y14500D02*
D03*
X92700Y24000D02*
D03*
X84900Y26400D02*
D03*
X337800Y60500D02*
D03*
X103100Y69900D02*
D03*
X537900Y93800D02*
D03*
X539700Y100600D02*
D03*
X120047Y44953D02*
D03*
X131500Y28300D02*
D03*
X130600Y57000D02*
D03*
X429937Y271163D02*
D03*
X329100Y195400D02*
D03*
X365800Y57900D02*
D03*
X347300Y126900D02*
D03*
X347700Y162400D02*
D03*
X334181Y246981D02*
D03*
X349929Y246771D02*
D03*
X365677Y246723D02*
D03*
X342100Y172600D02*
D03*
X344300Y156900D02*
D03*
X341600Y167700D02*
D03*
X360956Y76256D02*
D03*
X367700Y62900D02*
D03*
X331500Y205000D02*
D03*
X344500Y63500D02*
D03*
X394900Y124000D02*
D03*
X401900Y118900D02*
D03*
X404000Y122500D02*
D03*
X397000Y126500D02*
D03*
X373600Y158900D02*
D03*
X377700Y158800D02*
D03*
X382100D02*
D03*
X302800Y38200D02*
D03*
X314400Y43800D02*
D03*
X307800Y41700D02*
D03*
X327100Y94300D02*
D03*
X297000Y64205D02*
D03*
X430600Y134100D02*
D03*
X351898Y230902D02*
D03*
X311900Y152300D02*
D03*
X310600Y68500D02*
D03*
X301100Y107200D02*
D03*
X300700Y101800D02*
D03*
X293600Y121900D02*
D03*
X274300Y106000D02*
D03*
X275200Y111700D02*
D03*
X289200Y111800D02*
D03*
X288700Y107800D02*
D03*
X289500Y152000D02*
D03*
X288900Y157100D02*
D03*
X357100Y230300D02*
D03*
X378700Y213000D02*
D03*
X376400Y220500D02*
D03*
Y228300D02*
D03*
X368100Y232500D02*
D03*
X372300Y227800D02*
D03*
Y221900D02*
D03*
X362400Y229300D02*
D03*
X414100Y174800D02*
D03*
X423900Y137200D02*
D03*
X330000Y154800D02*
D03*
X334000Y154900D02*
D03*
X321100Y173400D02*
D03*
X316900Y168400D02*
D03*
X316800Y157200D02*
D03*
X321600Y168300D02*
D03*
X321400Y159400D02*
D03*
X324600Y158800D02*
D03*
X290300Y184000D02*
D03*
X255100Y212200D02*
D03*
X316700Y182000D02*
D03*
X64200Y64600D02*
D03*
X78300Y107500D02*
D03*
X121800Y36600D02*
D03*
X394000Y240600D02*
D03*
X378300Y248100D02*
D03*
X291200Y125300D02*
D03*
X336200Y161400D02*
D03*
X331400Y165400D02*
D03*
X89500Y61600D02*
D03*
X309800Y54800D02*
D03*
X421500Y53100D02*
D03*
D74*
X17500Y131000D02*
D03*
X656000Y335500D02*
D03*
X624000Y83500D02*
D03*
X21000Y379500D02*
D03*
M02*
