G04 Layer_Physical_Order=1*
G04 Layer_Color=255*
%FSLAX25Y25*%
%MOIN*%
G70*
G01*
G75*
%ADD10O,0.02362X0.07874*%
%ADD11R,0.02362X0.07874*%
%ADD12R,0.13780X0.13780*%
%ADD13R,0.01181X0.06299*%
%ADD14O,0.01181X0.06299*%
%ADD15R,0.07874X0.07874*%
%ADD16R,0.04331X0.05512*%
%ADD17R,0.05512X0.04331*%
%ADD18R,0.05512X0.05906*%
%ADD19R,0.03543X0.01969*%
G04:AMPARAMS|DCode=20|XSize=35.43mil|YSize=19.69mil|CornerRadius=4.92mil|HoleSize=0mil|Usage=FLASHONLY|Rotation=0.000|XOffset=0mil|YOffset=0mil|HoleType=Round|Shape=RoundedRectangle|*
%AMROUNDEDRECTD20*
21,1,0.03543,0.00984,0,0,0.0*
21,1,0.02559,0.01969,0,0,0.0*
1,1,0.00984,0.01280,-0.00492*
1,1,0.00984,-0.01280,-0.00492*
1,1,0.00984,-0.01280,0.00492*
1,1,0.00984,0.01280,0.00492*
%
%ADD20ROUNDEDRECTD20*%
%ADD21R,0.05906X0.05512*%
%ADD22R,0.02362X0.05315*%
%ADD23R,0.06102X0.06299*%
%ADD24O,0.07874X0.01181*%
%ADD25R,0.07874X0.01181*%
%ADD26R,0.06299X0.06102*%
%ADD27R,0.05906X0.05906*%
%ADD28R,0.16732X0.10906*%
%ADD29O,0.02756X0.07874*%
%ADD30R,0.02756X0.07874*%
%ADD31O,0.02500X0.08000*%
%ADD32R,0.02500X0.08000*%
%ADD33C,0.00800*%
%ADD34C,0.01200*%
%ADD35C,0.01000*%
%ADD36C,0.02500*%
%ADD37C,0.01500*%
%ADD38C,0.02000*%
%ADD39C,0.17500*%
%ADD40R,0.06831X0.06831*%
%ADD41C,0.06831*%
%ADD42C,0.06900*%
%ADD43R,0.05906X0.05906*%
%ADD44C,0.05906*%
%ADD45C,0.03900*%
%ADD46C,0.07500*%
%ADD47R,0.05906X0.05906*%
%ADD48P,0.05966X8X22.5*%
%ADD49C,0.05512*%
%ADD50C,0.04724*%
%ADD51C,0.05000*%
%ADD52C,0.02500*%
G36*
X90000Y318000D02*
X76000D01*
Y354000D01*
X90000D01*
Y318000D01*
D02*
G37*
G36*
X58000D02*
X40000D01*
Y354000D01*
X58000D01*
Y318000D01*
D02*
G37*
%LPC*%
G36*
X83100Y325499D02*
X82722Y325450D01*
X81904Y325111D01*
X81202Y324572D01*
X80663Y323870D01*
X80324Y323052D01*
X80275Y322674D01*
X83100D01*
Y325499D01*
D02*
G37*
G36*
X84100D02*
Y322674D01*
X86925D01*
X86876Y323052D01*
X86537Y323870D01*
X85998Y324572D01*
X85296Y325111D01*
X84478Y325450D01*
X84100Y325499D01*
D02*
G37*
G36*
X50300Y325999D02*
X49922Y325950D01*
X49104Y325611D01*
X48402Y325072D01*
X47863Y324370D01*
X47524Y323552D01*
X47475Y323174D01*
X50300D01*
Y325999D01*
D02*
G37*
G36*
X54125Y322174D02*
X51300D01*
Y319349D01*
X51678Y319398D01*
X52496Y319737D01*
X53198Y320276D01*
X53737Y320978D01*
X54076Y321796D01*
X54125Y322174D01*
D02*
G37*
G36*
X83100Y321674D02*
X80275D01*
X80324Y321296D01*
X80663Y320478D01*
X81202Y319776D01*
X81904Y319237D01*
X82722Y318898D01*
X83100Y318849D01*
Y321674D01*
D02*
G37*
G36*
X86925D02*
X84100D01*
Y318849D01*
X84478Y318898D01*
X85296Y319237D01*
X85998Y319776D01*
X86537Y320478D01*
X86876Y321296D01*
X86925Y321674D01*
D02*
G37*
G36*
X50300Y322174D02*
X47475D01*
X47524Y321796D01*
X47863Y320978D01*
X48402Y320276D01*
X49104Y319737D01*
X49922Y319398D01*
X50300Y319349D01*
Y322174D01*
D02*
G37*
G36*
X51100Y353423D02*
Y349500D01*
X55023D01*
X54935Y350162D01*
X54487Y351244D01*
X53774Y352174D01*
X52844Y352887D01*
X51762Y353335D01*
X51100Y353423D01*
D02*
G37*
G36*
X50100D02*
X49438Y353335D01*
X48356Y352887D01*
X47426Y352174D01*
X46713Y351244D01*
X46264Y350162D01*
X46177Y349500D01*
X50100D01*
Y353423D01*
D02*
G37*
G36*
X84190Y352969D02*
Y349500D01*
X87659D01*
X87587Y350044D01*
X87184Y351017D01*
X86543Y351853D01*
X85707Y352494D01*
X84734Y352897D01*
X84190Y352969D01*
D02*
G37*
G36*
X83190D02*
X82646Y352897D01*
X81673Y352494D01*
X80837Y351853D01*
X80196Y351017D01*
X79793Y350044D01*
X79721Y349500D01*
X83190D01*
Y352969D01*
D02*
G37*
G36*
X87659Y348500D02*
X84190D01*
Y345031D01*
X84734Y345103D01*
X85707Y345506D01*
X86543Y346147D01*
X87184Y346983D01*
X87587Y347956D01*
X87659Y348500D01*
D02*
G37*
G36*
X50100D02*
X46177D01*
X46264Y347838D01*
X46713Y346756D01*
X47426Y345826D01*
X48356Y345113D01*
X49438Y344665D01*
X50100Y344577D01*
Y348500D01*
D02*
G37*
G36*
X51300Y325999D02*
Y323174D01*
X54125D01*
X54076Y323552D01*
X53737Y324370D01*
X53198Y325072D01*
X52496Y325611D01*
X51678Y325950D01*
X51300Y325999D01*
D02*
G37*
G36*
X83190Y348500D02*
X79721D01*
X79793Y347956D01*
X80196Y346983D01*
X80837Y346147D01*
X81673Y345506D01*
X82646Y345103D01*
X83190Y345031D01*
Y348500D01*
D02*
G37*
G36*
X55023D02*
X51100D01*
Y344577D01*
X51762Y344665D01*
X52844Y345113D01*
X53774Y345826D01*
X54487Y346756D01*
X54935Y347838D01*
X55023Y348500D01*
D02*
G37*
%LPD*%
D10*
X445685Y264228D02*
D03*
X441748D02*
D03*
X437811D02*
D03*
X433874D02*
D03*
X429937D02*
D03*
D11*
X426000D02*
D03*
D12*
X416354Y275055D02*
D03*
X455331D02*
D03*
D13*
X387331Y241000D02*
D03*
X369614D02*
D03*
X349929D02*
D03*
X330244D02*
D03*
X310559D02*
D03*
X290874D02*
D03*
D14*
X385362D02*
D03*
X383394D02*
D03*
X381425D02*
D03*
X379457D02*
D03*
X377488D02*
D03*
X375520D02*
D03*
X373551D02*
D03*
X371583D02*
D03*
X367646D02*
D03*
X365677D02*
D03*
X363709D02*
D03*
X361740D02*
D03*
X359772D02*
D03*
X357803D02*
D03*
X355835D02*
D03*
X353866D02*
D03*
X351898D02*
D03*
X347961D02*
D03*
X345992D02*
D03*
X344024D02*
D03*
X342055D02*
D03*
X340087D02*
D03*
X338118D02*
D03*
X336150D02*
D03*
X334181D02*
D03*
X332213D02*
D03*
X328276D02*
D03*
X326307D02*
D03*
X324339D02*
D03*
X322370D02*
D03*
X320402D02*
D03*
X318433D02*
D03*
X316465D02*
D03*
X314496D02*
D03*
X312528D02*
D03*
X308591D02*
D03*
X306622D02*
D03*
X304654D02*
D03*
X302685D02*
D03*
X300717D02*
D03*
X298748D02*
D03*
X296780D02*
D03*
X294811D02*
D03*
X292843D02*
D03*
X288906D02*
D03*
X286937D02*
D03*
X284969D02*
D03*
X283000D02*
D03*
D15*
X393433Y255567D02*
D03*
X276898D02*
D03*
D16*
X308553Y230500D02*
D03*
X302647D02*
D03*
X308453Y223600D02*
D03*
X302547D02*
D03*
X44447Y34700D02*
D03*
X50353D02*
D03*
X130947Y64700D02*
D03*
X136853D02*
D03*
X184753Y76100D02*
D03*
X178847D02*
D03*
X60547Y19859D02*
D03*
X66453D02*
D03*
X130647Y42600D02*
D03*
X136553D02*
D03*
X375453Y326700D02*
D03*
X369547D02*
D03*
X60447Y28059D02*
D03*
X66353D02*
D03*
X130647Y34200D02*
D03*
X136553D02*
D03*
X130947Y73100D02*
D03*
X136853D02*
D03*
X323053Y62500D02*
D03*
X317147D02*
D03*
X322953Y88100D02*
D03*
X317047D02*
D03*
X322953Y107800D02*
D03*
X317047D02*
D03*
X323053Y135700D02*
D03*
X317147D02*
D03*
X410547Y88100D02*
D03*
X416453D02*
D03*
X410547Y107200D02*
D03*
X416453D02*
D03*
X410547Y133400D02*
D03*
X416453D02*
D03*
X416453Y70300D02*
D03*
X410547D02*
D03*
X323053Y128500D02*
D03*
X317147D02*
D03*
X340753Y27000D02*
D03*
X334847D02*
D03*
X340453Y13900D02*
D03*
X334547D02*
D03*
D17*
X688000Y36053D02*
D03*
Y30147D02*
D03*
X64200Y52453D02*
D03*
Y46547D02*
D03*
X84200Y74447D02*
D03*
Y80353D02*
D03*
X372500Y313253D02*
D03*
Y307347D02*
D03*
X533500Y64547D02*
D03*
Y70453D02*
D03*
X390100Y207153D02*
D03*
Y201247D02*
D03*
X371500Y207153D02*
D03*
Y201247D02*
D03*
X34200Y76147D02*
D03*
Y82053D02*
D03*
X532900Y100247D02*
D03*
Y106153D02*
D03*
X344100Y207153D02*
D03*
Y201247D02*
D03*
X324400Y207153D02*
D03*
Y201247D02*
D03*
X334400Y55053D02*
D03*
Y49147D02*
D03*
X359900Y55453D02*
D03*
Y49547D02*
D03*
X381600Y55453D02*
D03*
Y49547D02*
D03*
X397400Y142847D02*
D03*
Y148753D02*
D03*
X390000Y142847D02*
D03*
Y148753D02*
D03*
X367800Y142647D02*
D03*
Y148553D02*
D03*
X352100Y142647D02*
D03*
Y148553D02*
D03*
X342700Y49247D02*
D03*
Y55153D02*
D03*
X391200Y77953D02*
D03*
Y72047D02*
D03*
X340400Y127253D02*
D03*
Y121347D02*
D03*
X405000Y59953D02*
D03*
Y54047D02*
D03*
X334400Y148653D02*
D03*
Y142747D02*
D03*
X29200Y52653D02*
D03*
Y46747D02*
D03*
X531500Y133947D02*
D03*
Y139853D02*
D03*
D18*
X421437Y307500D02*
D03*
X413563D02*
D03*
X99163Y9500D02*
D03*
X107037D02*
D03*
X114937Y80200D02*
D03*
X107063D02*
D03*
X84537Y31959D02*
D03*
X76663D02*
D03*
X84437Y19400D02*
D03*
X76563D02*
D03*
X508937Y372700D02*
D03*
X501063D02*
D03*
X232063Y371700D02*
D03*
X239937D02*
D03*
X156463Y139600D02*
D03*
X164337D02*
D03*
X66937Y263500D02*
D03*
X59063D02*
D03*
X654563Y142000D02*
D03*
X662437D02*
D03*
X321737Y307400D02*
D03*
X313863D02*
D03*
X50763Y133500D02*
D03*
X58637D02*
D03*
X55837Y243500D02*
D03*
X47963D02*
D03*
X321737Y297100D02*
D03*
X313863D02*
D03*
X315863Y27231D02*
D03*
X323737D02*
D03*
X315663Y13900D02*
D03*
X323537D02*
D03*
D19*
X185280Y63082D02*
D03*
Y65641D02*
D03*
Y68200D02*
D03*
X177800Y63082D02*
D03*
Y65641D02*
D03*
D20*
Y68200D02*
D03*
D21*
X74300Y82237D02*
D03*
Y74363D02*
D03*
X611000Y29437D02*
D03*
Y21563D02*
D03*
X460500Y29937D02*
D03*
Y22063D02*
D03*
X173500Y243263D02*
D03*
Y251137D02*
D03*
X555000Y240563D02*
D03*
Y248437D02*
D03*
X641000Y275563D02*
D03*
Y283437D02*
D03*
X671000Y242563D02*
D03*
Y250437D02*
D03*
X346000Y315837D02*
D03*
Y307963D02*
D03*
X335300Y315837D02*
D03*
Y307963D02*
D03*
X402800Y315137D02*
D03*
Y307263D02*
D03*
X392700Y315137D02*
D03*
Y307263D02*
D03*
X157000Y24063D02*
D03*
Y31937D02*
D03*
X156900Y90463D02*
D03*
Y98337D02*
D03*
X252900Y57563D02*
D03*
Y65437D02*
D03*
X279000Y57563D02*
D03*
Y65437D02*
D03*
D22*
X156600Y68088D02*
D03*
Y79112D02*
D03*
Y48388D02*
D03*
Y59412D02*
D03*
D23*
X141400Y139715D02*
D03*
Y159400D02*
D03*
X86479Y139715D02*
D03*
Y159400D02*
D03*
X596921Y30315D02*
D03*
Y50000D02*
D03*
X542000Y30315D02*
D03*
Y50000D02*
D03*
X526921Y30315D02*
D03*
Y50000D02*
D03*
X472000Y30315D02*
D03*
Y50000D02*
D03*
X585679Y262885D02*
D03*
Y243200D02*
D03*
X640600Y262885D02*
D03*
Y243200D02*
D03*
X86479Y263785D02*
D03*
Y244100D02*
D03*
X141400Y263785D02*
D03*
Y244100D02*
D03*
X640821Y141915D02*
D03*
Y161600D02*
D03*
X585900Y141915D02*
D03*
Y161600D02*
D03*
D24*
X619047Y297087D02*
D03*
Y299646D02*
D03*
Y302205D02*
D03*
Y304764D02*
D03*
Y307323D02*
D03*
Y309882D02*
D03*
Y312441D02*
D03*
Y315000D02*
D03*
X597000Y297087D02*
D03*
Y299646D02*
D03*
Y302205D02*
D03*
Y304764D02*
D03*
Y307323D02*
D03*
Y309882D02*
D03*
Y312441D02*
D03*
X568047Y297087D02*
D03*
Y299646D02*
D03*
Y302205D02*
D03*
Y304764D02*
D03*
Y307323D02*
D03*
Y309882D02*
D03*
Y312441D02*
D03*
Y315000D02*
D03*
X546000Y297087D02*
D03*
Y299646D02*
D03*
Y302205D02*
D03*
Y304764D02*
D03*
Y307323D02*
D03*
Y309882D02*
D03*
Y312441D02*
D03*
D25*
X597000Y315000D02*
D03*
X546000D02*
D03*
D26*
X555015Y174779D02*
D03*
X574700D02*
D03*
X555015Y229700D02*
D03*
X574700D02*
D03*
X56015Y174979D02*
D03*
X75700D02*
D03*
X56015Y229900D02*
D03*
X75700D02*
D03*
X671085Y230221D02*
D03*
X651400D02*
D03*
X671085Y175300D02*
D03*
X651400D02*
D03*
X173585Y229900D02*
D03*
X153900D02*
D03*
X173585Y174979D02*
D03*
X153900D02*
D03*
D27*
X253400Y96790D02*
D03*
Y83010D02*
D03*
X279900Y96290D02*
D03*
Y82510D02*
D03*
D28*
X211600Y39523D02*
D03*
Y64877D02*
D03*
D29*
X99100Y37440D02*
D03*
X104100D02*
D03*
X109100D02*
D03*
X114100D02*
D03*
X99100Y58700D02*
D03*
X104100D02*
D03*
X109100D02*
D03*
D30*
X114100D02*
D03*
D31*
X39300Y46200D02*
D03*
X44300D02*
D03*
X49300D02*
D03*
X54300D02*
D03*
X39300Y65700D02*
D03*
X44300D02*
D03*
X49300D02*
D03*
D32*
X54300D02*
D03*
D33*
X121800Y36600D02*
Y41300D01*
X131000Y50500D02*
X138500D01*
X121800Y41300D02*
X131000Y50500D01*
X114100Y37440D02*
X114940Y36600D01*
X687400Y74100D02*
Y395000D01*
X623600Y10300D02*
X687400Y74100D01*
X384400Y10300D02*
X623600D01*
X676484Y66606D02*
Y146537D01*
X621679Y11800D02*
X676484Y66606D01*
X598600Y41300D02*
X605300Y48000D01*
X446200Y41300D02*
X598600D01*
X441550Y45950D02*
X446200Y41300D01*
X518000Y57000D02*
X521300D01*
X505500Y44500D02*
X518000Y57000D01*
X507500Y43000D02*
X517600Y53100D01*
X447500Y43000D02*
X507500D01*
X448500Y44500D02*
X505500D01*
X439000Y24200D02*
Y43300D01*
X470661Y65000D02*
X481312Y54350D01*
X398600Y65000D02*
X470661D01*
X393600Y60000D02*
X398600Y65000D01*
X436140Y66600D02*
X470900D01*
X435990Y66450D02*
X436140Y66600D01*
X434209Y66450D02*
X435990D01*
X434059Y66600D02*
X434209Y66450D01*
X395100Y66600D02*
X434059D01*
X470900D02*
X481850Y55650D01*
X392500Y64000D02*
X395100Y66600D01*
X336000Y115339D02*
X346600Y104738D01*
Y80959D02*
Y104738D01*
Y80959D02*
X365800Y61760D01*
X344500Y63500D02*
Y103400D01*
X329400Y118500D02*
X344500Y103400D01*
X320500Y118500D02*
X329400D01*
X349779Y171100D02*
X358300Y162579D01*
Y126400D02*
Y162579D01*
Y126400D02*
X365800Y118900D01*
X360000Y129500D02*
Y163000D01*
Y129500D02*
X368000Y121500D01*
X350400Y172600D02*
X360000Y163000D01*
X349157Y169600D02*
X356500Y162257D01*
Y82240D02*
Y162257D01*
Y82240D02*
X357350Y81391D01*
X375000Y127438D02*
X378438Y124000D01*
X375000Y127438D02*
Y152100D01*
X378438Y124000D02*
X394900D01*
X378500Y126500D02*
X397000D01*
X377000Y128000D02*
X378500Y126500D01*
X377000Y128000D02*
Y152200D01*
X378500Y121500D02*
X403000D01*
X373000Y127000D02*
X378500Y121500D01*
X373000Y127000D02*
Y152121D01*
X351000Y176100D02*
X375000Y152100D01*
X351021Y174100D02*
X373000Y152121D01*
X372650Y156550D02*
X377000Y152200D01*
X360956Y76256D02*
X363297D01*
X366150Y79110D01*
Y79150D02*
X414600Y127600D01*
X366150Y79110D02*
Y79150D01*
X414600Y127600D02*
X468100D01*
X414400Y124900D02*
X462200D01*
X363600Y74100D02*
X414400Y124900D01*
X363600Y70800D02*
Y74100D01*
X106650Y31273D02*
X106750Y31173D01*
Y29227D02*
Y31173D01*
X106650Y29127D02*
X106750Y29227D01*
X106650Y29095D02*
Y29127D01*
X82755Y5200D02*
X106650Y29095D01*
X298750Y103750D02*
X300700Y101800D01*
X298750Y103750D02*
Y183450D01*
X261800Y220400D02*
X298750Y183450D01*
X260300Y219779D02*
X297250Y182829D01*
Y64455D02*
Y182829D01*
X280000Y47205D02*
X297250Y64455D01*
X303500Y46000D02*
X307800Y41700D01*
X305000Y49700D02*
X310900Y43800D01*
X305000Y49700D02*
Y184143D01*
X306500Y57300D02*
Y184764D01*
X333500Y170000D02*
X344300Y159200D01*
X332500Y170000D02*
X333500D01*
X357350Y73250D02*
X367700Y62900D01*
X357350Y73250D02*
Y81391D01*
X359500Y80500D02*
X359700D01*
X360200Y80000D01*
X359850Y79650D02*
X360200Y80000D01*
X328276Y236882D02*
Y241000D01*
Y236882D02*
X349500Y215657D01*
X392023Y264700D02*
X409000D01*
X391973Y264650D02*
X392023Y264700D01*
X390027Y264650D02*
X391973D01*
X389977Y264700D02*
X390027Y264650D01*
X325669Y264700D02*
X389977D01*
X395900Y270200D02*
X410100Y284400D01*
X424000D01*
X512285Y367500D02*
X527485Y352300D01*
X245415D02*
X260615Y367500D01*
X512285D01*
X511664Y366000D02*
X557500Y320164D01*
X261236Y366000D02*
X511664D01*
X239936Y344700D02*
X261236Y366000D01*
X511043Y364500D02*
X555800Y319743D01*
X261857Y364500D02*
X511043D01*
X239957Y342600D02*
X261857Y364500D01*
X509800Y361500D02*
X552800Y318500D01*
X510421Y363000D02*
X554300Y319121D01*
X487500Y363000D02*
X510421D01*
X263100Y361500D02*
X509800D01*
X262479Y363000D02*
X487500D01*
X487541D01*
X163700Y262100D02*
X263100Y361500D01*
X239979Y340500D02*
X262479Y363000D01*
X515900Y65900D02*
X549300Y99300D01*
Y102800D01*
X483300Y65900D02*
X515900D01*
X515860Y68200D02*
X545500Y97840D01*
X515379Y68200D02*
X515860D01*
X515229Y68050D02*
X515379Y68200D01*
X479250Y68050D02*
X515229D01*
X515240Y69500D02*
X537900Y92159D01*
X514841Y69500D02*
X515240D01*
X514690Y69350D02*
X514841Y69500D01*
X492404Y69350D02*
X514690D01*
X491354Y70400D02*
X492404Y69350D01*
X479000Y67800D02*
X479250Y68050D01*
X474900Y70400D02*
X491354D01*
X533300Y57500D02*
Y64347D01*
X444000Y49000D02*
X448500Y44500D01*
X443000Y47500D02*
X447500Y43000D01*
X427000Y49000D02*
X444000D01*
X427500Y47500D02*
X443000D01*
X483350Y53050D02*
X485000Y51400D01*
X422000Y44000D02*
X427000Y49000D01*
X422500Y42500D02*
X427500Y47500D01*
X427950Y45950D02*
X441550D01*
X422600Y40600D02*
X427950Y45950D01*
X405500Y42500D02*
X422500D01*
X404300Y40600D02*
X422600D01*
X406560Y44000D02*
X422000D01*
X384500Y66059D02*
X406560Y44000D01*
X384500Y66059D02*
Y66500D01*
X383650Y64350D02*
X405500Y42500D01*
X383610Y64350D02*
X383650D01*
X382350Y65610D02*
X383610Y64350D01*
X382350Y65610D02*
Y65650D01*
X410453Y54047D02*
X414000Y50500D01*
X405000Y54047D02*
X410453D01*
X470323Y63500D02*
X480773Y53050D01*
X400400Y63500D02*
X470323D01*
X399550Y62650D02*
X400400Y63500D01*
X372500Y75500D02*
X382350Y65650D01*
X362000Y82000D02*
X364000Y80000D01*
X359850Y79650D02*
Y110850D01*
X362000Y82000D02*
Y105500D01*
X368000Y93000D02*
Y108000D01*
X359850Y110850D02*
X360000Y111000D01*
X368500Y75500D02*
X372500D01*
X374800Y82162D02*
X379762D01*
X617442Y38000D02*
X673484Y94043D01*
X534606Y38000D02*
X617442D01*
X526921Y30315D02*
X534606Y38000D01*
X481850Y55650D02*
X488091D01*
X481312Y54350D02*
X486350D01*
X480773Y53050D02*
X483350D01*
X474300Y71000D02*
X474900Y70400D01*
X436691Y93791D02*
X468191D01*
X460000Y96800D02*
X518200Y155000D01*
X453100Y96800D02*
X460000D01*
X447900Y71300D02*
Y79000D01*
X386300Y88700D02*
X398000D01*
X379762Y82162D02*
X386300Y88700D01*
X398000D02*
X412700Y74000D01*
X436900D01*
X486350Y54350D02*
X487200Y53500D01*
X432300Y276100D02*
X433800D01*
X424000Y284400D02*
X432300Y276100D01*
X325600Y270200D02*
X395900D01*
X495921Y151900D02*
X505321Y161300D01*
X442979Y151900D02*
X495921D01*
X438879Y156000D02*
X442979Y151900D01*
X357803Y241000D02*
Y245597D01*
X343200Y260200D02*
X357803Y245597D01*
X323805Y260200D02*
X343200D01*
X343700Y261700D02*
X359772Y245628D01*
Y241000D02*
Y245628D01*
X324427Y261700D02*
X343700D01*
X373551Y241000D02*
Y250149D01*
X360500Y263200D02*
X373551Y250149D01*
X325048Y263200D02*
X360500D01*
X264800Y222221D02*
X303500Y183521D01*
X269300Y258500D02*
X272000Y261200D01*
X269300Y224200D02*
Y258500D01*
Y224200D02*
X308000Y185500D01*
X267800Y223464D02*
X306500Y184764D01*
X267800Y223464D02*
Y259251D01*
X271249Y262700D01*
X266300Y259872D02*
X270628Y264200D01*
X266300Y222843D02*
Y259872D01*
Y222843D02*
X305000Y184143D01*
X264800Y222221D02*
Y260493D01*
X270007Y265700D01*
X263300Y261115D02*
X269385Y267200D01*
X263300Y221600D02*
Y261115D01*
Y221600D02*
X300500Y184400D01*
X261800Y220400D02*
Y261736D01*
X268764Y268700D01*
X260300Y262357D02*
X268143Y270200D01*
X260300Y219779D02*
Y262357D01*
X271249Y262700D02*
X314941D01*
X270628Y264200D02*
X315563D01*
X270007Y265700D02*
X316184D01*
X269385Y267200D02*
X316805D01*
X268764Y268700D02*
X317427D01*
X268143Y270200D02*
X318048D01*
X267521Y271700D02*
X318669D01*
X246800Y250979D02*
X267521Y271700D01*
X246800Y94121D02*
Y250979D01*
X266900Y273200D02*
X322600D01*
X235900Y242200D02*
X266900Y273200D01*
X235900Y128600D02*
Y242200D01*
X318669Y271700D02*
X325669Y264700D01*
X318048Y270200D02*
X325048Y263200D01*
X317427Y268700D02*
X324427Y261700D01*
X316805Y267200D02*
X323805Y260200D01*
X323184Y258700D02*
X331500D01*
X316184Y265700D02*
X323184Y258700D01*
X322563Y257200D02*
X331100D01*
X315563Y264200D02*
X322563Y257200D01*
X321941Y255700D02*
X330300D01*
X314941Y262700D02*
X321941Y255700D01*
X272000Y261200D02*
X314320D01*
X326307Y249213D01*
X302647Y222300D02*
Y229100D01*
X302547Y215553D02*
Y223600D01*
X308453D02*
X308507Y230500D01*
X308453Y215753D02*
Y223600D01*
X314496Y151204D02*
Y241000D01*
X308507Y230500D02*
X308591Y241000D01*
X308453Y223600D02*
X308553Y230500D01*
X326307Y241000D02*
Y249213D01*
X322600Y273200D02*
X325600Y270200D01*
X330300Y255700D02*
X336331Y249669D01*
X331100Y257200D02*
X338118Y250182D01*
X331500Y258700D02*
X344024Y246176D01*
X409000Y264700D02*
X417200Y256500D01*
X328437Y272178D02*
Y296963D01*
X417200Y256500D02*
X435100D01*
X437811Y259211D01*
Y264228D01*
X279200Y241000D02*
X283000D01*
X421410Y93650D02*
X433250D01*
X399200Y98600D02*
X411800D01*
X404900Y107300D02*
X410647D01*
X411800Y98600D02*
X418050Y92350D01*
X412560Y102500D02*
X421410Y93650D01*
X418050Y92350D02*
X432650D01*
X385021Y11800D02*
X621679D01*
X433400Y109400D02*
X439900Y115900D01*
X140800Y64700D02*
X151000Y54500D01*
X136853Y64700D02*
X140800D01*
X151000Y37937D02*
Y54500D01*
X172200Y62900D02*
X177618D01*
X93800Y5000D02*
X94663D01*
X99163Y9500D01*
X83177Y3500D02*
X109100Y29423D01*
X84500Y80653D02*
Y107500D01*
X84200Y80353D02*
X84500Y80653D01*
X143100Y128200D02*
X168800D01*
X94300Y107600D02*
X118100Y131400D01*
X159900D01*
X151300Y123500D02*
X151800D01*
X153350Y125050D01*
X239450D01*
X110000Y109400D02*
X129600D01*
X140500Y120300D01*
X116800Y105100D02*
X127421D01*
X137321Y115000D01*
X190300D01*
X201000Y104300D01*
X140500Y120300D02*
X187121D01*
X198421Y109000D01*
X673384Y136760D02*
X673483Y94042D01*
X611234Y29437D02*
X674984Y93187D01*
X676147Y146874D02*
X676484Y146537D01*
X676147Y146874D02*
Y408147D01*
X680200Y412200D01*
Y402200D02*
X687400Y395000D01*
X234000Y99400D02*
X239900Y93500D01*
X240900D01*
X246700Y87700D01*
X240900Y93500D02*
Y123600D01*
X201000Y104300D02*
X233500D01*
X198421Y109000D02*
X233600D01*
X54200Y56000D02*
Y65600D01*
X54300Y65700D01*
X49300Y55900D02*
Y65700D01*
X44200Y55600D02*
Y65600D01*
X44300Y65700D01*
X39300Y56500D02*
Y65700D01*
X526000Y372000D02*
X526600D01*
X544179Y352300D02*
X583300Y313179D01*
X527485Y352300D02*
X544179D01*
X554300Y311221D02*
Y319121D01*
X555800Y311843D02*
Y319743D01*
X557500Y312264D02*
Y320164D01*
X234700Y352300D02*
X245415D01*
X222315Y344700D02*
X239936D01*
X229600Y342600D02*
X239957D01*
X233700Y340500D02*
X239979D01*
X441141Y95941D02*
X442541D01*
X459600Y99900D02*
Y100400D01*
X545823Y307500D02*
X546000Y307323D01*
X545941Y312500D02*
X546000Y312441D01*
X531500Y139853D02*
Y146500D01*
X472000Y30315D02*
X526921D01*
X597799Y29437D02*
X611000D01*
X596921Y30315D02*
X597799Y29437D01*
X531516Y72437D02*
X533500Y70453D01*
X390100Y140700D02*
X393800Y137000D01*
X390100Y140700D02*
Y142947D01*
X397500D01*
X405100Y88200D02*
X405100Y88200D01*
X410647D01*
X215300Y371700D02*
X232063D01*
X508937Y372700D02*
X525300D01*
X55837Y243500D02*
X66600D01*
X75700Y252600D01*
X36900Y185489D02*
X82674Y139715D01*
X675475Y24413D02*
X684566D01*
X552800Y310600D02*
Y318500D01*
Y310600D02*
X561195Y302205D01*
X568047D01*
X554300Y311221D02*
X560758Y304764D01*
X568047D01*
X560320Y307323D02*
X568047D01*
X555800Y311843D02*
X560320Y307323D01*
X557500Y312264D02*
X559882Y309882D01*
X568047D01*
X554116Y240563D02*
X555000D01*
X645475Y24413D02*
X675475D01*
X597000Y309882D02*
X600782D01*
X597000Y307323D02*
X600423D01*
X604600Y311500D01*
X600782Y309882D02*
X603100Y312200D01*
X604600Y311500D02*
Y321400D01*
X608500Y325300D01*
X603100Y322021D02*
X607879Y326800D01*
X603100Y312200D02*
Y322021D01*
X82674Y139715D02*
X86479D01*
X36900Y185489D02*
Y246300D01*
X46600Y256000D01*
X215000Y372000D02*
X215300Y371700D01*
X234700Y352300D01*
X568047Y299646D02*
X574854D01*
X335300Y300500D02*
Y307963D01*
X346000Y304000D02*
Y307963D01*
X342600Y300600D02*
X346000Y304000D01*
X368600Y294000D02*
X386100D01*
X392700Y300600D01*
X328437Y272178D02*
X328915Y271700D01*
X367900Y137300D02*
Y142747D01*
X352200Y137600D02*
Y142747D01*
X334500Y137300D02*
Y142847D01*
X383300Y281400D02*
X402800Y300900D01*
X253400Y65937D02*
Y83010D01*
X279900Y66337D02*
Y82510D01*
X362900Y281400D02*
X383300D01*
X539586Y309882D02*
X546000D01*
X528500Y268300D02*
Y300053D01*
Y268300D02*
X533915Y262885D01*
X585679D01*
X527000Y267679D02*
X554116Y240563D01*
X547700Y168300D02*
Y244500D01*
X605300Y48000D02*
Y110700D01*
X547700Y168300D02*
X605300Y110700D01*
X664037Y242563D02*
X671000D01*
X607879Y326800D02*
X617500D01*
X660100Y284200D01*
X608500Y325300D02*
X616879D01*
X658600Y283579D01*
X611000Y29437D02*
X611234D01*
X660100Y160800D02*
Y284200D01*
X658600Y160179D02*
X673384Y145395D01*
Y136760D02*
Y145395D01*
X658600Y160179D02*
Y283579D01*
X46294Y129031D02*
X50763Y133500D01*
X46294Y106500D02*
Y129031D01*
X674984Y93187D02*
Y145916D01*
X660100Y160800D02*
X674984Y145916D01*
X420731Y155269D02*
X423962Y158500D01*
X427400Y156000D02*
X438879D01*
X423962Y158500D02*
X438500D01*
X506200Y164300D02*
X521700D01*
X437811Y264228D02*
Y269711D01*
X445100Y277000D01*
X441748Y235052D02*
Y264228D01*
X163700Y240985D02*
X173585Y231100D01*
X163700Y240985D02*
Y262100D01*
X75700Y252600D02*
X145800D01*
X233700Y340500D01*
X46600Y256000D02*
X143000D01*
X229600Y342600D01*
X141400Y263785D02*
X222315Y344700D01*
X44300Y34847D02*
X44447Y34700D01*
X50353D02*
Y38247D01*
X49300Y39300D02*
X50353Y38247D01*
X49300Y39300D02*
Y46200D01*
X44300Y34847D02*
Y46200D01*
X39300Y24700D02*
Y46200D01*
X114100Y58700D02*
X114937Y59537D01*
Y80200D01*
X54300Y34206D02*
Y46200D01*
Y34206D02*
X60447Y28059D01*
X104100Y37440D02*
Y44600D01*
X104300Y44800D01*
X66353Y28059D02*
X72763D01*
X76663Y31959D01*
X107063Y72537D02*
Y80200D01*
X109100Y58700D02*
Y70500D01*
X107063Y72537D02*
X109100Y70500D01*
X130947Y64700D02*
Y73100D01*
X76104Y19859D02*
X76563Y19400D01*
X66453Y19859D02*
X76104D01*
X130647Y42600D02*
X130700Y42547D01*
X114100Y37440D02*
X114200Y37340D01*
X84537Y31959D02*
X91759D01*
X93400Y33600D01*
X99100Y37440D02*
Y43600D01*
X104700Y48600D02*
X109100Y53000D01*
Y58700D01*
X136853Y73100D02*
X142900D01*
X148912Y79112D01*
X156600D01*
Y59412D02*
Y68088D01*
Y32337D02*
X157000Y31937D01*
Y15700D02*
Y24063D01*
X156600Y79112D02*
X158288D01*
X171800Y65600D01*
X177759D01*
X177800Y65641D01*
X173600Y76100D02*
X178847D01*
X157000Y31937D02*
X160263Y35200D01*
X180000D01*
X156600Y32337D02*
Y48388D01*
X151000Y37937D02*
X156600Y32337D01*
X136553Y34200D02*
X143100D01*
X144500Y32800D01*
X136553Y42600D02*
X146900Y52947D01*
X189259Y65641D02*
X189600Y65300D01*
X185280Y65641D02*
X189259D01*
X156900Y79412D02*
Y90463D01*
X156600Y79112D02*
X156900Y79412D01*
X99100Y58700D02*
Y65600D01*
X629861Y8800D02*
X645475Y24413D01*
X293900Y13000D02*
X298100Y8800D01*
X401400Y43500D02*
X404300Y40600D01*
X460878Y30315D02*
X472000D01*
X323837Y27332D02*
X334947D01*
X542000Y30315D02*
X596921D01*
X541500Y126000D02*
Y131000D01*
X459600Y99500D02*
X460000Y99900D01*
X459600Y99500D02*
Y99900D01*
X422300Y95800D02*
X422700D01*
X433400Y106500D02*
Y109400D01*
X323537Y13900D02*
X334547D01*
X340753Y27000D02*
X348053Y19700D01*
X422700Y95800D02*
X433400Y106500D01*
X39300Y24700D02*
X44141Y19859D01*
X60547D01*
X50353Y29947D02*
Y34700D01*
X107037Y9500D02*
Y22137D01*
X104000Y17300D02*
Y19100D01*
X107037Y22137D01*
X307000Y13900D02*
X315663D01*
X97000Y35340D02*
X99100Y37440D01*
X97000Y26500D02*
Y35340D01*
X314831Y27231D02*
X315863D01*
X117700Y19700D02*
X130100Y7300D01*
X99100Y9563D02*
X99163Y9500D01*
X104100Y29400D02*
Y37440D01*
X107037Y22137D02*
X114200Y29300D01*
X99100Y9563D02*
X99200Y9663D01*
Y16200D01*
X180000Y35200D02*
X189600Y44800D01*
Y65300D01*
X459600Y99900D02*
X460000D01*
X596918Y309800D02*
X597000Y309882D01*
X596877Y307200D02*
X597000Y307323D01*
X539555Y309850D02*
X539586Y309882D01*
X527000Y301119D02*
X535731Y309850D01*
X539555D01*
X527000Y267679D02*
Y301119D01*
X588872Y311573D02*
X589741Y312441D01*
X597000D01*
X535300Y311540D02*
Y312200D01*
X526600Y372000D02*
X585400Y313200D01*
X583300Y309700D02*
X590795Y302205D01*
X583300Y309700D02*
Y313179D01*
X585400Y309721D02*
Y313200D01*
Y309721D02*
X590358Y304764D01*
X597000D01*
X590795Y302205D02*
X597000D01*
X429800Y24900D02*
Y43100D01*
X442900Y71300D02*
Y82100D01*
X436600Y93700D02*
X436691Y93791D01*
X468191D02*
X468645Y94245D01*
X433500Y96800D02*
X436600Y93700D01*
X497800Y123100D02*
X498600Y123900D01*
X501400D01*
X531500Y133947D02*
X532900Y132547D01*
Y129200D02*
Y132547D01*
X545500Y108500D02*
X550600Y113600D01*
X551300D01*
X525600Y86600D02*
Y110100D01*
X541500Y126000D01*
X448900Y155800D02*
Y227900D01*
X443550Y153450D02*
X495350D01*
X441748Y235052D02*
X448900Y227900D01*
X438500Y158500D02*
X443550Y153450D01*
X495350D02*
X506200Y164300D01*
X99100Y43600D02*
X100100Y44600D01*
X93400Y41223D02*
X100777Y48600D01*
X93400Y33600D02*
Y41223D01*
X100777Y48600D02*
X104700D01*
X114100Y52900D02*
Y58700D01*
X117100Y25200D02*
Y30500D01*
Y25200D02*
X129800Y12500D01*
X539400Y155000D02*
X539800Y154600D01*
X504500Y157900D02*
X531500D01*
X442541Y95941D02*
X504500Y157900D01*
X505321Y161300D02*
X538600D01*
X542500Y157400D01*
X518200Y155000D02*
X539400D01*
X493600Y72100D02*
X495150Y73650D01*
X535300Y312441D02*
X546000D01*
X545800Y315200D02*
X546000Y315000D01*
X538000Y315200D02*
X545800D01*
X545764Y305000D02*
X546000Y304764D01*
X538600Y305000D02*
X545764D01*
X545973Y307350D02*
X546000Y307323D01*
X535797Y307350D02*
X545973D01*
X528500Y300053D02*
X535797Y307350D01*
X619047Y297087D02*
X619061Y297100D01*
X618961Y297200D02*
X619061Y297100D01*
X610900Y297200D02*
X618961D01*
X409247Y132100D02*
X410547Y133400D01*
X404800Y132100D02*
X409247D01*
X531516Y72437D02*
X531800Y72721D01*
Y75700D01*
X177618Y62900D02*
X177800Y63082D01*
X44447Y34700D02*
X44500Y34647D01*
Y27700D02*
Y34647D01*
X533300Y64347D02*
X533500Y64547D01*
X106650Y45473D02*
X108027Y46850D01*
X108050D01*
X114100Y52900D01*
X106650Y31273D02*
Y45473D01*
X109000Y44500D02*
X109100Y44400D01*
Y37440D02*
Y44400D01*
X535900Y300700D02*
X537405Y302205D01*
X546000D01*
X510800Y74500D02*
Y103300D01*
X511500Y104000D01*
X516246Y95646D02*
X516300Y95700D01*
X505300Y73000D02*
X505700Y72600D01*
X505300Y73000D02*
Y134300D01*
X395000Y158700D02*
X395600D01*
X394200Y174500D02*
X395600Y173100D01*
X390713Y158700D02*
X390813Y158600D01*
X391700D01*
X390713Y158700D02*
X391600Y159587D01*
X390806Y187700D02*
X391600Y186906D01*
X514100Y72300D02*
Y99800D01*
X516246Y76054D02*
X517200Y75100D01*
X516246Y76054D02*
Y95646D01*
X330400Y161400D02*
X333700Y158100D01*
X333800D01*
X459500Y99800D02*
X459600Y99900D01*
X459400D02*
X459500Y99800D01*
X449800Y99900D02*
X459400D01*
X589000Y315200D02*
Y316100D01*
X589200Y315000D02*
X597000D01*
X589000Y315200D02*
X589200Y315000D01*
X488091Y55650D02*
X488240Y55500D01*
X489500D01*
X433250Y93650D02*
X447900Y79000D01*
X432650Y92350D02*
X442900Y82100D01*
X369300Y14500D02*
X371400D01*
X340453Y13900D02*
X368700D01*
X369300Y14500D01*
X50353Y29947D02*
X56300Y24000D01*
X92700D01*
X84537Y26763D02*
Y31959D01*
Y26763D02*
X84900Y26400D01*
X497800Y72300D02*
X498000Y72100D01*
X497800Y72300D02*
Y123100D01*
X395000Y158700D02*
X395600Y159300D01*
X84437Y19400D02*
X94100D01*
X104100Y29400D01*
X45800Y5200D02*
X82755D01*
X109100Y29423D02*
Y37440D01*
X103100Y59700D02*
Y69900D01*
Y59700D02*
X104100Y58700D01*
X545500Y97840D02*
Y108500D01*
X537900Y92159D02*
Y93800D01*
X130700Y35400D02*
Y42547D01*
X131500Y28300D02*
Y34600D01*
X130700Y35400D02*
X131500Y34600D01*
X130947Y57000D02*
Y64700D01*
X684566Y24413D02*
X688000Y27847D01*
X521200Y271000D02*
X547700Y244500D01*
X521200Y271000D02*
Y297440D01*
X535300Y311540D01*
X539200Y276600D02*
X550400D01*
X568047Y294247D01*
Y297087D01*
X337096Y33600D02*
X340189Y36693D01*
X341500Y167133D02*
Y167700D01*
Y172000D02*
X341600Y171900D01*
X283000Y241000D02*
X284969D01*
X330244D02*
X332213D01*
X334181D01*
X347961D02*
X349929D01*
Y246771D01*
X361740Y241000D02*
X363709D01*
X365677D01*
Y246723D01*
X381425Y241000D02*
X383394D01*
X381425D02*
Y246575D01*
X341500Y172000D02*
X342100Y172600D01*
X341600Y167700D02*
Y171900D01*
X348053Y19700D02*
X371600D01*
X348000Y30900D02*
X363800D01*
X384400Y10300D01*
X348900Y35700D02*
X361121D01*
X385021Y11800D01*
X365800Y57900D02*
Y61760D01*
X343706Y187700D02*
Y200853D01*
X324400Y187794D02*
Y201247D01*
X344300Y156900D02*
Y159200D01*
X300700Y13100D02*
X314831Y27231D01*
X395600Y159300D02*
Y173100D01*
X391600Y159587D02*
Y186906D01*
X371500Y187794D02*
Y201247D01*
X343477Y162400D02*
X347700D01*
X336000Y115339D02*
Y129700D01*
X339200Y166677D02*
X343477Y162400D01*
X328600Y203100D02*
X332500Y199200D01*
Y178323D02*
Y199200D01*
X328600Y203100D02*
Y218536D01*
X336150Y241000D02*
X336331Y241182D01*
X322370Y229009D02*
X335500Y215879D01*
X324339Y229161D02*
X337000Y216500D01*
X322370Y229009D02*
Y241000D01*
X324339Y229161D02*
Y241000D01*
X339100Y277900D02*
X362178Y300978D01*
X334181Y241000D02*
Y246981D01*
X336331Y241182D02*
Y249669D01*
X338118Y241000D02*
Y250182D01*
X350257Y172600D02*
X350400D01*
X349636Y171100D02*
X349779D01*
X349015Y169600D02*
X349157D01*
X337000Y185857D02*
X350257Y172600D01*
X337000Y185857D02*
Y216500D01*
X335500Y185236D02*
Y215879D01*
X334000Y184615D02*
Y215257D01*
X403000Y121500D02*
X404000Y122500D01*
X402100Y102500D02*
X412560D01*
X342055Y227345D02*
Y241000D01*
X340087Y227192D02*
Y241000D01*
X349900Y275300D02*
X368600Y294000D01*
X344024Y241000D02*
Y246176D01*
X304500Y33600D02*
X337096D01*
X298100Y8800D02*
X629861D01*
X310900Y43800D02*
X314400D01*
X280000Y26900D02*
X293900Y13000D01*
X280000Y26900D02*
Y47205D01*
X253400Y96790D02*
Y121700D01*
X251721Y89200D02*
X284700D01*
X246700Y87700D02*
X285700D01*
X293900Y23000D02*
X304500Y33600D01*
X283300Y38200D02*
X302800D01*
X390100Y188406D02*
Y201247D01*
X417100Y147600D02*
Y197500D01*
Y147600D02*
X430600Y134100D01*
X340087Y227192D02*
X351000Y216279D01*
X342055Y227345D02*
X352500Y216900D01*
X345992Y229108D02*
Y241000D01*
X351898Y230902D02*
Y241000D01*
X313400Y94300D02*
X327100D01*
X308000Y88900D02*
X313400Y94300D01*
X308000Y71100D02*
X310600Y68500D01*
X308000Y71100D02*
Y88900D01*
X286937Y208684D02*
Y241000D01*
Y208684D02*
X311900Y183721D01*
X308000Y131000D02*
X320500Y118500D01*
X293600Y119500D02*
Y121900D01*
X270900Y105290D02*
Y133400D01*
Y105290D02*
X279900Y96290D01*
X275200Y111700D02*
X275300Y111800D01*
X289200D01*
X274300Y106000D02*
X276100Y107800D01*
X288700D01*
X270900Y133400D02*
X289500Y152000D01*
X288800Y157100D02*
X288900D01*
X253400Y121700D02*
X288800Y157100D01*
X284700Y89200D02*
X294250Y98750D01*
X285700Y87700D02*
X295750Y97750D01*
X294250Y98750D02*
Y114511D01*
X291250Y117511D02*
X294250Y114511D01*
X295750Y97750D02*
Y117350D01*
X293600Y119500D02*
X295750Y117350D01*
X300500Y107800D02*
X301100Y107200D01*
X353866Y233534D02*
X357100Y230300D01*
X353866Y233534D02*
Y241000D01*
X365800Y118900D02*
X401900D01*
X387100Y158700D02*
Y166900D01*
X382100Y171900D02*
Y174600D01*
Y171900D02*
X387100Y166900D01*
X382100Y158800D02*
Y169400D01*
X390100Y224500D02*
X417100Y197500D01*
X378700Y172800D02*
X382100Y169400D01*
X378700Y172800D02*
Y213000D01*
X376350Y160150D02*
X377700Y158800D01*
X376350Y160150D02*
Y220450D01*
X376400Y220500D01*
Y228300D02*
Y231300D01*
X371583Y236117D02*
X376400Y231300D01*
X371583Y236117D02*
Y241000D01*
X367646Y232954D02*
Y241000D01*
Y232954D02*
X368100Y232500D01*
X369614Y234386D02*
Y241000D01*
Y234386D02*
X372300Y231700D01*
Y227800D02*
Y231700D01*
X355835Y235865D02*
Y241000D01*
X366400Y216000D02*
X372300Y221900D01*
X345992Y229108D02*
X350600Y224500D01*
X390100D01*
X355835Y235865D02*
X362400Y229300D01*
X366400Y166100D02*
X373600Y158900D01*
X372627Y156550D02*
X372650D01*
X332500Y178323D02*
X339200Y171623D01*
Y166677D02*
Y171623D01*
X334000Y184615D02*
X349015Y169600D01*
X335500Y185236D02*
X349636Y171100D01*
X349500Y175479D02*
Y215657D01*
Y175479D02*
X350879Y174100D01*
X351021D01*
X351000Y176100D02*
Y216279D01*
X352500Y176677D02*
Y216900D01*
Y176677D02*
X372627Y156550D01*
X366400Y166100D02*
Y216000D01*
X414100Y147000D02*
Y174800D01*
Y147000D02*
X423900Y137200D01*
X328000Y194300D02*
X329100Y195400D01*
X328000Y164523D02*
Y194300D01*
Y164523D02*
X328050Y164573D01*
Y156750D02*
X330000Y154800D01*
X334000Y154900D02*
Y155600D01*
X334400Y155200D01*
X311900Y152300D02*
Y183721D01*
X300500Y107800D02*
Y184400D01*
X303500Y46000D02*
Y183521D01*
X308000Y131000D02*
Y185500D01*
X323047Y148653D02*
X334400D01*
X328050Y156750D02*
Y164573D01*
X334400Y148653D02*
Y155200D01*
X316800Y168300D02*
X316900Y168400D01*
X316800Y157200D02*
Y168300D01*
X321600Y159600D02*
Y168300D01*
X321400Y159400D02*
X321600Y159600D01*
X324415Y187500D02*
X324600Y187315D01*
Y158800D02*
Y187315D01*
X316650Y174527D02*
X319250Y171927D01*
X314496Y151204D02*
X336000Y129700D01*
X320402Y228856D02*
X334000Y215257D01*
X320402Y228856D02*
Y241000D01*
X318433Y228703D02*
Y241000D01*
Y228703D02*
X328600Y218536D01*
X316465Y212100D02*
Y241000D01*
X235900Y128600D02*
X240900Y123600D01*
X246800Y94121D02*
X251721Y89200D01*
X283300Y184000D02*
X290300D01*
X255100Y212200D02*
X283300Y184000D01*
X319000Y175500D02*
X321100Y173400D01*
X316650Y174527D02*
X316700Y174577D01*
Y182000D01*
X319000Y175500D02*
Y180977D01*
X319050Y181027D01*
Y209515D01*
X316465Y212100D02*
X319050Y209515D01*
X319250Y152450D02*
Y158227D01*
X319050Y158427D02*
X319250Y158227D01*
X319050Y158427D02*
Y160373D01*
X319250Y160573D01*
Y171927D01*
Y152450D02*
X323047Y148653D01*
X29000Y22000D02*
X45800Y5200D01*
X29000Y22000D02*
Y24500D01*
X40157Y3500D02*
X83177D01*
X29000Y14658D02*
X40157Y3500D01*
X495150Y73650D02*
Y123150D01*
X499100Y127100D01*
X500700D01*
X58637Y133500D02*
X65506Y126631D01*
Y106500D02*
Y126631D01*
X114400Y36600D02*
X121800D01*
X114200Y36400D02*
X114400Y36600D01*
X114200Y36400D02*
Y37340D01*
Y29300D02*
Y36400D01*
X379900Y248100D02*
X381425Y246575D01*
X378300Y248100D02*
X379900D01*
X291200Y125300D02*
X291250Y125250D01*
Y117511D02*
Y125250D01*
X336200Y161000D02*
Y161400D01*
X331400Y164400D02*
X334800Y161000D01*
X336200D01*
X331400Y164400D02*
Y165400D01*
X309000Y54800D02*
X309800D01*
X306500Y57300D02*
X309000Y54800D01*
D34*
X472000Y50000D02*
X479300D01*
X526921D02*
X534200D01*
X525321Y48400D02*
X526921Y50000D01*
X16500Y92500D02*
X40000D01*
X7600Y83600D02*
X16500Y92500D01*
X7600Y76900D02*
Y83600D01*
X277330Y256000D02*
X285000D01*
X276898Y255567D02*
X277330Y256000D01*
X393433Y255567D02*
X402067D01*
X391000Y267000D02*
X397500D01*
X405555Y275055D01*
X416354D01*
X455331D02*
X469055D01*
X404200Y69600D02*
X409847D01*
X561900Y313400D02*
Y320400D01*
Y313400D02*
X562859Y312441D01*
X568047D01*
X445600Y256700D02*
Y264143D01*
X445685Y264228D01*
X416453Y88100D02*
X422434D01*
X64200Y38800D02*
Y46547D01*
X7600Y76900D02*
X7800Y76700D01*
X40000Y92500D02*
X43100Y89400D01*
X494200Y372700D02*
X501063D01*
X433800Y264302D02*
Y276100D01*
X433700Y276200D02*
Y278700D01*
X43100Y89400D02*
X49200D01*
X344100Y207153D02*
Y212600D01*
X542000Y50000D02*
X569500D01*
X460237Y21800D02*
X460500Y22063D01*
X410488Y133459D02*
Y133913D01*
X239937Y371700D02*
X246500D01*
X197400Y372000D02*
X205000D01*
X568047Y315000D02*
X574700D01*
X619047Y299646D02*
Y302205D01*
Y304764D01*
Y307323D01*
Y309882D01*
Y312441D01*
X613147Y314247D02*
X614954Y312441D01*
X619047D01*
X346000Y315837D02*
Y323300D01*
X313663Y296900D02*
X313863Y297100D01*
X306300Y296900D02*
X313663D01*
X372296Y300796D02*
X372500Y301000D01*
X372296Y300796D02*
Y307143D01*
X364600Y326700D02*
X369547D01*
X375453D02*
X380600D01*
X392700Y300600D02*
Y307263D01*
Y315137D02*
Y322500D01*
X402800Y315137D02*
Y322400D01*
Y300900D02*
Y307263D01*
X413563Y300537D02*
Y307500D01*
X421437D02*
X428400D01*
X323053Y62500D02*
Y69453D01*
X390100Y207153D02*
Y212800D01*
X371500Y207153D02*
Y212800D01*
X252900Y51300D02*
Y57563D01*
X279000Y51400D02*
Y57563D01*
X313863Y297100D02*
Y307400D01*
X372500Y313253D02*
Y319000D01*
X569500Y50000D02*
X596921D01*
X397400Y148753D02*
Y149300D01*
X419972Y264228D02*
X426000D01*
X197577Y25500D02*
X211600Y39523D01*
X177800Y68200D02*
X178000Y68000D01*
X180500D01*
X181400Y67100D01*
Y63500D02*
Y67100D01*
Y63500D02*
X181818Y63082D01*
X185280D01*
X611000Y14500D02*
Y21563D01*
X452400Y21800D02*
X460237D01*
X176200Y16800D02*
Y21300D01*
X180400Y25500D01*
X197577D01*
X409847Y69600D02*
X410547Y70300D01*
X545900Y292600D02*
Y296986D01*
X546000Y297087D01*
X185280Y63082D02*
X185700Y62662D01*
X321737Y314237D02*
X321900Y314400D01*
X321737Y307400D02*
Y314237D01*
X422434Y88100D02*
X423234Y88900D01*
X425400D01*
X206623Y59900D02*
X211600Y64877D01*
X185700Y59400D02*
Y62662D01*
X205723Y60800D02*
X206623Y59900D01*
X196300Y60800D02*
X205723D01*
X397400Y149300D02*
X400500Y152400D01*
Y157500D01*
X596700Y296786D02*
X597000Y297087D01*
X596700Y292900D02*
Y296786D01*
X613147Y314247D02*
X613500Y314600D01*
Y321500D01*
X429937Y264228D02*
Y271163D01*
X324400Y207153D02*
Y212800D01*
X390000Y148753D02*
X397400D01*
X385362Y241000D02*
X387331D01*
X34200Y82053D02*
Y85700D01*
X30100Y89800D02*
X34200Y85700D01*
X64200Y52453D02*
Y64600D01*
X393600Y241000D02*
X394000Y240600D01*
X387331Y241000D02*
X393600D01*
X89500Y61600D02*
Y114000D01*
X334900Y316237D02*
X335300Y315837D01*
X334900Y316237D02*
Y328300D01*
X417100Y53100D02*
X421500D01*
X405000Y59953D02*
X410247D01*
X417100Y53100D01*
D35*
X5350Y86896D02*
X11500Y93046D01*
X5350Y75685D02*
X7035Y74000D01*
X5350Y75685D02*
Y86896D01*
X3500Y87500D02*
X9500Y93500D01*
X3500Y75000D02*
Y87500D01*
Y75000D02*
X7700Y70800D01*
X362400Y133700D02*
Y145700D01*
X382400Y42500D02*
Y48947D01*
X334500Y43500D02*
Y49247D01*
X381600Y55653D02*
Y61600D01*
X361200Y43000D02*
Y48447D01*
X420800Y70300D02*
X421900Y71400D01*
X416453Y70300D02*
X420800D01*
X365253Y148553D02*
X367800D01*
X362400Y145700D02*
X365253Y148553D01*
X367800D02*
Y154200D01*
X18800Y70800D02*
X29200Y60400D01*
Y52653D02*
Y60400D01*
X9500Y93500D02*
Y114500D01*
X7700Y70800D02*
X18800D01*
X11500Y93046D02*
Y106000D01*
X7035Y74000D02*
X32053D01*
X34200Y76147D01*
X84116Y69716D02*
Y74363D01*
X74300D02*
X84116D01*
X74300Y82153D02*
Y91100D01*
X311457Y133443D02*
X314890D01*
X316300Y128600D02*
X317247D01*
X323053Y107900D02*
X327800D01*
X321737Y297100D02*
X321874Y296963D01*
X328437D01*
X359900Y55653D02*
Y61500D01*
X323053Y88200D02*
X328300D01*
X622600Y315000D02*
X626300Y311300D01*
X416553Y107300D02*
X422196D01*
X422600Y107704D01*
Y108800D01*
X352200Y148653D02*
Y154882D01*
X352182Y154900D02*
X352200Y154882D01*
X316047Y61400D02*
X317247Y62600D01*
X340348Y36652D02*
X340500Y36804D01*
Y42300D01*
X360000Y49647D02*
X361200Y48447D01*
X381700Y49647D02*
X382400Y48947D01*
X416553Y133500D02*
X420400D01*
X423000Y130900D01*
X421900Y71400D02*
X423000D01*
X310800Y61400D02*
X316047D01*
X311000Y107900D02*
X317147D01*
X311457Y133443D02*
X316300Y128600D01*
X323153Y121553D02*
Y135800D01*
X306622Y241000D02*
X308591D01*
X334500Y55153D02*
X342700D01*
X334500D02*
Y57200D01*
X337800Y60500D01*
X316247Y87300D02*
X317147Y88200D01*
X310400Y87300D02*
X316247D01*
D36*
X533000Y106253D02*
Y111000D01*
X340953Y126900D02*
X347300D01*
X184753Y76100D02*
Y88247D01*
X174663Y98337D02*
X184753Y88247D01*
X156900Y98337D02*
X174663D01*
X156900D02*
Y108500D01*
X189700Y76100D02*
X192000Y73800D01*
X184753Y76100D02*
X189700D01*
X192000Y57300D02*
Y73800D01*
X532900Y106153D02*
X533000Y106253D01*
X585679Y243200D02*
X613800D01*
X574700Y201300D02*
Y229700D01*
Y174779D02*
Y201300D01*
X585900Y161600D02*
X614900D01*
X75700Y174979D02*
Y202700D01*
X86479Y159400D02*
X113900D01*
X141400D01*
X58563Y263000D02*
X59063Y263500D01*
X51500Y263000D02*
X58563D01*
X47963Y243500D02*
X48000Y243537D01*
Y251000D01*
X164337Y139600D02*
X170900D01*
X173500Y251137D02*
X180363D01*
X555000Y248437D02*
X561437D01*
X641000Y283437D02*
X648063D01*
X613800Y243200D02*
X640600D01*
X614900Y161600D02*
X640821D01*
X651400Y175300D02*
Y202400D01*
Y230221D01*
X75700Y202700D02*
Y229900D01*
X153900Y202400D02*
Y229900D01*
X663563Y250437D02*
X671000D01*
X391300Y78053D02*
Y86200D01*
X662437Y142000D02*
X669000D01*
X675475Y44413D02*
X685939D01*
X114600Y244100D02*
X141400D01*
X86479D02*
X114600D01*
X184753Y69447D02*
Y76100D01*
X169600Y56800D02*
X169900Y38100D01*
X340500Y127353D02*
X340953Y126900D01*
X532900Y100247D02*
X533100Y100047D01*
X533653Y100600D01*
X539700D01*
X390953Y71800D02*
X391300Y72147D01*
X384600Y71800D02*
X390953D01*
X685939Y44413D02*
X688000Y42353D01*
Y36053D02*
Y42353D01*
X340500Y114400D02*
Y121447D01*
X153900Y174979D02*
Y202400D01*
D37*
X343300Y39100D02*
Y48447D01*
D38*
X654563Y142000D02*
Y148637D01*
X555000Y174794D02*
Y240563D01*
X66937Y263500D02*
X86194D01*
X641000Y263285D02*
Y275563D01*
X640600Y262885D02*
X641000Y263285D01*
X55837Y175157D02*
Y243500D01*
X585679Y262885D02*
X640600D01*
X585985Y142000D02*
X654563D01*
X173585Y229900D02*
Y231100D01*
Y243178D01*
X671000Y175385D02*
Y242563D01*
X86594Y139600D02*
X156463D01*
X86479Y263785D02*
X141400D01*
X173585Y174979D02*
Y229900D01*
X29200Y38200D02*
Y46747D01*
X29200Y38200D02*
X29200Y38200D01*
X29200Y38200D02*
Y39000D01*
D39*
X17500Y131000D02*
D03*
X656000Y335500D02*
D03*
X624000Y83500D02*
D03*
X21000Y379500D02*
D03*
D40*
X29000Y24500D02*
D03*
D41*
X19158D02*
D03*
X9315D02*
D03*
X29000Y14658D02*
D03*
X19158D02*
D03*
X9315D02*
D03*
D42*
X50600Y349000D02*
D03*
X67150D02*
D03*
X83690D02*
D03*
X100230D02*
D03*
Y370700D02*
D03*
X83690D02*
D03*
X67150D02*
D03*
X50600D02*
D03*
D43*
X641100Y392200D02*
D03*
X680200D02*
D03*
X293900Y53000D02*
D03*
D44*
X641100Y402200D02*
D03*
Y412200D02*
D03*
X680200Y402200D02*
D03*
Y412200D02*
D03*
X215000Y372000D02*
D03*
X526000D02*
D03*
X215300Y16800D02*
D03*
X293900Y43000D02*
D03*
Y33000D02*
D03*
Y23000D02*
D03*
Y13000D02*
D03*
X186200Y16800D02*
D03*
X597700Y372600D02*
D03*
X587700D02*
D03*
D45*
X344100Y187500D02*
D03*
X324415D02*
D03*
D46*
X645475Y44413D02*
D03*
Y24413D02*
D03*
X675475D02*
D03*
Y44413D02*
D03*
D47*
X205000Y372000D02*
D03*
X536000D02*
D03*
X205300Y16800D02*
D03*
X176200D02*
D03*
X577700Y372600D02*
D03*
D48*
X371594Y187700D02*
D03*
X46294Y106500D02*
D03*
D49*
X390806Y187700D02*
D03*
X65506Y106500D02*
D03*
D50*
X50800Y314800D02*
D03*
Y322674D02*
D03*
X83600Y314300D02*
D03*
Y322174D02*
D03*
D51*
X235900Y159900D02*
D03*
X246800D02*
D03*
X185900Y115000D02*
D03*
X177000Y120200D02*
D03*
X561100Y287100D02*
D03*
X521200Y288400D02*
D03*
D52*
X479300Y50000D02*
D03*
X534200D02*
D03*
X521300Y57000D02*
D03*
X517600Y53100D02*
D03*
X439000Y43300D02*
D03*
X533000Y111000D02*
D03*
X332500Y170000D02*
D03*
X359500Y80500D02*
D03*
X392500Y64000D02*
D03*
X285000Y256000D02*
D03*
X402067Y255567D02*
D03*
X391000Y267000D02*
D03*
X469055Y275055D02*
D03*
X533300Y57500D02*
D03*
X485000Y51400D02*
D03*
X393600Y60000D02*
D03*
X414000Y50500D02*
D03*
X384500Y66500D02*
D03*
X364000Y80000D02*
D03*
X363600Y70800D02*
D03*
X368000Y93000D02*
D03*
X362000Y105500D02*
D03*
X360000Y111000D02*
D03*
X368500Y75500D02*
D03*
X334500Y43500D02*
D03*
X483300Y65900D02*
D03*
X474300Y71000D02*
D03*
X479000Y67800D02*
D03*
X445600Y256700D02*
D03*
X419300Y264900D02*
D03*
X302547Y215553D02*
D03*
X308453Y215753D02*
D03*
X328800Y272600D02*
D03*
X279200Y241000D02*
D03*
X368000Y108000D02*
D03*
Y121500D02*
D03*
X362400Y133700D02*
D03*
X138500Y50500D02*
D03*
X156900Y108500D02*
D03*
X170500Y90000D02*
D03*
X172200Y62900D02*
D03*
X64200Y38800D02*
D03*
X9500Y114500D02*
D03*
X18800Y70800D02*
D03*
X11500Y106000D02*
D03*
X19653Y105653D02*
D03*
X89500Y114000D02*
D03*
X170500Y111000D02*
D03*
X494200Y372700D02*
D03*
X93800Y5000D02*
D03*
X84500Y107500D02*
D03*
X143100Y128200D02*
D03*
X168800D02*
D03*
X159900Y131400D02*
D03*
X151300Y123500D02*
D03*
X94300Y107600D02*
D03*
X116800Y105100D02*
D03*
X283300Y38200D02*
D03*
X84116Y69716D02*
D03*
X94200Y55800D02*
D03*
X246800Y122900D02*
D03*
X234000Y99400D02*
D03*
X433700Y278700D02*
D03*
X233500Y104300D02*
D03*
X110000Y109400D02*
D03*
X233600Y109000D02*
D03*
X54200Y56500D02*
D03*
X49300D02*
D03*
X44200D02*
D03*
X39300D02*
D03*
X74300Y91100D02*
D03*
X7800Y76700D02*
D03*
X49200Y89400D02*
D03*
X19653Y81853D02*
D03*
X344100Y212600D02*
D03*
X423000Y130900D02*
D03*
X428600Y57600D02*
D03*
X441141Y95941D02*
D03*
X453100Y96800D02*
D03*
X459600Y100400D02*
D03*
X311457Y133443D02*
D03*
X323153Y121553D02*
D03*
X327800Y107900D02*
D03*
X381600Y61600D02*
D03*
X340500Y114400D02*
D03*
X391300Y86200D02*
D03*
X405100Y88200D02*
D03*
X404900Y107300D02*
D03*
X393800Y137000D02*
D03*
X367900Y137300D02*
D03*
X352200Y137600D02*
D03*
X334500Y137300D02*
D03*
X613800Y243200D02*
D03*
X574700Y201300D02*
D03*
X614900Y161600D02*
D03*
X651400Y202400D02*
D03*
X75700Y202700D02*
D03*
X113900Y159400D02*
D03*
X153900Y202400D02*
D03*
X114600Y244100D02*
D03*
X51500Y263000D02*
D03*
X48000Y251000D02*
D03*
X170900Y139600D02*
D03*
X180363Y251137D02*
D03*
X561437Y248437D02*
D03*
X648063Y283437D02*
D03*
X531500Y146500D02*
D03*
X569500Y50000D02*
D03*
X611000Y14500D02*
D03*
X541500Y131000D02*
D03*
X511500Y104000D02*
D03*
X439900Y115900D02*
D03*
X549300Y102800D02*
D03*
X521700Y164300D02*
D03*
X246500Y371700D02*
D03*
X197400Y372000D02*
D03*
X654563Y148637D02*
D03*
X663563Y250437D02*
D03*
X574700Y315000D02*
D03*
X561900Y320400D02*
D03*
X664037Y242563D02*
D03*
X487200Y53500D02*
D03*
X346000Y323300D02*
D03*
X306300Y296900D02*
D03*
X352217Y301583D02*
D03*
X372296Y300796D02*
D03*
X364600Y326700D02*
D03*
X380600D02*
D03*
X372500Y319000D02*
D03*
X392700Y300600D02*
D03*
Y322500D02*
D03*
X402800Y322400D02*
D03*
Y300900D02*
D03*
X413563Y300537D02*
D03*
X428400Y307500D02*
D03*
X323053Y69453D02*
D03*
X335300Y300500D02*
D03*
X342600Y300600D02*
D03*
X328437Y296963D02*
D03*
X362900Y281400D02*
D03*
X362178Y300978D02*
D03*
X339100Y277900D02*
D03*
X349900Y275300D02*
D03*
X445100Y301700D02*
D03*
Y277000D02*
D03*
X377016Y420616D02*
D03*
X374800Y82162D02*
D03*
X359900Y61500D02*
D03*
X328300Y88200D02*
D03*
X311000Y107900D02*
D03*
X462200Y124900D02*
D03*
X427400Y156000D02*
D03*
X371500Y212800D02*
D03*
X390100Y212800D02*
D03*
X324400Y212800D02*
D03*
X252900Y51300D02*
D03*
X279000Y51400D02*
D03*
X401400Y43500D02*
D03*
X539200Y276600D02*
D03*
X394200Y174500D02*
D03*
X669000Y142000D02*
D03*
X11100Y154900D02*
D03*
X61800Y154100D02*
D03*
X56253Y125053D02*
D03*
X169600Y56800D02*
D03*
X169900Y38100D02*
D03*
X73900Y9400D02*
D03*
X104300Y44800D02*
D03*
X157000Y15700D02*
D03*
X173600Y76100D02*
D03*
X144500Y32800D02*
D03*
X146900Y52947D02*
D03*
X192000Y57300D02*
D03*
X99100Y65600D02*
D03*
X452400Y21800D02*
D03*
X422300Y95800D02*
D03*
X439000Y24200D02*
D03*
X402100Y102500D02*
D03*
X371600Y19700D02*
D03*
X429800Y43100D02*
D03*
X104000Y17300D02*
D03*
X307000Y13900D02*
D03*
X130100Y7300D02*
D03*
X117700Y19700D02*
D03*
X97000Y26500D02*
D03*
X300700Y13100D02*
D03*
X129800Y12500D02*
D03*
X99200Y16200D02*
D03*
X212900Y117600D02*
D03*
X626300Y311300D02*
D03*
X192182Y44382D02*
D03*
X404200Y69600D02*
D03*
X545900Y292600D02*
D03*
X321900Y314400D02*
D03*
X588872Y311573D02*
D03*
X535300Y312200D02*
D03*
X429800Y24900D02*
D03*
X399550Y62650D02*
D03*
X489500Y55500D02*
D03*
X435100Y68600D02*
D03*
X447900Y71300D02*
D03*
X442900D02*
D03*
X425400Y88900D02*
D03*
X468645Y94245D02*
D03*
X433500Y96800D02*
D03*
X422600Y108800D02*
D03*
X468100Y127600D02*
D03*
X500700Y127100D02*
D03*
X501400Y123900D02*
D03*
X532900Y129200D02*
D03*
X551300Y113600D02*
D03*
X525600Y86600D02*
D03*
X448900Y155800D02*
D03*
X420700Y155300D02*
D03*
X351000Y155700D02*
D03*
X310800Y61400D02*
D03*
X100100Y44600D02*
D03*
X104400Y30200D02*
D03*
X117100Y30500D02*
D03*
X185700Y59400D02*
D03*
X196300Y60800D02*
D03*
X366900Y154600D02*
D03*
X400500Y158900D02*
D03*
X382100Y174600D02*
D03*
X348900Y35700D02*
D03*
X348000Y30900D02*
D03*
X340500Y42300D02*
D03*
X343300Y39100D02*
D03*
X361200Y43000D02*
D03*
X539800Y154600D02*
D03*
X531500Y157900D02*
D03*
X542500Y157400D02*
D03*
X493600Y72100D02*
D03*
X498000D02*
D03*
X436900Y74000D02*
D03*
X382400Y42500D02*
D03*
X538000Y315200D02*
D03*
X538600Y305000D02*
D03*
X575400Y299400D02*
D03*
X596700Y292900D02*
D03*
X610900Y297200D02*
D03*
X404800Y132100D02*
D03*
X531800Y75700D02*
D03*
X44500Y27700D02*
D03*
X191500Y35000D02*
D03*
X505300Y134300D02*
D03*
X423000Y71400D02*
D03*
X613500Y321500D02*
D03*
X109000Y44500D02*
D03*
X535900Y300700D02*
D03*
X510800Y74500D02*
D03*
X516300Y95700D02*
D03*
X514100Y72300D02*
D03*
X505700Y72600D02*
D03*
X395600Y158700D02*
D03*
X391700Y158600D02*
D03*
X387100Y158700D02*
D03*
X517200Y75100D02*
D03*
X514100Y99800D02*
D03*
X330400Y161400D02*
D03*
X333800Y158100D02*
D03*
X449800Y99900D02*
D03*
X589000Y316100D02*
D03*
X399200Y98600D02*
D03*
X371400Y14500D02*
D03*
X92700Y24000D02*
D03*
X84900Y26400D02*
D03*
X337800Y60500D02*
D03*
X103100Y69900D02*
D03*
X537900Y93800D02*
D03*
X539700Y100600D02*
D03*
X384600Y71800D02*
D03*
X120047Y44953D02*
D03*
X131500Y28300D02*
D03*
X130600Y57000D02*
D03*
X429937Y271163D02*
D03*
X329100Y195400D02*
D03*
X365800Y57900D02*
D03*
X347300Y126900D02*
D03*
X347700Y162400D02*
D03*
X334181Y246981D02*
D03*
X349929Y246771D02*
D03*
X365677Y246723D02*
D03*
X342100Y172600D02*
D03*
X344300Y156900D02*
D03*
X341600Y167700D02*
D03*
X360956Y76256D02*
D03*
X367700Y62900D02*
D03*
X331500Y205000D02*
D03*
X344500Y63500D02*
D03*
X394900Y124000D02*
D03*
X401900Y118900D02*
D03*
X404000Y122500D02*
D03*
X397000Y126500D02*
D03*
X373600Y158900D02*
D03*
X377700Y158800D02*
D03*
X382100D02*
D03*
X302800Y38200D02*
D03*
X314400Y43800D02*
D03*
X307800Y41700D02*
D03*
X327100Y94300D02*
D03*
X297000Y64205D02*
D03*
X430600Y134100D02*
D03*
X351898Y230902D02*
D03*
X311900Y152300D02*
D03*
X310600Y68500D02*
D03*
X310400Y87300D02*
D03*
X301100Y107200D02*
D03*
X300700Y101800D02*
D03*
X293600Y121900D02*
D03*
X274300Y106000D02*
D03*
X275200Y111700D02*
D03*
X289200Y111800D02*
D03*
X288700Y107800D02*
D03*
X289500Y152000D02*
D03*
X288900Y157100D02*
D03*
X357100Y230300D02*
D03*
X378700Y213000D02*
D03*
X376400Y220500D02*
D03*
Y228300D02*
D03*
X368100Y232500D02*
D03*
X372300Y227800D02*
D03*
Y221900D02*
D03*
X362400Y229300D02*
D03*
X414100Y174800D02*
D03*
X423900Y137200D02*
D03*
X330000Y154800D02*
D03*
X334000Y154900D02*
D03*
X321100Y173400D02*
D03*
X316900Y168400D02*
D03*
X316800Y157200D02*
D03*
X321600Y168300D02*
D03*
X321400Y159400D02*
D03*
X324600Y158800D02*
D03*
X290300Y184000D02*
D03*
X255100Y212200D02*
D03*
X316700Y182000D02*
D03*
X30100Y89800D02*
D03*
X64200Y64600D02*
D03*
X78300Y107500D02*
D03*
X121800Y36600D02*
D03*
X394000Y240600D02*
D03*
X378300Y248100D02*
D03*
X291200Y125300D02*
D03*
X336200Y161400D02*
D03*
X331400Y165400D02*
D03*
X29200Y39000D02*
D03*
X89500Y61600D02*
D03*
X334900Y328300D02*
D03*
X309800Y54800D02*
D03*
X421500Y53100D02*
D03*
M02*
