%FSLAX25Y25*%
%MOIN*%
G70*
G01*
G75*
%ADD10C,0.02000*%
%ADD11C,0.01000*%
%ADD12R,0.06000X0.06000*%
%ADD13O,0.03937X0.01969*%
%ADD14R,0.03937X0.01969*%
%ADD15C,0.01500*%
%ADD16C,0.06000*%
%ADD17C,0.05315*%
%ADD18R,0.05315X0.05315*%
%ADD19R,0.05906X0.05906*%
%ADD20C,0.05906*%
%ADD21C,0.00787*%
D11*
X246300Y298998D02*
X250299Y295000D01*
X246300D02*
X250299Y298998D01*
X246300Y296999D02*
X250299D01*
X248299Y295000D02*
Y298998D01*
X212100Y330398D02*
Y324400D01*
X215099D01*
X216099Y325400D01*
Y329398D01*
X215099Y330398D01*
X212100D01*
X218098Y324400D02*
X220097D01*
X219098D01*
Y330398D01*
X218098Y329398D01*
X257199Y333398D02*
X256199Y334398D01*
X254200D01*
X253200Y333398D01*
Y329400D01*
X254200Y328400D01*
X256199D01*
X257199Y329400D01*
X259198Y328400D02*
X261197D01*
X260198D01*
Y334398D01*
X259198Y333398D01*
X291100Y310400D02*
Y316398D01*
X294099D01*
X295099Y315398D01*
Y313399D01*
X294099Y312399D01*
X291100D01*
X297098Y310400D02*
X299097D01*
X298098D01*
Y316398D01*
X297098Y315398D01*
X277199Y332398D02*
X276199Y333398D01*
X274200D01*
X273200Y332398D01*
Y328400D01*
X274200Y327400D01*
X276199D01*
X277199Y328400D01*
X283197Y327400D02*
X279198D01*
X283197Y331399D01*
Y332398D01*
X282197Y333398D01*
X280198D01*
X279198Y332398D01*
X254650Y266248D02*
Y261250D01*
X255650Y260250D01*
X257649D01*
X258649Y261250D01*
Y266248D01*
X260648Y260250D02*
X262647D01*
X261648D01*
Y266248D01*
X260648Y265248D01*
X290600Y270400D02*
Y276398D01*
X293599D01*
X294599Y275398D01*
Y273399D01*
X293599Y272399D01*
X290600D01*
X296598Y275398D02*
X297598Y276398D01*
X299597D01*
X300597Y275398D01*
Y274399D01*
X299597Y273399D01*
X298597D01*
X299597D01*
X300597Y272399D01*
Y271400D01*
X299597Y270400D01*
X297598D01*
X296598Y271400D01*
X220600Y270900D02*
Y276898D01*
X223599D01*
X224599Y275898D01*
Y273899D01*
X223599Y272899D01*
X220600D01*
X230597Y270900D02*
X226598D01*
X230597Y274899D01*
Y275898D01*
X229597Y276898D01*
X227598D01*
X226598Y275898D01*
D15*
X247750Y284000D02*
Y291500D01*
Y276000D02*
Y284000D01*
Y291500D02*
X268250D01*
Y276000D02*
Y291500D01*
X247750Y276000D02*
X268250D01*
D21*
X257226Y319661D02*
G03*
X256268Y305860I3274J-7161D01*
G01*
X264732D02*
G03*
X263774Y319661I-4232J6640D01*
G01*
X277226Y318661D02*
G03*
X276268Y304860I3274J-7161D01*
G01*
X284732D02*
G03*
X283774Y318661I-4232J6640D01*
G01*
X258018Y256870D02*
G03*
X259888Y256870I935J0D01*
G01*
X246500Y306000D02*
Y321000D01*
X211500Y306000D02*
X246500D01*
X211500D02*
Y321000D01*
X246500D01*
X300500Y277000D02*
Y307000D01*
X290500D02*
X300500D01*
X290500Y277000D02*
Y307000D01*
Y277000D02*
X300500D01*
X261256Y245650D02*
Y256870D01*
X256650Y245650D02*
X261256D01*
X256650D02*
Y256870D01*
X259888D01*
X258018D02*
X261256D01*
X290000Y237000D02*
Y267000D01*
Y237000D02*
X300000D01*
Y267000D01*
X290000D02*
X300000D01*
X230000Y237500D02*
Y267500D01*
X220000D02*
X230000D01*
X220000Y237500D02*
Y267500D01*
Y237500D02*
X230000D01*
M02*
