%FSLAX25Y25*%
%MOIN*%
G70*
G01*
G75*
G04 Layer_Physical_Order=1*
G04 Layer_Color=255*
%ADD10C,0.02000*%
%ADD11C,0.01000*%
%ADD12R,0.06000X0.06000*%
%ADD13O,0.03937X0.01969*%
%ADD14R,0.03937X0.01969*%
%ADD15C,0.01500*%
%ADD16C,0.06000*%
%ADD17C,0.05315*%
%ADD18R,0.05315X0.05315*%
%ADD19R,0.05906X0.05906*%
%ADD20C,0.05906*%
G36*
X309200Y231300D02*
X205800D01*
Y334200D01*
X309200D01*
Y231300D01*
D02*
G37*
%LPC*%
G36*
X239000Y321539D02*
X237432Y321384D01*
X235924Y320927D01*
X234534Y320184D01*
X233316Y319184D01*
X232316Y317966D01*
X231573Y316576D01*
X231116Y315068D01*
X230961Y313500D01*
X231116Y311932D01*
X231573Y310424D01*
X232316Y309034D01*
X233316Y307816D01*
X234534Y306816D01*
X235924Y306073D01*
X237432Y305616D01*
X239000Y305461D01*
X240568Y305616D01*
X242076Y306073D01*
X242287Y306186D01*
X245469Y303005D01*
X245277Y302543D01*
X237430D01*
X236801Y302460D01*
X236171Y302383D01*
X236149Y302374D01*
X236125Y302371D01*
X235538Y302128D01*
X234950Y301891D01*
X234931Y301877D01*
X234909Y301868D01*
X234405Y301481D01*
X233898Y301100D01*
X233883Y301081D01*
X233864Y301066D01*
X233478Y300562D01*
X233087Y300063D01*
X233077Y300041D01*
X233063Y300022D01*
X232820Y299435D01*
X232572Y298851D01*
X232568Y298828D01*
X232559Y298805D01*
X232476Y298176D01*
X232415Y297744D01*
X231941Y297586D01*
X225029Y304497D01*
Y308236D01*
X225684Y309034D01*
X226427Y310424D01*
X226884Y311932D01*
X227039Y313500D01*
X226884Y315068D01*
X226427Y316576D01*
X225684Y317966D01*
X224684Y319184D01*
X223466Y320184D01*
X222076Y320927D01*
X220568Y321384D01*
X219000Y321539D01*
X217432Y321384D01*
X215924Y320927D01*
X214534Y320184D01*
X213316Y319184D01*
X212316Y317966D01*
X211573Y316576D01*
X211116Y315068D01*
X210961Y313500D01*
X211116Y311932D01*
X211573Y310424D01*
X212316Y309034D01*
X212971Y308236D01*
Y302000D01*
X213087Y300824D01*
X213430Y299693D01*
X213987Y298651D01*
X214737Y297737D01*
X232224Y280250D01*
X232141Y271529D01*
X228000D01*
X226824Y271413D01*
X225693Y271070D01*
X224651Y270513D01*
X224573Y270449D01*
X223441Y270338D01*
X221942Y269883D01*
X220560Y269145D01*
X219349Y268151D01*
X218355Y266940D01*
X217617Y265558D01*
X217162Y264059D01*
X217009Y262500D01*
X217162Y260941D01*
X217617Y259442D01*
X218355Y258060D01*
X219349Y256849D01*
X220560Y255855D01*
X221661Y255267D01*
X221766Y254779D01*
X221547Y254493D01*
X221149Y253532D01*
X221079Y253000D01*
X228921D01*
X228851Y253532D01*
X228453Y254493D01*
X228234Y254779D01*
X228339Y255267D01*
X229440Y255855D01*
X230651Y256849D01*
X231541Y257934D01*
X232011Y257764D01*
X232011Y257692D01*
X232012Y257680D01*
X232010Y257668D01*
X232092Y257025D01*
X232170Y256385D01*
X232174Y256374D01*
X232176Y256362D01*
X232421Y255763D01*
X232662Y255164D01*
X232669Y255154D01*
X232674Y255143D01*
X233065Y254629D01*
X233454Y254112D01*
X233463Y254104D01*
X233471Y254095D01*
X233822Y253740D01*
X233832Y253732D01*
X233839Y253723D01*
X234353Y253328D01*
X234863Y252933D01*
X234874Y252929D01*
X234884Y252921D01*
X235481Y252674D01*
X236077Y252424D01*
X236089Y252422D01*
X236100Y252418D01*
X236740Y252333D01*
X237381Y252246D01*
X237393Y252247D01*
X237405Y252246D01*
X243728D01*
X245237Y250737D01*
X245387Y250613D01*
X245412Y250114D01*
X244995Y249697D01*
X244651Y249513D01*
X243737Y248763D01*
X243503Y248529D01*
X232953D01*
Y250453D01*
X228880D01*
X228603Y250869D01*
X228851Y251468D01*
X228921Y252000D01*
X221079D01*
X221149Y251468D01*
X221397Y250869D01*
X221120Y250453D01*
X217047D01*
Y234547D01*
X232953D01*
Y236471D01*
X246000D01*
X247176Y236587D01*
X248307Y236930D01*
X249349Y237487D01*
X250263Y238237D01*
X252263Y240237D01*
X253013Y241150D01*
X253197Y241495D01*
X253422Y241720D01*
X253519D01*
X253738Y241654D01*
X253847Y241609D01*
Y241609D01*
X253859Y241620D01*
X255016Y241507D01*
X256984D01*
X258157Y241622D01*
X258953Y241863D01*
X259748Y241622D01*
X260921Y241507D01*
X262890D01*
X264046Y241620D01*
X264059Y241609D01*
Y241609D01*
X264168Y241654D01*
X264386Y241720D01*
X266078D01*
X266303Y241495D01*
X266487Y241150D01*
X267237Y240237D01*
X269737Y237737D01*
X270651Y236987D01*
X271693Y236430D01*
X272824Y236087D01*
X274000Y235971D01*
X289810D01*
X290560Y235355D01*
X291942Y234617D01*
X293441Y234162D01*
X295000Y234009D01*
X296559Y234162D01*
X298058Y234617D01*
X299440Y235355D01*
X300651Y236349D01*
X301644Y237560D01*
X302383Y238942D01*
X302838Y240441D01*
X302991Y242000D01*
X302838Y243559D01*
X302383Y245058D01*
X301644Y246440D01*
X301185Y247000D01*
X301644Y247560D01*
X302383Y248942D01*
X302838Y250441D01*
X302991Y252000D01*
X302838Y253559D01*
X302766Y253795D01*
X302953Y254047D01*
X302953D01*
Y269953D01*
X287543D01*
Y286103D01*
X287945Y286401D01*
X288981Y286087D01*
X290158Y285971D01*
X290310D01*
X291060Y285355D01*
X291547Y285095D01*
Y282500D01*
X299453D01*
Y285095D01*
X299940Y285355D01*
X301151Y286349D01*
X302145Y287560D01*
X302883Y288942D01*
X303338Y290441D01*
X303491Y292000D01*
X303338Y293559D01*
X302883Y295058D01*
X302145Y296440D01*
X301685Y297000D01*
X302145Y297560D01*
X302883Y298942D01*
X303338Y300441D01*
X303491Y302000D01*
X303338Y303559D01*
X302883Y305058D01*
X302145Y306440D01*
X301529Y307190D01*
Y308000D01*
X301413Y309176D01*
X301070Y310307D01*
X300513Y311350D01*
X299763Y312263D01*
X296263Y315763D01*
X295350Y316513D01*
X294307Y317070D01*
X293176Y317413D01*
X292000Y317529D01*
X282132D01*
X282035Y318019D01*
X282345Y318148D01*
X283109Y318734D01*
X283695Y319498D01*
X284063Y320388D01*
X284123Y320843D01*
X276877D01*
X276937Y320388D01*
X277305Y319498D01*
X277891Y318734D01*
X278656Y318148D01*
X278965Y318019D01*
X278868Y317529D01*
X269342D01*
X268166Y317413D01*
X267035Y317070D01*
X265993Y316513D01*
X265079Y315763D01*
X259631Y310315D01*
X255211D01*
X247763Y317763D01*
X246849Y318513D01*
X245807Y319070D01*
X244676Y319413D01*
X244368Y319443D01*
X243466Y320184D01*
X242076Y320927D01*
X240568Y321384D01*
X239000Y321539D01*
D02*
G37*
G36*
X260000Y321843D02*
X256877D01*
X256937Y321388D01*
X257305Y320498D01*
X257892Y319734D01*
X258656Y319148D01*
X259545Y318779D01*
X260000Y318719D01*
Y321843D01*
D02*
G37*
G36*
X295000Y281500D02*
X291547D01*
Y278047D01*
X295000D01*
Y281500D01*
D02*
G37*
G36*
X299453D02*
X296000D01*
Y278047D01*
X299453D01*
Y281500D01*
D02*
G37*
G36*
X261000Y325966D02*
Y322843D01*
X264123D01*
X264063Y323297D01*
X263695Y324187D01*
X263109Y324951D01*
X262345Y325537D01*
X261455Y325906D01*
X261000Y325966D01*
D02*
G37*
G36*
X260000D02*
X259545Y325906D01*
X258656Y325537D01*
X257892Y324951D01*
X257305Y324187D01*
X256937Y323297D01*
X256877Y322843D01*
X260000D01*
Y325966D01*
D02*
G37*
G36*
X281000Y324966D02*
Y321843D01*
X284123D01*
X284063Y322297D01*
X283695Y323187D01*
X283109Y323951D01*
X282345Y324537D01*
X281455Y324906D01*
X281000Y324966D01*
D02*
G37*
G36*
X264123Y321843D02*
X261000D01*
Y318719D01*
X261455Y318779D01*
X262345Y319148D01*
X263109Y319734D01*
X263695Y320498D01*
X264063Y321388D01*
X264123Y321843D01*
D02*
G37*
G36*
X280000Y324966D02*
X279545Y324906D01*
X278656Y324537D01*
X277891Y323951D01*
X277305Y323187D01*
X276937Y322297D01*
X276877Y321843D01*
X280000D01*
Y324966D01*
D02*
G37*
%LPD*%
G36*
X281000Y297500D02*
X282500D01*
Y257289D01*
X269240D01*
X268064Y257173D01*
X267690Y257060D01*
X264386D01*
X264168Y257126D01*
X264059Y257171D01*
Y257171D01*
X264046Y257159D01*
X262968Y257265D01*
Y260984D01*
X260543D01*
Y295000D01*
X268158D01*
Y297500D01*
X280000D01*
Y301658D01*
X281000D01*
Y297500D01*
D02*
G37*
G36*
X252035Y297087D02*
X252842Y296843D01*
Y295000D01*
X255500D01*
Y257552D01*
X255366Y257301D01*
X255357Y257273D01*
X255016D01*
X253859Y257159D01*
X253847Y257171D01*
Y257171D01*
X253738Y257126D01*
X253519Y257060D01*
X249810D01*
X249436Y257173D01*
X248260Y257289D01*
X237405D01*
X237053Y257644D01*
X237430Y297500D01*
X251263D01*
X252035Y297087D01*
D02*
G37*
%LPC*%
G36*
X248250Y283500D02*
X244750D01*
Y280000D01*
X248250D01*
Y283500D01*
D02*
G37*
G36*
X252750D02*
X249250D01*
Y280000D01*
X252750D01*
Y283500D01*
D02*
G37*
G36*
Y288000D02*
X249250D01*
Y284500D01*
X252750D01*
Y288000D01*
D02*
G37*
G36*
X266750D02*
X263250D01*
Y284500D01*
X266750D01*
Y288000D01*
D02*
G37*
G36*
X271250D02*
X267750D01*
Y284500D01*
X271250D01*
Y288000D01*
D02*
G37*
G36*
X266750Y283500D02*
X263250D01*
Y280000D01*
X266750D01*
Y283500D01*
D02*
G37*
G36*
X271250D02*
X267750D01*
Y280000D01*
X271250D01*
Y283500D01*
D02*
G37*
G36*
X248250Y288000D02*
X244750D01*
Y284500D01*
X248250D01*
Y288000D01*
D02*
G37*
%LPD*%
D10*
X225151Y264447D02*
G03*
X228000Y265500I281J3621D01*
G01*
X228000Y265500D02*
G03*
X226947Y262651I2568J-2568D01*
G01*
X224967Y252467D02*
G03*
X227880Y251260I2913J2913D01*
G01*
X226381Y253881D02*
G03*
X232708Y251260I6328J6328D01*
G01*
X223619Y251119D02*
G03*
X220286Y252500I-3334J-3334D01*
G01*
D02*
G03*
X223619Y253881I0J4714D01*
G01*
X226381Y243881D02*
G03*
X229714Y242500I3334J3334D01*
G01*
D02*
G03*
X226381Y241119I0J-4714D01*
G01*
X293619Y240619D02*
G03*
X290286Y242000I-3334J-3334D01*
G01*
D02*
G03*
X293619Y243381I0J4714D01*
G01*
Y250619D02*
G03*
X292073Y251260I-1547J-1547D01*
G01*
X288499D02*
G03*
X293619Y253381I0J7241D01*
G01*
X295033Y262033D02*
G03*
X291493Y263500I-3541J-3541D01*
G01*
X293619Y260619D02*
G03*
X286664Y263500I-6955J-6955D01*
G01*
X281672Y300485D02*
G03*
X280500Y297656I2829J-2829D01*
G01*
D02*
G03*
X279328Y300485I-4002J0D01*
G01*
X282157Y301658D02*
G03*
X283330Y298828I4002J0D01*
G01*
X283330Y298828D02*
G03*
X280500Y300000I-2829J-2829D01*
G01*
X281672Y322515D02*
G03*
X284502Y321342I2829J2829D01*
G01*
D02*
G03*
X281672Y320170I0J-4002D01*
G01*
X279328D02*
G03*
X276499Y321342I-2829J-2829D01*
G01*
D02*
G03*
X279328Y322515I0J4002D01*
G01*
X294119Y303381D02*
G03*
X295500Y306714I-3334J3334D01*
G01*
D02*
G03*
X296881Y303381I4714J0D01*
G01*
X294119Y290619D02*
G03*
X290786Y292000I-3334J-3334D01*
G01*
D02*
G03*
X294119Y293381I0J4714D01*
G01*
X297453Y282000D02*
G03*
X298834Y278666I4714J0D01*
G01*
X298834Y278666D02*
G03*
X295500Y280047I-3334J-3334D01*
G01*
X296881Y283381D02*
G03*
X300214Y282000I3334J3334D01*
G01*
D02*
G03*
X296881Y280619I0J-4714D01*
G01*
X260500Y304315D02*
G03*
X263330Y305487I0J4002D01*
G01*
X263330Y305487D02*
G03*
X262158Y302658I2829J-2829D01*
G01*
X259328Y301485D02*
G03*
X256499Y302658I-2829J-2829D01*
G01*
D02*
G03*
X259328Y303830I0J4002D01*
G01*
X261672Y323515D02*
G03*
X266916Y321342I5244J5244D01*
G01*
X220414Y312086D02*
G03*
X219000Y308672I3414J-3414D01*
G01*
D02*
G03*
X217586Y312086I-4828J0D01*
G01*
X240485Y314840D02*
G03*
X243500Y313500I3015J2722D01*
G01*
D02*
G03*
X240485Y312160I0J-4062D01*
G01*
X247336Y282586D02*
G03*
X243922Y284000I-3414J-3414D01*
G01*
D02*
G03*
X247336Y285414I0J4828D01*
G01*
X273329Y281671D02*
G03*
X267250Y284000I-5650J-5650D01*
G01*
X276500Y278500D02*
G03*
X267357Y282003I-8498J-8498D01*
G01*
X268911Y285114D02*
G03*
X271000Y284000I2089J1401D01*
G01*
D02*
G03*
X268911Y282886I0J-2515D01*
G01*
X240500Y264000D02*
Y265500D01*
Y264000D02*
X249500Y255000D01*
X220000Y252500D02*
X225000D01*
X214500Y247000D02*
X220000Y252500D01*
X214500Y235000D02*
Y247000D01*
Y235000D02*
X217500Y232000D01*
X298000D01*
X302500Y236500D01*
Y275000D01*
X295500Y282000D02*
X302500Y275000D01*
X260500Y322342D02*
X261500Y321342D01*
X280500D01*
X292657D01*
X307500Y306500D01*
Y285500D02*
Y306500D01*
X304000Y282000D02*
X307500Y285500D01*
X295500Y282000D02*
X304000D01*
X276500Y278500D02*
X280500Y282500D01*
Y301658D01*
X290158Y292000D01*
X295500D01*
Y302000D02*
Y308000D01*
X292000Y311500D02*
X295500Y308000D01*
X269342Y311500D02*
X292000D01*
X260500Y302658D02*
X269342Y311500D01*
X254343Y302658D02*
X260500D01*
X243500Y313500D02*
X254343Y302658D01*
X239000Y313500D02*
X243500D01*
X219000Y302000D02*
Y313500D01*
Y302000D02*
X239000Y282000D01*
X240500D01*
X274000Y242000D02*
X295000D01*
X271500Y244500D02*
X274000Y242000D01*
X294260Y251260D02*
X295000Y252000D01*
X269240Y251260D02*
X294260D01*
X225000Y242500D02*
X246000D01*
X248000Y244500D01*
X225000Y252500D02*
X226240Y251260D01*
X248260D01*
X225000Y262500D02*
X228000Y265500D01*
X240500D01*
X293500Y263500D02*
X295000Y262000D01*
X276500Y263500D02*
X293500D01*
X267250Y284000D02*
X271000D01*
X276500Y278500D01*
Y263500D02*
Y278500D01*
X268000Y255000D02*
X276500Y263500D01*
X242500Y284000D02*
X248750D01*
X240500Y282000D02*
X242500Y284000D01*
X240500Y265500D02*
Y282000D01*
D11*
X254673Y250917D02*
G03*
X253847Y251260I-827J-827D01*
G01*
D02*
G03*
X254673Y251602I0J1169D01*
G01*
Y247177D02*
G03*
X253847Y247520I-827J-827D01*
G01*
D02*
G03*
X254673Y247862I0J1169D01*
G01*
X263232Y255342D02*
G03*
X264059Y255000I827J827D01*
G01*
D02*
G03*
X263232Y254658I0J-1169D01*
G01*
Y251602D02*
G03*
X264059Y251260I827J827D01*
G01*
D02*
G03*
X263232Y250917I0J-1169D01*
G01*
Y247862D02*
G03*
X264059Y247520I827J827D01*
G01*
D02*
G03*
X263232Y247177I0J-1169D01*
G01*
D12*
X267250Y284000D02*
D03*
X248750D02*
D03*
D13*
X261906Y247520D02*
D03*
Y251260D02*
D03*
Y255000D02*
D03*
X256000Y247520D02*
D03*
Y251260D02*
D03*
D14*
Y255000D02*
D03*
D15*
X249500D02*
X256000D01*
X268480Y247520D02*
X271500Y244500D01*
X261906Y247520D02*
X268480D01*
X261906Y251260D02*
X269240D01*
X248000Y244500D02*
X251020Y247520D01*
X256000D01*
X248260Y251260D02*
X256000D01*
X261906Y255000D02*
X268000D01*
D16*
X239000Y313500D02*
D03*
X219000D02*
D03*
D17*
X260500Y322342D02*
D03*
X280500Y321342D02*
D03*
D18*
X260500Y302658D02*
D03*
X280500Y301658D02*
D03*
D19*
X295500Y282000D02*
D03*
X295000Y262000D02*
D03*
X225000Y242500D02*
D03*
D20*
X295500Y292000D02*
D03*
Y302000D02*
D03*
X295000Y252000D02*
D03*
Y242000D02*
D03*
X225000Y252500D02*
D03*
Y262500D02*
D03*
M02*
