%FSLAX25Y25*%
%MOIN*%
G70*
G01*
G75*
G04 Layer_Physical_Order=2*
G04 Layer_Color=16711680*
%ADD10C,0.03000*%
%ADD11C,0.02000*%
%ADD12C,0.01000*%
%ADD13C,0.01500*%
%ADD14C,0.01200*%
%ADD15O,0.02756X0.01181*%
%ADD16R,0.02756X0.01181*%
%ADD17O,0.04724X0.01221*%
%ADD18R,0.04724X0.01221*%
%ADD19R,0.06693X0.13000*%
G04:AMPARAMS|DCode=20|XSize=66.93mil|YSize=130mil|CornerRadius=0mil|HoleSize=0mil|Usage=FLASHONLY|Rotation=180.000|XOffset=0mil|YOffset=0mil|HoleType=Round|Shape=Octagon|*
%AMOCTAGOND20*
4,1,8,0.01673,-0.06500,-0.01673,-0.06500,-0.03347,-0.04827,-0.03347,0.04827,-0.01673,0.06500,0.01673,0.06500,0.03347,0.04827,0.03347,-0.04827,0.01673,-0.06500,0.0*
%
%ADD20OCTAGOND20*%

G04:AMPARAMS|DCode=21|XSize=78.74mil|YSize=98.43mil|CornerRadius=0mil|HoleSize=0mil|Usage=FLASHONLY|Rotation=180.000|XOffset=0mil|YOffset=0mil|HoleType=Round|Shape=Octagon|*
%AMOCTAGOND21*
4,1,8,0.01969,-0.04921,-0.01969,-0.04921,-0.03937,-0.02953,-0.03937,0.02953,-0.01969,0.04921,0.01969,0.04921,0.03937,0.02953,0.03937,-0.02953,0.01969,-0.04921,0.0*
%
%ADD21OCTAGOND21*%

%ADD22R,0.07874X0.09843*%
%ADD23R,0.04331X0.05512*%
%ADD24R,0.10906X0.16732*%
%ADD25R,0.05906X0.05512*%
%ADD26R,0.06000X0.06000*%
%ADD27R,0.05500X0.03000*%
%ADD28O,0.05500X0.03000*%
%ADD29R,0.05512X0.05906*%
%ADD30R,0.04331X0.06693*%
%ADD31R,0.05512X0.02559*%
G04:AMPARAMS|DCode=32|XSize=55.12mil|YSize=25.59mil|CornerRadius=0mil|HoleSize=0mil|Usage=FLASHONLY|Rotation=180.000|XOffset=0mil|YOffset=0mil|HoleType=Round|Shape=Octagon|*
%AMOCTAGOND32*
4,1,8,-0.02756,0.00640,-0.02756,-0.00640,-0.02116,-0.01280,0.02116,-0.01280,0.02756,-0.00640,0.02756,0.00640,0.02116,0.01280,-0.02116,0.01280,-0.02756,0.00640,0.0*
%
%ADD32OCTAGOND32*%

%ADD33R,0.08661X0.12795*%
%ADD34O,0.08661X0.03937*%
%ADD35R,0.08661X0.03937*%
%ADD36R,0.16732X0.10906*%
%ADD37R,0.04331X0.10236*%
%ADD38R,0.05512X0.04331*%
%ADD39R,0.28740X0.10433*%
%ADD40R,0.06496X0.01969*%
%ADD41O,0.06496X0.01969*%
%ADD42C,0.02500*%
%ADD43C,0.05906*%
%ADD44R,0.05906X0.05906*%
%ADD45C,0.06000*%
G36*
X352452Y64547D02*
X125048D01*
Y370452D01*
X352452D01*
Y64547D01*
D02*
G37*
%LPC*%
G36*
X172000Y146469D02*
X171456Y146397D01*
X170483Y145994D01*
X169647Y145353D01*
X169006Y144517D01*
X168603Y143544D01*
X168531Y143000D01*
X172000D01*
Y146469D01*
D02*
G37*
G36*
X205500Y165539D02*
X203932Y165384D01*
X202424Y164927D01*
X201034Y164184D01*
X199816Y163184D01*
X198816Y161966D01*
X198073Y160576D01*
X197616Y159068D01*
X197461Y157500D01*
X197616Y155932D01*
X198073Y154424D01*
X198816Y153034D01*
X199816Y151816D01*
X201034Y150816D01*
X202424Y150073D01*
X203932Y149616D01*
X205500Y149461D01*
X207068Y149616D01*
X208576Y150073D01*
X209966Y150816D01*
X210764Y151471D01*
X273503D01*
X277148Y147826D01*
X277573Y146424D01*
X278316Y145034D01*
X279316Y143816D01*
X280534Y142816D01*
X281924Y142073D01*
X283432Y141616D01*
X285000Y141461D01*
X286568Y141616D01*
X288076Y142073D01*
X289466Y142816D01*
X290684Y143816D01*
X291684Y145034D01*
X292427Y146424D01*
X292884Y147932D01*
X293039Y149500D01*
X292884Y151068D01*
X292427Y152576D01*
X291684Y153966D01*
X290684Y155184D01*
X289466Y156184D01*
X288076Y156927D01*
X286568Y157384D01*
X285000Y157539D01*
X284534Y157493D01*
X280263Y161763D01*
X279349Y162513D01*
X278307Y163070D01*
X277176Y163413D01*
X276000Y163529D01*
X210764D01*
X209966Y164184D01*
X208576Y164927D01*
X207068Y165384D01*
X205500Y165539D01*
D02*
G37*
G36*
X187500Y146469D02*
Y143000D01*
X190969D01*
X190897Y143544D01*
X190494Y144517D01*
X189853Y145353D01*
X189017Y145994D01*
X188044Y146397D01*
X187500Y146469D01*
D02*
G37*
G36*
X179000D02*
X178456Y146397D01*
X177483Y145994D01*
X176647Y145353D01*
X176250Y144835D01*
X175750D01*
X175353Y145353D01*
X174517Y145994D01*
X173544Y146397D01*
X173000Y146469D01*
Y142500D01*
Y138531D01*
X173544Y138603D01*
X174517Y139006D01*
X175353Y139647D01*
X175750Y140165D01*
X176250D01*
X176647Y139647D01*
X177483Y139006D01*
X178456Y138603D01*
X179000Y138531D01*
Y142500D01*
Y146469D01*
D02*
G37*
G36*
X186500D02*
X185956Y146397D01*
X184983Y145994D01*
X184147Y145353D01*
X183506Y144517D01*
X183500Y144503D01*
X183000D01*
X182994Y144517D01*
X182353Y145353D01*
X181517Y145994D01*
X180544Y146397D01*
X180000Y146469D01*
Y142500D01*
Y138531D01*
X180544Y138603D01*
X181517Y139006D01*
X182353Y139647D01*
X182994Y140483D01*
X183000Y140497D01*
X183500D01*
X183506Y140483D01*
X184147Y139647D01*
X184983Y139006D01*
X185956Y138603D01*
X186500Y138531D01*
Y142500D01*
Y146469D01*
D02*
G37*
G36*
X239500Y98469D02*
X238956Y98397D01*
X237983Y97994D01*
X237147Y97353D01*
X236506Y96517D01*
X236103Y95544D01*
X236031Y95000D01*
X239500D01*
Y98469D01*
D02*
G37*
G36*
X252500Y97969D02*
Y94500D01*
X255969D01*
X255897Y95044D01*
X255494Y96017D01*
X254853Y96853D01*
X254017Y97494D01*
X253044Y97897D01*
X252500Y97969D01*
D02*
G37*
G36*
X240500Y98469D02*
Y95000D01*
X243969D01*
X243897Y95544D01*
X243494Y96517D01*
X242853Y97353D01*
X242017Y97994D01*
X241044Y98397D01*
X240500Y98469D01*
D02*
G37*
G36*
X190969Y142000D02*
X187500D01*
Y138531D01*
X188044Y138603D01*
X189017Y139006D01*
X189853Y139647D01*
X190494Y140483D01*
X190897Y141456D01*
X190969Y142000D01*
D02*
G37*
G36*
X172000D02*
X168531D01*
X168603Y141456D01*
X169006Y140483D01*
X169647Y139647D01*
X170483Y139006D01*
X171456Y138603D01*
X172000Y138531D01*
Y142000D01*
D02*
G37*
G36*
Y151500D02*
X168531D01*
X168603Y150956D01*
X169006Y149983D01*
X169647Y149147D01*
X170483Y148506D01*
X171456Y148103D01*
X172000Y148031D01*
Y151500D01*
D02*
G37*
G36*
X259500Y286039D02*
X257932Y285884D01*
X256424Y285427D01*
X255034Y284684D01*
X253816Y283684D01*
X252816Y282466D01*
X252073Y281076D01*
X251616Y279568D01*
X251461Y278000D01*
X251616Y276432D01*
X252073Y274924D01*
X252816Y273534D01*
X252969Y273348D01*
Y234152D01*
X252816Y233966D01*
X252073Y232576D01*
X251616Y231068D01*
X251461Y229500D01*
X251616Y227932D01*
X252073Y226424D01*
X252816Y225034D01*
X252969Y224848D01*
Y217152D01*
X252816Y216966D01*
X252073Y215576D01*
X251616Y214068D01*
X251461Y212500D01*
X251616Y210932D01*
X252073Y209424D01*
X252816Y208034D01*
X253816Y206816D01*
X255034Y205816D01*
X256424Y205073D01*
X257932Y204616D01*
X259500Y204461D01*
X261068Y204616D01*
X262576Y205073D01*
X263966Y205816D01*
X265184Y206816D01*
X266184Y208034D01*
X266927Y209424D01*
X267253Y210500D01*
X267384Y210932D01*
X267539Y212500D01*
X267384Y214068D01*
X266927Y215576D01*
X266184Y216966D01*
X266031Y217152D01*
Y224848D01*
X266184Y225034D01*
X266927Y226424D01*
X267384Y227932D01*
X267539Y229500D01*
X267384Y231068D01*
X266927Y232576D01*
X266184Y233966D01*
X266031Y234152D01*
Y273348D01*
X266184Y273534D01*
X266927Y274924D01*
X267384Y276432D01*
X267539Y278000D01*
X267384Y279568D01*
X266927Y281076D01*
X266184Y282466D01*
X265184Y283684D01*
X263966Y284684D01*
X262576Y285427D01*
X261068Y285884D01*
X259500Y286039D01*
D02*
G37*
G36*
X303500Y320039D02*
X301932Y319884D01*
X300424Y319427D01*
X299034Y318684D01*
X297816Y317684D01*
X296816Y316466D01*
X296073Y315076D01*
X295616Y313568D01*
X295461Y312000D01*
X295616Y310432D01*
X296073Y308924D01*
X296816Y307534D01*
X296969Y307348D01*
Y268152D01*
X296816Y267966D01*
X296073Y266576D01*
X295616Y265068D01*
X295461Y263500D01*
X295616Y261932D01*
X296073Y260424D01*
X296816Y259034D01*
X296969Y258848D01*
Y217244D01*
X295924Y216927D01*
X294534Y216184D01*
X293316Y215184D01*
X292316Y213966D01*
X291573Y212576D01*
X291116Y211068D01*
X290961Y209500D01*
X291116Y207932D01*
X291573Y206424D01*
X292316Y205034D01*
X293316Y203816D01*
X294534Y202816D01*
X295924Y202073D01*
X297432Y201616D01*
X299000Y201461D01*
X300568Y201616D01*
X302076Y202073D01*
X303466Y202816D01*
X304684Y203816D01*
X305684Y205034D01*
X305733Y205125D01*
X306233D01*
D01*
D01*
X306816Y204034D01*
X307816Y202816D01*
X309034Y201816D01*
X310424Y201073D01*
X311932Y200616D01*
X313500Y200461D01*
X315068Y200616D01*
X316576Y201073D01*
X317966Y201816D01*
X319184Y202816D01*
X320184Y204034D01*
X320927Y205424D01*
X321384Y206932D01*
X321539Y208500D01*
X321384Y210068D01*
X320927Y211576D01*
X320184Y212966D01*
X319529Y213764D01*
Y228563D01*
X320068Y228616D01*
X321576Y229073D01*
X322966Y229816D01*
X324184Y230816D01*
X325184Y232034D01*
X325927Y233424D01*
X326384Y234932D01*
X326539Y236500D01*
X326384Y238068D01*
X325927Y239576D01*
X325184Y240966D01*
X324184Y242184D01*
X322966Y243184D01*
X321576Y243927D01*
X320068Y244384D01*
X318500Y244539D01*
X316932Y244384D01*
X315424Y243927D01*
X314034Y243184D01*
X312816Y242184D01*
X311816Y240966D01*
X311073Y239576D01*
X310616Y238068D01*
X310531Y237206D01*
X310031Y237231D01*
Y258848D01*
X310184Y259034D01*
X310927Y260424D01*
X311384Y261932D01*
X311539Y263500D01*
X311384Y265068D01*
X310927Y266576D01*
X310184Y267966D01*
X310031Y268152D01*
Y307348D01*
X310184Y307534D01*
X310927Y308924D01*
X311384Y310432D01*
X311539Y312000D01*
X311384Y313568D01*
X310927Y315076D01*
X310184Y316466D01*
X309184Y317684D01*
X307966Y318684D01*
X306576Y319427D01*
X305068Y319884D01*
X303500Y320039D01*
D02*
G37*
G36*
X138953Y273000D02*
X131047D01*
Y270405D01*
X130560Y270145D01*
X129349Y269151D01*
X128356Y267940D01*
X127617Y266558D01*
X127162Y265059D01*
X127009Y263500D01*
X127162Y261941D01*
X127617Y260442D01*
X128356Y259060D01*
X128815Y258500D01*
X128356Y257940D01*
X127617Y256558D01*
X127162Y255059D01*
X127009Y253500D01*
X127162Y251941D01*
X127617Y250442D01*
X128356Y249060D01*
X128815Y248500D01*
X128356Y247940D01*
X127617Y246558D01*
X127162Y245059D01*
X127009Y243500D01*
X127162Y241941D01*
X127617Y240442D01*
X128356Y239060D01*
X128815Y238500D01*
X128356Y237940D01*
X127617Y236558D01*
X127162Y235059D01*
X127009Y233500D01*
X127162Y231941D01*
X127617Y230442D01*
X128356Y229060D01*
X128815Y228500D01*
X128356Y227940D01*
X127617Y226558D01*
X127162Y225059D01*
X127009Y223500D01*
X127162Y221941D01*
X127617Y220442D01*
X128356Y219060D01*
X129349Y217849D01*
X130560Y216856D01*
X131942Y216117D01*
X133441Y215662D01*
X135000Y215509D01*
X136559Y215662D01*
X138058Y216117D01*
X139440Y216856D01*
X140651Y217849D01*
X141645Y219060D01*
X142383Y220442D01*
X142838Y221941D01*
X142991Y223500D01*
X142838Y225059D01*
X142383Y226558D01*
X141645Y227940D01*
X141185Y228500D01*
X141645Y229060D01*
X142383Y230442D01*
X142838Y231941D01*
X142991Y233500D01*
X142838Y235059D01*
X142383Y236558D01*
X141645Y237940D01*
X141185Y238500D01*
X141645Y239060D01*
X142383Y240442D01*
X142838Y241941D01*
X142991Y243500D01*
X142838Y245059D01*
X142383Y246558D01*
X141645Y247940D01*
X141185Y248500D01*
X141645Y249060D01*
X142383Y250442D01*
X142838Y251941D01*
X142991Y253500D01*
X142838Y255059D01*
X142383Y256558D01*
X141645Y257940D01*
X141185Y258500D01*
X141645Y259060D01*
X142383Y260442D01*
X142838Y261941D01*
X142991Y263500D01*
X142838Y265059D01*
X142383Y266558D01*
X141645Y267940D01*
X140651Y269151D01*
X139440Y270145D01*
X138953Y270405D01*
Y273000D01*
D02*
G37*
G36*
X221969Y224500D02*
X218500D01*
Y221031D01*
X219044Y221103D01*
X220017Y221506D01*
X220853Y222147D01*
X221494Y222983D01*
X221897Y223956D01*
X221969Y224500D01*
D02*
G37*
G36*
X338921Y273000D02*
X331079D01*
X331149Y272468D01*
X331547Y271507D01*
X331766Y271221D01*
X331661Y270733D01*
X330560Y270145D01*
X329349Y269151D01*
X328356Y267940D01*
X327617Y266558D01*
X327162Y265059D01*
X327009Y263500D01*
X327162Y261941D01*
X327617Y260442D01*
X328356Y259060D01*
X328815Y258500D01*
X328356Y257940D01*
X327617Y256558D01*
X327162Y255059D01*
X327009Y253500D01*
X327162Y251941D01*
X327617Y250442D01*
X328356Y249060D01*
X328815Y248500D01*
X328356Y247940D01*
X327617Y246558D01*
X327162Y245059D01*
X327009Y243500D01*
X327162Y241941D01*
X327617Y240442D01*
X328356Y239060D01*
X328815Y238500D01*
X328356Y237940D01*
X327617Y236558D01*
X327162Y235059D01*
X327009Y233500D01*
X327162Y231941D01*
X327234Y231705D01*
X327047Y231453D01*
X327047D01*
Y215547D01*
X342953D01*
Y231453D01*
X342953D01*
X342766Y231705D01*
X342838Y231941D01*
X342991Y233500D01*
X342838Y235059D01*
X342383Y236558D01*
X341645Y237940D01*
X341185Y238500D01*
X341645Y239060D01*
X342383Y240442D01*
X342838Y241941D01*
X342991Y243500D01*
X342838Y245059D01*
X342383Y246558D01*
X341645Y247940D01*
X341185Y248500D01*
X341645Y249060D01*
X342383Y250442D01*
X342838Y251941D01*
X342991Y253500D01*
X342838Y255059D01*
X342383Y256558D01*
X341645Y257940D01*
X341185Y258500D01*
X341645Y259060D01*
X342383Y260442D01*
X342838Y261941D01*
X342991Y263500D01*
X342838Y265059D01*
X342383Y266558D01*
X341645Y267940D01*
X340651Y269151D01*
X339440Y270145D01*
X338339Y270733D01*
X338234Y271221D01*
X338453Y271507D01*
X338851Y272468D01*
X338921Y273000D01*
D02*
G37*
G36*
X172000Y155969D02*
X171456Y155897D01*
X170483Y155494D01*
X169647Y154853D01*
X169006Y154017D01*
X168603Y153044D01*
X168531Y152500D01*
X172000D01*
Y155969D01*
D02*
G37*
G36*
X190969Y151500D02*
X187500D01*
Y148031D01*
X188044Y148103D01*
X189017Y148506D01*
X189853Y149147D01*
X190494Y149983D01*
X190897Y150956D01*
X190969Y151500D01*
D02*
G37*
G36*
X187500Y155969D02*
Y152500D01*
X190969D01*
X190897Y153044D01*
X190494Y154017D01*
X189853Y154853D01*
X189017Y155494D01*
X188044Y155897D01*
X187500Y155969D01*
D02*
G37*
G36*
X179000D02*
X178456Y155897D01*
X177483Y155494D01*
X176647Y154853D01*
X176250Y154335D01*
X175750D01*
X175353Y154853D01*
X174517Y155494D01*
X173544Y155897D01*
X173000Y155969D01*
Y152000D01*
Y148031D01*
X173544Y148103D01*
X174517Y148506D01*
X175353Y149147D01*
X175750Y149665D01*
X176250D01*
X176647Y149147D01*
X177483Y148506D01*
X178456Y148103D01*
X179000Y148031D01*
Y152000D01*
Y155969D01*
D02*
G37*
G36*
X186500D02*
X185956Y155897D01*
X184983Y155494D01*
X184147Y154853D01*
X183506Y154017D01*
X183500Y154003D01*
X183000D01*
X182994Y154017D01*
X182353Y154853D01*
X181517Y155494D01*
X180544Y155897D01*
X180000Y155969D01*
Y152000D01*
Y148031D01*
X180544Y148103D01*
X181517Y148506D01*
X182353Y149147D01*
X182994Y149983D01*
X183000Y149997D01*
X183500D01*
X183506Y149983D01*
X184147Y149147D01*
X184983Y148506D01*
X185956Y148103D01*
X186500Y148031D01*
Y152000D01*
Y155969D01*
D02*
G37*
G36*
X251500Y75969D02*
X250956Y75897D01*
X249983Y75494D01*
X249147Y74853D01*
X248506Y74017D01*
X248103Y73044D01*
X248031Y72500D01*
X251500D01*
Y75969D01*
D02*
G37*
G36*
X240500Y75469D02*
Y72000D01*
X243969D01*
X243897Y72544D01*
X243494Y73517D01*
X242853Y74353D01*
X242017Y74994D01*
X241044Y75397D01*
X240500Y75469D01*
D02*
G37*
G36*
X252500Y75969D02*
Y72500D01*
X255969D01*
X255897Y73044D01*
X255494Y74017D01*
X254853Y74853D01*
X254017Y75494D01*
X253044Y75897D01*
X252500Y75969D01*
D02*
G37*
G36*
X243969Y83000D02*
X240500D01*
Y79531D01*
X241044Y79603D01*
X242017Y80006D01*
X242853Y80647D01*
X243494Y81483D01*
X243897Y82456D01*
X243969Y83000D01*
D02*
G37*
G36*
X239500D02*
X236031D01*
X236103Y82456D01*
X236506Y81483D01*
X237147Y80647D01*
X237983Y80006D01*
X238956Y79603D01*
X239500Y79531D01*
Y83000D01*
D02*
G37*
G36*
X243969Y71000D02*
X240500D01*
Y67531D01*
X241044Y67603D01*
X242017Y68006D01*
X242853Y68647D01*
X243494Y69483D01*
X243897Y70456D01*
X243969Y71000D01*
D02*
G37*
G36*
X239500D02*
X236031D01*
X236103Y70456D01*
X236506Y69483D01*
X237147Y68647D01*
X237983Y68006D01*
X238956Y67603D01*
X239500Y67531D01*
Y71000D01*
D02*
G37*
G36*
X251500Y71500D02*
X248031D01*
X248103Y70956D01*
X248506Y69983D01*
X249147Y69147D01*
X249983Y68506D01*
X250956Y68103D01*
X251500Y68031D01*
Y71500D01*
D02*
G37*
G36*
X239500Y75469D02*
X238956Y75397D01*
X237983Y74994D01*
X237147Y74353D01*
X236506Y73517D01*
X236103Y72544D01*
X236031Y72000D01*
X239500D01*
Y75469D01*
D02*
G37*
G36*
X255969Y71500D02*
X252500D01*
Y68031D01*
X253044Y68103D01*
X254017Y68506D01*
X254853Y69147D01*
X255494Y69983D01*
X255897Y70956D01*
X255969Y71500D01*
D02*
G37*
G36*
X251500Y83000D02*
X248031D01*
X248103Y82456D01*
X248506Y81483D01*
X249147Y80647D01*
X249983Y80006D01*
X250956Y79603D01*
X251500Y79531D01*
Y83000D01*
D02*
G37*
G36*
X255969Y93500D02*
X252500D01*
Y90031D01*
X253044Y90103D01*
X254017Y90506D01*
X254853Y91147D01*
X255494Y91983D01*
X255897Y92956D01*
X255969Y93500D01*
D02*
G37*
G36*
X251500D02*
X248031D01*
X248103Y92956D01*
X248506Y91983D01*
X249147Y91147D01*
X249983Y90506D01*
X250956Y90103D01*
X251500Y90031D01*
Y93500D01*
D02*
G37*
G36*
X239500Y94000D02*
X236031D01*
X236103Y93456D01*
X236506Y92483D01*
X237147Y91647D01*
X237983Y91006D01*
X238956Y90603D01*
X239500Y90531D01*
Y94000D01*
D02*
G37*
G36*
X251500Y97969D02*
X250956Y97897D01*
X249983Y97494D01*
X249147Y96853D01*
X248506Y96017D01*
X248103Y95044D01*
X248031Y94500D01*
X251500D01*
Y97969D01*
D02*
G37*
G36*
X243969Y94000D02*
X240500D01*
Y90531D01*
X241044Y90603D01*
X242017Y91006D01*
X242853Y91647D01*
X243494Y92483D01*
X243897Y93456D01*
X243969Y94000D01*
D02*
G37*
G36*
X239500Y87469D02*
X238956Y87397D01*
X237983Y86994D01*
X237147Y86353D01*
X236506Y85517D01*
X236103Y84544D01*
X236031Y84000D01*
X239500D01*
Y87469D01*
D02*
G37*
G36*
X255969Y83000D02*
X252500D01*
Y79531D01*
X253044Y79603D01*
X254017Y80006D01*
X254853Y80647D01*
X255494Y81483D01*
X255897Y82456D01*
X255969Y83000D01*
D02*
G37*
G36*
X240500Y87469D02*
Y84000D01*
X243969D01*
X243897Y84544D01*
X243494Y85517D01*
X242853Y86353D01*
X242017Y86994D01*
X241044Y87397D01*
X240500Y87469D01*
D02*
G37*
G36*
X252500D02*
Y84000D01*
X255969D01*
X255897Y84544D01*
X255494Y85517D01*
X254853Y86353D01*
X254017Y86994D01*
X253044Y87397D01*
X252500Y87469D01*
D02*
G37*
G36*
X251500D02*
X250956Y87397D01*
X249983Y86994D01*
X249147Y86353D01*
X248506Y85517D01*
X248103Y84544D01*
X248031Y84000D01*
X251500D01*
Y87469D01*
D02*
G37*
G36*
X172969Y314000D02*
X169500D01*
Y310531D01*
X170044Y310603D01*
X171017Y311006D01*
X171853Y311647D01*
X172494Y312483D01*
X172897Y313456D01*
X172969Y314000D01*
D02*
G37*
G36*
X168500D02*
X165031D01*
X165103Y313456D01*
X165506Y312483D01*
X166147Y311647D01*
X166983Y311006D01*
X167956Y310603D01*
X168500Y310531D01*
Y314000D01*
D02*
G37*
G36*
X216500D02*
X213031D01*
X213103Y313456D01*
X213506Y312483D01*
X214147Y311647D01*
X214983Y311006D01*
X215956Y310603D01*
X216500Y310531D01*
Y314000D01*
D02*
G37*
G36*
X228500D02*
X225031D01*
X225103Y313456D01*
X225506Y312483D01*
X226147Y311647D01*
X226983Y311006D01*
X227956Y310603D01*
X228500Y310531D01*
Y314000D01*
D02*
G37*
G36*
X220969D02*
X217500D01*
Y310531D01*
X218044Y310603D01*
X219017Y311006D01*
X219853Y311647D01*
X220494Y312483D01*
X220897Y313456D01*
X220969Y314000D01*
D02*
G37*
G36*
X163469Y304500D02*
X160000D01*
Y301031D01*
X160544Y301103D01*
X161517Y301506D01*
X162353Y302147D01*
X162994Y302983D01*
X163397Y303956D01*
X163469Y304500D01*
D02*
G37*
G36*
X159000D02*
X155531D01*
X155603Y303956D01*
X156006Y302983D01*
X156647Y302147D01*
X157483Y301506D01*
X158456Y301103D01*
X159000Y301031D01*
Y304500D01*
D02*
G37*
G36*
X334000Y304469D02*
X333456Y304397D01*
X332483Y303994D01*
X331647Y303353D01*
X331006Y302517D01*
X331000Y302503D01*
X330500D01*
X330494Y302517D01*
X329853Y303353D01*
X329017Y303994D01*
X328044Y304397D01*
X327500Y304469D01*
Y300500D01*
Y296531D01*
X328044Y296603D01*
X329017Y297006D01*
X329853Y297647D01*
X330494Y298483D01*
X330500Y298497D01*
X331000D01*
X331006Y298483D01*
X331647Y297647D01*
X332483Y297006D01*
X333456Y296603D01*
X334000Y296531D01*
Y300500D01*
Y304469D01*
D02*
G37*
G36*
X160000Y308969D02*
Y305500D01*
X163469D01*
X163397Y306044D01*
X162994Y307017D01*
X162353Y307853D01*
X161517Y308494D01*
X160544Y308897D01*
X160000Y308969D01*
D02*
G37*
G36*
X159000D02*
X158456Y308897D01*
X157483Y308494D01*
X156647Y307853D01*
X156006Y307017D01*
X155603Y306044D01*
X155531Y305500D01*
X159000D01*
Y308969D01*
D02*
G37*
G36*
X232969Y314000D02*
X229500D01*
Y310531D01*
X230044Y310603D01*
X231017Y311006D01*
X231853Y311647D01*
X232494Y312483D01*
X232897Y313456D01*
X232969Y314000D01*
D02*
G37*
G36*
X228500Y318469D02*
X227956Y318397D01*
X226983Y317994D01*
X226147Y317353D01*
X225506Y316517D01*
X225103Y315544D01*
X225031Y315000D01*
X228500D01*
Y318469D01*
D02*
G37*
G36*
X217500D02*
Y315000D01*
X220969D01*
X220897Y315544D01*
X220494Y316517D01*
X219853Y317353D01*
X219017Y317994D01*
X218044Y318397D01*
X217500Y318469D01*
D02*
G37*
G36*
X229500D02*
Y315000D01*
X232969D01*
X232897Y315544D01*
X232494Y316517D01*
X231853Y317353D01*
X231017Y317994D01*
X230044Y318397D01*
X229500Y318469D01*
D02*
G37*
G36*
X241500D02*
Y315000D01*
X244969D01*
X244897Y315544D01*
X244494Y316517D01*
X243853Y317353D01*
X243017Y317994D01*
X242044Y318397D01*
X241500Y318469D01*
D02*
G37*
G36*
X240500D02*
X239956Y318397D01*
X238983Y317994D01*
X238147Y317353D01*
X237506Y316517D01*
X237103Y315544D01*
X237031Y315000D01*
X240500D01*
Y318469D01*
D02*
G37*
G36*
X244969Y314000D02*
X241500D01*
Y310531D01*
X242044Y310603D01*
X243017Y311006D01*
X243853Y311647D01*
X244494Y312483D01*
X244897Y313456D01*
X244969Y314000D01*
D02*
G37*
G36*
X240500D02*
X237031D01*
X237103Y313456D01*
X237506Y312483D01*
X238147Y311647D01*
X238983Y311006D01*
X239956Y310603D01*
X240500Y310531D01*
Y314000D01*
D02*
G37*
G36*
X168500Y318469D02*
X167956Y318397D01*
X166983Y317994D01*
X166147Y317353D01*
X165506Y316517D01*
X165103Y315544D01*
X165031Y315000D01*
X168500D01*
Y318469D01*
D02*
G37*
G36*
X216500D02*
X215956Y318397D01*
X214983Y317994D01*
X214147Y317353D01*
X213506Y316517D01*
X213103Y315544D01*
X213031Y315000D01*
X216500D01*
Y318469D01*
D02*
G37*
G36*
X169500D02*
Y315000D01*
X172969D01*
X172897Y315544D01*
X172494Y316517D01*
X171853Y317353D01*
X171017Y317994D01*
X170044Y318397D01*
X169500Y318469D01*
D02*
G37*
G36*
X335000Y304469D02*
Y301000D01*
X338469D01*
X338397Y301544D01*
X337994Y302517D01*
X337353Y303353D01*
X336517Y303994D01*
X335544Y304397D01*
X335000Y304469D01*
D02*
G37*
G36*
X318500Y266969D02*
X317956Y266897D01*
X316983Y266494D01*
X316147Y265853D01*
X315506Y265017D01*
X315103Y264044D01*
X315031Y263500D01*
X318500D01*
Y266969D01*
D02*
G37*
G36*
X322969Y262500D02*
X319500D01*
Y259031D01*
X320044Y259103D01*
X321017Y259506D01*
X321853Y260147D01*
X322494Y260983D01*
X322897Y261956D01*
X322969Y262500D01*
D02*
G37*
G36*
X319500Y266969D02*
Y263500D01*
X322969D01*
X322897Y264044D01*
X322494Y265017D01*
X321853Y265853D01*
X321017Y266494D01*
X320044Y266897D01*
X319500Y266969D01*
D02*
G37*
G36*
X138953Y277453D02*
X135500D01*
Y274000D01*
X138953D01*
Y277453D01*
D02*
G37*
G36*
X134500D02*
X131047D01*
Y274000D01*
X134500D01*
Y277453D01*
D02*
G37*
G36*
X200500Y237469D02*
X199956Y237397D01*
X198983Y236994D01*
X198147Y236353D01*
X197506Y235517D01*
X197103Y234544D01*
X197031Y234000D01*
X200500D01*
Y237469D01*
D02*
G37*
G36*
Y225000D02*
X197031D01*
X197103Y224456D01*
X197506Y223483D01*
X198147Y222647D01*
X198983Y222006D01*
X199956Y221603D01*
X200500Y221531D01*
Y225000D01*
D02*
G37*
G36*
X218000Y237469D02*
Y234000D01*
X221469D01*
X221397Y234544D01*
X220994Y235517D01*
X220353Y236353D01*
X219517Y236994D01*
X218544Y237397D01*
X218000Y237469D01*
D02*
G37*
G36*
X318500Y262500D02*
X315031D01*
X315103Y261956D01*
X315506Y260983D01*
X316147Y260147D01*
X316983Y259506D01*
X317956Y259103D01*
X318500Y259031D01*
Y262500D01*
D02*
G37*
G36*
X217000Y237469D02*
X216456Y237397D01*
X215483Y236994D01*
X214647Y236353D01*
X214006Y235517D01*
X213750Y234899D01*
X213250D01*
X212994Y235517D01*
X212353Y236353D01*
X211517Y236994D01*
X210544Y237397D01*
X210000Y237469D01*
Y233500D01*
X209000D01*
Y237469D01*
X208456Y237397D01*
X207483Y236994D01*
X206647Y236353D01*
X206006Y235517D01*
X205603Y234544D01*
X205500Y233762D01*
X205000D01*
X204897Y234544D01*
X204494Y235517D01*
X203853Y236353D01*
X203017Y236994D01*
X202044Y237397D01*
X201500Y237469D01*
Y233500D01*
X201000D01*
Y233000D01*
X197031D01*
X197103Y232456D01*
X197506Y231483D01*
X198147Y230647D01*
X198983Y230006D01*
X199601Y229750D01*
Y229250D01*
X198983Y228994D01*
X198147Y228353D01*
X197506Y227517D01*
X197103Y226544D01*
X197031Y226000D01*
X201000D01*
Y225500D01*
X201500D01*
Y221531D01*
X202044Y221603D01*
X203017Y222006D01*
X203853Y222647D01*
X204494Y223483D01*
X204897Y224456D01*
X205000Y225238D01*
X205500D01*
X205603Y224456D01*
X206006Y223483D01*
X206647Y222647D01*
X207483Y222006D01*
X208456Y221603D01*
X209000Y221531D01*
Y225500D01*
X210000D01*
Y221531D01*
X210544Y221603D01*
X211517Y222006D01*
X212353Y222647D01*
X212994Y223483D01*
X213397Y224456D01*
X213467Y224988D01*
X213967D01*
X214103Y223956D01*
X214506Y222983D01*
X215147Y222147D01*
X215983Y221506D01*
X216956Y221103D01*
X217500Y221031D01*
Y225000D01*
X218000D01*
Y225500D01*
X221969D01*
X221897Y226044D01*
X221494Y227017D01*
X220853Y227853D01*
X220017Y228494D01*
X219044Y228897D01*
X218012Y229033D01*
Y229533D01*
X218544Y229603D01*
X219517Y230006D01*
X220353Y230647D01*
X220994Y231483D01*
X221397Y232456D01*
X221469Y233000D01*
X217500D01*
Y233500D01*
X217000D01*
Y237469D01*
D02*
G37*
G36*
X334500Y277421D02*
X333968Y277351D01*
X333007Y276953D01*
X332181Y276319D01*
X331547Y275493D01*
X331149Y274532D01*
X331079Y274000D01*
X334500D01*
Y277421D01*
D02*
G37*
G36*
X149500Y300469D02*
X148956Y300397D01*
X147983Y299994D01*
X147147Y299353D01*
X146506Y298517D01*
X146103Y297544D01*
X146031Y297000D01*
X149500D01*
Y300469D01*
D02*
G37*
G36*
X338469Y300000D02*
X335000D01*
Y296531D01*
X335544Y296603D01*
X336517Y297006D01*
X337353Y297647D01*
X337994Y298483D01*
X338397Y299456D01*
X338469Y300000D01*
D02*
G37*
G36*
X150500Y300469D02*
Y297000D01*
X153969D01*
X153897Y297544D01*
X153494Y298517D01*
X152853Y299353D01*
X152017Y299994D01*
X151044Y300397D01*
X150500Y300469D01*
D02*
G37*
G36*
X326500Y304469D02*
X325956Y304397D01*
X324983Y303994D01*
X324147Y303353D01*
X323506Y302517D01*
X323103Y301544D01*
X322967Y300512D01*
X322467D01*
X322397Y301044D01*
X321994Y302017D01*
X321353Y302853D01*
X320517Y303494D01*
X319544Y303897D01*
X319000Y303969D01*
Y300000D01*
X318500D01*
Y299500D01*
X314531D01*
X314603Y298956D01*
X315006Y297983D01*
X315647Y297147D01*
X316483Y296506D01*
X317351Y296146D01*
Y295646D01*
X316983Y295494D01*
X316147Y294853D01*
X315506Y294017D01*
X315103Y293044D01*
X315031Y292500D01*
X322969D01*
X322897Y293044D01*
X322494Y294017D01*
X321853Y294853D01*
X321017Y295494D01*
X320149Y295853D01*
Y296354D01*
X320517Y296506D01*
X321353Y297147D01*
X321994Y297983D01*
X322397Y298956D01*
X322533Y299988D01*
X323033D01*
X323103Y299456D01*
X323506Y298483D01*
X324147Y297647D01*
X324983Y297006D01*
X325956Y296603D01*
X326500Y296531D01*
Y300500D01*
Y304469D01*
D02*
G37*
G36*
X318000Y303969D02*
X317456Y303897D01*
X316483Y303494D01*
X315647Y302853D01*
X315006Y302017D01*
X314603Y301044D01*
X314531Y300500D01*
X318000D01*
Y303969D01*
D02*
G37*
G36*
X318500Y291500D02*
X315031D01*
X315103Y290956D01*
X315506Y289983D01*
X316147Y289147D01*
X316983Y288506D01*
X317956Y288103D01*
X318500Y288031D01*
Y291500D01*
D02*
G37*
G36*
X335500Y277421D02*
Y274000D01*
X338921D01*
X338851Y274532D01*
X338453Y275493D01*
X337819Y276319D01*
X336993Y276953D01*
X336032Y277351D01*
X335500Y277421D01*
D02*
G37*
G36*
X322969Y291500D02*
X319500D01*
Y288031D01*
X320044Y288103D01*
X321017Y288506D01*
X321853Y289147D01*
X322494Y289983D01*
X322897Y290956D01*
X322969Y291500D01*
D02*
G37*
G36*
X153969Y296000D02*
X150500D01*
Y292531D01*
X151044Y292603D01*
X152017Y293006D01*
X152853Y293647D01*
X153494Y294483D01*
X153897Y295456D01*
X153969Y296000D01*
D02*
G37*
G36*
X149500D02*
X146031D01*
X146103Y295456D01*
X146506Y294483D01*
X147147Y293647D01*
X147983Y293006D01*
X148956Y292603D01*
X149500Y292531D01*
Y296000D01*
D02*
G37*
%LPD*%
D10*
X260561Y276939D02*
G03*
X259500Y274379I2561J-2561D01*
G01*
D02*
G03*
X258439Y276939I-3621J0D01*
G01*
X299000Y211000D02*
G03*
X301561Y212061I0J3621D01*
G01*
D02*
G03*
X300500Y209500I2561J-2561D01*
G01*
X302439Y264561D02*
G03*
X303500Y267121I-2561J2561D01*
G01*
D02*
G03*
X304561Y264561I3621J0D01*
G01*
Y262439D02*
G03*
X303500Y259879I2561J-2561D01*
G01*
D02*
G03*
X302439Y262439I-3621J0D01*
G01*
X304561Y310939D02*
G03*
X303500Y308379I2561J-2561D01*
G01*
D02*
G03*
X302439Y310939I-3621J0D01*
G01*
X258439Y213561D02*
G03*
X259500Y216121I-2561J2561D01*
G01*
D02*
G03*
X260561Y213561I3621J0D01*
G01*
X258439Y230561D02*
G03*
X259500Y233121I-2561J2561D01*
G01*
D02*
G03*
X260561Y230561I3621J0D01*
G01*
Y228439D02*
G03*
X259500Y225879I2561J-2561D01*
G01*
D02*
G03*
X258439Y228439I-3621J0D01*
G01*
X317939Y264061D02*
G03*
X319000Y266621I-2561J2561D01*
G01*
D02*
G03*
X320061Y264061I3621J0D01*
G01*
Y290939D02*
G03*
X319000Y288379I2561J-2561D01*
G01*
D02*
G03*
X317939Y290939I-3621J0D01*
G01*
X188113Y143505D02*
G03*
X191500Y142000I3386J3057D01*
G01*
X186500Y147328D02*
G03*
X188061Y143561I5328J0D01*
G01*
Y141439D02*
G03*
X187000Y138879I2561J-2561D01*
G01*
D02*
G03*
X185939Y141439I-3621J0D01*
G01*
X180561D02*
G03*
X179500Y138879I2561J-2561D01*
G01*
D02*
G03*
X178439Y141439I-3621J0D01*
G01*
X179000Y146000D02*
G03*
X180262Y143792I2562J0D01*
G01*
X179000Y146468D02*
G03*
X180392Y143706I3437J0D01*
G01*
X171407Y141473D02*
G03*
X169032Y142500I-2376J-2233D01*
G01*
D02*
G03*
X171407Y143527I0J3260D01*
G01*
X172000Y146468D02*
G03*
X173392Y143706I3437J0D01*
G01*
X173561Y141439D02*
G03*
X172500Y138879I2561J-2561D01*
G01*
D02*
G03*
X171439Y141439I-3621J0D01*
G01*
Y150939D02*
G03*
X168879Y152000I-2561J-2561D01*
G01*
D02*
G03*
X171439Y153061I0J3621D01*
G01*
D02*
G03*
X172500Y155621I-2561J2561D01*
G01*
D02*
G03*
X173561Y153061I3621J0D01*
G01*
X178439D02*
G03*
X179500Y155621I-2561J2561D01*
G01*
D02*
G03*
X180561Y153061I3621J0D01*
G01*
X180527Y150907D02*
G03*
X179500Y148531I2233J-2376D01*
G01*
D02*
G03*
X178473Y150907I-3260J0D01*
G01*
X188061Y153061D02*
G03*
X190621Y152000I2561J2561D01*
G01*
D02*
G03*
X188061Y150939I0J-3621D01*
G01*
X185939Y153061D02*
G03*
X187000Y155621I-2561J2561D01*
G01*
D02*
G03*
X188061Y153061I3621J0D01*
G01*
Y150939D02*
G03*
X186500Y147172I3768J-3768D01*
G01*
X187900Y150800D02*
G03*
X186500Y148000I2100J-2800D01*
G01*
X187000Y152000D02*
Y159000D01*
Y152000D02*
X194000D01*
X179500D02*
Y158500D01*
Y148531D02*
Y152000D01*
X172000Y158000D02*
X172500D01*
Y152000D02*
Y158000D01*
X168000Y152000D02*
X172500D01*
X167500Y152500D02*
X168000Y152000D01*
X172000Y143000D02*
X172500Y142500D01*
X172000Y143000D02*
Y146469D01*
X172500Y137000D02*
Y142500D01*
X169031D02*
X172500D01*
X168531Y143000D02*
X169031Y142500D01*
X179500D02*
Y145500D01*
X179000Y146000D02*
X179500Y145500D01*
X179000Y146000D02*
Y146469D01*
X179500Y135500D02*
Y142500D01*
X186500Y143000D02*
X187000Y142500D01*
X186500Y143000D02*
Y148031D01*
Y136500D02*
X187000D01*
Y142500D01*
X187500Y142000D01*
X191500D01*
X319000Y263000D02*
Y292000D01*
X259500Y212500D02*
Y229500D01*
X300500Y211000D02*
X303500Y214000D01*
Y263500D01*
Y312000D01*
X259500Y229500D02*
Y278000D01*
Y278500D01*
D11*
X312086Y209914D02*
G03*
X313500Y213328I-3414J3414D01*
G01*
D02*
G03*
X314914Y209914I4828J0D01*
G01*
X318500Y234500D02*
G03*
X315086Y233086I0J-4828D01*
G01*
X315086Y233086D02*
G03*
X316500Y236500I-3414J3414D01*
G01*
X206914Y158914D02*
G03*
X210328Y157500I3414J3414D01*
G01*
D02*
G03*
X206914Y156086I0J-4828D01*
G01*
X205500Y157500D02*
X276000D01*
X283000Y150500D01*
X299000Y211000D02*
X300500D01*
X313500Y231500D02*
X318500Y236500D01*
X313500Y208500D02*
Y231500D01*
D43*
X335000Y273500D02*
D03*
Y263500D02*
D03*
Y253500D02*
D03*
Y243500D02*
D03*
Y233500D02*
D03*
X135000Y223500D02*
D03*
Y233500D02*
D03*
Y243500D02*
D03*
Y253500D02*
D03*
Y263500D02*
D03*
D44*
X335000Y223500D02*
D03*
X135000Y273500D02*
D03*
D45*
X205500Y157500D02*
D03*
X285000Y149500D02*
D03*
X187000Y152000D02*
D03*
X179500D02*
D03*
X172500D02*
D03*
Y142500D02*
D03*
X179500D02*
D03*
X187000D02*
D03*
X334500Y300500D02*
D03*
X327000D02*
D03*
X318500Y300000D02*
D03*
X319000Y292000D02*
D03*
Y263000D02*
D03*
X201000Y233500D02*
D03*
Y225500D02*
D03*
X209500D02*
D03*
X217500Y233500D02*
D03*
X218000Y225000D02*
D03*
X209500Y233500D02*
D03*
X259500Y229500D02*
D03*
Y212500D02*
D03*
X241000Y314500D02*
D03*
X229000D02*
D03*
X217000D02*
D03*
X240000Y94500D02*
D03*
Y83500D02*
D03*
Y71500D02*
D03*
X252000Y72000D02*
D03*
Y83500D02*
D03*
Y94000D02*
D03*
X150000Y296500D02*
D03*
X159500Y305000D02*
D03*
X169000Y314500D02*
D03*
X303500Y312000D02*
D03*
Y263500D02*
D03*
X299000Y209500D02*
D03*
X318500Y236500D02*
D03*
X313500Y208500D02*
D03*
X259500Y278000D02*
D03*
M02*
