%FSLAX25Y25*%
%MOIN*%
G70*
G01*
G75*
%ADD10C,0.03000*%
%ADD11C,0.02000*%
%ADD12C,0.01000*%
%ADD13C,0.01500*%
%ADD14C,0.01200*%
%ADD15O,0.02756X0.01181*%
%ADD16R,0.02756X0.01181*%
%ADD17O,0.04724X0.01221*%
%ADD18R,0.04724X0.01221*%
%ADD19R,0.06693X0.13000*%
G04:AMPARAMS|DCode=20|XSize=66.93mil|YSize=130mil|CornerRadius=0mil|HoleSize=0mil|Usage=FLASHONLY|Rotation=180.000|XOffset=0mil|YOffset=0mil|HoleType=Round|Shape=Octagon|*
%AMOCTAGOND20*
4,1,8,0.01673,-0.06500,-0.01673,-0.06500,-0.03347,-0.04827,-0.03347,0.04827,-0.01673,0.06500,0.01673,0.06500,0.03347,0.04827,0.03347,-0.04827,0.01673,-0.06500,0.0*
%
%ADD20OCTAGOND20*%

G04:AMPARAMS|DCode=21|XSize=78.74mil|YSize=98.43mil|CornerRadius=0mil|HoleSize=0mil|Usage=FLASHONLY|Rotation=180.000|XOffset=0mil|YOffset=0mil|HoleType=Round|Shape=Octagon|*
%AMOCTAGOND21*
4,1,8,0.01969,-0.04921,-0.01969,-0.04921,-0.03937,-0.02953,-0.03937,0.02953,-0.01969,0.04921,0.01969,0.04921,0.03937,0.02953,0.03937,-0.02953,0.01969,-0.04921,0.0*
%
%ADD21OCTAGOND21*%

%ADD22R,0.07874X0.09843*%
%ADD23R,0.04331X0.05512*%
%ADD24R,0.10906X0.16732*%
%ADD25R,0.05906X0.05512*%
%ADD26R,0.06000X0.06000*%
%ADD27R,0.05500X0.03000*%
%ADD28O,0.05500X0.03000*%
%ADD29R,0.05512X0.05906*%
%ADD30R,0.04331X0.06693*%
%ADD31R,0.05512X0.02559*%
G04:AMPARAMS|DCode=32|XSize=55.12mil|YSize=25.59mil|CornerRadius=0mil|HoleSize=0mil|Usage=FLASHONLY|Rotation=180.000|XOffset=0mil|YOffset=0mil|HoleType=Round|Shape=Octagon|*
%AMOCTAGOND32*
4,1,8,-0.02756,0.00640,-0.02756,-0.00640,-0.02116,-0.01280,0.02116,-0.01280,0.02756,-0.00640,0.02756,0.00640,0.02116,0.01280,-0.02116,0.01280,-0.02756,0.00640,0.0*
%
%ADD32OCTAGOND32*%

%ADD33R,0.08661X0.12795*%
%ADD34O,0.08661X0.03937*%
%ADD35R,0.08661X0.03937*%
%ADD36R,0.16732X0.10906*%
%ADD37R,0.04331X0.10236*%
%ADD38R,0.05512X0.04331*%
%ADD39R,0.28740X0.10433*%
%ADD40R,0.06496X0.01969*%
%ADD41O,0.06496X0.01969*%
%ADD42C,0.02500*%
%ADD43C,0.05906*%
%ADD44R,0.05906X0.05906*%
%ADD45C,0.06000*%
%ADD46C,0.00787*%
D12*
X223500Y179500D02*
G03*
X226000Y179500I1250J0D01*
G01*
X246750Y181528D02*
Y189500D01*
X218556Y181528D02*
X246750D01*
X217250Y182833D02*
X218556Y181528D01*
X217250Y182833D02*
Y196167D01*
X218457Y197374D01*
X246750D01*
Y189500D02*
Y197374D01*
X238717Y123720D02*
Y126870D01*
X236748Y125295D02*
X240685D01*
X257500Y172250D02*
X265000D01*
X249500D02*
X257500D01*
X265000Y151750D02*
Y172250D01*
X249500Y151750D02*
X265000D01*
X249500D02*
Y172250D01*
X217945Y179500D02*
X223500D01*
X226000D02*
X231921D01*
Y159500D02*
Y179500D01*
X217945Y159500D02*
X231921D01*
X217945D02*
Y179500D01*
X231000Y347250D02*
Y367750D01*
Y347250D02*
X246500D01*
Y367750D01*
X231000D02*
X239000D01*
X246500D01*
X275295Y223315D02*
Y227252D01*
X273721Y225284D02*
X276870D01*
X141295Y65315D02*
Y69252D01*
X139720Y67283D02*
X142870D01*
X209500Y188998D02*
Y184000D01*
X210500Y183000D01*
X212499D01*
X213499Y184000D01*
Y188998D01*
X215498Y183000D02*
X217497D01*
X216498D01*
Y188998D01*
X215498Y187998D01*
X201650Y176350D02*
X207648D01*
Y173351D01*
X206648Y172351D01*
X204649D01*
X203649Y173351D01*
Y176350D01*
Y174351D02*
X201650Y172351D01*
X206648Y170352D02*
X207648Y169352D01*
Y167353D01*
X206648Y166353D01*
X205649D01*
X204649Y167353D01*
Y168353D01*
Y167353D01*
X203649Y166353D01*
X202650D01*
X201650Y167353D01*
Y169352D01*
X202650Y170352D01*
X170350Y161150D02*
X164352D01*
Y164149D01*
X165352Y165149D01*
X167351D01*
X168351Y164149D01*
Y161150D01*
Y163149D02*
X170350Y165149D01*
Y171147D02*
Y167148D01*
X166351Y171147D01*
X165352D01*
X164352Y170147D01*
Y168148D01*
X165352Y167148D01*
X189350Y182150D02*
X183352D01*
Y185149D01*
X184352Y186149D01*
X186351D01*
X187351Y185149D01*
Y182150D01*
Y184149D02*
X189350Y186149D01*
Y188148D02*
Y190147D01*
Y189148D01*
X183352D01*
X184352Y188148D01*
X274548Y173650D02*
X268550D01*
Y169651D01*
Y167652D02*
Y165653D01*
Y166652D01*
X274548D01*
X273548Y167652D01*
X253500Y119002D02*
Y125000D01*
X250501D01*
X249501Y124000D01*
Y120002D01*
X250501Y119002D01*
X253500D01*
X247502Y125000D02*
X245503D01*
X246502D01*
Y119002D01*
X247502Y120002D01*
X206999Y192999D02*
X206500Y193499D01*
X205500D01*
X205000Y192999D01*
Y191000D01*
X205500Y190500D01*
X206500D01*
X206999Y191000D01*
X207999Y192999D02*
X208499Y193499D01*
X209499D01*
X209998Y192999D01*
Y192499D01*
X209499Y191999D01*
X208999D01*
X209499D01*
X209998Y191500D01*
Y191000D01*
X209499Y190500D01*
X208499D01*
X207999Y191000D01*
X192952Y128249D02*
X191952Y127249D01*
Y125250D01*
X192952Y124250D01*
X196950D01*
X197950Y125250D01*
Y127249D01*
X196950Y128249D01*
X197950Y134247D02*
Y130248D01*
X193951Y134247D01*
X192952D01*
X191952Y133247D01*
Y131248D01*
X192952Y130248D01*
X255998Y185001D02*
X256998Y186001D01*
Y188000D01*
X255998Y189000D01*
X252000D01*
X251000Y188000D01*
Y186001D01*
X252000Y185001D01*
X251000Y183002D02*
Y181003D01*
Y182002D01*
X256998D01*
X255998Y183002D01*
X243150Y350248D02*
X247149Y346250D01*
X243150D02*
X247149Y350248D01*
X243150Y348249D02*
X247149D01*
X245149Y346250D02*
Y350248D01*
X240333Y265666D02*
X240000Y265999D01*
X239333D01*
X239000Y265666D01*
Y264333D01*
X239333Y264000D01*
X240000D01*
X240333Y264333D01*
X241999Y264000D02*
Y265999D01*
X240999Y265000D01*
X242332D01*
X285001Y214502D02*
X286001Y213502D01*
X288000D01*
X289000Y214502D01*
Y218500D01*
X288000Y219500D01*
X286001D01*
X285001Y218500D01*
X279003Y213502D02*
X283002D01*
Y216501D01*
X281003Y215501D01*
X280003D01*
X279003Y216501D01*
Y218500D01*
X280003Y219500D01*
X282002D01*
X283002Y218500D01*
X243999Y222498D02*
X242999Y223498D01*
X241000D01*
X240000Y222498D01*
Y218500D01*
X241000Y217500D01*
X242999D01*
X243999Y218500D01*
X249997Y223498D02*
X247997Y222498D01*
X245998Y220499D01*
Y218500D01*
X246998Y217500D01*
X248997D01*
X249997Y218500D01*
Y219499D01*
X248997Y220499D01*
X245998D01*
X144249Y113048D02*
X143249Y114048D01*
X141250D01*
X140250Y113048D01*
Y109050D01*
X141250Y108050D01*
X143249D01*
X144249Y109050D01*
X146248Y114048D02*
X150247D01*
Y113048D01*
X146248Y109050D01*
Y108050D01*
X278249Y271048D02*
X277249Y272048D01*
X275250D01*
X274250Y271048D01*
Y267050D01*
X275250Y266050D01*
X277249D01*
X278249Y267050D01*
X280248D02*
X281248Y266050D01*
X283247D01*
X284247Y267050D01*
Y271048D01*
X283247Y272048D01*
X281248D01*
X280248Y271048D01*
Y270049D01*
X281248Y269049D01*
X284247D01*
X228551Y325552D02*
X229551Y324552D01*
X231550D01*
X232550Y325552D01*
Y329550D01*
X231550Y330550D01*
X229551D01*
X228551Y329550D01*
X226552Y330550D02*
X224553D01*
X225552D01*
Y324552D01*
X226552Y325552D01*
X221554Y330550D02*
X219554D01*
X220554D01*
Y324552D01*
X221554Y325552D01*
X270748Y347851D02*
X271748Y348851D01*
Y350850D01*
X270748Y351850D01*
X266750D01*
X265750Y350850D01*
Y348851D01*
X266750Y347851D01*
X265750Y345852D02*
Y343853D01*
Y344852D01*
X271748D01*
X270748Y345852D01*
X265750Y336855D02*
Y340854D01*
X269749Y336855D01*
X270748D01*
X271748Y337855D01*
Y339854D01*
X270748Y340854D01*
X204052Y348050D02*
X210050D01*
Y351049D01*
X209050Y352049D01*
X205052D01*
X204052Y351049D01*
Y348050D01*
X210050Y358047D02*
Y354048D01*
X206051Y358047D01*
X205052D01*
X204052Y357047D01*
Y355048D01*
X205052Y354048D01*
X191252Y242750D02*
X197250D01*
Y246749D01*
Y252747D02*
Y248748D01*
X193251Y252747D01*
X192252D01*
X191252Y251747D01*
Y249748D01*
X192252Y248748D01*
X265002Y356500D02*
X271000D01*
Y360499D01*
X266002Y362498D02*
X265002Y363498D01*
Y365497D01*
X266002Y366497D01*
X267001D01*
X268001Y365497D01*
Y364497D01*
Y365497D01*
X269001Y366497D01*
X270000D01*
X271000Y365497D01*
Y363498D01*
X270000Y362498D01*
X227850Y279150D02*
X221852D01*
Y282149D01*
X222852Y283149D01*
X224851D01*
X225851Y282149D01*
Y279150D01*
Y281149D02*
X227850Y283149D01*
Y288147D02*
X221852D01*
X224851Y285148D01*
Y289147D01*
X259500Y250000D02*
Y255998D01*
X262499D01*
X263499Y254998D01*
Y252999D01*
X262499Y251999D01*
X259500D01*
X261499D02*
X263499Y250000D01*
X269497Y255998D02*
X265498D01*
Y252999D01*
X267497Y253999D01*
X268497D01*
X269497Y252999D01*
Y251000D01*
X268497Y250000D01*
X266498D01*
X265498Y251000D01*
X239000Y273500D02*
Y279498D01*
X241999D01*
X242999Y278498D01*
Y276499D01*
X241999Y275499D01*
X239000D01*
X240999D02*
X242999Y273500D01*
X248997Y279498D02*
X246997Y278498D01*
X244998Y276499D01*
Y274500D01*
X245998Y273500D01*
X247997D01*
X248997Y274500D01*
Y275499D01*
X247997Y276499D01*
X244998D01*
X262500Y273500D02*
Y279498D01*
X265499D01*
X266499Y278498D01*
Y276499D01*
X265499Y275499D01*
X262500D01*
X264499D02*
X266499Y273500D01*
X268498Y279498D02*
X272497D01*
Y278498D01*
X268498Y274500D01*
Y273500D01*
X271350Y315350D02*
Y309352D01*
X268351D01*
X267351Y310352D01*
Y312351D01*
X268351Y313351D01*
X271350D01*
X269351D02*
X267351Y315350D01*
X265352Y310352D02*
X264352Y309352D01*
X262353D01*
X261353Y310352D01*
Y311351D01*
X262353Y312351D01*
X261353Y313351D01*
Y314350D01*
X262353Y315350D01*
X264352D01*
X265352Y314350D01*
Y313351D01*
X264352Y312351D01*
X265352Y311351D01*
Y310352D01*
X264352Y312351D02*
X262353D01*
X308649Y264648D02*
X307649Y265648D01*
X305650D01*
X304650Y264648D01*
Y263649D01*
X305650Y262649D01*
X307649D01*
X308649Y261649D01*
Y260650D01*
X307649Y259650D01*
X305650D01*
X304650Y260650D01*
X310648Y265648D02*
Y259650D01*
X312647Y261649D01*
X314647Y259650D01*
Y265648D01*
X316646Y259650D02*
X318646D01*
X317646D01*
Y265648D01*
X316646Y264648D01*
X240500Y261498D02*
Y256500D01*
X241500Y255500D01*
X243499D01*
X244499Y256500D01*
Y261498D01*
X250497Y255500D02*
X246498D01*
X250497Y259499D01*
Y260498D01*
X249497Y261498D01*
X247498D01*
X246498Y260498D01*
X195250Y106648D02*
Y101650D01*
X196250Y100650D01*
X198249D01*
X199249Y101650D01*
Y106648D01*
X201248Y105648D02*
X202248Y106648D01*
X204247D01*
X205247Y105648D01*
Y104649D01*
X204247Y103649D01*
X203247D01*
X204247D01*
X205247Y102649D01*
Y101650D01*
X204247Y100650D01*
X202248D01*
X201248Y101650D01*
X169652Y88749D02*
X168652Y87749D01*
Y85750D01*
X169652Y84750D01*
X173650D01*
X174650Y85750D01*
Y87749D01*
X173650Y88749D01*
X169652Y90748D02*
X168652Y91748D01*
Y93747D01*
X169652Y94747D01*
X170651D01*
X171651Y93747D01*
X172651Y94747D01*
X173650D01*
X174650Y93747D01*
Y91748D01*
X173650Y90748D01*
X172651D01*
X171651Y91748D01*
X170651Y90748D01*
X169652D01*
X171651Y91748D02*
Y93747D01*
X316999Y240998D02*
X315999Y241998D01*
X314000D01*
X313000Y240998D01*
Y237000D01*
X314000Y236000D01*
X315999D01*
X316999Y237000D01*
X318998Y236000D02*
X320997D01*
X319998D01*
Y241998D01*
X318998Y240998D01*
X323996D02*
X324996Y241998D01*
X326995D01*
X327995Y240998D01*
Y237000D01*
X326995Y236000D01*
X324996D01*
X323996Y237000D01*
Y240998D01*
X139350Y215150D02*
Y209152D01*
X136351D01*
X135351Y210152D01*
Y212151D01*
X136351Y213151D01*
X139350D01*
X133352Y215150D02*
X131353D01*
X132352D01*
Y209152D01*
X133352Y210152D01*
X330650Y281850D02*
Y287848D01*
X333649D01*
X334649Y286848D01*
Y284849D01*
X333649Y283849D01*
X330650D01*
X340647Y281850D02*
X336648D01*
X340647Y285849D01*
Y286848D01*
X339647Y287848D01*
X337648D01*
X336648Y286848D01*
D46*
X307805Y256279D02*
G03*
X309085Y256279I640J0D01*
G01*
X243776Y252484D02*
G03*
X244760Y252484I492J0D01*
G01*
X212681Y97028D02*
G03*
X208154Y97028I-2264J-12525D01*
G01*
X249766Y342870D02*
G03*
X251636Y342870I935J0D01*
G01*
X310906Y248602D02*
Y256279D01*
X306575Y248602D02*
X310906D01*
X306575D02*
Y256279D01*
X309085D01*
X307805D02*
X310906D01*
X239150Y242642D02*
Y252484D01*
Y242642D02*
X250173D01*
Y252484D01*
X244760D02*
X250173D01*
X239150D02*
X243776D01*
X277626Y126657D02*
Y136500D01*
X243374Y126657D02*
X277626D01*
X243374D02*
Y146343D01*
X277626D01*
Y136500D02*
Y146343D01*
X240606Y137500D02*
Y147343D01*
X204675D02*
X240606D01*
X201394Y144062D02*
X204675Y147343D01*
X201394Y130938D02*
Y144062D01*
Y130938D02*
X204675Y127657D01*
X240606D01*
Y137500D01*
X194941Y190000D02*
X200059D01*
X175941Y169000D02*
X181059D01*
X190941Y168500D02*
X196059D01*
X263500Y320941D02*
Y326059D01*
X223925Y334547D02*
X227075D01*
X223925Y340453D02*
X227075D01*
X222181Y347425D02*
Y350575D01*
X219819D02*
X222181D01*
X219819Y347425D02*
Y350575D01*
Y347425D02*
X222181D01*
X206618Y69862D02*
Y97028D01*
Y69862D02*
X214216D01*
Y97028D01*
X212681D02*
X214216D01*
X206618D02*
X208154D01*
X277658Y223394D02*
X287500D01*
X277658D02*
Y261504D01*
X278760Y262606D01*
X296240D01*
X297342Y261504D01*
Y223394D02*
Y261504D01*
X287500Y223394D02*
X297342D01*
X143658Y65394D02*
X153500D01*
X143658D02*
Y103504D01*
X144760Y104606D01*
X162240D01*
X163342Y103504D01*
Y65394D02*
Y103504D01*
X153500Y65394D02*
X163342D01*
X243425Y236224D02*
X246575D01*
X243425Y226776D02*
X246575D01*
X262000Y266941D02*
Y272059D01*
X208307Y253350D02*
X229961D01*
Y259650D01*
X200827D02*
X229961D01*
X200827Y253350D02*
Y259650D01*
Y253350D02*
X208307D01*
X245000Y266941D02*
Y272059D01*
X258500Y257441D02*
Y262559D01*
X233441Y287000D02*
X238559D01*
X340000Y218500D02*
Y278500D01*
X330000Y218500D02*
Y278500D01*
Y218500D02*
X340000D01*
X330000Y278500D02*
X340000D01*
X130000Y218500D02*
Y278500D01*
X140000Y218500D02*
Y278500D01*
X130000D02*
X140000D01*
X130000Y218500D02*
X140000D01*
X249766Y342870D02*
X253555D01*
X248043D02*
X251636D01*
X248043Y331650D02*
Y342870D01*
Y331650D02*
X253555D01*
Y342870D01*
M02*
