%FSLAX25Y25*%
%MOIN*%
G70*
G01*
G75*
G04 Layer_Color=8388736*
%ADD10C,0.03000*%
%ADD11C,0.02000*%
%ADD12C,0.01000*%
%ADD13C,0.01500*%
%ADD14C,0.01200*%
%ADD15O,0.02756X0.01181*%
%ADD16R,0.02756X0.01181*%
%ADD17O,0.04724X0.01221*%
%ADD18R,0.04724X0.01221*%
%ADD19R,0.06693X0.13000*%
G04:AMPARAMS|DCode=20|XSize=66.93mil|YSize=130mil|CornerRadius=0mil|HoleSize=0mil|Usage=FLASHONLY|Rotation=180.000|XOffset=0mil|YOffset=0mil|HoleType=Round|Shape=Octagon|*
%AMOCTAGOND20*
4,1,8,0.01673,-0.06500,-0.01673,-0.06500,-0.03347,-0.04827,-0.03347,0.04827,-0.01673,0.06500,0.01673,0.06500,0.03347,0.04827,0.03347,-0.04827,0.01673,-0.06500,0.0*
%
%ADD20OCTAGOND20*%

G04:AMPARAMS|DCode=21|XSize=78.74mil|YSize=98.43mil|CornerRadius=0mil|HoleSize=0mil|Usage=FLASHONLY|Rotation=180.000|XOffset=0mil|YOffset=0mil|HoleType=Round|Shape=Octagon|*
%AMOCTAGOND21*
4,1,8,0.01969,-0.04921,-0.01969,-0.04921,-0.03937,-0.02953,-0.03937,0.02953,-0.01969,0.04921,0.01969,0.04921,0.03937,0.02953,0.03937,-0.02953,0.01969,-0.04921,0.0*
%
%ADD21OCTAGOND21*%

%ADD22R,0.07874X0.09843*%
%ADD23R,0.04331X0.05512*%
%ADD24R,0.10906X0.16732*%
%ADD25R,0.05906X0.05512*%
%ADD26R,0.06000X0.06000*%
%ADD27R,0.05500X0.03000*%
%ADD28O,0.05500X0.03000*%
%ADD29R,0.05512X0.05906*%
%ADD30R,0.04331X0.06693*%
%ADD31R,0.05512X0.02559*%
G04:AMPARAMS|DCode=32|XSize=55.12mil|YSize=25.59mil|CornerRadius=0mil|HoleSize=0mil|Usage=FLASHONLY|Rotation=180.000|XOffset=0mil|YOffset=0mil|HoleType=Round|Shape=Octagon|*
%AMOCTAGOND32*
4,1,8,-0.02756,0.00640,-0.02756,-0.00640,-0.02116,-0.01280,0.02116,-0.01280,0.02756,-0.00640,0.02756,0.00640,0.02116,0.01280,-0.02116,0.01280,-0.02756,0.00640,0.0*
%
%ADD32OCTAGOND32*%

%ADD33R,0.08661X0.12795*%
%ADD34O,0.08661X0.03937*%
%ADD35R,0.08661X0.03937*%
%ADD36R,0.16732X0.10906*%
%ADD37R,0.04331X0.10236*%
%ADD38R,0.05512X0.04331*%
%ADD39R,0.28740X0.10433*%
%ADD40R,0.06496X0.01969*%
%ADD41O,0.06496X0.01969*%
%ADD42C,0.02500*%
%ADD43C,0.05906*%
%ADD44R,0.05906X0.05906*%
%ADD45C,0.06000*%
%ADD46C,0.00787*%
%ADD47O,0.03556X0.01981*%
%ADD48R,0.03556X0.01981*%
%ADD49O,0.05524X0.02021*%
%ADD50R,0.05524X0.02021*%
%ADD51R,0.07493X0.13800*%
G04:AMPARAMS|DCode=52|XSize=74.93mil|YSize=138mil|CornerRadius=0mil|HoleSize=0mil|Usage=FLASHONLY|Rotation=180.000|XOffset=0mil|YOffset=0mil|HoleType=Round|Shape=Octagon|*
%AMOCTAGOND52*
4,1,8,0.01873,-0.06900,-0.01873,-0.06900,-0.03747,-0.05027,-0.03747,0.05027,-0.01873,0.06900,0.01873,0.06900,0.03747,0.05027,0.03747,-0.05027,0.01873,-0.06900,0.0*
%
%ADD52OCTAGOND52*%

G04:AMPARAMS|DCode=53|XSize=86.74mil|YSize=106.42mil|CornerRadius=0mil|HoleSize=0mil|Usage=FLASHONLY|Rotation=180.000|XOffset=0mil|YOffset=0mil|HoleType=Round|Shape=Octagon|*
%AMOCTAGOND53*
4,1,8,0.02169,-0.05321,-0.02169,-0.05321,-0.04337,-0.03153,-0.04337,0.03153,-0.02169,0.05321,0.02169,0.05321,0.04337,0.03153,0.04337,-0.03153,0.02169,-0.05321,0.0*
%
%ADD53OCTAGOND53*%

%ADD54R,0.08674X0.10642*%
%ADD55R,0.05131X0.06312*%
%ADD56R,0.11706X0.17532*%
%ADD57R,0.06706X0.06312*%
%ADD58R,0.06800X0.06800*%
%ADD59R,0.06300X0.03800*%
%ADD60O,0.06300X0.03800*%
%ADD61R,0.06312X0.06706*%
%ADD62R,0.05131X0.07493*%
%ADD63R,0.06312X0.03359*%
G04:AMPARAMS|DCode=64|XSize=63.12mil|YSize=33.59mil|CornerRadius=0mil|HoleSize=0mil|Usage=FLASHONLY|Rotation=180.000|XOffset=0mil|YOffset=0mil|HoleType=Round|Shape=Octagon|*
%AMOCTAGOND64*
4,1,8,-0.03156,0.00840,-0.03156,-0.00840,-0.02316,-0.01680,0.02316,-0.01680,0.03156,-0.00840,0.03156,0.00840,0.02316,0.01680,-0.02316,0.01680,-0.03156,0.00840,0.0*
%
%ADD64OCTAGOND64*%

%ADD65R,0.09461X0.13595*%
%ADD66O,0.09461X0.04737*%
%ADD67R,0.09461X0.04737*%
%ADD68R,0.17532X0.11706*%
%ADD69R,0.05131X0.11036*%
%ADD70R,0.06312X0.05131*%
%ADD71R,0.29540X0.11233*%
%ADD72R,0.07296X0.02769*%
%ADD73O,0.07296X0.02769*%
%ADD74C,0.06706*%
%ADD75R,0.06706X0.06706*%
%ADD76C,0.06800*%
D47*
X312480Y249882D02*
D03*
Y252441D02*
D03*
Y255000D02*
D03*
X305000Y249882D02*
D03*
Y252441D02*
D03*
D48*
Y255000D02*
D03*
D49*
X253323Y243626D02*
D03*
Y245595D02*
D03*
Y247563D02*
D03*
Y249532D02*
D03*
Y251500D02*
D03*
X236000Y243626D02*
D03*
Y245595D02*
D03*
Y247563D02*
D03*
Y249532D02*
D03*
D50*
Y251500D02*
D03*
D51*
X223750Y189500D02*
D03*
D52*
X240250D02*
D03*
D53*
X252232Y136500D02*
D03*
D54*
X268768D02*
D03*
D55*
X206547Y201000D02*
D03*
X212453D02*
D03*
X254047Y349500D02*
D03*
X259953D02*
D03*
X240547Y260500D02*
D03*
X246453D02*
D03*
D56*
X233677Y137500D02*
D03*
X208323D02*
D03*
D57*
X197500Y186063D02*
D03*
Y193937D02*
D03*
X178500Y165063D02*
D03*
Y172937D02*
D03*
X193500Y172437D02*
D03*
Y164563D02*
D03*
X236000Y290937D02*
D03*
Y283063D02*
D03*
D58*
X257500Y152750D02*
D03*
Y171250D02*
D03*
X239000Y366750D02*
D03*
Y348250D02*
D03*
D59*
X214500Y177000D02*
D03*
D60*
Y172000D02*
D03*
Y167000D02*
D03*
Y162000D02*
D03*
X235000Y177000D02*
D03*
Y172000D02*
D03*
Y167000D02*
D03*
Y162000D02*
D03*
D61*
X259563Y323500D02*
D03*
X267437D02*
D03*
X265937Y269500D02*
D03*
X258063D02*
D03*
X248937D02*
D03*
X241063D02*
D03*
X254563Y260000D02*
D03*
X262437D02*
D03*
D62*
X230815Y337500D02*
D03*
X220185D02*
D03*
D63*
X225823Y349000D02*
D03*
D64*
X216177D02*
D03*
D65*
X221835Y83445D02*
D03*
D66*
X199000Y74390D02*
D03*
Y83445D02*
D03*
D67*
Y92500D02*
D03*
D68*
X287500Y255677D02*
D03*
Y230323D02*
D03*
X153500Y97677D02*
D03*
Y72323D02*
D03*
D69*
X239685Y231500D02*
D03*
X250315D02*
D03*
D70*
X262500Y239547D02*
D03*
Y245453D02*
D03*
X322500Y254453D02*
D03*
Y248547D02*
D03*
X181000Y86547D02*
D03*
Y92453D02*
D03*
D71*
X215000Y247346D02*
D03*
Y265653D02*
D03*
D72*
X244500Y341000D02*
D03*
D73*
Y337260D02*
D03*
Y333520D02*
D03*
X256902Y341000D02*
D03*
Y337260D02*
D03*
Y333520D02*
D03*
D74*
X335000Y273500D02*
D03*
Y263500D02*
D03*
Y253500D02*
D03*
Y243500D02*
D03*
Y233500D02*
D03*
X135000Y223500D02*
D03*
Y233500D02*
D03*
Y243500D02*
D03*
Y253500D02*
D03*
Y263500D02*
D03*
D75*
X335000Y223500D02*
D03*
X135000Y273500D02*
D03*
D76*
X205500Y157500D02*
D03*
X285000Y149500D02*
D03*
X187000Y152000D02*
D03*
X179500D02*
D03*
X172500D02*
D03*
Y142500D02*
D03*
X179500D02*
D03*
X187000D02*
D03*
X334500Y300500D02*
D03*
X327000D02*
D03*
X318500Y300000D02*
D03*
X319000Y292000D02*
D03*
Y263000D02*
D03*
X201000Y233500D02*
D03*
Y225500D02*
D03*
X209500D02*
D03*
X217500Y233500D02*
D03*
X218000Y225000D02*
D03*
X209500Y233500D02*
D03*
X259500Y229500D02*
D03*
Y212500D02*
D03*
X241000Y314500D02*
D03*
X229000D02*
D03*
X217000D02*
D03*
X240000Y94500D02*
D03*
Y83500D02*
D03*
Y71500D02*
D03*
X252000Y72000D02*
D03*
Y83500D02*
D03*
Y94000D02*
D03*
X150000Y296500D02*
D03*
X159500Y305000D02*
D03*
X169000Y314500D02*
D03*
X303500Y312000D02*
D03*
Y263500D02*
D03*
X299000Y209500D02*
D03*
X318500Y236500D02*
D03*
X313500Y208500D02*
D03*
X259500Y278000D02*
D03*
M02*
